%TF.GenerationSoftware,KiCad,Pcbnew,(6.0.0)*%
%TF.CreationDate,2022-01-14T16:11:58-08:00*%
%TF.ProjectId,nrf5340_qkaa_rev1_sensor,6e726635-3334-4305-9f71-6b61615f7265,rev?*%
%TF.SameCoordinates,Original*%
%TF.FileFunction,Legend,Top*%
%TF.FilePolarity,Positive*%
%FSLAX46Y46*%
G04 Gerber Fmt 4.6, Leading zero omitted, Abs format (unit mm)*
G04 Created by KiCad (PCBNEW (6.0.0)) date 2022-01-14 16:11:58*
%MOMM*%
%LPD*%
G01*
G04 APERTURE LIST*
%ADD10C,0.120000*%
%ADD11C,0.100000*%
%ADD12C,0.060000*%
%ADD13C,0.260000*%
%ADD14C,0.025000*%
%ADD15C,0.020000*%
G04 APERTURE END LIST*
D10*
X58493428Y-75638095D02*
X58417238Y-75600000D01*
X58341047Y-75523809D01*
X58226761Y-75409523D01*
X58150571Y-75371428D01*
X58074380Y-75371428D01*
X58112476Y-75561904D02*
X58036285Y-75523809D01*
X57960095Y-75447619D01*
X57922000Y-75295238D01*
X57922000Y-75028571D01*
X57960095Y-74876190D01*
X58036285Y-74800000D01*
X58112476Y-74761904D01*
X58264857Y-74761904D01*
X58341047Y-74800000D01*
X58417238Y-74876190D01*
X58455333Y-75028571D01*
X58455333Y-75295238D01*
X58417238Y-75447619D01*
X58341047Y-75523809D01*
X58264857Y-75561904D01*
X58112476Y-75561904D01*
X58760095Y-75523809D02*
X58874380Y-75561904D01*
X59064857Y-75561904D01*
X59141047Y-75523809D01*
X59179142Y-75485714D01*
X59217238Y-75409523D01*
X59217238Y-75333333D01*
X59179142Y-75257142D01*
X59141047Y-75219047D01*
X59064857Y-75180952D01*
X58912476Y-75142857D01*
X58836285Y-75104761D01*
X58798190Y-75066666D01*
X58760095Y-74990476D01*
X58760095Y-74914285D01*
X58798190Y-74838095D01*
X58836285Y-74800000D01*
X58912476Y-74761904D01*
X59102952Y-74761904D01*
X59217238Y-74800000D01*
X59560095Y-75561904D02*
X59560095Y-74761904D01*
X59864857Y-74761904D01*
X59941047Y-74800000D01*
X59979142Y-74838095D01*
X60017238Y-74914285D01*
X60017238Y-75028571D01*
X59979142Y-75104761D01*
X59941047Y-75142857D01*
X59864857Y-75180952D01*
X59560095Y-75180952D01*
X60360095Y-75561904D02*
X60360095Y-74761904D01*
X60550571Y-75638095D02*
X61160095Y-75638095D01*
X61502952Y-74761904D02*
X61579142Y-74761904D01*
X61655333Y-74800000D01*
X61693428Y-74838095D01*
X61731523Y-74914285D01*
X61769619Y-75066666D01*
X61769619Y-75257142D01*
X61731523Y-75409523D01*
X61693428Y-75485714D01*
X61655333Y-75523809D01*
X61579142Y-75561904D01*
X61502952Y-75561904D01*
X61426761Y-75523809D01*
X61388666Y-75485714D01*
X61350571Y-75409523D01*
X61312476Y-75257142D01*
X61312476Y-75066666D01*
X61350571Y-74914285D01*
X61388666Y-74838095D01*
X61426761Y-74800000D01*
X61502952Y-74761904D01*
X58493428Y-80678095D02*
X58417238Y-80640000D01*
X58341047Y-80563809D01*
X58226761Y-80449523D01*
X58150571Y-80411428D01*
X58074380Y-80411428D01*
X58112476Y-80601904D02*
X58036285Y-80563809D01*
X57960095Y-80487619D01*
X57922000Y-80335238D01*
X57922000Y-80068571D01*
X57960095Y-79916190D01*
X58036285Y-79840000D01*
X58112476Y-79801904D01*
X58264857Y-79801904D01*
X58341047Y-79840000D01*
X58417238Y-79916190D01*
X58455333Y-80068571D01*
X58455333Y-80335238D01*
X58417238Y-80487619D01*
X58341047Y-80563809D01*
X58264857Y-80601904D01*
X58112476Y-80601904D01*
X58760095Y-80563809D02*
X58874380Y-80601904D01*
X59064857Y-80601904D01*
X59141047Y-80563809D01*
X59179142Y-80525714D01*
X59217238Y-80449523D01*
X59217238Y-80373333D01*
X59179142Y-80297142D01*
X59141047Y-80259047D01*
X59064857Y-80220952D01*
X58912476Y-80182857D01*
X58836285Y-80144761D01*
X58798190Y-80106666D01*
X58760095Y-80030476D01*
X58760095Y-79954285D01*
X58798190Y-79878095D01*
X58836285Y-79840000D01*
X58912476Y-79801904D01*
X59102952Y-79801904D01*
X59217238Y-79840000D01*
X59560095Y-80601904D02*
X59560095Y-79801904D01*
X59864857Y-79801904D01*
X59941047Y-79840000D01*
X59979142Y-79878095D01*
X60017238Y-79954285D01*
X60017238Y-80068571D01*
X59979142Y-80144761D01*
X59941047Y-80182857D01*
X59864857Y-80220952D01*
X59560095Y-80220952D01*
X60360095Y-80601904D02*
X60360095Y-79801904D01*
X60550571Y-80678095D02*
X61160095Y-80678095D01*
X61274380Y-79801904D02*
X61769619Y-79801904D01*
X61502952Y-80106666D01*
X61617238Y-80106666D01*
X61693428Y-80144761D01*
X61731523Y-80182857D01*
X61769619Y-80259047D01*
X61769619Y-80449523D01*
X61731523Y-80525714D01*
X61693428Y-80563809D01*
X61617238Y-80601904D01*
X61388666Y-80601904D01*
X61312476Y-80563809D01*
X61274380Y-80525714D01*
X57007714Y-78228095D02*
X56931523Y-78190000D01*
X56855333Y-78113809D01*
X56741047Y-77999523D01*
X56664857Y-77961428D01*
X56588666Y-77961428D01*
X56626761Y-78151904D02*
X56550571Y-78113809D01*
X56474380Y-78037619D01*
X56436285Y-77885238D01*
X56436285Y-77618571D01*
X56474380Y-77466190D01*
X56550571Y-77390000D01*
X56626761Y-77351904D01*
X56779142Y-77351904D01*
X56855333Y-77390000D01*
X56931523Y-77466190D01*
X56969619Y-77618571D01*
X56969619Y-77885238D01*
X56931523Y-78037619D01*
X56855333Y-78113809D01*
X56779142Y-78151904D01*
X56626761Y-78151904D01*
X57274380Y-78113809D02*
X57388666Y-78151904D01*
X57579142Y-78151904D01*
X57655333Y-78113809D01*
X57693428Y-78075714D01*
X57731523Y-77999523D01*
X57731523Y-77923333D01*
X57693428Y-77847142D01*
X57655333Y-77809047D01*
X57579142Y-77770952D01*
X57426761Y-77732857D01*
X57350571Y-77694761D01*
X57312476Y-77656666D01*
X57274380Y-77580476D01*
X57274380Y-77504285D01*
X57312476Y-77428095D01*
X57350571Y-77390000D01*
X57426761Y-77351904D01*
X57617238Y-77351904D01*
X57731523Y-77390000D01*
X58074380Y-78151904D02*
X58074380Y-77351904D01*
X58379142Y-77351904D01*
X58455333Y-77390000D01*
X58493428Y-77428095D01*
X58531523Y-77504285D01*
X58531523Y-77618571D01*
X58493428Y-77694761D01*
X58455333Y-77732857D01*
X58379142Y-77770952D01*
X58074380Y-77770952D01*
X58874380Y-78151904D02*
X58874380Y-77351904D01*
X59064857Y-78228095D02*
X59674380Y-78228095D01*
X60322000Y-78075714D02*
X60283904Y-78113809D01*
X60169619Y-78151904D01*
X60093428Y-78151904D01*
X59979142Y-78113809D01*
X59902952Y-78037619D01*
X59864857Y-77961428D01*
X59826761Y-77809047D01*
X59826761Y-77694761D01*
X59864857Y-77542380D01*
X59902952Y-77466190D01*
X59979142Y-77390000D01*
X60093428Y-77351904D01*
X60169619Y-77351904D01*
X60283904Y-77390000D01*
X60322000Y-77428095D01*
X61045809Y-78151904D02*
X60664857Y-78151904D01*
X60664857Y-77351904D01*
X61312476Y-78151904D02*
X61312476Y-77351904D01*
X61769619Y-78151904D02*
X61426761Y-77694761D01*
X61769619Y-77351904D02*
X61312476Y-77809047D01*
X103840476Y-83381904D02*
X103459523Y-83381904D01*
X103421428Y-83762857D01*
X103459523Y-83724761D01*
X103535714Y-83686666D01*
X103726190Y-83686666D01*
X103802380Y-83724761D01*
X103840476Y-83762857D01*
X103878571Y-83839047D01*
X103878571Y-84029523D01*
X103840476Y-84105714D01*
X103802380Y-84143809D01*
X103726190Y-84181904D01*
X103535714Y-84181904D01*
X103459523Y-84143809D01*
X103421428Y-84105714D01*
X108761333Y-82378571D02*
X108761333Y-82911904D01*
X108570857Y-82073809D02*
X108380380Y-82645238D01*
X108875619Y-82645238D01*
X57693428Y-67948095D02*
X57617238Y-67910000D01*
X57541047Y-67833809D01*
X57426761Y-67719523D01*
X57350571Y-67681428D01*
X57274380Y-67681428D01*
X57312476Y-67871904D02*
X57236285Y-67833809D01*
X57160095Y-67757619D01*
X57122000Y-67605238D01*
X57122000Y-67338571D01*
X57160095Y-67186190D01*
X57236285Y-67110000D01*
X57312476Y-67071904D01*
X57464857Y-67071904D01*
X57541047Y-67110000D01*
X57617238Y-67186190D01*
X57655333Y-67338571D01*
X57655333Y-67605238D01*
X57617238Y-67757619D01*
X57541047Y-67833809D01*
X57464857Y-67871904D01*
X57312476Y-67871904D01*
X57960095Y-67833809D02*
X58074380Y-67871904D01*
X58264857Y-67871904D01*
X58341047Y-67833809D01*
X58379142Y-67795714D01*
X58417238Y-67719523D01*
X58417238Y-67643333D01*
X58379142Y-67567142D01*
X58341047Y-67529047D01*
X58264857Y-67490952D01*
X58112476Y-67452857D01*
X58036285Y-67414761D01*
X57998190Y-67376666D01*
X57960095Y-67300476D01*
X57960095Y-67224285D01*
X57998190Y-67148095D01*
X58036285Y-67110000D01*
X58112476Y-67071904D01*
X58302952Y-67071904D01*
X58417238Y-67110000D01*
X58760095Y-67871904D02*
X58760095Y-67071904D01*
X59064857Y-67071904D01*
X59141047Y-67110000D01*
X59179142Y-67148095D01*
X59217238Y-67224285D01*
X59217238Y-67338571D01*
X59179142Y-67414761D01*
X59141047Y-67452857D01*
X59064857Y-67490952D01*
X58760095Y-67490952D01*
X59560095Y-67871904D02*
X59560095Y-67071904D01*
X59750571Y-67948095D02*
X60360095Y-67948095D01*
X61007714Y-67795714D02*
X60969619Y-67833809D01*
X60855333Y-67871904D01*
X60779142Y-67871904D01*
X60664857Y-67833809D01*
X60588666Y-67757619D01*
X60550571Y-67681428D01*
X60512476Y-67529047D01*
X60512476Y-67414761D01*
X60550571Y-67262380D01*
X60588666Y-67186190D01*
X60664857Y-67110000D01*
X60779142Y-67071904D01*
X60855333Y-67071904D01*
X60969619Y-67110000D01*
X61007714Y-67148095D01*
X61312476Y-67833809D02*
X61426761Y-67871904D01*
X61617238Y-67871904D01*
X61693428Y-67833809D01*
X61731523Y-67795714D01*
X61769619Y-67719523D01*
X61769619Y-67643333D01*
X61731523Y-67567142D01*
X61693428Y-67529047D01*
X61617238Y-67490952D01*
X61464857Y-67452857D01*
X61388666Y-67414761D01*
X61350571Y-67376666D01*
X61312476Y-67300476D01*
X61312476Y-67224285D01*
X61350571Y-67148095D01*
X61388666Y-67110000D01*
X61464857Y-67071904D01*
X61655333Y-67071904D01*
X61769619Y-67110000D01*
X58493428Y-72998095D02*
X58417238Y-72960000D01*
X58341047Y-72883809D01*
X58226761Y-72769523D01*
X58150571Y-72731428D01*
X58074380Y-72731428D01*
X58112476Y-72921904D02*
X58036285Y-72883809D01*
X57960095Y-72807619D01*
X57922000Y-72655238D01*
X57922000Y-72388571D01*
X57960095Y-72236190D01*
X58036285Y-72160000D01*
X58112476Y-72121904D01*
X58264857Y-72121904D01*
X58341047Y-72160000D01*
X58417238Y-72236190D01*
X58455333Y-72388571D01*
X58455333Y-72655238D01*
X58417238Y-72807619D01*
X58341047Y-72883809D01*
X58264857Y-72921904D01*
X58112476Y-72921904D01*
X58760095Y-72883809D02*
X58874380Y-72921904D01*
X59064857Y-72921904D01*
X59141047Y-72883809D01*
X59179142Y-72845714D01*
X59217238Y-72769523D01*
X59217238Y-72693333D01*
X59179142Y-72617142D01*
X59141047Y-72579047D01*
X59064857Y-72540952D01*
X58912476Y-72502857D01*
X58836285Y-72464761D01*
X58798190Y-72426666D01*
X58760095Y-72350476D01*
X58760095Y-72274285D01*
X58798190Y-72198095D01*
X58836285Y-72160000D01*
X58912476Y-72121904D01*
X59102952Y-72121904D01*
X59217238Y-72160000D01*
X59560095Y-72921904D02*
X59560095Y-72121904D01*
X59864857Y-72121904D01*
X59941047Y-72160000D01*
X59979142Y-72198095D01*
X60017238Y-72274285D01*
X60017238Y-72388571D01*
X59979142Y-72464761D01*
X59941047Y-72502857D01*
X59864857Y-72540952D01*
X59560095Y-72540952D01*
X60360095Y-72921904D02*
X60360095Y-72121904D01*
X60550571Y-72998095D02*
X61160095Y-72998095D01*
X61312476Y-72198095D02*
X61350571Y-72160000D01*
X61426761Y-72121904D01*
X61617238Y-72121904D01*
X61693428Y-72160000D01*
X61731523Y-72198095D01*
X61769619Y-72274285D01*
X61769619Y-72350476D01*
X61731523Y-72464761D01*
X61274380Y-72921904D01*
X61769619Y-72921904D01*
X58493428Y-70578095D02*
X58417238Y-70540000D01*
X58341047Y-70463809D01*
X58226761Y-70349523D01*
X58150571Y-70311428D01*
X58074380Y-70311428D01*
X58112476Y-70501904D02*
X58036285Y-70463809D01*
X57960095Y-70387619D01*
X57922000Y-70235238D01*
X57922000Y-69968571D01*
X57960095Y-69816190D01*
X58036285Y-69740000D01*
X58112476Y-69701904D01*
X58264857Y-69701904D01*
X58341047Y-69740000D01*
X58417238Y-69816190D01*
X58455333Y-69968571D01*
X58455333Y-70235238D01*
X58417238Y-70387619D01*
X58341047Y-70463809D01*
X58264857Y-70501904D01*
X58112476Y-70501904D01*
X58760095Y-70463809D02*
X58874380Y-70501904D01*
X59064857Y-70501904D01*
X59141047Y-70463809D01*
X59179142Y-70425714D01*
X59217238Y-70349523D01*
X59217238Y-70273333D01*
X59179142Y-70197142D01*
X59141047Y-70159047D01*
X59064857Y-70120952D01*
X58912476Y-70082857D01*
X58836285Y-70044761D01*
X58798190Y-70006666D01*
X58760095Y-69930476D01*
X58760095Y-69854285D01*
X58798190Y-69778095D01*
X58836285Y-69740000D01*
X58912476Y-69701904D01*
X59102952Y-69701904D01*
X59217238Y-69740000D01*
X59560095Y-70501904D02*
X59560095Y-69701904D01*
X59864857Y-69701904D01*
X59941047Y-69740000D01*
X59979142Y-69778095D01*
X60017238Y-69854285D01*
X60017238Y-69968571D01*
X59979142Y-70044761D01*
X59941047Y-70082857D01*
X59864857Y-70120952D01*
X59560095Y-70120952D01*
X60360095Y-70501904D02*
X60360095Y-69701904D01*
X60550571Y-70578095D02*
X61160095Y-70578095D01*
X61769619Y-70501904D02*
X61312476Y-70501904D01*
X61541047Y-70501904D02*
X61541047Y-69701904D01*
X61464857Y-69816190D01*
X61388666Y-69892380D01*
X61312476Y-69930476D01*
%TO.C,R2*%
X72221904Y-76404380D02*
X71840952Y-76671047D01*
X72221904Y-76861523D02*
X71421904Y-76861523D01*
X71421904Y-76556761D01*
X71460000Y-76480571D01*
X71498095Y-76442476D01*
X71574285Y-76404380D01*
X71688571Y-76404380D01*
X71764761Y-76442476D01*
X71802857Y-76480571D01*
X71840952Y-76556761D01*
X71840952Y-76861523D01*
X71498095Y-76099619D02*
X71460000Y-76061523D01*
X71421904Y-75985333D01*
X71421904Y-75794857D01*
X71460000Y-75718666D01*
X71498095Y-75680571D01*
X71574285Y-75642476D01*
X71650476Y-75642476D01*
X71764761Y-75680571D01*
X72221904Y-76137714D01*
X72221904Y-75642476D01*
%TO.C,C19*%
X71795619Y-74585714D02*
X71757523Y-74623809D01*
X71643238Y-74661904D01*
X71567047Y-74661904D01*
X71452761Y-74623809D01*
X71376571Y-74547619D01*
X71338476Y-74471428D01*
X71300380Y-74319047D01*
X71300380Y-74204761D01*
X71338476Y-74052380D01*
X71376571Y-73976190D01*
X71452761Y-73900000D01*
X71567047Y-73861904D01*
X71643238Y-73861904D01*
X71757523Y-73900000D01*
X71795619Y-73938095D01*
X72557523Y-74661904D02*
X72100380Y-74661904D01*
X72328952Y-74661904D02*
X72328952Y-73861904D01*
X72252761Y-73976190D01*
X72176571Y-74052380D01*
X72100380Y-74090476D01*
X72938476Y-74661904D02*
X73090857Y-74661904D01*
X73167047Y-74623809D01*
X73205142Y-74585714D01*
X73281333Y-74471428D01*
X73319428Y-74319047D01*
X73319428Y-74014285D01*
X73281333Y-73938095D01*
X73243238Y-73900000D01*
X73167047Y-73861904D01*
X73014666Y-73861904D01*
X72938476Y-73900000D01*
X72900380Y-73938095D01*
X72862285Y-74014285D01*
X72862285Y-74204761D01*
X72900380Y-74280952D01*
X72938476Y-74319047D01*
X73014666Y-74357142D01*
X73167047Y-74357142D01*
X73243238Y-74319047D01*
X73281333Y-74280952D01*
X73319428Y-74204761D01*
%TO.C,C10*%
X95585714Y-80414380D02*
X95623809Y-80452476D01*
X95661904Y-80566761D01*
X95661904Y-80642952D01*
X95623809Y-80757238D01*
X95547619Y-80833428D01*
X95471428Y-80871523D01*
X95319047Y-80909619D01*
X95204761Y-80909619D01*
X95052380Y-80871523D01*
X94976190Y-80833428D01*
X94900000Y-80757238D01*
X94861904Y-80642952D01*
X94861904Y-80566761D01*
X94900000Y-80452476D01*
X94938095Y-80414380D01*
X95661904Y-79652476D02*
X95661904Y-80109619D01*
X95661904Y-79881047D02*
X94861904Y-79881047D01*
X94976190Y-79957238D01*
X95052380Y-80033428D01*
X95090476Y-80109619D01*
X94861904Y-79157238D02*
X94861904Y-79081047D01*
X94900000Y-79004857D01*
X94938095Y-78966761D01*
X95014285Y-78928666D01*
X95166666Y-78890571D01*
X95357142Y-78890571D01*
X95509523Y-78928666D01*
X95585714Y-78966761D01*
X95623809Y-79004857D01*
X95661904Y-79081047D01*
X95661904Y-79157238D01*
X95623809Y-79233428D01*
X95585714Y-79271523D01*
X95509523Y-79309619D01*
X95357142Y-79347714D01*
X95166666Y-79347714D01*
X95014285Y-79309619D01*
X94938095Y-79271523D01*
X94900000Y-79233428D01*
X94861904Y-79157238D01*
%TO.C,C17*%
X94035714Y-65649380D02*
X94073809Y-65687476D01*
X94111904Y-65801761D01*
X94111904Y-65877952D01*
X94073809Y-65992238D01*
X93997619Y-66068428D01*
X93921428Y-66106523D01*
X93769047Y-66144619D01*
X93654761Y-66144619D01*
X93502380Y-66106523D01*
X93426190Y-66068428D01*
X93350000Y-65992238D01*
X93311904Y-65877952D01*
X93311904Y-65801761D01*
X93350000Y-65687476D01*
X93388095Y-65649380D01*
X94111904Y-64887476D02*
X94111904Y-65344619D01*
X94111904Y-65116047D02*
X93311904Y-65116047D01*
X93426190Y-65192238D01*
X93502380Y-65268428D01*
X93540476Y-65344619D01*
X93311904Y-64620809D02*
X93311904Y-64087476D01*
X94111904Y-64430333D01*
%TO.C,C12*%
X101325714Y-80394380D02*
X101363809Y-80432476D01*
X101401904Y-80546761D01*
X101401904Y-80622952D01*
X101363809Y-80737238D01*
X101287619Y-80813428D01*
X101211428Y-80851523D01*
X101059047Y-80889619D01*
X100944761Y-80889619D01*
X100792380Y-80851523D01*
X100716190Y-80813428D01*
X100640000Y-80737238D01*
X100601904Y-80622952D01*
X100601904Y-80546761D01*
X100640000Y-80432476D01*
X100678095Y-80394380D01*
X101401904Y-79632476D02*
X101401904Y-80089619D01*
X101401904Y-79861047D02*
X100601904Y-79861047D01*
X100716190Y-79937238D01*
X100792380Y-80013428D01*
X100830476Y-80089619D01*
X100678095Y-79327714D02*
X100640000Y-79289619D01*
X100601904Y-79213428D01*
X100601904Y-79022952D01*
X100640000Y-78946761D01*
X100678095Y-78908666D01*
X100754285Y-78870571D01*
X100830476Y-78870571D01*
X100944761Y-78908666D01*
X101401904Y-79365809D01*
X101401904Y-78870571D01*
%TO.C,FB1*%
X49763333Y-62292857D02*
X49496666Y-62292857D01*
X49496666Y-62711904D02*
X49496666Y-61911904D01*
X49877619Y-61911904D01*
X50449047Y-62292857D02*
X50563333Y-62330952D01*
X50601428Y-62369047D01*
X50639523Y-62445238D01*
X50639523Y-62559523D01*
X50601428Y-62635714D01*
X50563333Y-62673809D01*
X50487142Y-62711904D01*
X50182380Y-62711904D01*
X50182380Y-61911904D01*
X50449047Y-61911904D01*
X50525238Y-61950000D01*
X50563333Y-61988095D01*
X50601428Y-62064285D01*
X50601428Y-62140476D01*
X50563333Y-62216666D01*
X50525238Y-62254761D01*
X50449047Y-62292857D01*
X50182380Y-62292857D01*
X51401428Y-62711904D02*
X50944285Y-62711904D01*
X51172857Y-62711904D02*
X51172857Y-61911904D01*
X51096666Y-62026190D01*
X51020476Y-62102380D01*
X50944285Y-62140476D01*
%TO.C,R6*%
X98741904Y-60003333D02*
X98360952Y-60270000D01*
X98741904Y-60460476D02*
X97941904Y-60460476D01*
X97941904Y-60155714D01*
X97980000Y-60079523D01*
X98018095Y-60041428D01*
X98094285Y-60003333D01*
X98208571Y-60003333D01*
X98284761Y-60041428D01*
X98322857Y-60079523D01*
X98360952Y-60155714D01*
X98360952Y-60460476D01*
X97941904Y-59317619D02*
X97941904Y-59470000D01*
X97980000Y-59546190D01*
X98018095Y-59584285D01*
X98132380Y-59660476D01*
X98284761Y-59698571D01*
X98589523Y-59698571D01*
X98665714Y-59660476D01*
X98703809Y-59622380D01*
X98741904Y-59546190D01*
X98741904Y-59393809D01*
X98703809Y-59317619D01*
X98665714Y-59279523D01*
X98589523Y-59241428D01*
X98399047Y-59241428D01*
X98322857Y-59279523D01*
X98284761Y-59317619D01*
X98246666Y-59393809D01*
X98246666Y-59546190D01*
X98284761Y-59622380D01*
X98322857Y-59660476D01*
X98399047Y-59698571D01*
%TO.C,FB2*%
X51693333Y-74002857D02*
X51426666Y-74002857D01*
X51426666Y-74421904D02*
X51426666Y-73621904D01*
X51807619Y-73621904D01*
X52379047Y-74002857D02*
X52493333Y-74040952D01*
X52531428Y-74079047D01*
X52569523Y-74155238D01*
X52569523Y-74269523D01*
X52531428Y-74345714D01*
X52493333Y-74383809D01*
X52417142Y-74421904D01*
X52112380Y-74421904D01*
X52112380Y-73621904D01*
X52379047Y-73621904D01*
X52455238Y-73660000D01*
X52493333Y-73698095D01*
X52531428Y-73774285D01*
X52531428Y-73850476D01*
X52493333Y-73926666D01*
X52455238Y-73964761D01*
X52379047Y-74002857D01*
X52112380Y-74002857D01*
X52874285Y-73698095D02*
X52912380Y-73660000D01*
X52988571Y-73621904D01*
X53179047Y-73621904D01*
X53255238Y-73660000D01*
X53293333Y-73698095D01*
X53331428Y-73774285D01*
X53331428Y-73850476D01*
X53293333Y-73964761D01*
X52836190Y-74421904D01*
X53331428Y-74421904D01*
%TO.C,C9*%
X92045619Y-78625714D02*
X92007523Y-78663809D01*
X91893238Y-78701904D01*
X91817047Y-78701904D01*
X91702761Y-78663809D01*
X91626571Y-78587619D01*
X91588476Y-78511428D01*
X91550380Y-78359047D01*
X91550380Y-78244761D01*
X91588476Y-78092380D01*
X91626571Y-78016190D01*
X91702761Y-77940000D01*
X91817047Y-77901904D01*
X91893238Y-77901904D01*
X92007523Y-77940000D01*
X92045619Y-77978095D01*
X92426571Y-78701904D02*
X92578952Y-78701904D01*
X92655142Y-78663809D01*
X92693238Y-78625714D01*
X92769428Y-78511428D01*
X92807523Y-78359047D01*
X92807523Y-78054285D01*
X92769428Y-77978095D01*
X92731333Y-77940000D01*
X92655142Y-77901904D01*
X92502761Y-77901904D01*
X92426571Y-77940000D01*
X92388476Y-77978095D01*
X92350380Y-78054285D01*
X92350380Y-78244761D01*
X92388476Y-78320952D01*
X92426571Y-78359047D01*
X92502761Y-78397142D01*
X92655142Y-78397142D01*
X92731333Y-78359047D01*
X92769428Y-78320952D01*
X92807523Y-78244761D01*
%TO.C,SB10*%
X98553809Y-54890476D02*
X98591904Y-54776190D01*
X98591904Y-54585714D01*
X98553809Y-54509523D01*
X98515714Y-54471428D01*
X98439523Y-54433333D01*
X98363333Y-54433333D01*
X98287142Y-54471428D01*
X98249047Y-54509523D01*
X98210952Y-54585714D01*
X98172857Y-54738095D01*
X98134761Y-54814285D01*
X98096666Y-54852380D01*
X98020476Y-54890476D01*
X97944285Y-54890476D01*
X97868095Y-54852380D01*
X97830000Y-54814285D01*
X97791904Y-54738095D01*
X97791904Y-54547619D01*
X97830000Y-54433333D01*
X98172857Y-53823809D02*
X98210952Y-53709523D01*
X98249047Y-53671428D01*
X98325238Y-53633333D01*
X98439523Y-53633333D01*
X98515714Y-53671428D01*
X98553809Y-53709523D01*
X98591904Y-53785714D01*
X98591904Y-54090476D01*
X97791904Y-54090476D01*
X97791904Y-53823809D01*
X97830000Y-53747619D01*
X97868095Y-53709523D01*
X97944285Y-53671428D01*
X98020476Y-53671428D01*
X98096666Y-53709523D01*
X98134761Y-53747619D01*
X98172857Y-53823809D01*
X98172857Y-54090476D01*
X98591904Y-52871428D02*
X98591904Y-53328571D01*
X98591904Y-53100000D02*
X97791904Y-53100000D01*
X97906190Y-53176190D01*
X97982380Y-53252380D01*
X98020476Y-53328571D01*
X97791904Y-52376190D02*
X97791904Y-52300000D01*
X97830000Y-52223809D01*
X97868095Y-52185714D01*
X97944285Y-52147619D01*
X98096666Y-52109523D01*
X98287142Y-52109523D01*
X98439523Y-52147619D01*
X98515714Y-52185714D01*
X98553809Y-52223809D01*
X98591904Y-52300000D01*
X98591904Y-52376190D01*
X98553809Y-52452380D01*
X98515714Y-52490476D01*
X98439523Y-52528571D01*
X98287142Y-52566666D01*
X98096666Y-52566666D01*
X97944285Y-52528571D01*
X97868095Y-52490476D01*
X97830000Y-52452380D01*
X97791904Y-52376190D01*
%TO.C,C20*%
X96885714Y-66199380D02*
X96923809Y-66237476D01*
X96961904Y-66351761D01*
X96961904Y-66427952D01*
X96923809Y-66542238D01*
X96847619Y-66618428D01*
X96771428Y-66656523D01*
X96619047Y-66694619D01*
X96504761Y-66694619D01*
X96352380Y-66656523D01*
X96276190Y-66618428D01*
X96200000Y-66542238D01*
X96161904Y-66427952D01*
X96161904Y-66351761D01*
X96200000Y-66237476D01*
X96238095Y-66199380D01*
X96238095Y-65894619D02*
X96200000Y-65856523D01*
X96161904Y-65780333D01*
X96161904Y-65589857D01*
X96200000Y-65513666D01*
X96238095Y-65475571D01*
X96314285Y-65437476D01*
X96390476Y-65437476D01*
X96504761Y-65475571D01*
X96961904Y-65932714D01*
X96961904Y-65437476D01*
X96161904Y-64942238D02*
X96161904Y-64866047D01*
X96200000Y-64789857D01*
X96238095Y-64751761D01*
X96314285Y-64713666D01*
X96466666Y-64675571D01*
X96657142Y-64675571D01*
X96809523Y-64713666D01*
X96885714Y-64751761D01*
X96923809Y-64789857D01*
X96961904Y-64866047D01*
X96961904Y-64942238D01*
X96923809Y-65018428D01*
X96885714Y-65056523D01*
X96809523Y-65094619D01*
X96657142Y-65132714D01*
X96466666Y-65132714D01*
X96314285Y-65094619D01*
X96238095Y-65056523D01*
X96200000Y-65018428D01*
X96161904Y-64942238D01*
%TO.C,X2*%
X89642380Y-75311904D02*
X90175714Y-76111904D01*
X90175714Y-75311904D02*
X89642380Y-76111904D01*
X90442380Y-75388095D02*
X90480476Y-75350000D01*
X90556666Y-75311904D01*
X90747142Y-75311904D01*
X90823333Y-75350000D01*
X90861428Y-75388095D01*
X90899523Y-75464285D01*
X90899523Y-75540476D01*
X90861428Y-75654761D01*
X90404285Y-76111904D01*
X90899523Y-76111904D01*
%TO.C,SB5*%
X65640476Y-75453809D02*
X65754761Y-75491904D01*
X65945238Y-75491904D01*
X66021428Y-75453809D01*
X66059523Y-75415714D01*
X66097619Y-75339523D01*
X66097619Y-75263333D01*
X66059523Y-75187142D01*
X66021428Y-75149047D01*
X65945238Y-75110952D01*
X65792857Y-75072857D01*
X65716666Y-75034761D01*
X65678571Y-74996666D01*
X65640476Y-74920476D01*
X65640476Y-74844285D01*
X65678571Y-74768095D01*
X65716666Y-74730000D01*
X65792857Y-74691904D01*
X65983333Y-74691904D01*
X66097619Y-74730000D01*
X66707142Y-75072857D02*
X66821428Y-75110952D01*
X66859523Y-75149047D01*
X66897619Y-75225238D01*
X66897619Y-75339523D01*
X66859523Y-75415714D01*
X66821428Y-75453809D01*
X66745238Y-75491904D01*
X66440476Y-75491904D01*
X66440476Y-74691904D01*
X66707142Y-74691904D01*
X66783333Y-74730000D01*
X66821428Y-74768095D01*
X66859523Y-74844285D01*
X66859523Y-74920476D01*
X66821428Y-74996666D01*
X66783333Y-75034761D01*
X66707142Y-75072857D01*
X66440476Y-75072857D01*
X67621428Y-74691904D02*
X67240476Y-74691904D01*
X67202380Y-75072857D01*
X67240476Y-75034761D01*
X67316666Y-74996666D01*
X67507142Y-74996666D01*
X67583333Y-75034761D01*
X67621428Y-75072857D01*
X67659523Y-75149047D01*
X67659523Y-75339523D01*
X67621428Y-75415714D01*
X67583333Y-75453809D01*
X67507142Y-75491904D01*
X67316666Y-75491904D01*
X67240476Y-75453809D01*
X67202380Y-75415714D01*
%TO.C,P1*%
X101009523Y-83351904D02*
X101009523Y-82551904D01*
X101314285Y-82551904D01*
X101390476Y-82590000D01*
X101428571Y-82628095D01*
X101466666Y-82704285D01*
X101466666Y-82818571D01*
X101428571Y-82894761D01*
X101390476Y-82932857D01*
X101314285Y-82970952D01*
X101009523Y-82970952D01*
X102228571Y-83351904D02*
X101771428Y-83351904D01*
X102000000Y-83351904D02*
X102000000Y-82551904D01*
X101923809Y-82666190D01*
X101847619Y-82742380D01*
X101771428Y-82780476D01*
%TO.C,C14*%
X104275714Y-67584380D02*
X104313809Y-67622476D01*
X104351904Y-67736761D01*
X104351904Y-67812952D01*
X104313809Y-67927238D01*
X104237619Y-68003428D01*
X104161428Y-68041523D01*
X104009047Y-68079619D01*
X103894761Y-68079619D01*
X103742380Y-68041523D01*
X103666190Y-68003428D01*
X103590000Y-67927238D01*
X103551904Y-67812952D01*
X103551904Y-67736761D01*
X103590000Y-67622476D01*
X103628095Y-67584380D01*
X104351904Y-66822476D02*
X104351904Y-67279619D01*
X104351904Y-67051047D02*
X103551904Y-67051047D01*
X103666190Y-67127238D01*
X103742380Y-67203428D01*
X103780476Y-67279619D01*
X103818571Y-66136761D02*
X104351904Y-66136761D01*
X103513809Y-66327238D02*
X104085238Y-66517714D01*
X104085238Y-66022476D01*
%TO.C,SB3*%
X65640476Y-70373809D02*
X65754761Y-70411904D01*
X65945238Y-70411904D01*
X66021428Y-70373809D01*
X66059523Y-70335714D01*
X66097619Y-70259523D01*
X66097619Y-70183333D01*
X66059523Y-70107142D01*
X66021428Y-70069047D01*
X65945238Y-70030952D01*
X65792857Y-69992857D01*
X65716666Y-69954761D01*
X65678571Y-69916666D01*
X65640476Y-69840476D01*
X65640476Y-69764285D01*
X65678571Y-69688095D01*
X65716666Y-69650000D01*
X65792857Y-69611904D01*
X65983333Y-69611904D01*
X66097619Y-69650000D01*
X66707142Y-69992857D02*
X66821428Y-70030952D01*
X66859523Y-70069047D01*
X66897619Y-70145238D01*
X66897619Y-70259523D01*
X66859523Y-70335714D01*
X66821428Y-70373809D01*
X66745238Y-70411904D01*
X66440476Y-70411904D01*
X66440476Y-69611904D01*
X66707142Y-69611904D01*
X66783333Y-69650000D01*
X66821428Y-69688095D01*
X66859523Y-69764285D01*
X66859523Y-69840476D01*
X66821428Y-69916666D01*
X66783333Y-69954761D01*
X66707142Y-69992857D01*
X66440476Y-69992857D01*
X67164285Y-69611904D02*
X67659523Y-69611904D01*
X67392857Y-69916666D01*
X67507142Y-69916666D01*
X67583333Y-69954761D01*
X67621428Y-69992857D01*
X67659523Y-70069047D01*
X67659523Y-70259523D01*
X67621428Y-70335714D01*
X67583333Y-70373809D01*
X67507142Y-70411904D01*
X67278571Y-70411904D01*
X67202380Y-70373809D01*
X67164285Y-70335714D01*
%TO.C,D3*%
X95441904Y-57540476D02*
X94641904Y-57540476D01*
X94641904Y-57350000D01*
X94680000Y-57235714D01*
X94756190Y-57159523D01*
X94832380Y-57121428D01*
X94984761Y-57083333D01*
X95099047Y-57083333D01*
X95251428Y-57121428D01*
X95327619Y-57159523D01*
X95403809Y-57235714D01*
X95441904Y-57350000D01*
X95441904Y-57540476D01*
X94641904Y-56816666D02*
X94641904Y-56321428D01*
X94946666Y-56588095D01*
X94946666Y-56473809D01*
X94984761Y-56397619D01*
X95022857Y-56359523D01*
X95099047Y-56321428D01*
X95289523Y-56321428D01*
X95365714Y-56359523D01*
X95403809Y-56397619D01*
X95441904Y-56473809D01*
X95441904Y-56702380D01*
X95403809Y-56778571D01*
X95365714Y-56816666D01*
%TO.C,C2*%
X107685714Y-74104380D02*
X107723809Y-74142476D01*
X107761904Y-74256761D01*
X107761904Y-74332952D01*
X107723809Y-74447238D01*
X107647619Y-74523428D01*
X107571428Y-74561523D01*
X107419047Y-74599619D01*
X107304761Y-74599619D01*
X107152380Y-74561523D01*
X107076190Y-74523428D01*
X107000000Y-74447238D01*
X106961904Y-74332952D01*
X106961904Y-74256761D01*
X107000000Y-74142476D01*
X107038095Y-74104380D01*
X107038095Y-73799619D02*
X107000000Y-73761523D01*
X106961904Y-73685333D01*
X106961904Y-73494857D01*
X107000000Y-73418666D01*
X107038095Y-73380571D01*
X107114285Y-73342476D01*
X107190476Y-73342476D01*
X107304761Y-73380571D01*
X107761904Y-73837714D01*
X107761904Y-73342476D01*
%TO.C,D2*%
X98441904Y-57540476D02*
X97641904Y-57540476D01*
X97641904Y-57350000D01*
X97680000Y-57235714D01*
X97756190Y-57159523D01*
X97832380Y-57121428D01*
X97984761Y-57083333D01*
X98099047Y-57083333D01*
X98251428Y-57121428D01*
X98327619Y-57159523D01*
X98403809Y-57235714D01*
X98441904Y-57350000D01*
X98441904Y-57540476D01*
X97718095Y-56778571D02*
X97680000Y-56740476D01*
X97641904Y-56664285D01*
X97641904Y-56473809D01*
X97680000Y-56397619D01*
X97718095Y-56359523D01*
X97794285Y-56321428D01*
X97870476Y-56321428D01*
X97984761Y-56359523D01*
X98441904Y-56816666D01*
X98441904Y-56321428D01*
%TO.C,SB13*%
X89483809Y-54890476D02*
X89521904Y-54776190D01*
X89521904Y-54585714D01*
X89483809Y-54509523D01*
X89445714Y-54471428D01*
X89369523Y-54433333D01*
X89293333Y-54433333D01*
X89217142Y-54471428D01*
X89179047Y-54509523D01*
X89140952Y-54585714D01*
X89102857Y-54738095D01*
X89064761Y-54814285D01*
X89026666Y-54852380D01*
X88950476Y-54890476D01*
X88874285Y-54890476D01*
X88798095Y-54852380D01*
X88760000Y-54814285D01*
X88721904Y-54738095D01*
X88721904Y-54547619D01*
X88760000Y-54433333D01*
X89102857Y-53823809D02*
X89140952Y-53709523D01*
X89179047Y-53671428D01*
X89255238Y-53633333D01*
X89369523Y-53633333D01*
X89445714Y-53671428D01*
X89483809Y-53709523D01*
X89521904Y-53785714D01*
X89521904Y-54090476D01*
X88721904Y-54090476D01*
X88721904Y-53823809D01*
X88760000Y-53747619D01*
X88798095Y-53709523D01*
X88874285Y-53671428D01*
X88950476Y-53671428D01*
X89026666Y-53709523D01*
X89064761Y-53747619D01*
X89102857Y-53823809D01*
X89102857Y-54090476D01*
X89521904Y-52871428D02*
X89521904Y-53328571D01*
X89521904Y-53100000D02*
X88721904Y-53100000D01*
X88836190Y-53176190D01*
X88912380Y-53252380D01*
X88950476Y-53328571D01*
X88721904Y-52604761D02*
X88721904Y-52109523D01*
X89026666Y-52376190D01*
X89026666Y-52261904D01*
X89064761Y-52185714D01*
X89102857Y-52147619D01*
X89179047Y-52109523D01*
X89369523Y-52109523D01*
X89445714Y-52147619D01*
X89483809Y-52185714D01*
X89521904Y-52261904D01*
X89521904Y-52490476D01*
X89483809Y-52566666D01*
X89445714Y-52604761D01*
%TO.C,C32*%
X49622119Y-61010714D02*
X49584023Y-61048809D01*
X49469738Y-61086904D01*
X49393547Y-61086904D01*
X49279261Y-61048809D01*
X49203071Y-60972619D01*
X49164976Y-60896428D01*
X49126880Y-60744047D01*
X49126880Y-60629761D01*
X49164976Y-60477380D01*
X49203071Y-60401190D01*
X49279261Y-60325000D01*
X49393547Y-60286904D01*
X49469738Y-60286904D01*
X49584023Y-60325000D01*
X49622119Y-60363095D01*
X49888785Y-60286904D02*
X50384023Y-60286904D01*
X50117357Y-60591666D01*
X50231642Y-60591666D01*
X50307833Y-60629761D01*
X50345928Y-60667857D01*
X50384023Y-60744047D01*
X50384023Y-60934523D01*
X50345928Y-61010714D01*
X50307833Y-61048809D01*
X50231642Y-61086904D01*
X50003071Y-61086904D01*
X49926880Y-61048809D01*
X49888785Y-61010714D01*
X50688785Y-60363095D02*
X50726880Y-60325000D01*
X50803071Y-60286904D01*
X50993547Y-60286904D01*
X51069738Y-60325000D01*
X51107833Y-60363095D01*
X51145928Y-60439285D01*
X51145928Y-60515476D01*
X51107833Y-60629761D01*
X50650690Y-61086904D01*
X51145928Y-61086904D01*
%TO.C,C30*%
X42265619Y-74035714D02*
X42227523Y-74073809D01*
X42113238Y-74111904D01*
X42037047Y-74111904D01*
X41922761Y-74073809D01*
X41846571Y-73997619D01*
X41808476Y-73921428D01*
X41770380Y-73769047D01*
X41770380Y-73654761D01*
X41808476Y-73502380D01*
X41846571Y-73426190D01*
X41922761Y-73350000D01*
X42037047Y-73311904D01*
X42113238Y-73311904D01*
X42227523Y-73350000D01*
X42265619Y-73388095D01*
X42532285Y-73311904D02*
X43027523Y-73311904D01*
X42760857Y-73616666D01*
X42875142Y-73616666D01*
X42951333Y-73654761D01*
X42989428Y-73692857D01*
X43027523Y-73769047D01*
X43027523Y-73959523D01*
X42989428Y-74035714D01*
X42951333Y-74073809D01*
X42875142Y-74111904D01*
X42646571Y-74111904D01*
X42570380Y-74073809D01*
X42532285Y-74035714D01*
X43522761Y-73311904D02*
X43598952Y-73311904D01*
X43675142Y-73350000D01*
X43713238Y-73388095D01*
X43751333Y-73464285D01*
X43789428Y-73616666D01*
X43789428Y-73807142D01*
X43751333Y-73959523D01*
X43713238Y-74035714D01*
X43675142Y-74073809D01*
X43598952Y-74111904D01*
X43522761Y-74111904D01*
X43446571Y-74073809D01*
X43408476Y-74035714D01*
X43370380Y-73959523D01*
X43332285Y-73807142D01*
X43332285Y-73616666D01*
X43370380Y-73464285D01*
X43408476Y-73388095D01*
X43446571Y-73350000D01*
X43522761Y-73311904D01*
%TO.C,SB7*%
X77590476Y-75543809D02*
X77704761Y-75581904D01*
X77895238Y-75581904D01*
X77971428Y-75543809D01*
X78009523Y-75505714D01*
X78047619Y-75429523D01*
X78047619Y-75353333D01*
X78009523Y-75277142D01*
X77971428Y-75239047D01*
X77895238Y-75200952D01*
X77742857Y-75162857D01*
X77666666Y-75124761D01*
X77628571Y-75086666D01*
X77590476Y-75010476D01*
X77590476Y-74934285D01*
X77628571Y-74858095D01*
X77666666Y-74820000D01*
X77742857Y-74781904D01*
X77933333Y-74781904D01*
X78047619Y-74820000D01*
X78657142Y-75162857D02*
X78771428Y-75200952D01*
X78809523Y-75239047D01*
X78847619Y-75315238D01*
X78847619Y-75429523D01*
X78809523Y-75505714D01*
X78771428Y-75543809D01*
X78695238Y-75581904D01*
X78390476Y-75581904D01*
X78390476Y-74781904D01*
X78657142Y-74781904D01*
X78733333Y-74820000D01*
X78771428Y-74858095D01*
X78809523Y-74934285D01*
X78809523Y-75010476D01*
X78771428Y-75086666D01*
X78733333Y-75124761D01*
X78657142Y-75162857D01*
X78390476Y-75162857D01*
X79114285Y-74781904D02*
X79647619Y-74781904D01*
X79304761Y-75581904D01*
%TO.C,L4*%
X91181904Y-73460571D02*
X91181904Y-73841523D01*
X90381904Y-73841523D01*
X90648571Y-72851047D02*
X91181904Y-72851047D01*
X90343809Y-73041523D02*
X90915238Y-73232000D01*
X90915238Y-72736761D01*
%TO.C,SB0*%
X77590476Y-73963809D02*
X77704761Y-74001904D01*
X77895238Y-74001904D01*
X77971428Y-73963809D01*
X78009523Y-73925714D01*
X78047619Y-73849523D01*
X78047619Y-73773333D01*
X78009523Y-73697142D01*
X77971428Y-73659047D01*
X77895238Y-73620952D01*
X77742857Y-73582857D01*
X77666666Y-73544761D01*
X77628571Y-73506666D01*
X77590476Y-73430476D01*
X77590476Y-73354285D01*
X77628571Y-73278095D01*
X77666666Y-73240000D01*
X77742857Y-73201904D01*
X77933333Y-73201904D01*
X78047619Y-73240000D01*
X78657142Y-73582857D02*
X78771428Y-73620952D01*
X78809523Y-73659047D01*
X78847619Y-73735238D01*
X78847619Y-73849523D01*
X78809523Y-73925714D01*
X78771428Y-73963809D01*
X78695238Y-74001904D01*
X78390476Y-74001904D01*
X78390476Y-73201904D01*
X78657142Y-73201904D01*
X78733333Y-73240000D01*
X78771428Y-73278095D01*
X78809523Y-73354285D01*
X78809523Y-73430476D01*
X78771428Y-73506666D01*
X78733333Y-73544761D01*
X78657142Y-73582857D01*
X78390476Y-73582857D01*
X79342857Y-73201904D02*
X79419047Y-73201904D01*
X79495238Y-73240000D01*
X79533333Y-73278095D01*
X79571428Y-73354285D01*
X79609523Y-73506666D01*
X79609523Y-73697142D01*
X79571428Y-73849523D01*
X79533333Y-73925714D01*
X79495238Y-73963809D01*
X79419047Y-74001904D01*
X79342857Y-74001904D01*
X79266666Y-73963809D01*
X79228571Y-73925714D01*
X79190476Y-73849523D01*
X79152380Y-73697142D01*
X79152380Y-73506666D01*
X79190476Y-73354285D01*
X79228571Y-73278095D01*
X79266666Y-73240000D01*
X79342857Y-73201904D01*
%TO.C,R54*%
X89171904Y-67844380D02*
X88790952Y-68111047D01*
X89171904Y-68301523D02*
X88371904Y-68301523D01*
X88371904Y-67996761D01*
X88410000Y-67920571D01*
X88448095Y-67882476D01*
X88524285Y-67844380D01*
X88638571Y-67844380D01*
X88714761Y-67882476D01*
X88752857Y-67920571D01*
X88790952Y-67996761D01*
X88790952Y-68301523D01*
X88371904Y-67120571D02*
X88371904Y-67501523D01*
X88752857Y-67539619D01*
X88714761Y-67501523D01*
X88676666Y-67425333D01*
X88676666Y-67234857D01*
X88714761Y-67158666D01*
X88752857Y-67120571D01*
X88829047Y-67082476D01*
X89019523Y-67082476D01*
X89095714Y-67120571D01*
X89133809Y-67158666D01*
X89171904Y-67234857D01*
X89171904Y-67425333D01*
X89133809Y-67501523D01*
X89095714Y-67539619D01*
X88638571Y-66396761D02*
X89171904Y-66396761D01*
X88333809Y-66587238D02*
X88905238Y-66777714D01*
X88905238Y-66282476D01*
%TO.C,D1*%
X52506904Y-67760476D02*
X51706904Y-67760476D01*
X51706904Y-67570000D01*
X51745000Y-67455714D01*
X51821190Y-67379523D01*
X51897380Y-67341428D01*
X52049761Y-67303333D01*
X52164047Y-67303333D01*
X52316428Y-67341428D01*
X52392619Y-67379523D01*
X52468809Y-67455714D01*
X52506904Y-67570000D01*
X52506904Y-67760476D01*
X52506904Y-66541428D02*
X52506904Y-66998571D01*
X52506904Y-66770000D02*
X51706904Y-66770000D01*
X51821190Y-66846190D01*
X51897380Y-66922380D01*
X51935476Y-66998571D01*
%TO.C,X1*%
X105882380Y-66921904D02*
X106415714Y-67721904D01*
X106415714Y-66921904D02*
X105882380Y-67721904D01*
X107139523Y-67721904D02*
X106682380Y-67721904D01*
X106910952Y-67721904D02*
X106910952Y-66921904D01*
X106834761Y-67036190D01*
X106758571Y-67112380D01*
X106682380Y-67150476D01*
%TO.C,SB6*%
X65640476Y-78353809D02*
X65754761Y-78391904D01*
X65945238Y-78391904D01*
X66021428Y-78353809D01*
X66059523Y-78315714D01*
X66097619Y-78239523D01*
X66097619Y-78163333D01*
X66059523Y-78087142D01*
X66021428Y-78049047D01*
X65945238Y-78010952D01*
X65792857Y-77972857D01*
X65716666Y-77934761D01*
X65678571Y-77896666D01*
X65640476Y-77820476D01*
X65640476Y-77744285D01*
X65678571Y-77668095D01*
X65716666Y-77630000D01*
X65792857Y-77591904D01*
X65983333Y-77591904D01*
X66097619Y-77630000D01*
X66707142Y-77972857D02*
X66821428Y-78010952D01*
X66859523Y-78049047D01*
X66897619Y-78125238D01*
X66897619Y-78239523D01*
X66859523Y-78315714D01*
X66821428Y-78353809D01*
X66745238Y-78391904D01*
X66440476Y-78391904D01*
X66440476Y-77591904D01*
X66707142Y-77591904D01*
X66783333Y-77630000D01*
X66821428Y-77668095D01*
X66859523Y-77744285D01*
X66859523Y-77820476D01*
X66821428Y-77896666D01*
X66783333Y-77934761D01*
X66707142Y-77972857D01*
X66440476Y-77972857D01*
X67583333Y-77591904D02*
X67430952Y-77591904D01*
X67354761Y-77630000D01*
X67316666Y-77668095D01*
X67240476Y-77782380D01*
X67202380Y-77934761D01*
X67202380Y-78239523D01*
X67240476Y-78315714D01*
X67278571Y-78353809D01*
X67354761Y-78391904D01*
X67507142Y-78391904D01*
X67583333Y-78353809D01*
X67621428Y-78315714D01*
X67659523Y-78239523D01*
X67659523Y-78049047D01*
X67621428Y-77972857D01*
X67583333Y-77934761D01*
X67507142Y-77896666D01*
X67354761Y-77896666D01*
X67278571Y-77934761D01*
X67240476Y-77972857D01*
X67202380Y-78049047D01*
%TO.C,C3*%
X102065619Y-65005714D02*
X102027523Y-65043809D01*
X101913238Y-65081904D01*
X101837047Y-65081904D01*
X101722761Y-65043809D01*
X101646571Y-64967619D01*
X101608476Y-64891428D01*
X101570380Y-64739047D01*
X101570380Y-64624761D01*
X101608476Y-64472380D01*
X101646571Y-64396190D01*
X101722761Y-64320000D01*
X101837047Y-64281904D01*
X101913238Y-64281904D01*
X102027523Y-64320000D01*
X102065619Y-64358095D01*
X102332285Y-64281904D02*
X102827523Y-64281904D01*
X102560857Y-64586666D01*
X102675142Y-64586666D01*
X102751333Y-64624761D01*
X102789428Y-64662857D01*
X102827523Y-64739047D01*
X102827523Y-64929523D01*
X102789428Y-65005714D01*
X102751333Y-65043809D01*
X102675142Y-65081904D01*
X102446571Y-65081904D01*
X102370380Y-65043809D01*
X102332285Y-65005714D01*
%TO.C,C15*%
X104015619Y-65585714D02*
X103977523Y-65623809D01*
X103863238Y-65661904D01*
X103787047Y-65661904D01*
X103672761Y-65623809D01*
X103596571Y-65547619D01*
X103558476Y-65471428D01*
X103520380Y-65319047D01*
X103520380Y-65204761D01*
X103558476Y-65052380D01*
X103596571Y-64976190D01*
X103672761Y-64900000D01*
X103787047Y-64861904D01*
X103863238Y-64861904D01*
X103977523Y-64900000D01*
X104015619Y-64938095D01*
X104777523Y-65661904D02*
X104320380Y-65661904D01*
X104548952Y-65661904D02*
X104548952Y-64861904D01*
X104472761Y-64976190D01*
X104396571Y-65052380D01*
X104320380Y-65090476D01*
X105501333Y-64861904D02*
X105120380Y-64861904D01*
X105082285Y-65242857D01*
X105120380Y-65204761D01*
X105196571Y-65166666D01*
X105387047Y-65166666D01*
X105463238Y-65204761D01*
X105501333Y-65242857D01*
X105539428Y-65319047D01*
X105539428Y-65509523D01*
X105501333Y-65585714D01*
X105463238Y-65623809D01*
X105387047Y-65661904D01*
X105196571Y-65661904D01*
X105120380Y-65623809D01*
X105082285Y-65585714D01*
%TO.C,L3*%
X98479428Y-63821904D02*
X98098476Y-63821904D01*
X98098476Y-63021904D01*
X98669904Y-63021904D02*
X99165142Y-63021904D01*
X98898476Y-63326666D01*
X99012761Y-63326666D01*
X99088952Y-63364761D01*
X99127047Y-63402857D01*
X99165142Y-63479047D01*
X99165142Y-63669523D01*
X99127047Y-63745714D01*
X99088952Y-63783809D01*
X99012761Y-63821904D01*
X98784190Y-63821904D01*
X98708000Y-63783809D01*
X98669904Y-63745714D01*
%TO.C,R55*%
X42365619Y-73081904D02*
X42098952Y-72700952D01*
X41908476Y-73081904D02*
X41908476Y-72281904D01*
X42213238Y-72281904D01*
X42289428Y-72320000D01*
X42327523Y-72358095D01*
X42365619Y-72434285D01*
X42365619Y-72548571D01*
X42327523Y-72624761D01*
X42289428Y-72662857D01*
X42213238Y-72700952D01*
X41908476Y-72700952D01*
X43089428Y-72281904D02*
X42708476Y-72281904D01*
X42670380Y-72662857D01*
X42708476Y-72624761D01*
X42784666Y-72586666D01*
X42975142Y-72586666D01*
X43051333Y-72624761D01*
X43089428Y-72662857D01*
X43127523Y-72739047D01*
X43127523Y-72929523D01*
X43089428Y-73005714D01*
X43051333Y-73043809D01*
X42975142Y-73081904D01*
X42784666Y-73081904D01*
X42708476Y-73043809D01*
X42670380Y-73005714D01*
X43851333Y-72281904D02*
X43470380Y-72281904D01*
X43432285Y-72662857D01*
X43470380Y-72624761D01*
X43546571Y-72586666D01*
X43737047Y-72586666D01*
X43813238Y-72624761D01*
X43851333Y-72662857D01*
X43889428Y-72739047D01*
X43889428Y-72929523D01*
X43851333Y-73005714D01*
X43813238Y-73043809D01*
X43737047Y-73081904D01*
X43546571Y-73081904D01*
X43470380Y-73043809D01*
X43432285Y-73005714D01*
%TO.C,R8*%
X92751904Y-59983333D02*
X92370952Y-60250000D01*
X92751904Y-60440476D02*
X91951904Y-60440476D01*
X91951904Y-60135714D01*
X91990000Y-60059523D01*
X92028095Y-60021428D01*
X92104285Y-59983333D01*
X92218571Y-59983333D01*
X92294761Y-60021428D01*
X92332857Y-60059523D01*
X92370952Y-60135714D01*
X92370952Y-60440476D01*
X92294761Y-59526190D02*
X92256666Y-59602380D01*
X92218571Y-59640476D01*
X92142380Y-59678571D01*
X92104285Y-59678571D01*
X92028095Y-59640476D01*
X91990000Y-59602380D01*
X91951904Y-59526190D01*
X91951904Y-59373809D01*
X91990000Y-59297619D01*
X92028095Y-59259523D01*
X92104285Y-59221428D01*
X92142380Y-59221428D01*
X92218571Y-59259523D01*
X92256666Y-59297619D01*
X92294761Y-59373809D01*
X92294761Y-59526190D01*
X92332857Y-59602380D01*
X92370952Y-59640476D01*
X92447142Y-59678571D01*
X92599523Y-59678571D01*
X92675714Y-59640476D01*
X92713809Y-59602380D01*
X92751904Y-59526190D01*
X92751904Y-59373809D01*
X92713809Y-59297619D01*
X92675714Y-59259523D01*
X92599523Y-59221428D01*
X92447142Y-59221428D01*
X92370952Y-59259523D01*
X92332857Y-59297619D01*
X92294761Y-59373809D01*
%TO.C,C16*%
X100585714Y-66274380D02*
X100623809Y-66312476D01*
X100661904Y-66426761D01*
X100661904Y-66502952D01*
X100623809Y-66617238D01*
X100547619Y-66693428D01*
X100471428Y-66731523D01*
X100319047Y-66769619D01*
X100204761Y-66769619D01*
X100052380Y-66731523D01*
X99976190Y-66693428D01*
X99900000Y-66617238D01*
X99861904Y-66502952D01*
X99861904Y-66426761D01*
X99900000Y-66312476D01*
X99938095Y-66274380D01*
X100661904Y-65512476D02*
X100661904Y-65969619D01*
X100661904Y-65741047D02*
X99861904Y-65741047D01*
X99976190Y-65817238D01*
X100052380Y-65893428D01*
X100090476Y-65969619D01*
X99861904Y-64826761D02*
X99861904Y-64979142D01*
X99900000Y-65055333D01*
X99938095Y-65093428D01*
X100052380Y-65169619D01*
X100204761Y-65207714D01*
X100509523Y-65207714D01*
X100585714Y-65169619D01*
X100623809Y-65131523D01*
X100661904Y-65055333D01*
X100661904Y-64902952D01*
X100623809Y-64826761D01*
X100585714Y-64788666D01*
X100509523Y-64750571D01*
X100319047Y-64750571D01*
X100242857Y-64788666D01*
X100204761Y-64826761D01*
X100166666Y-64902952D01*
X100166666Y-65055333D01*
X100204761Y-65131523D01*
X100242857Y-65169619D01*
X100319047Y-65207714D01*
%TO.C,C31*%
X51155619Y-71815714D02*
X51117523Y-71853809D01*
X51003238Y-71891904D01*
X50927047Y-71891904D01*
X50812761Y-71853809D01*
X50736571Y-71777619D01*
X50698476Y-71701428D01*
X50660380Y-71549047D01*
X50660380Y-71434761D01*
X50698476Y-71282380D01*
X50736571Y-71206190D01*
X50812761Y-71130000D01*
X50927047Y-71091904D01*
X51003238Y-71091904D01*
X51117523Y-71130000D01*
X51155619Y-71168095D01*
X51422285Y-71091904D02*
X51917523Y-71091904D01*
X51650857Y-71396666D01*
X51765142Y-71396666D01*
X51841333Y-71434761D01*
X51879428Y-71472857D01*
X51917523Y-71549047D01*
X51917523Y-71739523D01*
X51879428Y-71815714D01*
X51841333Y-71853809D01*
X51765142Y-71891904D01*
X51536571Y-71891904D01*
X51460380Y-71853809D01*
X51422285Y-71815714D01*
X52679428Y-71891904D02*
X52222285Y-71891904D01*
X52450857Y-71891904D02*
X52450857Y-71091904D01*
X52374666Y-71206190D01*
X52298476Y-71282380D01*
X52222285Y-71320476D01*
%TO.C,FB3*%
X41373333Y-74812857D02*
X41106666Y-74812857D01*
X41106666Y-75231904D02*
X41106666Y-74431904D01*
X41487619Y-74431904D01*
X42059047Y-74812857D02*
X42173333Y-74850952D01*
X42211428Y-74889047D01*
X42249523Y-74965238D01*
X42249523Y-75079523D01*
X42211428Y-75155714D01*
X42173333Y-75193809D01*
X42097142Y-75231904D01*
X41792380Y-75231904D01*
X41792380Y-74431904D01*
X42059047Y-74431904D01*
X42135238Y-74470000D01*
X42173333Y-74508095D01*
X42211428Y-74584285D01*
X42211428Y-74660476D01*
X42173333Y-74736666D01*
X42135238Y-74774761D01*
X42059047Y-74812857D01*
X41792380Y-74812857D01*
X42516190Y-74431904D02*
X43011428Y-74431904D01*
X42744761Y-74736666D01*
X42859047Y-74736666D01*
X42935238Y-74774761D01*
X42973333Y-74812857D01*
X43011428Y-74889047D01*
X43011428Y-75079523D01*
X42973333Y-75155714D01*
X42935238Y-75193809D01*
X42859047Y-75231904D01*
X42630476Y-75231904D01*
X42554285Y-75193809D01*
X42516190Y-75155714D01*
%TO.C,U2*%
X75160476Y-66611904D02*
X75160476Y-67259523D01*
X75198571Y-67335714D01*
X75236666Y-67373809D01*
X75312857Y-67411904D01*
X75465238Y-67411904D01*
X75541428Y-67373809D01*
X75579523Y-67335714D01*
X75617619Y-67259523D01*
X75617619Y-66611904D01*
X75960476Y-66688095D02*
X75998571Y-66650000D01*
X76074761Y-66611904D01*
X76265238Y-66611904D01*
X76341428Y-66650000D01*
X76379523Y-66688095D01*
X76417619Y-66764285D01*
X76417619Y-66840476D01*
X76379523Y-66954761D01*
X75922380Y-67411904D01*
X76417619Y-67411904D01*
%TO.C,R3*%
X75981904Y-76414380D02*
X75600952Y-76681047D01*
X75981904Y-76871523D02*
X75181904Y-76871523D01*
X75181904Y-76566761D01*
X75220000Y-76490571D01*
X75258095Y-76452476D01*
X75334285Y-76414380D01*
X75448571Y-76414380D01*
X75524761Y-76452476D01*
X75562857Y-76490571D01*
X75600952Y-76566761D01*
X75600952Y-76871523D01*
X75181904Y-76147714D02*
X75181904Y-75652476D01*
X75486666Y-75919142D01*
X75486666Y-75804857D01*
X75524761Y-75728666D01*
X75562857Y-75690571D01*
X75639047Y-75652476D01*
X75829523Y-75652476D01*
X75905714Y-75690571D01*
X75943809Y-75728666D01*
X75981904Y-75804857D01*
X75981904Y-76033428D01*
X75943809Y-76109619D01*
X75905714Y-76147714D01*
%TO.C,L2*%
X102019428Y-63901904D02*
X101638476Y-63901904D01*
X101638476Y-63101904D01*
X102248000Y-63178095D02*
X102286095Y-63140000D01*
X102362285Y-63101904D01*
X102552761Y-63101904D01*
X102628952Y-63140000D01*
X102667047Y-63178095D01*
X102705142Y-63254285D01*
X102705142Y-63330476D01*
X102667047Y-63444761D01*
X102209904Y-63901904D01*
X102705142Y-63901904D01*
%TO.C,C11*%
X98375714Y-80334380D02*
X98413809Y-80372476D01*
X98451904Y-80486761D01*
X98451904Y-80562952D01*
X98413809Y-80677238D01*
X98337619Y-80753428D01*
X98261428Y-80791523D01*
X98109047Y-80829619D01*
X97994761Y-80829619D01*
X97842380Y-80791523D01*
X97766190Y-80753428D01*
X97690000Y-80677238D01*
X97651904Y-80562952D01*
X97651904Y-80486761D01*
X97690000Y-80372476D01*
X97728095Y-80334380D01*
X98451904Y-79572476D02*
X98451904Y-80029619D01*
X98451904Y-79801047D02*
X97651904Y-79801047D01*
X97766190Y-79877238D01*
X97842380Y-79953428D01*
X97880476Y-80029619D01*
X98451904Y-78810571D02*
X98451904Y-79267714D01*
X98451904Y-79039142D02*
X97651904Y-79039142D01*
X97766190Y-79115333D01*
X97842380Y-79191523D01*
X97880476Y-79267714D01*
%TO.C,C18*%
X95110714Y-65649380D02*
X95148809Y-65687476D01*
X95186904Y-65801761D01*
X95186904Y-65877952D01*
X95148809Y-65992238D01*
X95072619Y-66068428D01*
X94996428Y-66106523D01*
X94844047Y-66144619D01*
X94729761Y-66144619D01*
X94577380Y-66106523D01*
X94501190Y-66068428D01*
X94425000Y-65992238D01*
X94386904Y-65877952D01*
X94386904Y-65801761D01*
X94425000Y-65687476D01*
X94463095Y-65649380D01*
X95186904Y-64887476D02*
X95186904Y-65344619D01*
X95186904Y-65116047D02*
X94386904Y-65116047D01*
X94501190Y-65192238D01*
X94577380Y-65268428D01*
X94615476Y-65344619D01*
X94729761Y-64430333D02*
X94691666Y-64506523D01*
X94653571Y-64544619D01*
X94577380Y-64582714D01*
X94539285Y-64582714D01*
X94463095Y-64544619D01*
X94425000Y-64506523D01*
X94386904Y-64430333D01*
X94386904Y-64277952D01*
X94425000Y-64201761D01*
X94463095Y-64163666D01*
X94539285Y-64125571D01*
X94577380Y-64125571D01*
X94653571Y-64163666D01*
X94691666Y-64201761D01*
X94729761Y-64277952D01*
X94729761Y-64430333D01*
X94767857Y-64506523D01*
X94805952Y-64544619D01*
X94882142Y-64582714D01*
X95034523Y-64582714D01*
X95110714Y-64544619D01*
X95148809Y-64506523D01*
X95186904Y-64430333D01*
X95186904Y-64277952D01*
X95148809Y-64201761D01*
X95110714Y-64163666D01*
X95034523Y-64125571D01*
X94882142Y-64125571D01*
X94805952Y-64163666D01*
X94767857Y-64201761D01*
X94729761Y-64277952D01*
%TO.C,SB14*%
X84243809Y-54890476D02*
X84281904Y-54776190D01*
X84281904Y-54585714D01*
X84243809Y-54509523D01*
X84205714Y-54471428D01*
X84129523Y-54433333D01*
X84053333Y-54433333D01*
X83977142Y-54471428D01*
X83939047Y-54509523D01*
X83900952Y-54585714D01*
X83862857Y-54738095D01*
X83824761Y-54814285D01*
X83786666Y-54852380D01*
X83710476Y-54890476D01*
X83634285Y-54890476D01*
X83558095Y-54852380D01*
X83520000Y-54814285D01*
X83481904Y-54738095D01*
X83481904Y-54547619D01*
X83520000Y-54433333D01*
X83862857Y-53823809D02*
X83900952Y-53709523D01*
X83939047Y-53671428D01*
X84015238Y-53633333D01*
X84129523Y-53633333D01*
X84205714Y-53671428D01*
X84243809Y-53709523D01*
X84281904Y-53785714D01*
X84281904Y-54090476D01*
X83481904Y-54090476D01*
X83481904Y-53823809D01*
X83520000Y-53747619D01*
X83558095Y-53709523D01*
X83634285Y-53671428D01*
X83710476Y-53671428D01*
X83786666Y-53709523D01*
X83824761Y-53747619D01*
X83862857Y-53823809D01*
X83862857Y-54090476D01*
X84281904Y-52871428D02*
X84281904Y-53328571D01*
X84281904Y-53100000D02*
X83481904Y-53100000D01*
X83596190Y-53176190D01*
X83672380Y-53252380D01*
X83710476Y-53328571D01*
X83748571Y-52185714D02*
X84281904Y-52185714D01*
X83443809Y-52376190D02*
X84015238Y-52566666D01*
X84015238Y-52071428D01*
%TO.C,SB2*%
X65630476Y-67833809D02*
X65744761Y-67871904D01*
X65935238Y-67871904D01*
X66011428Y-67833809D01*
X66049523Y-67795714D01*
X66087619Y-67719523D01*
X66087619Y-67643333D01*
X66049523Y-67567142D01*
X66011428Y-67529047D01*
X65935238Y-67490952D01*
X65782857Y-67452857D01*
X65706666Y-67414761D01*
X65668571Y-67376666D01*
X65630476Y-67300476D01*
X65630476Y-67224285D01*
X65668571Y-67148095D01*
X65706666Y-67110000D01*
X65782857Y-67071904D01*
X65973333Y-67071904D01*
X66087619Y-67110000D01*
X66697142Y-67452857D02*
X66811428Y-67490952D01*
X66849523Y-67529047D01*
X66887619Y-67605238D01*
X66887619Y-67719523D01*
X66849523Y-67795714D01*
X66811428Y-67833809D01*
X66735238Y-67871904D01*
X66430476Y-67871904D01*
X66430476Y-67071904D01*
X66697142Y-67071904D01*
X66773333Y-67110000D01*
X66811428Y-67148095D01*
X66849523Y-67224285D01*
X66849523Y-67300476D01*
X66811428Y-67376666D01*
X66773333Y-67414761D01*
X66697142Y-67452857D01*
X66430476Y-67452857D01*
X67192380Y-67148095D02*
X67230476Y-67110000D01*
X67306666Y-67071904D01*
X67497142Y-67071904D01*
X67573333Y-67110000D01*
X67611428Y-67148095D01*
X67649523Y-67224285D01*
X67649523Y-67300476D01*
X67611428Y-67414761D01*
X67154285Y-67871904D01*
X67649523Y-67871904D01*
%TO.C,C34*%
X51805619Y-73135714D02*
X51767523Y-73173809D01*
X51653238Y-73211904D01*
X51577047Y-73211904D01*
X51462761Y-73173809D01*
X51386571Y-73097619D01*
X51348476Y-73021428D01*
X51310380Y-72869047D01*
X51310380Y-72754761D01*
X51348476Y-72602380D01*
X51386571Y-72526190D01*
X51462761Y-72450000D01*
X51577047Y-72411904D01*
X51653238Y-72411904D01*
X51767523Y-72450000D01*
X51805619Y-72488095D01*
X52072285Y-72411904D02*
X52567523Y-72411904D01*
X52300857Y-72716666D01*
X52415142Y-72716666D01*
X52491333Y-72754761D01*
X52529428Y-72792857D01*
X52567523Y-72869047D01*
X52567523Y-73059523D01*
X52529428Y-73135714D01*
X52491333Y-73173809D01*
X52415142Y-73211904D01*
X52186571Y-73211904D01*
X52110380Y-73173809D01*
X52072285Y-73135714D01*
X53253238Y-72678571D02*
X53253238Y-73211904D01*
X53062761Y-72373809D02*
X52872285Y-72945238D01*
X53367523Y-72945238D01*
%TO.C,C22*%
X90860619Y-71615714D02*
X90822523Y-71653809D01*
X90708238Y-71691904D01*
X90632047Y-71691904D01*
X90517761Y-71653809D01*
X90441571Y-71577619D01*
X90403476Y-71501428D01*
X90365380Y-71349047D01*
X90365380Y-71234761D01*
X90403476Y-71082380D01*
X90441571Y-71006190D01*
X90517761Y-70930000D01*
X90632047Y-70891904D01*
X90708238Y-70891904D01*
X90822523Y-70930000D01*
X90860619Y-70968095D01*
X91165380Y-70968095D02*
X91203476Y-70930000D01*
X91279666Y-70891904D01*
X91470142Y-70891904D01*
X91546333Y-70930000D01*
X91584428Y-70968095D01*
X91622523Y-71044285D01*
X91622523Y-71120476D01*
X91584428Y-71234761D01*
X91127285Y-71691904D01*
X91622523Y-71691904D01*
X91927285Y-70968095D02*
X91965380Y-70930000D01*
X92041571Y-70891904D01*
X92232047Y-70891904D01*
X92308238Y-70930000D01*
X92346333Y-70968095D01*
X92384428Y-71044285D01*
X92384428Y-71120476D01*
X92346333Y-71234761D01*
X91889190Y-71691904D01*
X92384428Y-71691904D01*
%TO.C,SB1*%
X65640476Y-65293809D02*
X65754761Y-65331904D01*
X65945238Y-65331904D01*
X66021428Y-65293809D01*
X66059523Y-65255714D01*
X66097619Y-65179523D01*
X66097619Y-65103333D01*
X66059523Y-65027142D01*
X66021428Y-64989047D01*
X65945238Y-64950952D01*
X65792857Y-64912857D01*
X65716666Y-64874761D01*
X65678571Y-64836666D01*
X65640476Y-64760476D01*
X65640476Y-64684285D01*
X65678571Y-64608095D01*
X65716666Y-64570000D01*
X65792857Y-64531904D01*
X65983333Y-64531904D01*
X66097619Y-64570000D01*
X66707142Y-64912857D02*
X66821428Y-64950952D01*
X66859523Y-64989047D01*
X66897619Y-65065238D01*
X66897619Y-65179523D01*
X66859523Y-65255714D01*
X66821428Y-65293809D01*
X66745238Y-65331904D01*
X66440476Y-65331904D01*
X66440476Y-64531904D01*
X66707142Y-64531904D01*
X66783333Y-64570000D01*
X66821428Y-64608095D01*
X66859523Y-64684285D01*
X66859523Y-64760476D01*
X66821428Y-64836666D01*
X66783333Y-64874761D01*
X66707142Y-64912857D01*
X66440476Y-64912857D01*
X67659523Y-65331904D02*
X67202380Y-65331904D01*
X67430952Y-65331904D02*
X67430952Y-64531904D01*
X67354761Y-64646190D01*
X67278571Y-64722380D01*
X67202380Y-64760476D01*
%TO.C,SW1*%
X83013333Y-60973809D02*
X83127619Y-61011904D01*
X83318095Y-61011904D01*
X83394285Y-60973809D01*
X83432380Y-60935714D01*
X83470476Y-60859523D01*
X83470476Y-60783333D01*
X83432380Y-60707142D01*
X83394285Y-60669047D01*
X83318095Y-60630952D01*
X83165714Y-60592857D01*
X83089523Y-60554761D01*
X83051428Y-60516666D01*
X83013333Y-60440476D01*
X83013333Y-60364285D01*
X83051428Y-60288095D01*
X83089523Y-60250000D01*
X83165714Y-60211904D01*
X83356190Y-60211904D01*
X83470476Y-60250000D01*
X83737142Y-60211904D02*
X83927619Y-61011904D01*
X84080000Y-60440476D01*
X84232380Y-61011904D01*
X84422857Y-60211904D01*
X85146666Y-61011904D02*
X84689523Y-61011904D01*
X84918095Y-61011904D02*
X84918095Y-60211904D01*
X84841904Y-60326190D01*
X84765714Y-60402380D01*
X84689523Y-60440476D01*
%TO.C,D5*%
X89371904Y-57540476D02*
X88571904Y-57540476D01*
X88571904Y-57350000D01*
X88610000Y-57235714D01*
X88686190Y-57159523D01*
X88762380Y-57121428D01*
X88914761Y-57083333D01*
X89029047Y-57083333D01*
X89181428Y-57121428D01*
X89257619Y-57159523D01*
X89333809Y-57235714D01*
X89371904Y-57350000D01*
X89371904Y-57540476D01*
X88571904Y-56359523D02*
X88571904Y-56740476D01*
X88952857Y-56778571D01*
X88914761Y-56740476D01*
X88876666Y-56664285D01*
X88876666Y-56473809D01*
X88914761Y-56397619D01*
X88952857Y-56359523D01*
X89029047Y-56321428D01*
X89219523Y-56321428D01*
X89295714Y-56359523D01*
X89333809Y-56397619D01*
X89371904Y-56473809D01*
X89371904Y-56664285D01*
X89333809Y-56740476D01*
X89295714Y-56778571D01*
%TO.C,C1*%
X105445714Y-73934380D02*
X105483809Y-73972476D01*
X105521904Y-74086761D01*
X105521904Y-74162952D01*
X105483809Y-74277238D01*
X105407619Y-74353428D01*
X105331428Y-74391523D01*
X105179047Y-74429619D01*
X105064761Y-74429619D01*
X104912380Y-74391523D01*
X104836190Y-74353428D01*
X104760000Y-74277238D01*
X104721904Y-74162952D01*
X104721904Y-74086761D01*
X104760000Y-73972476D01*
X104798095Y-73934380D01*
X105521904Y-73172476D02*
X105521904Y-73629619D01*
X105521904Y-73401047D02*
X104721904Y-73401047D01*
X104836190Y-73477238D01*
X104912380Y-73553428D01*
X104950476Y-73629619D01*
%TO.C,SB4*%
X65640476Y-72913809D02*
X65754761Y-72951904D01*
X65945238Y-72951904D01*
X66021428Y-72913809D01*
X66059523Y-72875714D01*
X66097619Y-72799523D01*
X66097619Y-72723333D01*
X66059523Y-72647142D01*
X66021428Y-72609047D01*
X65945238Y-72570952D01*
X65792857Y-72532857D01*
X65716666Y-72494761D01*
X65678571Y-72456666D01*
X65640476Y-72380476D01*
X65640476Y-72304285D01*
X65678571Y-72228095D01*
X65716666Y-72190000D01*
X65792857Y-72151904D01*
X65983333Y-72151904D01*
X66097619Y-72190000D01*
X66707142Y-72532857D02*
X66821428Y-72570952D01*
X66859523Y-72609047D01*
X66897619Y-72685238D01*
X66897619Y-72799523D01*
X66859523Y-72875714D01*
X66821428Y-72913809D01*
X66745238Y-72951904D01*
X66440476Y-72951904D01*
X66440476Y-72151904D01*
X66707142Y-72151904D01*
X66783333Y-72190000D01*
X66821428Y-72228095D01*
X66859523Y-72304285D01*
X66859523Y-72380476D01*
X66821428Y-72456666D01*
X66783333Y-72494761D01*
X66707142Y-72532857D01*
X66440476Y-72532857D01*
X67583333Y-72418571D02*
X67583333Y-72951904D01*
X67392857Y-72113809D02*
X67202380Y-72685238D01*
X67697619Y-72685238D01*
%TO.C,U4*%
X72460476Y-77261904D02*
X72460476Y-77909523D01*
X72498571Y-77985714D01*
X72536666Y-78023809D01*
X72612857Y-78061904D01*
X72765238Y-78061904D01*
X72841428Y-78023809D01*
X72879523Y-77985714D01*
X72917619Y-77909523D01*
X72917619Y-77261904D01*
X73641428Y-77528571D02*
X73641428Y-78061904D01*
X73450952Y-77223809D02*
X73260476Y-77795238D01*
X73755714Y-77795238D01*
%TO.C,C7*%
X98055619Y-65985714D02*
X98017523Y-66023809D01*
X97903238Y-66061904D01*
X97827047Y-66061904D01*
X97712761Y-66023809D01*
X97636571Y-65947619D01*
X97598476Y-65871428D01*
X97560380Y-65719047D01*
X97560380Y-65604761D01*
X97598476Y-65452380D01*
X97636571Y-65376190D01*
X97712761Y-65300000D01*
X97827047Y-65261904D01*
X97903238Y-65261904D01*
X98017523Y-65300000D01*
X98055619Y-65338095D01*
X98322285Y-65261904D02*
X98855619Y-65261904D01*
X98512761Y-66061904D01*
%TO.C,R53*%
X86851904Y-67884380D02*
X86470952Y-68151047D01*
X86851904Y-68341523D02*
X86051904Y-68341523D01*
X86051904Y-68036761D01*
X86090000Y-67960571D01*
X86128095Y-67922476D01*
X86204285Y-67884380D01*
X86318571Y-67884380D01*
X86394761Y-67922476D01*
X86432857Y-67960571D01*
X86470952Y-68036761D01*
X86470952Y-68341523D01*
X86051904Y-67160571D02*
X86051904Y-67541523D01*
X86432857Y-67579619D01*
X86394761Y-67541523D01*
X86356666Y-67465333D01*
X86356666Y-67274857D01*
X86394761Y-67198666D01*
X86432857Y-67160571D01*
X86509047Y-67122476D01*
X86699523Y-67122476D01*
X86775714Y-67160571D01*
X86813809Y-67198666D01*
X86851904Y-67274857D01*
X86851904Y-67465333D01*
X86813809Y-67541523D01*
X86775714Y-67579619D01*
X86051904Y-66855809D02*
X86051904Y-66360571D01*
X86356666Y-66627238D01*
X86356666Y-66512952D01*
X86394761Y-66436761D01*
X86432857Y-66398666D01*
X86509047Y-66360571D01*
X86699523Y-66360571D01*
X86775714Y-66398666D01*
X86813809Y-66436761D01*
X86851904Y-66512952D01*
X86851904Y-66741523D01*
X86813809Y-66817714D01*
X86775714Y-66855809D01*
%TO.C,C6*%
X101695619Y-66115714D02*
X101657523Y-66153809D01*
X101543238Y-66191904D01*
X101467047Y-66191904D01*
X101352761Y-66153809D01*
X101276571Y-66077619D01*
X101238476Y-66001428D01*
X101200380Y-65849047D01*
X101200380Y-65734761D01*
X101238476Y-65582380D01*
X101276571Y-65506190D01*
X101352761Y-65430000D01*
X101467047Y-65391904D01*
X101543238Y-65391904D01*
X101657523Y-65430000D01*
X101695619Y-65468095D01*
X102381333Y-65391904D02*
X102228952Y-65391904D01*
X102152761Y-65430000D01*
X102114666Y-65468095D01*
X102038476Y-65582380D01*
X102000380Y-65734761D01*
X102000380Y-66039523D01*
X102038476Y-66115714D01*
X102076571Y-66153809D01*
X102152761Y-66191904D01*
X102305142Y-66191904D01*
X102381333Y-66153809D01*
X102419428Y-66115714D01*
X102457523Y-66039523D01*
X102457523Y-65849047D01*
X102419428Y-65772857D01*
X102381333Y-65734761D01*
X102305142Y-65696666D01*
X102152761Y-65696666D01*
X102076571Y-65734761D01*
X102038476Y-65772857D01*
X102000380Y-65849047D01*
%TO.C,L1*%
X106189428Y-74681904D02*
X105808476Y-74681904D01*
X105808476Y-73881904D01*
X106875142Y-74681904D02*
X106418000Y-74681904D01*
X106646571Y-74681904D02*
X106646571Y-73881904D01*
X106570380Y-73996190D01*
X106494190Y-74072380D01*
X106418000Y-74110476D01*
%TO.C,C8*%
X94125714Y-70334380D02*
X94163809Y-70372476D01*
X94201904Y-70486761D01*
X94201904Y-70562952D01*
X94163809Y-70677238D01*
X94087619Y-70753428D01*
X94011428Y-70791523D01*
X93859047Y-70829619D01*
X93744761Y-70829619D01*
X93592380Y-70791523D01*
X93516190Y-70753428D01*
X93440000Y-70677238D01*
X93401904Y-70562952D01*
X93401904Y-70486761D01*
X93440000Y-70372476D01*
X93478095Y-70334380D01*
X93744761Y-69877238D02*
X93706666Y-69953428D01*
X93668571Y-69991523D01*
X93592380Y-70029619D01*
X93554285Y-70029619D01*
X93478095Y-69991523D01*
X93440000Y-69953428D01*
X93401904Y-69877238D01*
X93401904Y-69724857D01*
X93440000Y-69648666D01*
X93478095Y-69610571D01*
X93554285Y-69572476D01*
X93592380Y-69572476D01*
X93668571Y-69610571D01*
X93706666Y-69648666D01*
X93744761Y-69724857D01*
X93744761Y-69877238D01*
X93782857Y-69953428D01*
X93820952Y-69991523D01*
X93897142Y-70029619D01*
X94049523Y-70029619D01*
X94125714Y-69991523D01*
X94163809Y-69953428D01*
X94201904Y-69877238D01*
X94201904Y-69724857D01*
X94163809Y-69648666D01*
X94125714Y-69610571D01*
X94049523Y-69572476D01*
X93897142Y-69572476D01*
X93820952Y-69610571D01*
X93782857Y-69648666D01*
X93744761Y-69724857D01*
%TO.C,P3*%
X80689523Y-63391911D02*
X80689523Y-62591911D01*
X80994285Y-62591911D01*
X81070476Y-62630007D01*
X81108571Y-62668102D01*
X81146666Y-62744292D01*
X81146666Y-62858578D01*
X81108571Y-62934768D01*
X81070476Y-62972864D01*
X80994285Y-63010959D01*
X80689523Y-63010959D01*
X81413333Y-62591911D02*
X81908571Y-62591911D01*
X81641904Y-62896673D01*
X81756190Y-62896673D01*
X81832380Y-62934768D01*
X81870476Y-62972864D01*
X81908571Y-63049054D01*
X81908571Y-63239530D01*
X81870476Y-63315721D01*
X81832380Y-63353816D01*
X81756190Y-63391911D01*
X81527619Y-63391911D01*
X81451428Y-63353816D01*
X81413333Y-63315721D01*
%TO.C,R7*%
X95731904Y-59973333D02*
X95350952Y-60240000D01*
X95731904Y-60430476D02*
X94931904Y-60430476D01*
X94931904Y-60125714D01*
X94970000Y-60049523D01*
X95008095Y-60011428D01*
X95084285Y-59973333D01*
X95198571Y-59973333D01*
X95274761Y-60011428D01*
X95312857Y-60049523D01*
X95350952Y-60125714D01*
X95350952Y-60430476D01*
X94931904Y-59706666D02*
X94931904Y-59173333D01*
X95731904Y-59516190D01*
%TO.C,R1*%
X91755619Y-69241904D02*
X91488952Y-68860952D01*
X91298476Y-69241904D02*
X91298476Y-68441904D01*
X91603238Y-68441904D01*
X91679428Y-68480000D01*
X91717523Y-68518095D01*
X91755619Y-68594285D01*
X91755619Y-68708571D01*
X91717523Y-68784761D01*
X91679428Y-68822857D01*
X91603238Y-68860952D01*
X91298476Y-68860952D01*
X92517523Y-69241904D02*
X92060380Y-69241904D01*
X92288952Y-69241904D02*
X92288952Y-68441904D01*
X92212761Y-68556190D01*
X92136571Y-68632380D01*
X92060380Y-68670476D01*
%TO.C,R9*%
X89671904Y-59983333D02*
X89290952Y-60250000D01*
X89671904Y-60440476D02*
X88871904Y-60440476D01*
X88871904Y-60135714D01*
X88910000Y-60059523D01*
X88948095Y-60021428D01*
X89024285Y-59983333D01*
X89138571Y-59983333D01*
X89214761Y-60021428D01*
X89252857Y-60059523D01*
X89290952Y-60135714D01*
X89290952Y-60440476D01*
X89671904Y-59602380D02*
X89671904Y-59450000D01*
X89633809Y-59373809D01*
X89595714Y-59335714D01*
X89481428Y-59259523D01*
X89329047Y-59221428D01*
X89024285Y-59221428D01*
X88948095Y-59259523D01*
X88910000Y-59297619D01*
X88871904Y-59373809D01*
X88871904Y-59526190D01*
X88910000Y-59602380D01*
X88948095Y-59640476D01*
X89024285Y-59678571D01*
X89214761Y-59678571D01*
X89290952Y-59640476D01*
X89329047Y-59602380D01*
X89367142Y-59526190D01*
X89367142Y-59373809D01*
X89329047Y-59297619D01*
X89290952Y-59259523D01*
X89214761Y-59221428D01*
%TO.C,SB15*%
X79003809Y-54880476D02*
X79041904Y-54766190D01*
X79041904Y-54575714D01*
X79003809Y-54499523D01*
X78965714Y-54461428D01*
X78889523Y-54423333D01*
X78813333Y-54423333D01*
X78737142Y-54461428D01*
X78699047Y-54499523D01*
X78660952Y-54575714D01*
X78622857Y-54728095D01*
X78584761Y-54804285D01*
X78546666Y-54842380D01*
X78470476Y-54880476D01*
X78394285Y-54880476D01*
X78318095Y-54842380D01*
X78280000Y-54804285D01*
X78241904Y-54728095D01*
X78241904Y-54537619D01*
X78280000Y-54423333D01*
X78622857Y-53813809D02*
X78660952Y-53699523D01*
X78699047Y-53661428D01*
X78775238Y-53623333D01*
X78889523Y-53623333D01*
X78965714Y-53661428D01*
X79003809Y-53699523D01*
X79041904Y-53775714D01*
X79041904Y-54080476D01*
X78241904Y-54080476D01*
X78241904Y-53813809D01*
X78280000Y-53737619D01*
X78318095Y-53699523D01*
X78394285Y-53661428D01*
X78470476Y-53661428D01*
X78546666Y-53699523D01*
X78584761Y-53737619D01*
X78622857Y-53813809D01*
X78622857Y-54080476D01*
X79041904Y-52861428D02*
X79041904Y-53318571D01*
X79041904Y-53090000D02*
X78241904Y-53090000D01*
X78356190Y-53166190D01*
X78432380Y-53242380D01*
X78470476Y-53318571D01*
X78241904Y-52137619D02*
X78241904Y-52518571D01*
X78622857Y-52556666D01*
X78584761Y-52518571D01*
X78546666Y-52442380D01*
X78546666Y-52251904D01*
X78584761Y-52175714D01*
X78622857Y-52137619D01*
X78699047Y-52099523D01*
X78889523Y-52099523D01*
X78965714Y-52137619D01*
X79003809Y-52175714D01*
X79041904Y-52251904D01*
X79041904Y-52442380D01*
X79003809Y-52518571D01*
X78965714Y-52556666D01*
%TO.C,R4*%
X89965619Y-70741904D02*
X89698952Y-70360952D01*
X89508476Y-70741904D02*
X89508476Y-69941904D01*
X89813238Y-69941904D01*
X89889428Y-69980000D01*
X89927523Y-70018095D01*
X89965619Y-70094285D01*
X89965619Y-70208571D01*
X89927523Y-70284761D01*
X89889428Y-70322857D01*
X89813238Y-70360952D01*
X89508476Y-70360952D01*
X90651333Y-70208571D02*
X90651333Y-70741904D01*
X90460857Y-69903809D02*
X90270380Y-70475238D01*
X90765619Y-70475238D01*
%TO.C,SB8*%
X67793809Y-81899523D02*
X67831904Y-81785238D01*
X67831904Y-81594761D01*
X67793809Y-81518571D01*
X67755714Y-81480476D01*
X67679523Y-81442380D01*
X67603333Y-81442380D01*
X67527142Y-81480476D01*
X67489047Y-81518571D01*
X67450952Y-81594761D01*
X67412857Y-81747142D01*
X67374761Y-81823333D01*
X67336666Y-81861428D01*
X67260476Y-81899523D01*
X67184285Y-81899523D01*
X67108095Y-81861428D01*
X67070000Y-81823333D01*
X67031904Y-81747142D01*
X67031904Y-81556666D01*
X67070000Y-81442380D01*
X67412857Y-80832857D02*
X67450952Y-80718571D01*
X67489047Y-80680476D01*
X67565238Y-80642380D01*
X67679523Y-80642380D01*
X67755714Y-80680476D01*
X67793809Y-80718571D01*
X67831904Y-80794761D01*
X67831904Y-81099523D01*
X67031904Y-81099523D01*
X67031904Y-80832857D01*
X67070000Y-80756666D01*
X67108095Y-80718571D01*
X67184285Y-80680476D01*
X67260476Y-80680476D01*
X67336666Y-80718571D01*
X67374761Y-80756666D01*
X67412857Y-80832857D01*
X67412857Y-81099523D01*
X67374761Y-80185238D02*
X67336666Y-80261428D01*
X67298571Y-80299523D01*
X67222380Y-80337619D01*
X67184285Y-80337619D01*
X67108095Y-80299523D01*
X67070000Y-80261428D01*
X67031904Y-80185238D01*
X67031904Y-80032857D01*
X67070000Y-79956666D01*
X67108095Y-79918571D01*
X67184285Y-79880476D01*
X67222380Y-79880476D01*
X67298571Y-79918571D01*
X67336666Y-79956666D01*
X67374761Y-80032857D01*
X67374761Y-80185238D01*
X67412857Y-80261428D01*
X67450952Y-80299523D01*
X67527142Y-80337619D01*
X67679523Y-80337619D01*
X67755714Y-80299523D01*
X67793809Y-80261428D01*
X67831904Y-80185238D01*
X67831904Y-80032857D01*
X67793809Y-79956666D01*
X67755714Y-79918571D01*
X67679523Y-79880476D01*
X67527142Y-79880476D01*
X67450952Y-79918571D01*
X67412857Y-79956666D01*
X67374761Y-80032857D01*
%TO.C,C21*%
X94375714Y-74074380D02*
X94413809Y-74112476D01*
X94451904Y-74226761D01*
X94451904Y-74302952D01*
X94413809Y-74417238D01*
X94337619Y-74493428D01*
X94261428Y-74531523D01*
X94109047Y-74569619D01*
X93994761Y-74569619D01*
X93842380Y-74531523D01*
X93766190Y-74493428D01*
X93690000Y-74417238D01*
X93651904Y-74302952D01*
X93651904Y-74226761D01*
X93690000Y-74112476D01*
X93728095Y-74074380D01*
X93728095Y-73769619D02*
X93690000Y-73731523D01*
X93651904Y-73655333D01*
X93651904Y-73464857D01*
X93690000Y-73388666D01*
X93728095Y-73350571D01*
X93804285Y-73312476D01*
X93880476Y-73312476D01*
X93994761Y-73350571D01*
X94451904Y-73807714D01*
X94451904Y-73312476D01*
X94451904Y-72550571D02*
X94451904Y-73007714D01*
X94451904Y-72779142D02*
X93651904Y-72779142D01*
X93766190Y-72855333D01*
X93842380Y-72931523D01*
X93880476Y-73007714D01*
%TO.C,P2*%
X101019523Y-52621904D02*
X101019523Y-51821904D01*
X101324285Y-51821904D01*
X101400476Y-51860000D01*
X101438571Y-51898095D01*
X101476666Y-51974285D01*
X101476666Y-52088571D01*
X101438571Y-52164761D01*
X101400476Y-52202857D01*
X101324285Y-52240952D01*
X101019523Y-52240952D01*
X101781428Y-51898095D02*
X101819523Y-51860000D01*
X101895714Y-51821904D01*
X102086190Y-51821904D01*
X102162380Y-51860000D01*
X102200476Y-51898095D01*
X102238571Y-51974285D01*
X102238571Y-52050476D01*
X102200476Y-52164761D01*
X101743333Y-52621904D01*
X102238571Y-52621904D01*
%TO.C,R5*%
X78251904Y-71234380D02*
X77870952Y-71501047D01*
X78251904Y-71691523D02*
X77451904Y-71691523D01*
X77451904Y-71386761D01*
X77490000Y-71310571D01*
X77528095Y-71272476D01*
X77604285Y-71234380D01*
X77718571Y-71234380D01*
X77794761Y-71272476D01*
X77832857Y-71310571D01*
X77870952Y-71386761D01*
X77870952Y-71691523D01*
X77451904Y-70510571D02*
X77451904Y-70891523D01*
X77832857Y-70929619D01*
X77794761Y-70891523D01*
X77756666Y-70815333D01*
X77756666Y-70624857D01*
X77794761Y-70548666D01*
X77832857Y-70510571D01*
X77909047Y-70472476D01*
X78099523Y-70472476D01*
X78175714Y-70510571D01*
X78213809Y-70548666D01*
X78251904Y-70624857D01*
X78251904Y-70815333D01*
X78213809Y-70891523D01*
X78175714Y-70929619D01*
%TO.C,C13*%
X103405619Y-75405714D02*
X103367523Y-75443809D01*
X103253238Y-75481904D01*
X103177047Y-75481904D01*
X103062761Y-75443809D01*
X102986571Y-75367619D01*
X102948476Y-75291428D01*
X102910380Y-75139047D01*
X102910380Y-75024761D01*
X102948476Y-74872380D01*
X102986571Y-74796190D01*
X103062761Y-74720000D01*
X103177047Y-74681904D01*
X103253238Y-74681904D01*
X103367523Y-74720000D01*
X103405619Y-74758095D01*
X104167523Y-75481904D02*
X103710380Y-75481904D01*
X103938952Y-75481904D02*
X103938952Y-74681904D01*
X103862761Y-74796190D01*
X103786571Y-74872380D01*
X103710380Y-74910476D01*
X104434190Y-74681904D02*
X104929428Y-74681904D01*
X104662761Y-74986666D01*
X104777047Y-74986666D01*
X104853238Y-75024761D01*
X104891333Y-75062857D01*
X104929428Y-75139047D01*
X104929428Y-75329523D01*
X104891333Y-75405714D01*
X104853238Y-75443809D01*
X104777047Y-75481904D01*
X104548476Y-75481904D01*
X104472285Y-75443809D01*
X104434190Y-75405714D01*
%TO.C,C33*%
X49015619Y-63885714D02*
X48977523Y-63923809D01*
X48863238Y-63961904D01*
X48787047Y-63961904D01*
X48672761Y-63923809D01*
X48596571Y-63847619D01*
X48558476Y-63771428D01*
X48520380Y-63619047D01*
X48520380Y-63504761D01*
X48558476Y-63352380D01*
X48596571Y-63276190D01*
X48672761Y-63200000D01*
X48787047Y-63161904D01*
X48863238Y-63161904D01*
X48977523Y-63200000D01*
X49015619Y-63238095D01*
X49282285Y-63161904D02*
X49777523Y-63161904D01*
X49510857Y-63466666D01*
X49625142Y-63466666D01*
X49701333Y-63504761D01*
X49739428Y-63542857D01*
X49777523Y-63619047D01*
X49777523Y-63809523D01*
X49739428Y-63885714D01*
X49701333Y-63923809D01*
X49625142Y-63961904D01*
X49396571Y-63961904D01*
X49320380Y-63923809D01*
X49282285Y-63885714D01*
X50044190Y-63161904D02*
X50539428Y-63161904D01*
X50272761Y-63466666D01*
X50387047Y-63466666D01*
X50463238Y-63504761D01*
X50501333Y-63542857D01*
X50539428Y-63619047D01*
X50539428Y-63809523D01*
X50501333Y-63885714D01*
X50463238Y-63923809D01*
X50387047Y-63961904D01*
X50158476Y-63961904D01*
X50082285Y-63923809D01*
X50044190Y-63885714D01*
%TO.C,SW2*%
X74253333Y-60963809D02*
X74367619Y-61001904D01*
X74558095Y-61001904D01*
X74634285Y-60963809D01*
X74672380Y-60925714D01*
X74710476Y-60849523D01*
X74710476Y-60773333D01*
X74672380Y-60697142D01*
X74634285Y-60659047D01*
X74558095Y-60620952D01*
X74405714Y-60582857D01*
X74329523Y-60544761D01*
X74291428Y-60506666D01*
X74253333Y-60430476D01*
X74253333Y-60354285D01*
X74291428Y-60278095D01*
X74329523Y-60240000D01*
X74405714Y-60201904D01*
X74596190Y-60201904D01*
X74710476Y-60240000D01*
X74977142Y-60201904D02*
X75167619Y-61001904D01*
X75320000Y-60430476D01*
X75472380Y-61001904D01*
X75662857Y-60201904D01*
X75929523Y-60278095D02*
X75967619Y-60240000D01*
X76043809Y-60201904D01*
X76234285Y-60201904D01*
X76310476Y-60240000D01*
X76348571Y-60278095D01*
X76386666Y-60354285D01*
X76386666Y-60430476D01*
X76348571Y-60544761D01*
X75891428Y-61001904D01*
X76386666Y-61001904D01*
%TO.C,P4*%
X62909523Y-65931911D02*
X62909523Y-65131911D01*
X63214285Y-65131911D01*
X63290476Y-65170007D01*
X63328571Y-65208102D01*
X63366666Y-65284292D01*
X63366666Y-65398578D01*
X63328571Y-65474768D01*
X63290476Y-65512864D01*
X63214285Y-65550959D01*
X62909523Y-65550959D01*
X64052380Y-65398578D02*
X64052380Y-65931911D01*
X63861904Y-65093816D02*
X63671428Y-65665245D01*
X64166666Y-65665245D01*
%TO.C,SWD1*%
X104443333Y-86853809D02*
X104557619Y-86891904D01*
X104748095Y-86891904D01*
X104824285Y-86853809D01*
X104862380Y-86815714D01*
X104900476Y-86739523D01*
X104900476Y-86663333D01*
X104862380Y-86587142D01*
X104824285Y-86549047D01*
X104748095Y-86510952D01*
X104595714Y-86472857D01*
X104519523Y-86434761D01*
X104481428Y-86396666D01*
X104443333Y-86320476D01*
X104443333Y-86244285D01*
X104481428Y-86168095D01*
X104519523Y-86130000D01*
X104595714Y-86091904D01*
X104786190Y-86091904D01*
X104900476Y-86130000D01*
X105167142Y-86091904D02*
X105357619Y-86891904D01*
X105510000Y-86320476D01*
X105662380Y-86891904D01*
X105852857Y-86091904D01*
X106157619Y-86891904D02*
X106157619Y-86091904D01*
X106348095Y-86091904D01*
X106462380Y-86130000D01*
X106538571Y-86206190D01*
X106576666Y-86282380D01*
X106614761Y-86434761D01*
X106614761Y-86549047D01*
X106576666Y-86701428D01*
X106538571Y-86777619D01*
X106462380Y-86853809D01*
X106348095Y-86891904D01*
X106157619Y-86891904D01*
X107376666Y-86891904D02*
X106919523Y-86891904D01*
X107148095Y-86891904D02*
X107148095Y-86091904D01*
X107071904Y-86206190D01*
X106995714Y-86282380D01*
X106919523Y-86320476D01*
X108761333Y-83381904D02*
X108608952Y-83381904D01*
X108532761Y-83420000D01*
X108494666Y-83458095D01*
X108418476Y-83572380D01*
X108380380Y-83724761D01*
X108380380Y-84029523D01*
X108418476Y-84105714D01*
X108456571Y-84143809D01*
X108532761Y-84181904D01*
X108685142Y-84181904D01*
X108761333Y-84143809D01*
X108799428Y-84105714D01*
X108837523Y-84029523D01*
X108837523Y-83839047D01*
X108799428Y-83762857D01*
X108761333Y-83724761D01*
X108685142Y-83686666D01*
X108532761Y-83686666D01*
X108456571Y-83724761D01*
X108418476Y-83762857D01*
X108380380Y-83839047D01*
X103878571Y-81611904D02*
X103421428Y-81611904D01*
X103650000Y-81611904D02*
X103650000Y-80811904D01*
X103573809Y-80926190D01*
X103497619Y-81002380D01*
X103421428Y-81040476D01*
X108380380Y-80888095D02*
X108418476Y-80850000D01*
X108494666Y-80811904D01*
X108685142Y-80811904D01*
X108761333Y-80850000D01*
X108799428Y-80888095D01*
X108837523Y-80964285D01*
X108837523Y-81040476D01*
X108799428Y-81154761D01*
X108342285Y-81611904D01*
X108837523Y-81611904D01*
X103383333Y-82111904D02*
X103878571Y-82111904D01*
X103611904Y-82416666D01*
X103726190Y-82416666D01*
X103802380Y-82454761D01*
X103840476Y-82492857D01*
X103878571Y-82569047D01*
X103878571Y-82759523D01*
X103840476Y-82835714D01*
X103802380Y-82873809D01*
X103726190Y-82911904D01*
X103497619Y-82911904D01*
X103421428Y-82873809D01*
X103383333Y-82835714D01*
D11*
%TO.C,U1*%
X95846666Y-69036666D02*
X95846666Y-69603333D01*
X95880000Y-69670000D01*
X95913333Y-69703333D01*
X95980000Y-69736666D01*
X96113333Y-69736666D01*
X96180000Y-69703333D01*
X96213333Y-69670000D01*
X96246666Y-69603333D01*
X96246666Y-69036666D01*
X96946666Y-69736666D02*
X96546666Y-69736666D01*
X96746666Y-69736666D02*
X96746666Y-69036666D01*
X96680000Y-69136666D01*
X96613333Y-69203333D01*
X96546666Y-69236666D01*
D10*
%TO.C,C4*%
X105385714Y-67004380D02*
X105423809Y-67042476D01*
X105461904Y-67156761D01*
X105461904Y-67232952D01*
X105423809Y-67347238D01*
X105347619Y-67423428D01*
X105271428Y-67461523D01*
X105119047Y-67499619D01*
X105004761Y-67499619D01*
X104852380Y-67461523D01*
X104776190Y-67423428D01*
X104700000Y-67347238D01*
X104661904Y-67232952D01*
X104661904Y-67156761D01*
X104700000Y-67042476D01*
X104738095Y-67004380D01*
X104928571Y-66318666D02*
X105461904Y-66318666D01*
X104623809Y-66509142D02*
X105195238Y-66699619D01*
X105195238Y-66204380D01*
%TO.C,C5*%
X98505619Y-64875714D02*
X98467523Y-64913809D01*
X98353238Y-64951904D01*
X98277047Y-64951904D01*
X98162761Y-64913809D01*
X98086571Y-64837619D01*
X98048476Y-64761428D01*
X98010380Y-64609047D01*
X98010380Y-64494761D01*
X98048476Y-64342380D01*
X98086571Y-64266190D01*
X98162761Y-64190000D01*
X98277047Y-64151904D01*
X98353238Y-64151904D01*
X98467523Y-64190000D01*
X98505619Y-64228095D01*
X99229428Y-64151904D02*
X98848476Y-64151904D01*
X98810380Y-64532857D01*
X98848476Y-64494761D01*
X98924666Y-64456666D01*
X99115142Y-64456666D01*
X99191333Y-64494761D01*
X99229428Y-64532857D01*
X99267523Y-64609047D01*
X99267523Y-64799523D01*
X99229428Y-64875714D01*
X99191333Y-64913809D01*
X99115142Y-64951904D01*
X98924666Y-64951904D01*
X98848476Y-64913809D01*
X98810380Y-64875714D01*
D12*
%TO.C,ANT1*%
X108254285Y-71670000D02*
X108397142Y-71670000D01*
X108225714Y-71755714D02*
X108325714Y-71455714D01*
X108425714Y-71755714D01*
X108525714Y-71755714D02*
X108525714Y-71455714D01*
X108697142Y-71755714D01*
X108697142Y-71455714D01*
X108797142Y-71455714D02*
X108968571Y-71455714D01*
X108882857Y-71755714D02*
X108882857Y-71455714D01*
X109225714Y-71755714D02*
X109054285Y-71755714D01*
X109140000Y-71755714D02*
X109140000Y-71455714D01*
X109111428Y-71498571D01*
X109082857Y-71527142D01*
X109054285Y-71541428D01*
D10*
%TO.C,SB17*%
X91319523Y-62313809D02*
X91433809Y-62351904D01*
X91624285Y-62351904D01*
X91700476Y-62313809D01*
X91738571Y-62275714D01*
X91776666Y-62199523D01*
X91776666Y-62123333D01*
X91738571Y-62047142D01*
X91700476Y-62009047D01*
X91624285Y-61970952D01*
X91471904Y-61932857D01*
X91395714Y-61894761D01*
X91357619Y-61856666D01*
X91319523Y-61780476D01*
X91319523Y-61704285D01*
X91357619Y-61628095D01*
X91395714Y-61590000D01*
X91471904Y-61551904D01*
X91662380Y-61551904D01*
X91776666Y-61590000D01*
X92386190Y-61932857D02*
X92500476Y-61970952D01*
X92538571Y-62009047D01*
X92576666Y-62085238D01*
X92576666Y-62199523D01*
X92538571Y-62275714D01*
X92500476Y-62313809D01*
X92424285Y-62351904D01*
X92119523Y-62351904D01*
X92119523Y-61551904D01*
X92386190Y-61551904D01*
X92462380Y-61590000D01*
X92500476Y-61628095D01*
X92538571Y-61704285D01*
X92538571Y-61780476D01*
X92500476Y-61856666D01*
X92462380Y-61894761D01*
X92386190Y-61932857D01*
X92119523Y-61932857D01*
X93338571Y-62351904D02*
X92881428Y-62351904D01*
X93110000Y-62351904D02*
X93110000Y-61551904D01*
X93033809Y-61666190D01*
X92957619Y-61742380D01*
X92881428Y-61780476D01*
X93605238Y-61551904D02*
X94138571Y-61551904D01*
X93795714Y-62351904D01*
%TO.C,SB9*%
X77590476Y-78683809D02*
X77704761Y-78721904D01*
X77895238Y-78721904D01*
X77971428Y-78683809D01*
X78009523Y-78645714D01*
X78047619Y-78569523D01*
X78047619Y-78493333D01*
X78009523Y-78417142D01*
X77971428Y-78379047D01*
X77895238Y-78340952D01*
X77742857Y-78302857D01*
X77666666Y-78264761D01*
X77628571Y-78226666D01*
X77590476Y-78150476D01*
X77590476Y-78074285D01*
X77628571Y-77998095D01*
X77666666Y-77960000D01*
X77742857Y-77921904D01*
X77933333Y-77921904D01*
X78047619Y-77960000D01*
X78657142Y-78302857D02*
X78771428Y-78340952D01*
X78809523Y-78379047D01*
X78847619Y-78455238D01*
X78847619Y-78569523D01*
X78809523Y-78645714D01*
X78771428Y-78683809D01*
X78695238Y-78721904D01*
X78390476Y-78721904D01*
X78390476Y-77921904D01*
X78657142Y-77921904D01*
X78733333Y-77960000D01*
X78771428Y-77998095D01*
X78809523Y-78074285D01*
X78809523Y-78150476D01*
X78771428Y-78226666D01*
X78733333Y-78264761D01*
X78657142Y-78302857D01*
X78390476Y-78302857D01*
X79228571Y-78721904D02*
X79380952Y-78721904D01*
X79457142Y-78683809D01*
X79495238Y-78645714D01*
X79571428Y-78531428D01*
X79609523Y-78379047D01*
X79609523Y-78074285D01*
X79571428Y-77998095D01*
X79533333Y-77960000D01*
X79457142Y-77921904D01*
X79304761Y-77921904D01*
X79228571Y-77960000D01*
X79190476Y-77998095D01*
X79152380Y-78074285D01*
X79152380Y-78264761D01*
X79190476Y-78340952D01*
X79228571Y-78379047D01*
X79304761Y-78417142D01*
X79457142Y-78417142D01*
X79533333Y-78379047D01*
X79571428Y-78340952D01*
X79609523Y-78264761D01*
%TO.C,D4*%
X92441904Y-57540476D02*
X91641904Y-57540476D01*
X91641904Y-57350000D01*
X91680000Y-57235714D01*
X91756190Y-57159523D01*
X91832380Y-57121428D01*
X91984761Y-57083333D01*
X92099047Y-57083333D01*
X92251428Y-57121428D01*
X92327619Y-57159523D01*
X92403809Y-57235714D01*
X92441904Y-57350000D01*
X92441904Y-57540476D01*
X91908571Y-56397619D02*
X92441904Y-56397619D01*
X91603809Y-56588095D02*
X92175238Y-56778571D01*
X92175238Y-56283333D01*
%TO.C,SB12*%
X92553809Y-54890476D02*
X92591904Y-54776190D01*
X92591904Y-54585714D01*
X92553809Y-54509523D01*
X92515714Y-54471428D01*
X92439523Y-54433333D01*
X92363333Y-54433333D01*
X92287142Y-54471428D01*
X92249047Y-54509523D01*
X92210952Y-54585714D01*
X92172857Y-54738095D01*
X92134761Y-54814285D01*
X92096666Y-54852380D01*
X92020476Y-54890476D01*
X91944285Y-54890476D01*
X91868095Y-54852380D01*
X91830000Y-54814285D01*
X91791904Y-54738095D01*
X91791904Y-54547619D01*
X91830000Y-54433333D01*
X92172857Y-53823809D02*
X92210952Y-53709523D01*
X92249047Y-53671428D01*
X92325238Y-53633333D01*
X92439523Y-53633333D01*
X92515714Y-53671428D01*
X92553809Y-53709523D01*
X92591904Y-53785714D01*
X92591904Y-54090476D01*
X91791904Y-54090476D01*
X91791904Y-53823809D01*
X91830000Y-53747619D01*
X91868095Y-53709523D01*
X91944285Y-53671428D01*
X92020476Y-53671428D01*
X92096666Y-53709523D01*
X92134761Y-53747619D01*
X92172857Y-53823809D01*
X92172857Y-54090476D01*
X92591904Y-52871428D02*
X92591904Y-53328571D01*
X92591904Y-53100000D02*
X91791904Y-53100000D01*
X91906190Y-53176190D01*
X91982380Y-53252380D01*
X92020476Y-53328571D01*
X91868095Y-52566666D02*
X91830000Y-52528571D01*
X91791904Y-52452380D01*
X91791904Y-52261904D01*
X91830000Y-52185714D01*
X91868095Y-52147619D01*
X91944285Y-52109523D01*
X92020476Y-52109523D01*
X92134761Y-52147619D01*
X92591904Y-52604761D01*
X92591904Y-52109523D01*
%TO.C,SB11*%
X95553809Y-54890476D02*
X95591904Y-54776190D01*
X95591904Y-54585714D01*
X95553809Y-54509523D01*
X95515714Y-54471428D01*
X95439523Y-54433333D01*
X95363333Y-54433333D01*
X95287142Y-54471428D01*
X95249047Y-54509523D01*
X95210952Y-54585714D01*
X95172857Y-54738095D01*
X95134761Y-54814285D01*
X95096666Y-54852380D01*
X95020476Y-54890476D01*
X94944285Y-54890476D01*
X94868095Y-54852380D01*
X94830000Y-54814285D01*
X94791904Y-54738095D01*
X94791904Y-54547619D01*
X94830000Y-54433333D01*
X95172857Y-53823809D02*
X95210952Y-53709523D01*
X95249047Y-53671428D01*
X95325238Y-53633333D01*
X95439523Y-53633333D01*
X95515714Y-53671428D01*
X95553809Y-53709523D01*
X95591904Y-53785714D01*
X95591904Y-54090476D01*
X94791904Y-54090476D01*
X94791904Y-53823809D01*
X94830000Y-53747619D01*
X94868095Y-53709523D01*
X94944285Y-53671428D01*
X95020476Y-53671428D01*
X95096666Y-53709523D01*
X95134761Y-53747619D01*
X95172857Y-53823809D01*
X95172857Y-54090476D01*
X95591904Y-52871428D02*
X95591904Y-53328571D01*
X95591904Y-53100000D02*
X94791904Y-53100000D01*
X94906190Y-53176190D01*
X94982380Y-53252380D01*
X95020476Y-53328571D01*
X95591904Y-52109523D02*
X95591904Y-52566666D01*
X95591904Y-52338095D02*
X94791904Y-52338095D01*
X94906190Y-52414285D01*
X94982380Y-52490476D01*
X95020476Y-52566666D01*
%TO.C,USB1*%
X41039523Y-61806904D02*
X41039523Y-62454523D01*
X41077619Y-62530714D01*
X41115714Y-62568809D01*
X41191904Y-62606904D01*
X41344285Y-62606904D01*
X41420476Y-62568809D01*
X41458571Y-62530714D01*
X41496666Y-62454523D01*
X41496666Y-61806904D01*
X41839523Y-62568809D02*
X41953809Y-62606904D01*
X42144285Y-62606904D01*
X42220476Y-62568809D01*
X42258571Y-62530714D01*
X42296666Y-62454523D01*
X42296666Y-62378333D01*
X42258571Y-62302142D01*
X42220476Y-62264047D01*
X42144285Y-62225952D01*
X41991904Y-62187857D01*
X41915714Y-62149761D01*
X41877619Y-62111666D01*
X41839523Y-62035476D01*
X41839523Y-61959285D01*
X41877619Y-61883095D01*
X41915714Y-61845000D01*
X41991904Y-61806904D01*
X42182380Y-61806904D01*
X42296666Y-61845000D01*
X42906190Y-62187857D02*
X43020476Y-62225952D01*
X43058571Y-62264047D01*
X43096666Y-62340238D01*
X43096666Y-62454523D01*
X43058571Y-62530714D01*
X43020476Y-62568809D01*
X42944285Y-62606904D01*
X42639523Y-62606904D01*
X42639523Y-61806904D01*
X42906190Y-61806904D01*
X42982380Y-61845000D01*
X43020476Y-61883095D01*
X43058571Y-61959285D01*
X43058571Y-62035476D01*
X43020476Y-62111666D01*
X42982380Y-62149761D01*
X42906190Y-62187857D01*
X42639523Y-62187857D01*
X43858571Y-62606904D02*
X43401428Y-62606904D01*
X43630000Y-62606904D02*
X43630000Y-61806904D01*
X43553809Y-61921190D01*
X43477619Y-61997380D01*
X43401428Y-62035476D01*
%TO.C,R2*%
X72920000Y-76810000D02*
X72480000Y-76810000D01*
X72480000Y-76610000D02*
X72480000Y-76810000D01*
X72480000Y-75830000D02*
X72480000Y-76030000D01*
X72920000Y-75830000D02*
X72920000Y-76030000D01*
X72480000Y-75830000D02*
X72920000Y-75830000D01*
X72920000Y-76610000D02*
X72920000Y-76810000D01*
%TO.C,C19*%
X73550000Y-73510000D02*
X73990000Y-73510000D01*
X73990000Y-74290000D02*
X73990000Y-74490000D01*
X73990000Y-74490000D02*
X73550000Y-74490000D01*
X73990000Y-73510000D02*
X73990000Y-73710000D01*
X73550000Y-74290000D02*
X73550000Y-74490000D01*
X73550000Y-73510000D02*
X73550000Y-73710000D01*
%TO.C,C10*%
X95080000Y-77700000D02*
X95520000Y-77700000D01*
X95080000Y-77700000D02*
X95080000Y-77900000D01*
X95520000Y-78480000D02*
X95520000Y-78680000D01*
X95520000Y-78680000D02*
X95080000Y-78680000D01*
X95520000Y-77700000D02*
X95520000Y-77900000D01*
X95080000Y-78480000D02*
X95080000Y-78680000D01*
%TO.C,C17*%
X93275000Y-66375000D02*
X94225000Y-66375000D01*
X93275000Y-66375000D02*
X93275000Y-66575000D01*
X94225000Y-66375000D02*
X94225000Y-66575000D01*
X93275000Y-68625000D02*
X94225000Y-68625000D01*
X94225000Y-68425000D02*
X94225000Y-68625000D01*
X93275000Y-68425000D02*
X93275000Y-68625000D01*
%TO.C,C12*%
X100880000Y-77660000D02*
X101320000Y-77660000D01*
X100880000Y-78440000D02*
X100880000Y-78640000D01*
X101320000Y-78640000D02*
X100880000Y-78640000D01*
X100880000Y-77660000D02*
X100880000Y-77860000D01*
X101320000Y-77660000D02*
X101320000Y-77860000D01*
X101320000Y-78440000D02*
X101320000Y-78640000D01*
%TO.C,FB1*%
X49215000Y-61850000D02*
X49015000Y-61850000D01*
X49215000Y-61850000D02*
X49215000Y-62850000D01*
X46815000Y-61850000D02*
X46815000Y-62850000D01*
X47015000Y-62850000D02*
X46815000Y-62850000D01*
X47015000Y-61850000D02*
X46815000Y-61850000D01*
X49215000Y-62850000D02*
X49015000Y-62850000D01*
%TO.C,R6*%
X99100000Y-59100000D02*
X99100000Y-59300000D01*
X99100000Y-60700000D02*
X99100000Y-60900000D01*
X99900000Y-60900000D02*
X99100000Y-60900000D01*
X99900000Y-60900000D02*
X99900000Y-60700000D01*
X99900000Y-59300000D02*
X99900000Y-59100000D01*
X99900000Y-59100000D02*
X99100000Y-59100000D01*
%TO.C,FB2*%
X51090000Y-74550000D02*
X50890000Y-74550000D01*
X48890000Y-73550000D02*
X48690000Y-73550000D01*
X48890000Y-74550000D02*
X48690000Y-74550000D01*
X51090000Y-73550000D02*
X51090000Y-74550000D01*
X51090000Y-73550000D02*
X50890000Y-73550000D01*
X48690000Y-73550000D02*
X48690000Y-74550000D01*
%TO.C,C9*%
X93070000Y-77160000D02*
X93070000Y-77600000D01*
X93070000Y-77600000D02*
X92870000Y-77600000D01*
X92290000Y-77160000D02*
X92090000Y-77160000D01*
X92290000Y-77600000D02*
X92090000Y-77600000D01*
X93070000Y-77160000D02*
X92870000Y-77160000D01*
X92090000Y-77600000D02*
X92090000Y-77160000D01*
%TO.C,C20*%
X96275000Y-68675000D02*
X96925000Y-68675000D01*
X96925000Y-67125000D02*
X96925000Y-66925000D01*
X96275000Y-68475000D02*
X96275000Y-68675000D01*
X96275000Y-66925000D02*
X96275000Y-67125000D01*
X96275000Y-66925000D02*
X96925000Y-66925000D01*
X96925000Y-68675000D02*
X96925000Y-68475000D01*
%TO.C,X2*%
X92560001Y-75329998D02*
X92060001Y-75329998D01*
X92560001Y-76729998D02*
X92060001Y-76729998D01*
%TO.C,P1*%
X100330000Y-83820000D02*
X102870000Y-83820000D01*
X102870000Y-83820000D02*
X102870000Y-86360000D01*
X46990000Y-83820000D02*
X100330000Y-83820000D01*
X46990000Y-83820000D02*
X46990000Y-86360000D01*
X46990000Y-86360000D02*
X100330000Y-86360000D01*
X102870000Y-86360000D02*
X100330000Y-86360000D01*
X100330000Y-83820000D02*
X100330000Y-86360000D01*
%TO.C,C14*%
X104140000Y-70290000D02*
X104140000Y-70490000D01*
X104140000Y-71270000D02*
X103700000Y-71270000D01*
X103700000Y-71070000D02*
X103700000Y-71270000D01*
X104140000Y-71070000D02*
X104140000Y-71270000D01*
X103700000Y-70290000D02*
X103700000Y-70490000D01*
X103700000Y-70290000D02*
X104140000Y-70290000D01*
%TO.C,D3*%
X97235000Y-58070000D02*
X97235000Y-55785000D01*
X95765000Y-55785000D02*
X95765000Y-58070000D01*
X97235000Y-55785000D02*
X95765000Y-55785000D01*
%TO.C,C2*%
X105210000Y-72580000D02*
X105210000Y-72380000D01*
X104770000Y-71800000D02*
X104770000Y-71600000D01*
X105210000Y-72580000D02*
X104770000Y-72580000D01*
X104770000Y-72580000D02*
X104770000Y-72380000D01*
X104770000Y-71600000D02*
X105210000Y-71600000D01*
X105210000Y-71800000D02*
X105210000Y-71600000D01*
%TO.C,D2*%
X100235000Y-55785000D02*
X98765000Y-55785000D01*
X98765000Y-55785000D02*
X98765000Y-58070000D01*
X100235000Y-58070000D02*
X100235000Y-55785000D01*
%TO.C,C32*%
X48896500Y-60945000D02*
X48696500Y-60945000D01*
X48116500Y-60505000D02*
X47916500Y-60505000D01*
X48896500Y-60505000D02*
X48696500Y-60505000D01*
X48896500Y-60505000D02*
X48896500Y-60945000D01*
X47916500Y-60945000D02*
X47916500Y-60505000D01*
X48116500Y-60945000D02*
X47916500Y-60945000D01*
%TO.C,C30*%
X44350000Y-73970000D02*
X44150000Y-73970000D01*
X44150000Y-73970000D02*
X44150000Y-73530000D01*
X45130000Y-73530000D02*
X45130000Y-73970000D01*
X45130000Y-73970000D02*
X44930000Y-73970000D01*
X45130000Y-73530000D02*
X44930000Y-73530000D01*
X44350000Y-73530000D02*
X44150000Y-73530000D01*
%TO.C,L4*%
X92315000Y-72115000D02*
X92315000Y-71915000D01*
X92315000Y-74165000D02*
X91365000Y-74165000D01*
X91365000Y-72115000D02*
X91365000Y-71915000D01*
X92315000Y-71915000D02*
X91365000Y-71915000D01*
X92315000Y-74165000D02*
X92315000Y-73965000D01*
X91365000Y-74165000D02*
X91365000Y-73965000D01*
%TO.C,R54*%
X87660000Y-67423479D02*
X88100000Y-67423479D01*
X88100000Y-68203479D02*
X88100000Y-68403479D01*
X87660000Y-67423479D02*
X87660000Y-67623479D01*
X88100000Y-68403479D02*
X87660000Y-68403479D01*
X88100000Y-67423479D02*
X88100000Y-67623479D01*
X87660000Y-68203479D02*
X87660000Y-68403479D01*
%TO.C,D1*%
X48215000Y-65950000D02*
X48215000Y-68350000D01*
X51315000Y-68350000D02*
X51315000Y-65400000D01*
X51991040Y-64975000D02*
G75*
G03*
X51991040Y-64975000I-301040J0D01*
G01*
%TO.C,X1*%
X106270000Y-70550000D02*
X106170000Y-70550000D01*
X106270000Y-68400000D02*
X106170000Y-68400000D01*
X105370000Y-69350000D02*
X105370000Y-69650000D01*
X107070000Y-69650000D02*
X107070000Y-69350000D01*
%TO.C,C3*%
X101635000Y-68585000D02*
X101835000Y-68585000D01*
X103385000Y-68585000D02*
X103385000Y-67935000D01*
X103385000Y-67935000D02*
X103185000Y-67935000D01*
X101835000Y-67935000D02*
X101635000Y-67935000D01*
X101635000Y-68585000D02*
X101635000Y-67935000D01*
X103185000Y-68585000D02*
X103385000Y-68585000D01*
%TO.C,C15*%
X103500000Y-69060000D02*
X103500000Y-68620000D01*
X104280000Y-69060000D02*
X104480000Y-69060000D01*
X104480000Y-68620000D02*
X104480000Y-69060000D01*
X104280000Y-68620000D02*
X104480000Y-68620000D01*
X103500000Y-68620000D02*
X103700000Y-68620000D01*
X103500000Y-69060000D02*
X103700000Y-69060000D01*
%TO.C,L3*%
X99335000Y-66415000D02*
X99535000Y-66415000D01*
X97285000Y-66415000D02*
X97485000Y-66415000D01*
X97285000Y-67365000D02*
X97485000Y-67365000D01*
X99535000Y-67365000D02*
X99535000Y-66415000D01*
X99335000Y-67365000D02*
X99535000Y-67365000D01*
X97285000Y-67365000D02*
X97285000Y-66415000D01*
%TO.C,R55*%
X45130000Y-72920000D02*
X44930000Y-72920000D01*
X44150000Y-72920000D02*
X44150000Y-72480000D01*
X44350000Y-72480000D02*
X44150000Y-72480000D01*
X44350000Y-72920000D02*
X44150000Y-72920000D01*
X45130000Y-72480000D02*
X44930000Y-72480000D01*
X45130000Y-72480000D02*
X45130000Y-72920000D01*
%TO.C,R8*%
X93100000Y-60700000D02*
X93100000Y-60900000D01*
X93900000Y-59300000D02*
X93900000Y-59100000D01*
X93100000Y-59100000D02*
X93100000Y-59300000D01*
X93900000Y-60900000D02*
X93900000Y-60700000D01*
X93900000Y-59100000D02*
X93100000Y-59100000D01*
X93900000Y-60900000D02*
X93100000Y-60900000D01*
%TO.C,C16*%
X99975000Y-68750000D02*
X100625000Y-68750000D01*
X99975000Y-68550000D02*
X99975000Y-68750000D01*
X99975000Y-67000000D02*
X99975000Y-67200000D01*
X100625000Y-67200000D02*
X100625000Y-67000000D01*
X100625000Y-68750000D02*
X100625000Y-68550000D01*
X99975000Y-67000000D02*
X100625000Y-67000000D01*
%TO.C,C31*%
X49250000Y-71695000D02*
X49250000Y-71255000D01*
X49250000Y-71695000D02*
X49450000Y-71695000D01*
X50030000Y-71255000D02*
X50230000Y-71255000D01*
X50030000Y-71695000D02*
X50230000Y-71695000D01*
X50230000Y-71255000D02*
X50230000Y-71695000D01*
X49250000Y-71255000D02*
X49450000Y-71255000D01*
%TO.C,FB3*%
X43290000Y-75350000D02*
X43290000Y-74350000D01*
X45490000Y-74350000D02*
X45690000Y-74350000D01*
X43290000Y-74350000D02*
X43490000Y-74350000D01*
X45490000Y-75350000D02*
X45690000Y-75350000D01*
X43290000Y-75350000D02*
X43490000Y-75350000D01*
X45690000Y-75350000D02*
X45690000Y-74350000D01*
%TO.C,U2*%
X74665000Y-72945000D02*
X74265000Y-72945000D01*
X69465000Y-66545000D02*
X69065000Y-66545000D01*
X74665000Y-66545000D02*
X74665000Y-72945000D01*
X69065000Y-72945000D02*
X69465000Y-72945000D01*
X69065000Y-66545000D02*
X69065000Y-72945000D01*
X74265000Y-66545000D02*
X74665000Y-66545000D01*
D13*
X74795000Y-65945000D02*
G75*
G03*
X74795000Y-65945000I-130000J0D01*
G01*
D10*
%TO.C,R3*%
X74480000Y-76610000D02*
X74480000Y-76810000D01*
X74480000Y-75830000D02*
X74480000Y-76030000D01*
X74480000Y-75830000D02*
X74920000Y-75830000D01*
X74920000Y-75830000D02*
X74920000Y-76030000D01*
X74920000Y-76810000D02*
X74480000Y-76810000D01*
X74920000Y-76610000D02*
X74920000Y-76810000D01*
%TO.C,L2*%
X103125000Y-67785000D02*
X103125000Y-66835000D01*
X100875000Y-66835000D02*
X101075000Y-66835000D01*
X100875000Y-67785000D02*
X100875000Y-66835000D01*
X102925000Y-66835000D02*
X103125000Y-66835000D01*
X100875000Y-67785000D02*
X101075000Y-67785000D01*
X102925000Y-67785000D02*
X103125000Y-67785000D01*
%TO.C,C11*%
X97890000Y-77660000D02*
X98330000Y-77660000D01*
X98330000Y-78640000D02*
X97890000Y-78640000D01*
X97890000Y-77660000D02*
X97890000Y-77860000D01*
X98330000Y-78440000D02*
X98330000Y-78640000D01*
X97890000Y-78440000D02*
X97890000Y-78640000D01*
X98330000Y-77660000D02*
X98330000Y-77860000D01*
%TO.C,C18*%
X94350000Y-66375000D02*
X95300000Y-66375000D01*
X94350000Y-68625000D02*
X95300000Y-68625000D01*
X94350000Y-66375000D02*
X94350000Y-66575000D01*
X95300000Y-68425000D02*
X95300000Y-68625000D01*
X94350000Y-68425000D02*
X94350000Y-68625000D01*
X95300000Y-66375000D02*
X95300000Y-66575000D01*
%TO.C,C34*%
X48965000Y-73300000D02*
X48765000Y-73300000D01*
X48965000Y-72350000D02*
X48765000Y-72350000D01*
X51015000Y-72350000D02*
X50815000Y-72350000D01*
X48765000Y-72350000D02*
X48765000Y-73300000D01*
X51015000Y-72350000D02*
X51015000Y-73300000D01*
X51015000Y-73300000D02*
X50815000Y-73300000D01*
%TO.C,C22*%
X92650000Y-71885000D02*
X92650000Y-70935000D01*
X94700000Y-71885000D02*
X94900000Y-71885000D01*
X92650000Y-70935000D02*
X92850000Y-70935000D01*
X92650000Y-71885000D02*
X92850000Y-71885000D01*
X94700000Y-70935000D02*
X94900000Y-70935000D01*
X94900000Y-71885000D02*
X94900000Y-70935000D01*
%TO.C,SW1*%
X81650000Y-58115000D02*
X81650000Y-57565000D01*
X82675000Y-55990000D02*
X81750000Y-55990000D01*
X86450000Y-55990000D02*
X85525000Y-55990000D01*
X86450000Y-59690000D02*
X81750000Y-59690000D01*
X86550000Y-58115000D02*
X86550000Y-57565000D01*
%TO.C,D5*%
X89695000Y-55785000D02*
X89695000Y-58070000D01*
X91165000Y-55785000D02*
X89695000Y-55785000D01*
X91165000Y-58070000D02*
X91165000Y-55785000D01*
%TO.C,C1*%
X103030000Y-71825000D02*
X103470000Y-71825000D01*
X103470000Y-72805000D02*
X103030000Y-72805000D01*
X103030000Y-72805000D02*
X103030000Y-72605000D01*
X103470000Y-72805000D02*
X103470000Y-72605000D01*
X103470000Y-72025000D02*
X103470000Y-71825000D01*
X103030000Y-72025000D02*
X103030000Y-71825000D01*
%TO.C,U4*%
X72670000Y-80510000D02*
X74670000Y-80510000D01*
X73670000Y-78290000D02*
X74670000Y-78290000D01*
%TO.C,C7*%
X99175000Y-68445000D02*
X98975000Y-68445000D01*
X97425000Y-69095000D02*
X97425000Y-68445000D01*
X97425000Y-69095000D02*
X97625000Y-69095000D01*
X97625000Y-68445000D02*
X97425000Y-68445000D01*
X98975000Y-69095000D02*
X99175000Y-69095000D01*
X99175000Y-69095000D02*
X99175000Y-68445000D01*
%TO.C,R53*%
X87540000Y-68403479D02*
X87100000Y-68403479D01*
X87540000Y-68203479D02*
X87540000Y-68403479D01*
X87100000Y-68203479D02*
X87100000Y-68403479D01*
X87540000Y-67423479D02*
X87540000Y-67623479D01*
X87100000Y-67423479D02*
X87540000Y-67423479D01*
X87100000Y-67423479D02*
X87100000Y-67623479D01*
%TO.C,C6*%
X101430000Y-69430000D02*
X101630000Y-69430000D01*
X100650000Y-69430000D02*
X100650000Y-68990000D01*
X100650000Y-68990000D02*
X100850000Y-68990000D01*
X100650000Y-69430000D02*
X100850000Y-69430000D01*
X101630000Y-68990000D02*
X101630000Y-69430000D01*
X101430000Y-68990000D02*
X101630000Y-68990000D01*
%TO.C,L1*%
X104610000Y-72380000D02*
X104610000Y-72820000D01*
X104410000Y-72380000D02*
X104610000Y-72380000D01*
X104410000Y-72820000D02*
X104610000Y-72820000D01*
X103630000Y-72380000D02*
X103830000Y-72380000D01*
X103630000Y-72820000D02*
X103830000Y-72820000D01*
X103630000Y-72820000D02*
X103630000Y-72380000D01*
%TO.C,C8*%
X94460000Y-69830000D02*
X94900000Y-69830000D01*
X94900000Y-70810000D02*
X94900000Y-70610000D01*
X94900000Y-70810000D02*
X94460000Y-70810000D01*
X94900000Y-70030000D02*
X94900000Y-69830000D01*
X94460000Y-70810000D02*
X94460000Y-70610000D01*
X94460000Y-70030000D02*
X94460000Y-69830000D01*
%TO.C,P3*%
X80010000Y-81590007D02*
X82550000Y-81590007D01*
X82550000Y-66350007D02*
X80010000Y-66350007D01*
X82550000Y-63810007D02*
X82550000Y-66350007D01*
X80010000Y-63810007D02*
X82550000Y-63810007D01*
X80010000Y-66350007D02*
X80010000Y-81590007D01*
X80010000Y-66350007D02*
X80010000Y-63810007D01*
X82550000Y-81590007D02*
X82550000Y-66350007D01*
%TO.C,R7*%
X96100000Y-59100000D02*
X96100000Y-59300000D01*
X96900000Y-60900000D02*
X96900000Y-60700000D01*
X96900000Y-59100000D02*
X96100000Y-59100000D01*
X96900000Y-60900000D02*
X96100000Y-60900000D01*
X96900000Y-59300000D02*
X96900000Y-59100000D01*
X96100000Y-60700000D02*
X96100000Y-60900000D01*
%TO.C,R1*%
X93690000Y-68780000D02*
X93690000Y-69220000D01*
X92710000Y-68780000D02*
X92910000Y-68780000D01*
X93490000Y-69220000D02*
X93690000Y-69220000D01*
X92710000Y-69220000D02*
X92710000Y-68780000D01*
X92710000Y-69220000D02*
X92910000Y-69220000D01*
X93490000Y-68780000D02*
X93690000Y-68780000D01*
%TO.C,R9*%
X90820000Y-59300000D02*
X90820000Y-59100000D01*
X90820000Y-59100000D02*
X90020000Y-59100000D01*
X90820000Y-60900000D02*
X90820000Y-60700000D01*
X90020000Y-59100000D02*
X90020000Y-59300000D01*
X90020000Y-60700000D02*
X90020000Y-60900000D01*
X90820000Y-60900000D02*
X90020000Y-60900000D01*
%TO.C,R4*%
X91060000Y-70300000D02*
X91260000Y-70300000D01*
X91840000Y-70300000D02*
X92040000Y-70300000D01*
X92040000Y-70300000D02*
X92040000Y-70740000D01*
X91060000Y-70740000D02*
X91260000Y-70740000D01*
X91840000Y-70740000D02*
X92040000Y-70740000D01*
X91060000Y-70740000D02*
X91060000Y-70300000D01*
%TO.C,C21*%
X92455000Y-72525000D02*
X92455000Y-72725000D01*
X92455000Y-74775000D02*
X93405000Y-74775000D01*
X93405000Y-74575000D02*
X93405000Y-74775000D01*
X92455000Y-72525000D02*
X93405000Y-72525000D01*
X93405000Y-72525000D02*
X93405000Y-72725000D01*
X92455000Y-74575000D02*
X92455000Y-74775000D01*
%TO.C,P2*%
X46990000Y-48730000D02*
X46990000Y-51270000D01*
X46990000Y-48730000D02*
X100330000Y-48730000D01*
X102870000Y-48730000D02*
X102870000Y-51270000D01*
X102870000Y-51270000D02*
X100330000Y-51270000D01*
X100330000Y-48730000D02*
X100330000Y-51270000D01*
X100330000Y-48730000D02*
X102870000Y-48730000D01*
X46990000Y-51270000D02*
X100330000Y-51270000D01*
%TO.C,R5*%
X78970000Y-71590000D02*
X78530000Y-71590000D01*
X78530000Y-70610000D02*
X78530000Y-70810000D01*
X78530000Y-70610000D02*
X78970000Y-70610000D01*
X78970000Y-70610000D02*
X78970000Y-70810000D01*
X78970000Y-71390000D02*
X78970000Y-71590000D01*
X78530000Y-71390000D02*
X78530000Y-71590000D01*
%TO.C,C13*%
X103440000Y-73570000D02*
X103640000Y-73570000D01*
X104420000Y-73570000D02*
X104420000Y-74010000D01*
X104220000Y-73570000D02*
X104420000Y-73570000D01*
X104220000Y-74010000D02*
X104420000Y-74010000D01*
X103440000Y-74010000D02*
X103640000Y-74010000D01*
X103440000Y-74010000D02*
X103440000Y-73570000D01*
%TO.C,C33*%
X47137000Y-63695000D02*
X47337000Y-63695000D01*
X47137000Y-63255000D02*
X47337000Y-63255000D01*
X48117000Y-63255000D02*
X48117000Y-63695000D01*
X47137000Y-63695000D02*
X47137000Y-63255000D01*
X47917000Y-63695000D02*
X48117000Y-63695000D01*
X47917000Y-63255000D02*
X48117000Y-63255000D01*
%TO.C,SW2*%
X77650000Y-55990000D02*
X76725000Y-55990000D01*
X77650000Y-59690000D02*
X72950000Y-59690000D01*
X73875000Y-55990000D02*
X72950000Y-55990000D01*
X72850000Y-58115000D02*
X72850000Y-57565000D01*
X77750000Y-58115000D02*
X77750000Y-57565000D01*
%TO.C,P4*%
X64770000Y-81590007D02*
X64770000Y-68890007D01*
X62230000Y-68890007D02*
X62230000Y-66350007D01*
X62230000Y-66350007D02*
X64770000Y-66350007D01*
X64770000Y-66350007D02*
X64770000Y-68890007D01*
X62230000Y-68890007D02*
X62230000Y-81590007D01*
X64770000Y-68890007D02*
X62230000Y-68890007D01*
X62230000Y-81590007D02*
X64770000Y-81590007D01*
%TO.C,U1*%
X95450000Y-70350000D02*
X95450000Y-71730000D01*
X97200000Y-77250000D02*
X95450000Y-77250000D01*
X101000000Y-69950000D02*
X102750000Y-69950000D01*
X95850000Y-69950000D02*
X97230000Y-69950000D01*
X95850000Y-69950000D02*
X95450000Y-70350000D01*
X102750000Y-77250000D02*
X102750000Y-75500000D01*
X95450000Y-77250000D02*
X95450000Y-75500000D01*
X102750000Y-69950000D02*
X102750000Y-71700000D01*
X101000000Y-77250000D02*
X102750000Y-77250000D01*
X95550000Y-69800000D02*
G75*
G03*
X95550000Y-69800000I-250000J0D01*
G01*
%TO.C,C4*%
X104280000Y-71265000D02*
X104280000Y-71065000D01*
X104720000Y-71265000D02*
X104720000Y-71065000D01*
X104720000Y-70485000D02*
X104720000Y-70285000D01*
X104280000Y-70485000D02*
X104280000Y-70285000D01*
X104280000Y-70285000D02*
X104720000Y-70285000D01*
X104720000Y-71265000D02*
X104280000Y-71265000D01*
%TO.C,C5*%
X97925000Y-68150000D02*
X98125000Y-68150000D01*
X99675000Y-67500000D02*
X99475000Y-67500000D01*
X97925000Y-68150000D02*
X97925000Y-67500000D01*
X98125000Y-67500000D02*
X97925000Y-67500000D01*
X99675000Y-68150000D02*
X99675000Y-67500000D01*
X99475000Y-68150000D02*
X99675000Y-68150000D01*
D14*
%TO.C,ANT1*%
X113090000Y-54070000D02*
X114370000Y-54070000D01*
X113090000Y-54870000D02*
X114370000Y-54870000D01*
X113090000Y-54370000D02*
X114370000Y-54370000D01*
X113090000Y-54970000D02*
X114370000Y-54970000D01*
X113090000Y-54170000D02*
X114370000Y-54170000D01*
X113090000Y-54770000D02*
X114370000Y-54770000D01*
X113090000Y-54570000D02*
X114370000Y-54570000D01*
X113090000Y-54470000D02*
X114370000Y-54470000D01*
X113090000Y-54270000D02*
X114370000Y-54270000D01*
X113090000Y-54670000D02*
X114370000Y-54670000D01*
D15*
X112889244Y-54470000D02*
X112699244Y-54540000D01*
X112699244Y-54540000D02*
X112699244Y-54400000D01*
X112699244Y-54400000D02*
X112889244Y-54470000D01*
G36*
X112889244Y-54470000D02*
G01*
X112699244Y-54540000D01*
X112699244Y-54400000D01*
X112889244Y-54470000D01*
G37*
X112889244Y-54470000D02*
X112699244Y-54540000D01*
X112699244Y-54400000D01*
X112889244Y-54470000D01*
D10*
%TO.C,D4*%
X94235000Y-58070000D02*
X94235000Y-55785000D01*
X94235000Y-55785000D02*
X92765000Y-55785000D01*
X92765000Y-55785000D02*
X92765000Y-58070000D01*
%TO.C,USB1*%
X42900000Y-71630000D02*
X44450000Y-71630000D01*
X42900000Y-71330000D02*
X42900000Y-71630000D01*
X42900000Y-63330000D02*
X42900000Y-63630000D01*
X40100000Y-63630000D02*
X42900000Y-63630000D01*
X46150000Y-66580000D02*
X45700000Y-66180000D01*
X45700000Y-66180000D02*
X46150000Y-65780000D01*
X46150000Y-65780000D02*
X46150000Y-66580000D01*
X42900000Y-63330000D02*
X44450000Y-63330000D01*
X40100000Y-71330000D02*
X42900000Y-71330000D01*
%TD*%
M02*
