%TF.GenerationSoftware,KiCad,Pcbnew,(6.0.0)*%
%TF.CreationDate,2022-01-25T13:51:39-08:00*%
%TF.ProjectId,nrf5340_qkaa_rev1_sensor,6e726635-3334-4305-9f71-6b61615f7265,rev?*%
%TF.SameCoordinates,Original*%
%TF.FileFunction,Paste,Top*%
%TF.FilePolarity,Positive*%
%FSLAX46Y46*%
G04 Gerber Fmt 4.6, Leading zero omitted, Abs format (unit mm)*
G04 Created by KiCad (PCBNEW (6.0.0)) date 2022-01-25 13:51:39*
%MOMM*%
%LPD*%
G01*
G04 APERTURE LIST*
G04 Aperture macros list*
%AMRoundRect*
0 Rectangle with rounded corners*
0 $1 Rounding radius*
0 $2 $3 $4 $5 $6 $7 $8 $9 X,Y pos of 4 corners*
0 Add a 4 corners polygon primitive as box body*
4,1,4,$2,$3,$4,$5,$6,$7,$8,$9,$2,$3,0*
0 Add four circle primitives for the rounded corners*
1,1,$1+$1,$2,$3*
1,1,$1+$1,$4,$5*
1,1,$1+$1,$6,$7*
1,1,$1+$1,$8,$9*
0 Add four rect primitives between the rounded corners*
20,1,$1+$1,$2,$3,$4,$5,0*
20,1,$1+$1,$4,$5,$6,$7,0*
20,1,$1+$1,$6,$7,$8,$9,0*
20,1,$1+$1,$8,$9,$2,$3,0*%
%AMFreePoly0*
4,1,6,0.425000,-0.375000,-0.425000,-0.375000,-0.425000,0.271446,-0.321446,0.375000,0.425000,0.375000,0.425000,-0.375000,0.425000,-0.375000,$1*%
G04 Aperture macros list end*
%ADD10RoundRect,0.004000X-0.096000X0.081000X-0.096000X-0.081000X0.096000X-0.081000X0.096000X0.081000X0*%
%ADD11RoundRect,0.100000X0.250000X-0.225000X0.250000X0.225000X-0.250000X0.225000X-0.250000X-0.225000X0*%
%ADD12RoundRect,0.100000X-0.225000X-0.250000X0.225000X-0.250000X0.225000X0.250000X-0.225000X0.250000X0*%
%ADD13RoundRect,0.050000X-0.150000X0.200000X-0.150000X-0.200000X0.150000X-0.200000X0.150000X0.200000X0*%
%ADD14RoundRect,0.004000X0.081000X0.096000X-0.081000X0.096000X-0.081000X-0.096000X0.081000X-0.096000X0*%
%ADD15RoundRect,0.050000X0.150000X-0.200000X0.150000X0.200000X-0.150000X0.200000X-0.150000X-0.200000X0*%
%ADD16R,0.650000X1.300000*%
%ADD17RoundRect,0.218750X-0.256250X0.218750X-0.256250X-0.218750X0.256250X-0.218750X0.256250X0.218750X0*%
%ADD18RoundRect,0.004000X0.096000X-0.081000X0.096000X0.081000X-0.096000X0.081000X-0.096000X-0.081000X0*%
%ADD19RoundRect,0.100000X-0.250000X0.225000X-0.250000X-0.225000X0.250000X-0.225000X0.250000X0.225000X0*%
%ADD20R,1.200000X1.400000*%
%ADD21R,1.000000X1.400000*%
%ADD22R,0.750000X0.850000*%
%ADD23RoundRect,0.050000X0.200000X0.150000X-0.200000X0.150000X-0.200000X-0.150000X0.200000X-0.150000X0*%
%ADD24RoundRect,0.004000X-0.081000X-0.096000X0.081000X-0.096000X0.081000X0.096000X-0.081000X0.096000X0*%
%ADD25RoundRect,0.100000X0.225000X0.250000X-0.225000X0.250000X-0.225000X-0.250000X0.225000X-0.250000X0*%
%ADD26RoundRect,0.150000X-0.150000X0.675000X-0.150000X-0.675000X0.150000X-0.675000X0.150000X0.675000X0*%
%ADD27R,1.450000X1.000000*%
%ADD28RoundRect,0.125000X-0.125000X-0.575000X0.125000X-0.575000X0.125000X0.575000X-0.125000X0.575000X0*%
%ADD29RoundRect,0.087500X-0.187500X-0.087500X0.187500X-0.087500X0.187500X0.087500X-0.187500X0.087500X0*%
%ADD30RoundRect,0.087500X0.187500X0.087500X-0.187500X0.087500X-0.187500X-0.087500X0.187500X-0.087500X0*%
%ADD31C,0.425000*%
%ADD32C,0.250000*%
%ADD33R,0.850000X0.750000*%
%ADD34FreePoly0,0.000000*%
%ADD35R,1.650000X0.400000*%
%ADD36R,2.400000X1.430000*%
%ADD37R,0.700000X1.825000*%
%ADD38R,2.000000X1.350000*%
%ADD39R,1.500000X2.000000*%
G04 APERTURE END LIST*
D10*
%TO.C,C19*%
X73770000Y-73715000D03*
X73770000Y-74285000D03*
%TD*%
%TO.C,C10*%
X95300000Y-77905000D03*
X95300000Y-78475000D03*
%TD*%
D11*
%TO.C,C17*%
X93750000Y-68175000D03*
X93750000Y-66825000D03*
%TD*%
D10*
%TO.C,C12*%
X101100000Y-77865000D03*
X101100000Y-78435000D03*
%TD*%
D12*
%TO.C,FB1*%
X47340000Y-62350000D03*
X48690000Y-62350000D03*
%TD*%
D13*
%TO.C,R6*%
X99500000Y-59500000D03*
X99500000Y-60500000D03*
%TD*%
D12*
%TO.C,FB2*%
X49215000Y-74050000D03*
X50565000Y-74050000D03*
%TD*%
D14*
%TO.C,C9*%
X92865000Y-77380000D03*
X92295000Y-77380000D03*
%TD*%
D15*
%TO.C,C20*%
X96600000Y-68300000D03*
X96600000Y-67300000D03*
%TD*%
D16*
%TO.C,X2*%
X93035001Y-76029998D03*
X91585001Y-76029998D03*
%TD*%
D10*
%TO.C,C14*%
X103920000Y-70495000D03*
X103920000Y-71065000D03*
%TD*%
D17*
%TO.C,D3*%
X96500000Y-56482500D03*
X96500000Y-58057500D03*
%TD*%
D18*
%TO.C,C2*%
X104990000Y-72375000D03*
X104990000Y-71805000D03*
%TD*%
D17*
%TO.C,D2*%
X99500000Y-56482500D03*
X99500000Y-58057500D03*
%TD*%
D14*
%TO.C,C32*%
X48691500Y-60725000D03*
X48121500Y-60725000D03*
%TD*%
%TO.C,C30*%
X44925000Y-73750000D03*
X44355000Y-73750000D03*
%TD*%
D19*
%TO.C,L4*%
X91840000Y-72365000D03*
X91840000Y-73715000D03*
%TD*%
D10*
%TO.C,R54*%
X87880000Y-67628479D03*
X87880000Y-68198479D03*
%TD*%
D20*
%TO.C,D1*%
X50535000Y-66050000D03*
D21*
X48815000Y-66050000D03*
X48815000Y-68250000D03*
X50715000Y-68250000D03*
%TD*%
D22*
%TO.C,X1*%
X106795000Y-70200000D03*
X105645000Y-70200000D03*
X105645000Y-68800000D03*
X106795000Y-68800000D03*
%TD*%
D23*
%TO.C,C3*%
X103010000Y-68260000D03*
X102010000Y-68260000D03*
%TD*%
D24*
%TO.C,C15*%
X103705000Y-68840000D03*
X104275000Y-68840000D03*
%TD*%
D25*
%TO.C,L3*%
X99085000Y-66890000D03*
X97735000Y-66890000D03*
%TD*%
D14*
%TO.C,R55*%
X44925000Y-72700000D03*
X44355000Y-72700000D03*
%TD*%
D13*
%TO.C,R8*%
X93500000Y-59500000D03*
X93500000Y-60500000D03*
%TD*%
D15*
%TO.C,C16*%
X100300000Y-68375000D03*
X100300000Y-67375000D03*
%TD*%
D24*
%TO.C,C31*%
X49455000Y-71475000D03*
X50025000Y-71475000D03*
%TD*%
D25*
%TO.C,FB3*%
X45165000Y-74850000D03*
X43815000Y-74850000D03*
%TD*%
D26*
%TO.C,U2*%
X73770000Y-67120000D03*
X72500000Y-67120000D03*
X71230000Y-67120000D03*
X69960000Y-67120000D03*
X69960000Y-72370000D03*
X71230000Y-72370000D03*
X72500000Y-72370000D03*
X73770000Y-72370000D03*
%TD*%
D25*
%TO.C,L2*%
X102675000Y-67310000D03*
X101325000Y-67310000D03*
%TD*%
D10*
%TO.C,C11*%
X98110000Y-77865000D03*
X98110000Y-78435000D03*
%TD*%
D11*
%TO.C,C18*%
X94825000Y-68175000D03*
X94825000Y-66825000D03*
%TD*%
D12*
%TO.C,C34*%
X49215000Y-72825000D03*
X50565000Y-72825000D03*
%TD*%
D25*
%TO.C,C22*%
X94450000Y-71410000D03*
X93100000Y-71410000D03*
%TD*%
D27*
%TO.C,SW1*%
X81525000Y-56990000D03*
X86675000Y-56990000D03*
X86675000Y-58690000D03*
X81525000Y-58690000D03*
%TD*%
D17*
%TO.C,D5*%
X90430000Y-56482500D03*
X90430000Y-58057500D03*
%TD*%
D18*
%TO.C,C1*%
X103250000Y-72600000D03*
X103250000Y-72030000D03*
%TD*%
D10*
%TO.C,R3*%
X74700000Y-76035000D03*
X74700000Y-76605000D03*
%TD*%
D23*
%TO.C,C7*%
X98800000Y-68770000D03*
X97800000Y-68770000D03*
%TD*%
D10*
%TO.C,R53*%
X87320000Y-67628479D03*
X87320000Y-68198479D03*
%TD*%
D24*
%TO.C,C6*%
X100855000Y-69210000D03*
X101425000Y-69210000D03*
%TD*%
%TO.C,L1*%
X103835000Y-72600000D03*
X104405000Y-72600000D03*
%TD*%
D18*
%TO.C,C8*%
X94680000Y-70605000D03*
X94680000Y-70035000D03*
%TD*%
D28*
%TO.C,U4*%
X73670000Y-79400000D03*
D29*
X72645000Y-78900000D03*
X72645000Y-79900000D03*
D30*
X74695000Y-79900000D03*
X74695000Y-78900000D03*
%TD*%
D13*
%TO.C,R7*%
X96500000Y-59500000D03*
X96500000Y-60500000D03*
%TD*%
D24*
%TO.C,R1*%
X92915000Y-69000000D03*
X93485000Y-69000000D03*
%TD*%
D13*
%TO.C,R9*%
X90420000Y-59500000D03*
X90420000Y-60500000D03*
%TD*%
D24*
%TO.C,R4*%
X91265000Y-70520000D03*
X91835000Y-70520000D03*
%TD*%
D11*
%TO.C,C21*%
X92930000Y-74325000D03*
X92930000Y-72975000D03*
%TD*%
D10*
%TO.C,R5*%
X78750000Y-70815000D03*
X78750000Y-71385000D03*
%TD*%
%TO.C,R2*%
X72700000Y-76025000D03*
X72700000Y-76595000D03*
%TD*%
D24*
%TO.C,C13*%
X103645000Y-73790000D03*
X104215000Y-73790000D03*
%TD*%
%TO.C,C33*%
X47342000Y-63475000D03*
X47912000Y-63475000D03*
%TD*%
D27*
%TO.C,SW2*%
X77875000Y-56990000D03*
X72725000Y-56990000D03*
X72725000Y-58690000D03*
X77875000Y-58690000D03*
%TD*%
D31*
%TO.C,U1*%
X95900000Y-70400000D03*
D32*
X96900000Y-70400000D03*
X98500000Y-70400000D03*
X98900000Y-70400000D03*
X99300000Y-70400000D03*
X99700000Y-70400000D03*
X100100000Y-70400000D03*
X100500000Y-70400000D03*
X100900000Y-70400000D03*
X101300000Y-70400000D03*
D31*
X102300000Y-70400000D03*
D32*
X95900000Y-74600000D03*
X102300000Y-74600000D03*
X96300000Y-74800000D03*
X95900000Y-75000000D03*
X102300000Y-75000000D03*
X96300000Y-75200000D03*
X95900000Y-75400000D03*
X102300000Y-75400000D03*
X96300000Y-75600000D03*
X95900000Y-75800000D03*
X102300000Y-75800000D03*
X96300000Y-76000000D03*
X95900000Y-76200000D03*
X102300000Y-76200000D03*
X96300000Y-76400000D03*
X96700000Y-76400000D03*
X97100000Y-76400000D03*
X97500000Y-76400000D03*
X97900000Y-76400000D03*
X98300000Y-76400000D03*
X98700000Y-76400000D03*
X99100000Y-76400000D03*
X99500000Y-76400000D03*
X99900000Y-76400000D03*
X100300000Y-76400000D03*
X100700000Y-76400000D03*
X101100000Y-76400000D03*
X101500000Y-76400000D03*
X101900000Y-76400000D03*
D31*
X95900000Y-76800000D03*
D32*
X96500000Y-76800000D03*
X96900000Y-76800000D03*
X97300000Y-76800000D03*
X97700000Y-76800000D03*
X98100000Y-76800000D03*
X98500000Y-76800000D03*
X98900000Y-76800000D03*
X99300000Y-76800000D03*
X99700000Y-76800000D03*
X100100000Y-76800000D03*
X100500000Y-76800000D03*
X100900000Y-76800000D03*
X101300000Y-76800000D03*
X101700000Y-76800000D03*
D31*
X102300000Y-76800000D03*
D32*
X96300000Y-70800000D03*
X96700000Y-70800000D03*
X97100000Y-70800000D03*
X97500000Y-70800000D03*
X97900000Y-70800000D03*
X98300000Y-70800000D03*
X98700000Y-70800000D03*
X99100000Y-70800000D03*
X99500000Y-70800000D03*
X99900000Y-70800000D03*
X100300000Y-70800000D03*
X100700000Y-70800000D03*
X101100000Y-70800000D03*
X101500000Y-70800000D03*
X101900000Y-70800000D03*
X95900000Y-71000000D03*
X102300000Y-71000000D03*
X96300000Y-71200000D03*
X95900000Y-71400000D03*
X102300000Y-71400000D03*
X96300000Y-71600000D03*
X95900000Y-71800000D03*
X102300000Y-71800000D03*
X96300000Y-72000000D03*
X95900000Y-72200000D03*
X102300000Y-72200000D03*
X96300000Y-72400000D03*
X95900000Y-72600000D03*
X102300000Y-72600000D03*
X96300000Y-72800000D03*
X95900000Y-73000000D03*
X102300000Y-73000000D03*
X96300000Y-73200000D03*
D33*
X99975000Y-72975000D03*
X97275000Y-74225000D03*
X101325000Y-75475000D03*
D34*
X97275000Y-71725000D03*
D33*
X99975000Y-74225000D03*
X98625000Y-71725000D03*
X98625000Y-72975000D03*
X99975000Y-75475000D03*
X101325000Y-74225000D03*
X99975000Y-71725000D03*
X98625000Y-74225000D03*
X97275000Y-75475000D03*
X97275000Y-72975000D03*
X101325000Y-71725000D03*
X101325000Y-72975000D03*
X98625000Y-75475000D03*
D32*
X95900000Y-73400000D03*
X102300000Y-73400000D03*
X96300000Y-73600000D03*
X95900000Y-73800000D03*
X102300000Y-73800000D03*
X96300000Y-74000000D03*
X95900000Y-74200000D03*
X102300000Y-74200000D03*
X96300000Y-74400000D03*
%TD*%
D18*
%TO.C,C4*%
X104500000Y-71060000D03*
X104500000Y-70490000D03*
%TD*%
D23*
%TO.C,C5*%
X99300000Y-67825000D03*
X98300000Y-67825000D03*
%TD*%
D17*
%TO.C,D4*%
X93500000Y-56482500D03*
X93500000Y-58057500D03*
%TD*%
D35*
%TO.C,USB1*%
X44600000Y-66180000D03*
X44600000Y-66830000D03*
X44600000Y-67480000D03*
X44600000Y-68130000D03*
X44600000Y-68780000D03*
D36*
X41450000Y-68440000D03*
D37*
X43400000Y-70480000D03*
D36*
X41450000Y-66520000D03*
D38*
X42650000Y-64750000D03*
X42650000Y-70230000D03*
D39*
X44700000Y-64630000D03*
X44720000Y-70380000D03*
D37*
X43400000Y-64530000D03*
%TD*%
M02*
