M48
; DRILL file {KiCad (6.0.0)} date Tue Jan 25 13:51:42 2022
; FORMAT={-:-/ absolute / metric / decimal}
; #@! TF.CreationDate,2022-01-25T13:51:42-08:00
; #@! TF.GenerationSoftware,Kicad,Pcbnew,(6.0.0)
; #@! TF.FileFunction,Plated,1,4,PTH
FMAT,2
METRIC
; #@! TA.AperFunction,Plated,PTH,ViaDrill
T1C0.152
; #@! TA.AperFunction,Plated,PTH,ViaDrill
T2C0.254
; #@! TA.AperFunction,Plated,PTH,ViaDrill
T3C0.300
; #@! TA.AperFunction,Plated,PTH,ComponentDrill
T4C0.650
; #@! TA.AperFunction,Plated,PTH,ComponentDrill
T5C0.700
; #@! TA.AperFunction,Plated,PTH,ComponentDrill
T6C1.000
; #@! TA.AperFunction,Plated,PTH,ComponentDrill
T7C2.500
%
G90
G05
T1
X50.8Y-59.02
X60.86Y-81.23
X63.5Y-83.21
X64.95Y-78.99
X68.742Y-82.612
X79.14Y-81.6
X80.9Y-55.5
X84.89Y-81.24
X85.35Y-81.25
X89.37Y-76.52
X94.6Y-83.11
X94.83Y-80.74
X96.05Y-79.41
X99.9Y-80.69
X100.908Y-80.047
X101.2Y-79.83
X102.04Y-80.8
X102.35Y-81.23
X104.78Y-77.22
X106.65Y-77.6
X107.31Y-78.1
T2
X47.34Y-64.45
X47.54Y-73.29
X48.14Y-72.825
X48.45Y-71.75
X48.691Y-60.018
X51.5Y-71.98
X53.53Y-68.52
X55.3Y-65.04
X56.09Y-60.94
X59.88Y-64.2
X60.23Y-60.59
X64.46Y-60.85
X64.94Y-64.42
X66.27Y-80.97
X67.09Y-77.28
X68.13Y-74.72
X68.3Y-72.19
X69.39Y-60.63
X69.39Y-77.3
X69.93Y-81.13
X71.11Y-63.89
X71.92Y-77.13
X72.29Y-75.27
X73.12Y-60.88
X73.66Y-78.97
X73.66Y-79.87
X74.16Y-78.08
X75.04Y-74.39
X75.39Y-77.18
X75.51Y-75.96
X76.19Y-71.68
X76.55Y-64.56
X77.19Y-68.31
X77.41Y-81.71
X77.92Y-74.38
X78.18Y-76.63
X78.75Y-66.7
X79.74Y-60.37
X84.28Y-67.99
X84.63Y-64.5
X85.42Y-60.61
X85.42Y-72.96
X85.48Y-78.26
X86.5Y-70.52
X87.71Y-76.04
X87.82Y-81.35
X89.62Y-73.05
X89.76Y-62.03
X89.8Y-65.03
X90.23Y-77.95
X90.9Y-78.95
X91.22Y-71.09
X91.29Y-68.53
X91.3Y-67.45
X91.55Y-70.07
X92.0Y-67.85
X92.09Y-74.63
X92.13Y-71.09
X92.72Y-68.43
X92.73Y-78.88
X92.75Y-64.73
X92.99Y-77.88
X93.775Y-70.075
X94.01Y-72.88
X94.05Y-80.65
X94.06Y-63.96
X94.24Y-70.615
X94.394Y-78.454
X95.0Y-63.0
X95.15Y-65.94
X95.32Y-79.05
X95.45Y-71.8
X95.7Y-78.0
X95.83Y-68.23
X96.22Y-65.94
X96.419Y-78.0
X96.47Y-78.62
X96.57Y-64.02
X97.0Y-65.9
X97.3Y-78.0
X97.65Y-68.025
X98.19Y-69.42
X98.2Y-78.9
X98.55Y-78.0
X99.68Y-78.0
X100.29Y-66.17
X100.3Y-66.78
X100.93Y-63.56
X101.2Y-78.9
X101.28Y-68.43
X101.57Y-78.0
X101.6Y-56.93
X102.29Y-69.19
X102.55Y-65.9
X102.81Y-60.31
X103.14Y-82.82
X103.16Y-52.88
X103.3Y-73.12
X103.43Y-71.2
X103.53Y-78.2
X103.54Y-84.99
X103.88Y-74.32
X103.92Y-68.28
X103.92Y-70.0
X104.04Y-63.17
X104.11Y-83.32
X104.15Y-82.06
X104.17Y-76.67
X104.29Y-56.11
X104.34Y-71.94
X104.59Y-70.03
X104.76Y-68.74
X104.77Y-80.37
X104.9Y-65.9
X104.94Y-70.99
X105.2Y-73.6
X105.58Y-71.81
X105.75Y-70.98
X106.15Y-73.6
X106.27Y-75.24
X106.5Y-53.87
X106.5Y-67.1
X106.7Y-58.18
X106.7Y-62.09
X106.73Y-49.04
X106.8Y-65.9
X106.9Y-71.725
X106.93Y-73.6
X106.94Y-68.02
T3
X97.275Y-71.725
X97.275Y-72.975
X97.275Y-74.225
X97.275Y-75.475
X98.625Y-71.725
X98.625Y-72.975
X98.625Y-74.225
X98.625Y-75.475
X99.975Y-71.725
X99.975Y-72.975
X99.975Y-74.225
X99.975Y-75.475
X101.325Y-71.725
X101.325Y-72.975
X101.325Y-74.225
X101.325Y-75.475
T6
X48.26Y-50.0
X48.26Y-85.09
X50.8Y-50.0
X50.8Y-85.09
X53.34Y-50.0
X53.34Y-85.09
X55.88Y-50.0
X55.88Y-85.09
X58.42Y-50.0
X58.42Y-85.09
X60.96Y-50.0
X60.96Y-85.09
X63.5Y-50.0
X63.5Y-67.62
X63.5Y-70.16
X63.5Y-72.7
X63.5Y-75.24
X63.5Y-77.78
X63.5Y-80.32
X63.5Y-85.09
X66.04Y-50.0
X66.04Y-85.09
X68.58Y-50.0
X68.58Y-85.09
X71.12Y-50.0
X71.12Y-85.09
X73.66Y-50.0
X73.66Y-85.09
X76.2Y-50.0
X76.2Y-85.09
X78.74Y-50.0
X78.74Y-85.09
X81.28Y-50.0
X81.28Y-65.08
X81.28Y-67.62
X81.28Y-70.16
X81.28Y-72.7
X81.28Y-75.24
X81.28Y-77.78
X81.28Y-80.32
X81.28Y-85.09
X83.82Y-50.0
X83.82Y-85.09
X86.36Y-50.0
X86.36Y-85.09
X88.9Y-50.0
X88.9Y-85.09
X91.44Y-50.0
X91.44Y-85.09
X93.98Y-50.0
X93.98Y-85.09
X96.52Y-50.0
X96.52Y-85.09
X99.06Y-50.0
X99.06Y-85.09
X101.6Y-50.0
X101.6Y-85.09
T7
X42.4Y-49.9
X42.4Y-85.1
T4
G00X44.52Y-65.06
M15
G01X44.92Y-65.06
M16
G05
G00X44.52Y-69.9
M15
G01X44.92Y-69.9
M16
G05
T5
G00X41.47Y-64.75
M15
G01X41.97Y-64.75
M16
G05
G00X41.47Y-70.21
M15
G01X41.97Y-70.21
M16
G05
T0
M30
