M48
; DRILL file {KiCad (6.0.0)} date Tue Jan 25 13:51:42 2022
; FORMAT={-:-/ absolute / metric / decimal}
; #@! TF.CreationDate,2022-01-25T13:51:42-08:00
; #@! TF.GenerationSoftware,Kicad,Pcbnew,(6.0.0)
; #@! TF.FileFunction,Plated,1,2,Blind
FMAT,2
METRIC
; #@! TA.AperFunction,Plated,Buried,ViaDrill
T1C0.102
%
G90
G05
T1
X96.3Y-72.8
X96.3Y-73.2
X96.3Y-74.0
X96.3Y-74.79
X96.3Y-75.2
X96.3Y-75.61
X96.3Y-74.4
X96.3Y-76.0
X96.3Y-76.4
X96.7Y-76.4
X97.1Y-76.4
X97.5Y-76.4
X97.9Y-76.4
X98.3Y-76.4
X98.7Y-76.4
X98.7Y-70.8
X99.1Y-70.8
X99.1Y-76.4
X99.3Y-70.4
X99.5Y-76.4
X99.5Y-70.8
X99.9Y-70.8
X99.9Y-76.4
X100.3Y-76.4
X100.3Y-70.8
X100.7Y-70.8
X100.7Y-76.4
X101.1Y-76.4
X101.5Y-76.4
X101.9Y-76.4
T0
M30
