%TF.GenerationSoftware,KiCad,Pcbnew,(6.0.0)*%
%TF.CreationDate,2022-01-14T16:11:58-08:00*%
%TF.ProjectId,nrf5340_qkaa_rev1_sensor,6e726635-3334-4305-9f71-6b61615f7265,rev?*%
%TF.SameCoordinates,Original*%
%TF.FileFunction,OtherDrawing,Comment*%
%FSLAX46Y46*%
G04 Gerber Fmt 4.6, Leading zero omitted, Abs format (unit mm)*
G04 Created by KiCad (PCBNEW (6.0.0)) date 2022-01-14 16:11:58*
%MOMM*%
%LPD*%
G01*
G04 APERTURE LIST*
%ADD10C,0.075000*%
%ADD11C,0.050000*%
%ADD12C,0.100000*%
G04 APERTURE END LIST*
D10*
%TO.C,USB1*%
X40826190Y-69182380D02*
X40326190Y-69182380D01*
X40326190Y-68991904D01*
X40350000Y-68944285D01*
X40373809Y-68920476D01*
X40421428Y-68896666D01*
X40492857Y-68896666D01*
X40540476Y-68920476D01*
X40564285Y-68944285D01*
X40588095Y-68991904D01*
X40588095Y-69182380D01*
X40778571Y-68396666D02*
X40802380Y-68420476D01*
X40826190Y-68491904D01*
X40826190Y-68539523D01*
X40802380Y-68610952D01*
X40754761Y-68658571D01*
X40707142Y-68682380D01*
X40611904Y-68706190D01*
X40540476Y-68706190D01*
X40445238Y-68682380D01*
X40397619Y-68658571D01*
X40350000Y-68610952D01*
X40326190Y-68539523D01*
X40326190Y-68491904D01*
X40350000Y-68420476D01*
X40373809Y-68396666D01*
X40564285Y-68015714D02*
X40588095Y-67944285D01*
X40611904Y-67920476D01*
X40659523Y-67896666D01*
X40730952Y-67896666D01*
X40778571Y-67920476D01*
X40802380Y-67944285D01*
X40826190Y-67991904D01*
X40826190Y-68182380D01*
X40326190Y-68182380D01*
X40326190Y-68015714D01*
X40350000Y-67968095D01*
X40373809Y-67944285D01*
X40421428Y-67920476D01*
X40469047Y-67920476D01*
X40516666Y-67944285D01*
X40540476Y-67968095D01*
X40564285Y-68015714D01*
X40564285Y-68182380D01*
X40802380Y-67110952D02*
X40826190Y-67158571D01*
X40826190Y-67253809D01*
X40802380Y-67301428D01*
X40754761Y-67325238D01*
X40564285Y-67325238D01*
X40516666Y-67301428D01*
X40492857Y-67253809D01*
X40492857Y-67158571D01*
X40516666Y-67110952D01*
X40564285Y-67087142D01*
X40611904Y-67087142D01*
X40659523Y-67325238D01*
X40826190Y-66658571D02*
X40326190Y-66658571D01*
X40802380Y-66658571D02*
X40826190Y-66706190D01*
X40826190Y-66801428D01*
X40802380Y-66849047D01*
X40778571Y-66872857D01*
X40730952Y-66896666D01*
X40588095Y-66896666D01*
X40540476Y-66872857D01*
X40516666Y-66849047D01*
X40492857Y-66801428D01*
X40492857Y-66706190D01*
X40516666Y-66658571D01*
X40492857Y-66206190D02*
X40897619Y-66206190D01*
X40945238Y-66230000D01*
X40969047Y-66253809D01*
X40992857Y-66301428D01*
X40992857Y-66372857D01*
X40969047Y-66420476D01*
X40802380Y-66206190D02*
X40826190Y-66253809D01*
X40826190Y-66349047D01*
X40802380Y-66396666D01*
X40778571Y-66420476D01*
X40730952Y-66444285D01*
X40588095Y-66444285D01*
X40540476Y-66420476D01*
X40516666Y-66396666D01*
X40492857Y-66349047D01*
X40492857Y-66253809D01*
X40516666Y-66206190D01*
X40802380Y-65777619D02*
X40826190Y-65825238D01*
X40826190Y-65920476D01*
X40802380Y-65968095D01*
X40754761Y-65991904D01*
X40564285Y-65991904D01*
X40516666Y-65968095D01*
X40492857Y-65920476D01*
X40492857Y-65825238D01*
X40516666Y-65777619D01*
X40564285Y-65753809D01*
X40611904Y-65753809D01*
X40659523Y-65991904D01*
D11*
%TO.C,SWD1*%
X105225000Y-81280000D02*
X106495000Y-82550000D01*
X105225000Y-82296000D02*
X106495000Y-83566000D01*
X105225000Y-81280000D02*
X106495000Y-81280000D01*
X106495000Y-83820000D02*
X105225000Y-83820000D01*
X105225000Y-82804000D02*
X106241000Y-83820000D01*
X105733000Y-81280000D02*
X106495000Y-82042000D01*
X106241000Y-81280000D02*
X106495000Y-81534000D01*
X105225000Y-83312000D02*
X105733000Y-83820000D01*
X105225000Y-83820000D02*
X105225000Y-81280000D01*
X106495000Y-83820000D02*
X106495000Y-81280000D01*
X105225000Y-81788000D02*
X106495000Y-83058000D01*
D12*
%TO.C,USB1*%
X40000000Y-63480000D02*
X40000000Y-71480000D01*
%TD*%
M02*
