%FSLAX45Y45*%
G04 Gerber Fmt 4.5, Leading zero omitted, Abs format (unit mm)*
G04 Created by KiCad (PCBNEW (6.0.0)) date 2022-01-14 16:12:00*
%MOMM*%
%LPD*%
G01*
G04 APERTURE LIST*
%TA.AperFunction,Profile*%
%ADD10C,0.100000*%
%TD*%
%ADD11C,0.200000*%
%ADD12C,0.015240*%
%ADD13C,0.025400*%
%ADD14C,0.030000*%
%ADD15C,0.065000*%
%ADD16C,0.070000*%
%ADD17C,0.100000*%
%ADD18C,0.250000*%
G04 APERTURE END LIST*
D10*
X7170000Y-8070000D02*
G75*
G03*
X7210000Y-8110000I40000J0D01*
G01*
X4250000Y-4750000D02*
G75*
G03*
X4000000Y-5000000I0J-250000D01*
G01*
X7560000Y-7790000D02*
X7560000Y-8070000D01*
X11500000Y-5000000D02*
X11500000Y-8500000D01*
X7170000Y-8070000D02*
X7170000Y-7790000D01*
X7090000Y-7790000D02*
X7090000Y-8110000D01*
X7560000Y-8190000D02*
G75*
G03*
X7640000Y-8110000I0J80000D01*
G01*
X7520000Y-8110000D02*
X7210000Y-8110000D01*
X7090000Y-8110000D02*
G75*
G03*
X7170000Y-8190000I80000J0D01*
G01*
X4000000Y-8500000D02*
X4000000Y-5000000D01*
X4250000Y-4750000D02*
X11250000Y-4750000D01*
X11250000Y-8750000D02*
G75*
G03*
X11500000Y-8500000I0J250000D01*
G01*
X11500000Y-5000000D02*
G75*
G03*
X11250000Y-4750000I-250000J0D01*
G01*
X7520000Y-8110000D02*
G75*
G03*
X7560000Y-8070000I0J40000D01*
G01*
X11250000Y-8750000D02*
X4250000Y-8750000D01*
X4000000Y-8500000D02*
G75*
G03*
X4250000Y-8750000I250000J0D01*
G01*
X7640000Y-8110000D02*
X7640000Y-7790000D01*
X7170000Y-7790000D02*
G75*
G03*
X7090000Y-7790000I-40000J0D01*
G01*
X7640000Y-7790000D02*
G75*
G03*
X7560000Y-7790000I-40000J0D01*
G01*
X7170000Y-8190000D02*
X7560000Y-8190000D01*
D11*
D12*
X5072380Y-5894380D02*
X5087620Y-5909620D01*
X5087620Y-5894380D02*
X5072380Y-5909620D01*
X6078380Y-8115380D02*
X6093620Y-8130620D01*
X6093620Y-8115380D02*
X6078380Y-8130620D01*
X6342380Y-8313380D02*
X6357620Y-8328620D01*
X6357620Y-8313380D02*
X6342380Y-8328620D01*
X6487380Y-7891380D02*
X6502620Y-7906620D01*
X6502620Y-7891380D02*
X6487380Y-7906620D01*
X6866630Y-8253630D02*
X6881870Y-8268870D01*
X6881870Y-8253630D02*
X6866630Y-8268870D01*
X7906380Y-8152380D02*
X7921620Y-8167620D01*
X7921620Y-8152380D02*
X7906380Y-8167620D01*
X8082380Y-5542380D02*
X8097620Y-5557620D01*
X8097620Y-5542380D02*
X8082380Y-5557620D01*
X8481380Y-8116380D02*
X8496620Y-8131620D01*
X8496620Y-8116380D02*
X8481380Y-8131620D01*
X8527380Y-8117380D02*
X8542620Y-8132620D01*
X8542620Y-8117380D02*
X8527380Y-8132620D01*
X8929380Y-7644380D02*
X8944620Y-7659620D01*
X8944620Y-7644380D02*
X8929380Y-7659620D01*
X9452380Y-8303380D02*
X9467620Y-8318620D01*
X9467620Y-8303380D02*
X9452380Y-8318620D01*
X9475381Y-8066380D02*
X9490621Y-8081620D01*
X9490621Y-8066380D02*
X9475381Y-8081620D01*
X9597380Y-7933380D02*
X9612620Y-7948620D01*
X9612620Y-7933380D02*
X9597380Y-7948620D01*
X9982380Y-8061380D02*
X9997620Y-8076620D01*
X9997620Y-8061380D02*
X9982380Y-8076620D01*
X10083220Y-7997031D02*
X10098460Y-8012271D01*
X10098460Y-7997031D02*
X10083220Y-8012271D01*
X10112380Y-7975380D02*
X10127620Y-7990620D01*
X10127620Y-7975380D02*
X10112380Y-7990620D01*
X10196380Y-8072380D02*
X10211620Y-8087620D01*
X10211620Y-8072380D02*
X10196380Y-8087620D01*
X10227380Y-8115380D02*
X10242620Y-8130620D01*
X10242620Y-8115380D02*
X10227380Y-8130620D01*
X10470380Y-7714380D02*
X10485620Y-7729620D01*
X10485620Y-7714380D02*
X10470380Y-7729620D01*
X10657380Y-7752380D02*
X10672620Y-7767620D01*
X10672620Y-7752380D02*
X10657380Y-7767620D01*
X10723380Y-7802380D02*
X10738620Y-7817620D01*
X10738620Y-7802380D02*
X10723380Y-7817620D01*
D13*
X4746700Y-6445000D02*
G75*
G03*
X4746700Y-6445000I-12700J0D01*
G01*
X4766700Y-7329000D02*
G75*
G03*
X4766700Y-7329000I-12700J0D01*
G01*
X4826699Y-7282500D02*
G75*
G03*
X4826699Y-7282500I-12700J0D01*
G01*
X4857700Y-7175000D02*
G75*
G03*
X4857700Y-7175000I-12700J0D01*
G01*
X4881850Y-6001850D02*
G75*
G03*
X4881850Y-6001850I-12700J0D01*
G01*
X5162700Y-7198000D02*
G75*
G03*
X5162700Y-7198000I-12700J0D01*
G01*
X5365700Y-6852000D02*
G75*
G03*
X5365700Y-6852000I-12700J0D01*
G01*
X5542700Y-6504000D02*
G75*
G03*
X5542700Y-6504000I-12700J0D01*
G01*
X5621700Y-6094000D02*
G75*
G03*
X5621700Y-6094000I-12700J0D01*
G01*
X6000700Y-6420000D02*
G75*
G03*
X6000700Y-6420000I-12700J0D01*
G01*
X6035700Y-6059000D02*
G75*
G03*
X6035700Y-6059000I-12700J0D01*
G01*
X6458700Y-6085000D02*
G75*
G03*
X6458700Y-6085000I-12700J0D01*
G01*
X6506700Y-6442000D02*
G75*
G03*
X6506700Y-6442000I-12700J0D01*
G01*
X6639700Y-8097000D02*
G75*
G03*
X6639700Y-8097000I-12700J0D01*
G01*
X6721700Y-7728000D02*
G75*
G03*
X6721700Y-7728000I-12700J0D01*
G01*
X6825700Y-7472000D02*
G75*
G03*
X6825700Y-7472000I-12700J0D01*
G01*
X6842700Y-7219000D02*
G75*
G03*
X6842700Y-7219000I-12700J0D01*
G01*
X6951700Y-6063000D02*
G75*
G03*
X6951700Y-6063000I-12700J0D01*
G01*
X6951700Y-7730000D02*
G75*
G03*
X6951700Y-7730000I-12700J0D01*
G01*
X7005700Y-8113000D02*
G75*
G03*
X7005700Y-8113000I-12700J0D01*
G01*
X7123700Y-6389000D02*
G75*
G03*
X7123700Y-6389000I-12700J0D01*
G01*
X7204700Y-7713000D02*
G75*
G03*
X7204700Y-7713000I-12700J0D01*
G01*
X7241700Y-7527000D02*
G75*
G03*
X7241700Y-7527000I-12700J0D01*
G01*
X7324700Y-6088000D02*
G75*
G03*
X7324700Y-6088000I-12700J0D01*
G01*
X7378700Y-7897000D02*
G75*
G03*
X7378700Y-7897000I-12700J0D01*
G01*
X7378700Y-7986999D02*
G75*
G03*
X7378700Y-7986999I-12700J0D01*
G01*
X7428700Y-7808000D02*
G75*
G03*
X7428700Y-7808000I-12700J0D01*
G01*
X7516700Y-7439000D02*
G75*
G03*
X7516700Y-7439000I-12700J0D01*
G01*
X7551699Y-7718001D02*
G75*
G03*
X7551699Y-7718001I-12700J0D01*
G01*
X7563700Y-7596000D02*
G75*
G03*
X7563700Y-7596000I-12700J0D01*
G01*
X7631700Y-7168000D02*
G75*
G03*
X7631700Y-7168000I-12700J0D01*
G01*
X7667700Y-6456000D02*
G75*
G03*
X7667700Y-6456000I-12700J0D01*
G01*
X7731700Y-6831000D02*
G75*
G03*
X7731700Y-6831000I-12700J0D01*
G01*
X7753700Y-8171000D02*
G75*
G03*
X7753700Y-8171000I-12700J0D01*
G01*
X7804700Y-7438000D02*
G75*
G03*
X7804700Y-7438000I-12700J0D01*
G01*
X7830700Y-7663000D02*
G75*
G03*
X7830700Y-7663000I-12700J0D01*
G01*
X7887700Y-6670000D02*
G75*
G03*
X7887700Y-6670000I-12700J0D01*
G01*
X7986700Y-6037000D02*
G75*
G03*
X7986700Y-6037000I-12700J0D01*
G01*
X8440700Y-6799000D02*
G75*
G03*
X8440700Y-6799000I-12700J0D01*
G01*
X8475700Y-6450000D02*
G75*
G03*
X8475700Y-6450000I-12700J0D01*
G01*
X8554700Y-6061000D02*
G75*
G03*
X8554700Y-6061000I-12700J0D01*
G01*
X8554700Y-7296000D02*
G75*
G03*
X8554700Y-7296000I-12700J0D01*
G01*
X8560700Y-7826000D02*
G75*
G03*
X8560700Y-7826000I-12700J0D01*
G01*
X8662700Y-7052000D02*
G75*
G03*
X8662700Y-7052000I-12700J0D01*
G01*
X8783700Y-7604000D02*
G75*
G03*
X8783700Y-7604000I-12700J0D01*
G01*
X8794700Y-8135000D02*
G75*
G03*
X8794700Y-8135000I-12700J0D01*
G01*
X8974700Y-7305000D02*
G75*
G03*
X8974700Y-7305000I-12700J0D01*
G01*
X8988700Y-6203000D02*
G75*
G03*
X8988700Y-6203000I-12700J0D01*
G01*
X8992700Y-6503000D02*
G75*
G03*
X8992700Y-6503000I-12700J0D01*
G01*
X9035700Y-7795000D02*
G75*
G03*
X9035700Y-7795000I-12700J0D01*
G01*
X9102700Y-7895000D02*
G75*
G03*
X9102700Y-7895000I-12700J0D01*
G01*
X9134700Y-7109000D02*
G75*
G03*
X9134700Y-7109000I-12700J0D01*
G01*
X9141700Y-6853000D02*
G75*
G03*
X9141700Y-6853000I-12700J0D01*
G01*
X9142700Y-6745000D02*
G75*
G03*
X9142700Y-6745000I-12700J0D01*
G01*
X9167700Y-7007000D02*
G75*
G03*
X9167700Y-7007000I-12700J0D01*
G01*
X9212700Y-6785000D02*
G75*
G03*
X9212700Y-6785000I-12700J0D01*
G01*
X9221700Y-7463000D02*
G75*
G03*
X9221700Y-7463000I-12700J0D01*
G01*
X9225700Y-7109000D02*
G75*
G03*
X9225700Y-7109000I-12700J0D01*
G01*
X9284701Y-6842999D02*
G75*
G03*
X9284701Y-6842999I-12700J0D01*
G01*
X9285700Y-7888000D02*
G75*
G03*
X9285700Y-7888000I-12700J0D01*
G01*
X9287700Y-6473000D02*
G75*
G03*
X9287700Y-6473000I-12700J0D01*
G01*
X9311700Y-7788000D02*
G75*
G03*
X9311700Y-7788000I-12700J0D01*
G01*
X9390200Y-7007500D02*
G75*
G03*
X9390200Y-7007500I-12700J0D01*
G01*
X9413700Y-7288000D02*
G75*
G03*
X9413700Y-7288000I-12700J0D01*
G01*
X9417700Y-8065000D02*
G75*
G03*
X9417700Y-8065000I-12700J0D01*
G01*
X9418700Y-6396000D02*
G75*
G03*
X9418700Y-6396000I-12700J0D01*
G01*
X9436699Y-7061500D02*
G75*
G03*
X9436699Y-7061500I-12700J0D01*
G01*
X9452144Y-7845444D02*
G75*
G03*
X9452144Y-7845444I-12700J0D01*
G01*
X9512700Y-6300000D02*
G75*
G03*
X9512700Y-6300000I-12700J0D01*
G01*
X9527700Y-6594000D02*
G75*
G03*
X9527700Y-6594000I-12700J0D01*
G01*
X9544700Y-7905000D02*
G75*
G03*
X9544700Y-7905000I-12700J0D01*
G01*
X9557701Y-7180001D02*
G75*
G03*
X9557701Y-7180001I-12700J0D01*
G01*
X9582700Y-7800000D02*
G75*
G03*
X9582700Y-7800000I-12700J0D01*
G01*
X9595701Y-6822999D02*
G75*
G03*
X9595701Y-6822999I-12700J0D01*
G01*
X9634700Y-6594000D02*
G75*
G03*
X9634700Y-6594000I-12700J0D01*
G01*
X9654619Y-7800000D02*
G75*
G03*
X9654619Y-7800000I-12700J0D01*
G01*
X9659700Y-7862000D02*
G75*
G03*
X9659700Y-7862000I-12700J0D01*
G01*
X9669700Y-6402000D02*
G75*
G03*
X9669700Y-6402000I-12700J0D01*
G01*
X9712700Y-6590000D02*
G75*
G03*
X9712700Y-6590000I-12700J0D01*
G01*
X9742701Y-7800000D02*
G75*
G03*
X9742701Y-7800000I-12700J0D01*
G01*
X9777700Y-6802500D02*
G75*
G03*
X9777700Y-6802500I-12700J0D01*
G01*
X9831700Y-6942000D02*
G75*
G03*
X9831700Y-6942000I-12700J0D01*
G01*
X9832700Y-7890000D02*
G75*
G03*
X9832700Y-7890000I-12700J0D01*
G01*
X9867700Y-7800000D02*
G75*
G03*
X9867700Y-7800000I-12700J0D01*
G01*
X9980700Y-7800000D02*
G75*
G03*
X9980700Y-7800000I-12700J0D01*
G01*
X10041700Y-6617000D02*
G75*
G03*
X10041700Y-6617000I-12700J0D01*
G01*
X10042700Y-6678000D02*
G75*
G03*
X10042700Y-6678000I-12700J0D01*
G01*
X10105700Y-6356000D02*
G75*
G03*
X10105700Y-6356000I-12700J0D01*
G01*
X10132700Y-7890000D02*
G75*
G03*
X10132700Y-7890000I-12700J0D01*
G01*
X10140700Y-6843000D02*
G75*
G03*
X10140700Y-6843000I-12700J0D01*
G01*
X10169700Y-7800000D02*
G75*
G03*
X10169700Y-7800000I-12700J0D01*
G01*
X10172700Y-5693000D02*
G75*
G03*
X10172700Y-5693000I-12700J0D01*
G01*
X10241700Y-6919000D02*
G75*
G03*
X10241700Y-6919000I-12700J0D01*
G01*
X10267700Y-6590000D02*
G75*
G03*
X10267700Y-6590000I-12700J0D01*
G01*
X10293700Y-6031000D02*
G75*
G03*
X10293700Y-6031000I-12700J0D01*
G01*
X10326700Y-8282000D02*
G75*
G03*
X10326700Y-8282000I-12700J0D01*
G01*
X10328700Y-5288000D02*
G75*
G03*
X10328700Y-5288000I-12700J0D01*
G01*
X10342700Y-7312000D02*
G75*
G03*
X10342700Y-7312000I-12700J0D01*
G01*
X10355700Y-7120000D02*
G75*
G03*
X10355700Y-7120000I-12700J0D01*
G01*
X10365700Y-7820000D02*
G75*
G03*
X10365700Y-7820000I-12700J0D01*
G01*
X10366700Y-8499000D02*
G75*
G03*
X10366700Y-8499000I-12700J0D01*
G01*
X10400700Y-7432000D02*
G75*
G03*
X10400700Y-7432000I-12700J0D01*
G01*
X10404701Y-6828000D02*
G75*
G03*
X10404701Y-6828000I-12700J0D01*
G01*
X10404701Y-7000001D02*
G75*
G03*
X10404701Y-7000001I-12700J0D01*
G01*
X10416700Y-6317000D02*
G75*
G03*
X10416700Y-6317000I-12700J0D01*
G01*
X10423700Y-8332000D02*
G75*
G03*
X10423700Y-8332000I-12700J0D01*
G01*
X10427700Y-8206000D02*
G75*
G03*
X10427700Y-8206000I-12700J0D01*
G01*
X10429700Y-7667000D02*
G75*
G03*
X10429700Y-7667000I-12700J0D01*
G01*
X10441700Y-5611000D02*
G75*
G03*
X10441700Y-5611000I-12700J0D01*
G01*
X10446700Y-7194000D02*
G75*
G03*
X10446700Y-7194000I-12700J0D01*
G01*
X10471700Y-7003000D02*
G75*
G03*
X10471700Y-7003000I-12700J0D01*
G01*
X10488700Y-6874000D02*
G75*
G03*
X10488700Y-6874000I-12700J0D01*
G01*
X10489700Y-8037000D02*
G75*
G03*
X10489700Y-8037000I-12700J0D01*
G01*
X10502700Y-6590000D02*
G75*
G03*
X10502700Y-6590000I-12700J0D01*
G01*
X10506700Y-7099000D02*
G75*
G03*
X10506700Y-7099000I-12700J0D01*
G01*
X10532700Y-7360000D02*
G75*
G03*
X10532700Y-7360000I-12700J0D01*
G01*
X10570700Y-7181000D02*
G75*
G03*
X10570700Y-7181000I-12700J0D01*
G01*
X10587700Y-7098000D02*
G75*
G03*
X10587700Y-7098000I-12700J0D01*
G01*
X10627700Y-7360000D02*
G75*
G03*
X10627700Y-7360000I-12700J0D01*
G01*
X10639700Y-7524000D02*
G75*
G03*
X10639700Y-7524000I-12700J0D01*
G01*
X10662700Y-5387000D02*
G75*
G03*
X10662700Y-5387000I-12700J0D01*
G01*
X10662700Y-6710000D02*
G75*
G03*
X10662700Y-6710000I-12700J0D01*
G01*
X10682700Y-5818000D02*
G75*
G03*
X10682700Y-5818000I-12700J0D01*
G01*
X10682700Y-6209000D02*
G75*
G03*
X10682700Y-6209000I-12700J0D01*
G01*
X10685700Y-4904000D02*
G75*
G03*
X10685700Y-4904000I-12700J0D01*
G01*
X10692700Y-6590000D02*
G75*
G03*
X10692700Y-6590000I-12700J0D01*
G01*
X10702700Y-7172500D02*
G75*
G03*
X10702700Y-7172500I-12700J0D01*
G01*
X10705700Y-7360000D02*
G75*
G03*
X10705700Y-7360000I-12700J0D01*
G01*
X10706700Y-6802000D02*
G75*
G03*
X10706700Y-6802000I-12700J0D01*
G01*
D14*
X9727500Y-7157500D02*
X9727500Y-7187500D01*
X9712500Y-7172500D02*
X9742500Y-7172500D01*
X9727500Y-7282500D02*
X9727500Y-7312500D01*
X9712500Y-7297500D02*
X9742500Y-7297500D01*
X9727500Y-7407500D02*
X9727500Y-7437500D01*
X9712500Y-7422500D02*
X9742500Y-7422500D01*
X9727500Y-7532500D02*
X9727500Y-7562500D01*
X9712500Y-7547500D02*
X9742500Y-7547500D01*
X9862500Y-7157500D02*
X9862500Y-7187500D01*
X9847500Y-7172500D02*
X9877500Y-7172500D01*
X9862500Y-7282500D02*
X9862500Y-7312500D01*
X9847500Y-7297500D02*
X9877500Y-7297500D01*
X9862500Y-7407500D02*
X9862500Y-7437500D01*
X9847500Y-7422500D02*
X9877500Y-7422500D01*
X9862500Y-7532500D02*
X9862500Y-7562500D01*
X9847500Y-7547500D02*
X9877500Y-7547500D01*
X9997500Y-7157500D02*
X9997500Y-7187500D01*
X9982500Y-7172500D02*
X10012500Y-7172500D01*
X9997500Y-7282500D02*
X9997500Y-7312500D01*
X9982500Y-7297500D02*
X10012500Y-7297500D01*
X9997500Y-7407500D02*
X9997500Y-7437500D01*
X9982500Y-7422500D02*
X10012500Y-7422500D01*
X9997500Y-7532500D02*
X9997500Y-7562500D01*
X9982500Y-7547500D02*
X10012500Y-7547500D01*
X10132500Y-7157500D02*
X10132500Y-7187500D01*
X10117500Y-7172500D02*
X10147500Y-7172500D01*
X10132500Y-7282500D02*
X10132500Y-7312500D01*
X10117500Y-7297500D02*
X10147500Y-7297500D01*
X10132500Y-7407500D02*
X10132500Y-7437500D01*
X10117500Y-7422500D02*
X10147500Y-7422500D01*
X10132500Y-7532500D02*
X10132500Y-7562500D01*
X10117500Y-7547500D02*
X10147500Y-7547500D01*
D15*
X4494981Y-6528981D02*
X4494981Y-6483019D01*
X4449019Y-6483019D01*
X4449019Y-6528981D01*
X4494981Y-6528981D01*
D11*
X4452000Y-6528500D02*
X4492000Y-6528500D01*
X4452000Y-6483500D02*
X4492000Y-6483500D01*
X4492000Y-6528500D02*
G75*
G03*
X4492000Y-6483500I0J22500D01*
G01*
X4452000Y-6483500D02*
G75*
G03*
X4452000Y-6528500I0J-22500D01*
G01*
D15*
X4494981Y-7012981D02*
X4494981Y-6967019D01*
X4449019Y-6967019D01*
X4449019Y-7012981D01*
X4494981Y-7012981D01*
D11*
X4452000Y-7012500D02*
X4492000Y-7012500D01*
X4452000Y-6967500D02*
X4492000Y-6967500D01*
X4492000Y-7012500D02*
G75*
G03*
X4492000Y-6967500I0J22500D01*
G01*
X4452000Y-6967500D02*
G75*
G03*
X4452000Y-7012500I0J-22500D01*
G01*
D16*
X4172000Y-6510000D02*
X4207000Y-6475000D01*
X4172000Y-6440000D01*
X4137000Y-6475000D01*
X4172000Y-6510000D01*
D11*
X4147000Y-6500000D02*
X4197000Y-6500000D01*
X4147000Y-6450000D02*
X4197000Y-6450000D01*
X4197000Y-6500000D02*
G75*
G03*
X4197000Y-6450000I0J25000D01*
G01*
X4147000Y-6450000D02*
G75*
G03*
X4147000Y-6500000I0J-25000D01*
G01*
D16*
X4172000Y-7056000D02*
X4207000Y-7021000D01*
X4172000Y-6986000D01*
X4137000Y-7021000D01*
X4172000Y-7056000D01*
D11*
X4147000Y-7046000D02*
X4197000Y-7046000D01*
X4147000Y-6996000D02*
X4197000Y-6996000D01*
X4197000Y-7046000D02*
G75*
G03*
X4197000Y-6996000I0J25000D01*
G01*
X4147000Y-6996000D02*
G75*
G03*
X4147000Y-7046000I0J-25000D01*
G01*
D17*
X4776000Y-4950000D02*
X4876000Y-5050000D01*
X4876000Y-4950000D02*
X4776000Y-5050000D01*
X4876000Y-5000000D02*
G75*
G03*
X4876000Y-5000000I-50000J0D01*
G01*
X4776000Y-8459000D02*
X4876000Y-8559000D01*
X4876000Y-8459000D02*
X4776000Y-8559000D01*
X4876000Y-8509000D02*
G75*
G03*
X4876000Y-8509000I-50000J0D01*
G01*
X5030000Y-4950000D02*
X5130000Y-5050000D01*
X5130000Y-4950000D02*
X5030000Y-5050000D01*
X5130000Y-5000000D02*
G75*
G03*
X5130000Y-5000000I-50000J0D01*
G01*
X5030000Y-8459000D02*
X5130000Y-8559000D01*
X5130000Y-8459000D02*
X5030000Y-8559000D01*
X5130000Y-8509000D02*
G75*
G03*
X5130000Y-8509000I-50000J0D01*
G01*
X5284000Y-4950000D02*
X5384000Y-5050000D01*
X5384000Y-4950000D02*
X5284000Y-5050000D01*
X5384000Y-5000000D02*
G75*
G03*
X5384000Y-5000000I-50000J0D01*
G01*
X5284000Y-8459000D02*
X5384000Y-8559000D01*
X5384000Y-8459000D02*
X5284000Y-8559000D01*
X5384000Y-8509000D02*
G75*
G03*
X5384000Y-8509000I-50000J0D01*
G01*
X5538000Y-4950000D02*
X5638000Y-5050000D01*
X5638000Y-4950000D02*
X5538000Y-5050000D01*
X5638000Y-5000000D02*
G75*
G03*
X5638000Y-5000000I-50000J0D01*
G01*
X5538000Y-8459000D02*
X5638000Y-8559000D01*
X5638000Y-8459000D02*
X5538000Y-8559000D01*
X5638000Y-8509000D02*
G75*
G03*
X5638000Y-8509000I-50000J0D01*
G01*
X5792000Y-4950000D02*
X5892000Y-5050000D01*
X5892000Y-4950000D02*
X5792000Y-5050000D01*
X5892000Y-5000000D02*
G75*
G03*
X5892000Y-5000000I-50000J0D01*
G01*
X5792000Y-8459000D02*
X5892000Y-8559000D01*
X5892000Y-8459000D02*
X5792000Y-8559000D01*
X5892000Y-8509000D02*
G75*
G03*
X5892000Y-8509000I-50000J0D01*
G01*
X6046000Y-4950000D02*
X6146000Y-5050000D01*
X6146000Y-4950000D02*
X6046000Y-5050000D01*
X6146000Y-5000000D02*
G75*
G03*
X6146000Y-5000000I-50000J0D01*
G01*
X6046000Y-8459000D02*
X6146000Y-8559000D01*
X6146000Y-8459000D02*
X6046000Y-8559000D01*
X6146000Y-8509000D02*
G75*
G03*
X6146000Y-8509000I-50000J0D01*
G01*
X6300000Y-4950000D02*
X6400000Y-5050000D01*
X6400000Y-4950000D02*
X6300000Y-5050000D01*
X6400000Y-5000000D02*
G75*
G03*
X6400000Y-5000000I-50000J0D01*
G01*
X6300000Y-6712001D02*
X6400000Y-6812001D01*
X6400000Y-6712001D02*
X6300000Y-6812001D01*
X6400000Y-6762001D02*
G75*
G03*
X6400000Y-6762001I-50000J0D01*
G01*
X6300000Y-6966001D02*
X6400000Y-7066001D01*
X6400000Y-6966001D02*
X6300000Y-7066001D01*
X6400000Y-7016001D02*
G75*
G03*
X6400000Y-7016001I-50000J0D01*
G01*
X6300000Y-7220001D02*
X6400000Y-7320001D01*
X6400000Y-7220001D02*
X6300000Y-7320001D01*
X6400000Y-7270001D02*
G75*
G03*
X6400000Y-7270001I-50000J0D01*
G01*
X6300000Y-7474001D02*
X6400000Y-7574001D01*
X6400000Y-7474001D02*
X6300000Y-7574001D01*
X6400000Y-7524001D02*
G75*
G03*
X6400000Y-7524001I-50000J0D01*
G01*
X6300000Y-7728001D02*
X6400000Y-7828001D01*
X6400000Y-7728001D02*
X6300000Y-7828001D01*
X6400000Y-7778001D02*
G75*
G03*
X6400000Y-7778001I-50000J0D01*
G01*
X6300000Y-7982001D02*
X6400000Y-8082001D01*
X6400000Y-7982001D02*
X6300000Y-8082001D01*
X6400000Y-8032001D02*
G75*
G03*
X6400000Y-8032001I-50000J0D01*
G01*
X6300000Y-8459000D02*
X6400000Y-8559000D01*
X6400000Y-8459000D02*
X6300000Y-8559000D01*
X6400000Y-8509000D02*
G75*
G03*
X6400000Y-8509000I-50000J0D01*
G01*
X6554000Y-4950000D02*
X6654000Y-5050000D01*
X6654000Y-4950000D02*
X6554000Y-5050000D01*
X6654000Y-5000000D02*
G75*
G03*
X6654000Y-5000000I-50000J0D01*
G01*
X6554000Y-8459000D02*
X6654000Y-8559000D01*
X6654000Y-8459000D02*
X6554000Y-8559000D01*
X6654000Y-8509000D02*
G75*
G03*
X6654000Y-8509000I-50000J0D01*
G01*
X6808000Y-4950000D02*
X6908000Y-5050000D01*
X6908000Y-4950000D02*
X6808000Y-5050000D01*
X6908000Y-5000000D02*
G75*
G03*
X6908000Y-5000000I-50000J0D01*
G01*
X6808000Y-8459000D02*
X6908000Y-8559000D01*
X6908000Y-8459000D02*
X6808000Y-8559000D01*
X6908000Y-8509000D02*
G75*
G03*
X6908000Y-8509000I-50000J0D01*
G01*
X7062000Y-4950000D02*
X7162000Y-5050000D01*
X7162000Y-4950000D02*
X7062000Y-5050000D01*
X7162000Y-5000000D02*
G75*
G03*
X7162000Y-5000000I-50000J0D01*
G01*
X7062000Y-8459000D02*
X7162000Y-8559000D01*
X7162000Y-8459000D02*
X7062000Y-8559000D01*
X7162000Y-8509000D02*
G75*
G03*
X7162000Y-8509000I-50000J0D01*
G01*
X7316000Y-4950000D02*
X7416000Y-5050000D01*
X7416000Y-4950000D02*
X7316000Y-5050000D01*
X7416000Y-5000000D02*
G75*
G03*
X7416000Y-5000000I-50000J0D01*
G01*
X7316000Y-8459000D02*
X7416000Y-8559000D01*
X7416000Y-8459000D02*
X7316000Y-8559000D01*
X7416000Y-8509000D02*
G75*
G03*
X7416000Y-8509000I-50000J0D01*
G01*
X7570000Y-4950000D02*
X7670000Y-5050000D01*
X7670000Y-4950000D02*
X7570000Y-5050000D01*
X7670000Y-5000000D02*
G75*
G03*
X7670000Y-5000000I-50000J0D01*
G01*
X7570000Y-8459000D02*
X7670000Y-8559000D01*
X7670000Y-8459000D02*
X7570000Y-8559000D01*
X7670000Y-8509000D02*
G75*
G03*
X7670000Y-8509000I-50000J0D01*
G01*
X7824000Y-4950000D02*
X7924000Y-5050000D01*
X7924000Y-4950000D02*
X7824000Y-5050000D01*
X7924000Y-5000000D02*
G75*
G03*
X7924000Y-5000000I-50000J0D01*
G01*
X7824000Y-8459000D02*
X7924000Y-8559000D01*
X7924000Y-8459000D02*
X7824000Y-8559000D01*
X7924000Y-8509000D02*
G75*
G03*
X7924000Y-8509000I-50000J0D01*
G01*
X8078000Y-4950000D02*
X8178000Y-5050000D01*
X8178000Y-4950000D02*
X8078000Y-5050000D01*
X8178000Y-5000000D02*
G75*
G03*
X8178000Y-5000000I-50000J0D01*
G01*
X8078000Y-6458001D02*
X8178000Y-6558001D01*
X8178000Y-6458001D02*
X8078000Y-6558001D01*
X8178000Y-6508001D02*
G75*
G03*
X8178000Y-6508001I-50000J0D01*
G01*
X8078000Y-6712001D02*
X8178000Y-6812001D01*
X8178000Y-6712001D02*
X8078000Y-6812001D01*
X8178000Y-6762001D02*
G75*
G03*
X8178000Y-6762001I-50000J0D01*
G01*
X8078000Y-6966001D02*
X8178000Y-7066001D01*
X8178000Y-6966001D02*
X8078000Y-7066001D01*
X8178000Y-7016001D02*
G75*
G03*
X8178000Y-7016001I-50000J0D01*
G01*
X8078000Y-7220001D02*
X8178000Y-7320001D01*
X8178000Y-7220001D02*
X8078000Y-7320001D01*
X8178000Y-7270001D02*
G75*
G03*
X8178000Y-7270001I-50000J0D01*
G01*
X8078000Y-7474001D02*
X8178000Y-7574001D01*
X8178000Y-7474001D02*
X8078000Y-7574001D01*
X8178000Y-7524001D02*
G75*
G03*
X8178000Y-7524001I-50000J0D01*
G01*
X8078000Y-7728001D02*
X8178000Y-7828001D01*
X8178000Y-7728001D02*
X8078000Y-7828001D01*
X8178000Y-7778001D02*
G75*
G03*
X8178000Y-7778001I-50000J0D01*
G01*
X8078000Y-7982001D02*
X8178000Y-8082001D01*
X8178000Y-7982001D02*
X8078000Y-8082001D01*
X8178000Y-8032001D02*
G75*
G03*
X8178000Y-8032001I-50000J0D01*
G01*
X8078000Y-8459000D02*
X8178000Y-8559000D01*
X8178000Y-8459000D02*
X8078000Y-8559000D01*
X8178000Y-8509000D02*
G75*
G03*
X8178000Y-8509000I-50000J0D01*
G01*
X8332000Y-4950000D02*
X8432000Y-5050000D01*
X8432000Y-4950000D02*
X8332000Y-5050000D01*
X8432000Y-5000000D02*
G75*
G03*
X8432000Y-5000000I-50000J0D01*
G01*
X8332000Y-8459000D02*
X8432000Y-8559000D01*
X8432000Y-8459000D02*
X8332000Y-8559000D01*
X8432000Y-8509000D02*
G75*
G03*
X8432000Y-8509000I-50000J0D01*
G01*
X8586000Y-4950000D02*
X8686000Y-5050000D01*
X8686000Y-4950000D02*
X8586000Y-5050000D01*
X8686000Y-5000000D02*
G75*
G03*
X8686000Y-5000000I-50000J0D01*
G01*
X8586000Y-8459000D02*
X8686000Y-8559000D01*
X8686000Y-8459000D02*
X8586000Y-8559000D01*
X8686000Y-8509000D02*
G75*
G03*
X8686000Y-8509000I-50000J0D01*
G01*
X8840000Y-4950000D02*
X8940000Y-5050000D01*
X8940000Y-4950000D02*
X8840000Y-5050000D01*
X8940000Y-5000000D02*
G75*
G03*
X8940000Y-5000000I-50000J0D01*
G01*
X8840000Y-8459000D02*
X8940000Y-8559000D01*
X8940000Y-8459000D02*
X8840000Y-8559000D01*
X8940000Y-8509000D02*
G75*
G03*
X8940000Y-8509000I-50000J0D01*
G01*
X9094000Y-4950000D02*
X9194000Y-5050000D01*
X9194000Y-4950000D02*
X9094000Y-5050000D01*
X9194000Y-5000000D02*
G75*
G03*
X9194000Y-5000000I-50000J0D01*
G01*
X9094000Y-8459000D02*
X9194000Y-8559000D01*
X9194000Y-8459000D02*
X9094000Y-8559000D01*
X9194000Y-8509000D02*
G75*
G03*
X9194000Y-8509000I-50000J0D01*
G01*
X9348000Y-4950000D02*
X9448000Y-5050000D01*
X9448000Y-4950000D02*
X9348000Y-5050000D01*
X9448000Y-5000000D02*
G75*
G03*
X9448000Y-5000000I-50000J0D01*
G01*
X9348000Y-8459000D02*
X9448000Y-8559000D01*
X9448000Y-8459000D02*
X9348000Y-8559000D01*
X9448000Y-8509000D02*
G75*
G03*
X9448000Y-8509000I-50000J0D01*
G01*
X9602000Y-4950000D02*
X9702000Y-5050000D01*
X9702000Y-4950000D02*
X9602000Y-5050000D01*
X9702000Y-5000000D02*
G75*
G03*
X9702000Y-5000000I-50000J0D01*
G01*
X9602000Y-8459000D02*
X9702000Y-8559000D01*
X9702000Y-8459000D02*
X9602000Y-8559000D01*
X9702000Y-8509000D02*
G75*
G03*
X9702000Y-8509000I-50000J0D01*
G01*
X9856000Y-4950000D02*
X9956000Y-5050000D01*
X9956000Y-4950000D02*
X9856000Y-5050000D01*
X9956000Y-5000000D02*
G75*
G03*
X9956000Y-5000000I-50000J0D01*
G01*
X9856000Y-8459000D02*
X9956000Y-8559000D01*
X9956000Y-8459000D02*
X9856000Y-8559000D01*
X9956000Y-8509000D02*
G75*
G03*
X9956000Y-8509000I-50000J0D01*
G01*
X10110000Y-4950000D02*
X10210000Y-5050000D01*
X10210000Y-4950000D02*
X10110000Y-5050000D01*
X10210000Y-5000000D02*
G75*
G03*
X10210000Y-5000000I-50000J0D01*
G01*
X10110000Y-8459000D02*
X10210000Y-8559000D01*
X10210000Y-8459000D02*
X10110000Y-8559000D01*
X10210000Y-8509000D02*
G75*
G03*
X10210000Y-8509000I-50000J0D01*
G01*
D18*
X4115000Y-4865000D02*
X4365000Y-5115000D01*
X4365000Y-4865000D02*
X4115000Y-5115000D01*
X4240000Y-4865000D02*
X4240000Y-5115000D01*
X4115000Y-4990000D02*
X4365000Y-4990000D01*
X4115000Y-8385000D02*
X4365000Y-8635000D01*
X4365000Y-8385000D02*
X4115000Y-8635000D01*
X4240000Y-8385000D02*
X4240000Y-8635000D01*
X4115000Y-8510000D02*
X4365000Y-8510000D01*
D11*
X4252619Y-9065476D02*
X4252619Y-8865476D01*
X4300238Y-8865476D01*
X4328810Y-8875000D01*
X4347857Y-8894048D01*
X4357381Y-8913095D01*
X4366905Y-8951190D01*
X4366905Y-8979762D01*
X4357381Y-9017857D01*
X4347857Y-9036905D01*
X4328810Y-9055952D01*
X4300238Y-9065476D01*
X4252619Y-9065476D01*
X4452619Y-9065476D02*
X4452619Y-8932143D01*
X4452619Y-8970238D02*
X4462143Y-8951190D01*
X4471667Y-8941667D01*
X4490714Y-8932143D01*
X4509762Y-8932143D01*
X4576429Y-9065476D02*
X4576429Y-8932143D01*
X4576429Y-8865476D02*
X4566905Y-8875000D01*
X4576429Y-8884524D01*
X4585952Y-8875000D01*
X4576429Y-8865476D01*
X4576429Y-8884524D01*
X4700238Y-9065476D02*
X4681190Y-9055952D01*
X4671667Y-9036905D01*
X4671667Y-8865476D01*
X4805000Y-9065476D02*
X4785952Y-9055952D01*
X4776429Y-9036905D01*
X4776429Y-8865476D01*
X5033571Y-9065476D02*
X5033571Y-8865476D01*
X5100238Y-9008333D01*
X5166905Y-8865476D01*
X5166905Y-9065476D01*
X5347857Y-9065476D02*
X5347857Y-8960714D01*
X5338333Y-8941667D01*
X5319286Y-8932143D01*
X5281190Y-8932143D01*
X5262143Y-8941667D01*
X5347857Y-9055952D02*
X5328810Y-9065476D01*
X5281190Y-9065476D01*
X5262143Y-9055952D01*
X5252619Y-9036905D01*
X5252619Y-9017857D01*
X5262143Y-8998810D01*
X5281190Y-8989286D01*
X5328810Y-8989286D01*
X5347857Y-8979762D01*
X5443095Y-8932143D02*
X5443095Y-9132143D01*
X5443095Y-8941667D02*
X5462143Y-8932143D01*
X5500238Y-8932143D01*
X5519286Y-8941667D01*
X5528810Y-8951190D01*
X5538333Y-8970238D01*
X5538333Y-9027381D01*
X5528810Y-9046429D01*
X5519286Y-9055952D01*
X5500238Y-9065476D01*
X5462143Y-9065476D01*
X5443095Y-9055952D01*
X5624048Y-9046429D02*
X5633571Y-9055952D01*
X5624048Y-9065476D01*
X5614524Y-9055952D01*
X5624048Y-9046429D01*
X5624048Y-9065476D01*
X5624048Y-8941667D02*
X5633571Y-8951190D01*
X5624048Y-8960714D01*
X5614524Y-8951190D01*
X5624048Y-8941667D01*
X5624048Y-8960714D01*
D12*
X3979760Y-9387380D02*
X3995000Y-9402620D01*
X3995000Y-9387380D02*
X3979760Y-9402620D01*
D11*
X4290714Y-9285476D02*
X4309762Y-9285476D01*
X4328810Y-9295000D01*
X4338333Y-9304524D01*
X4347857Y-9323571D01*
X4357381Y-9361667D01*
X4357381Y-9409286D01*
X4347857Y-9447381D01*
X4338333Y-9466429D01*
X4328810Y-9475952D01*
X4309762Y-9485476D01*
X4290714Y-9485476D01*
X4271667Y-9475952D01*
X4262143Y-9466429D01*
X4252619Y-9447381D01*
X4243095Y-9409286D01*
X4243095Y-9361667D01*
X4252619Y-9323571D01*
X4262143Y-9304524D01*
X4271667Y-9295000D01*
X4290714Y-9285476D01*
X4443095Y-9466429D02*
X4452619Y-9475952D01*
X4443095Y-9485476D01*
X4433571Y-9475952D01*
X4443095Y-9466429D01*
X4443095Y-9485476D01*
X4643095Y-9485476D02*
X4528810Y-9485476D01*
X4585952Y-9485476D02*
X4585952Y-9285476D01*
X4566905Y-9314048D01*
X4547857Y-9333095D01*
X4528810Y-9342619D01*
X4824048Y-9285476D02*
X4728810Y-9285476D01*
X4719286Y-9380714D01*
X4728810Y-9371190D01*
X4747857Y-9361667D01*
X4795476Y-9361667D01*
X4814524Y-9371190D01*
X4824048Y-9380714D01*
X4833571Y-9399762D01*
X4833571Y-9447381D01*
X4824048Y-9466429D01*
X4814524Y-9475952D01*
X4795476Y-9485476D01*
X4747857Y-9485476D01*
X4728810Y-9475952D01*
X4719286Y-9466429D01*
X4909762Y-9304524D02*
X4919286Y-9295000D01*
X4938333Y-9285476D01*
X4985952Y-9285476D01*
X5005000Y-9295000D01*
X5014524Y-9304524D01*
X5024048Y-9323571D01*
X5024048Y-9342619D01*
X5014524Y-9371190D01*
X4900238Y-9485476D01*
X5024048Y-9485476D01*
X5109762Y-9485476D02*
X5109762Y-9352143D01*
X5109762Y-9371190D02*
X5119286Y-9361667D01*
X5138333Y-9352143D01*
X5166905Y-9352143D01*
X5185952Y-9361667D01*
X5195476Y-9380714D01*
X5195476Y-9485476D01*
X5195476Y-9380714D02*
X5205000Y-9361667D01*
X5224048Y-9352143D01*
X5252619Y-9352143D01*
X5271667Y-9361667D01*
X5281190Y-9380714D01*
X5281190Y-9485476D01*
X5376429Y-9485476D02*
X5376429Y-9352143D01*
X5376429Y-9371190D02*
X5385952Y-9361667D01*
X5405000Y-9352143D01*
X5433571Y-9352143D01*
X5452619Y-9361667D01*
X5462143Y-9380714D01*
X5462143Y-9485476D01*
X5462143Y-9380714D02*
X5471667Y-9361667D01*
X5490714Y-9352143D01*
X5519286Y-9352143D01*
X5538333Y-9361667D01*
X5547857Y-9380714D01*
X5547857Y-9485476D01*
X5938333Y-9275952D02*
X5766905Y-9533095D01*
X6195476Y-9285476D02*
X6214524Y-9285476D01*
X6233571Y-9295000D01*
X6243095Y-9304524D01*
X6252619Y-9323571D01*
X6262143Y-9361667D01*
X6262143Y-9409286D01*
X6252619Y-9447381D01*
X6243095Y-9466429D01*
X6233571Y-9475952D01*
X6214524Y-9485476D01*
X6195476Y-9485476D01*
X6176428Y-9475952D01*
X6166905Y-9466429D01*
X6157381Y-9447381D01*
X6147857Y-9409286D01*
X6147857Y-9361667D01*
X6157381Y-9323571D01*
X6166905Y-9304524D01*
X6176428Y-9295000D01*
X6195476Y-9285476D01*
X6347857Y-9466429D02*
X6357381Y-9475952D01*
X6347857Y-9485476D01*
X6338333Y-9475952D01*
X6347857Y-9466429D01*
X6347857Y-9485476D01*
X6481190Y-9285476D02*
X6500238Y-9285476D01*
X6519286Y-9295000D01*
X6528809Y-9304524D01*
X6538333Y-9323571D01*
X6547857Y-9361667D01*
X6547857Y-9409286D01*
X6538333Y-9447381D01*
X6528809Y-9466429D01*
X6519286Y-9475952D01*
X6500238Y-9485476D01*
X6481190Y-9485476D01*
X6462143Y-9475952D01*
X6452619Y-9466429D01*
X6443095Y-9447381D01*
X6433571Y-9409286D01*
X6433571Y-9361667D01*
X6443095Y-9323571D01*
X6452619Y-9304524D01*
X6462143Y-9295000D01*
X6481190Y-9285476D01*
X6671667Y-9285476D02*
X6690714Y-9285476D01*
X6709762Y-9295000D01*
X6719286Y-9304524D01*
X6728809Y-9323571D01*
X6738333Y-9361667D01*
X6738333Y-9409286D01*
X6728809Y-9447381D01*
X6719286Y-9466429D01*
X6709762Y-9475952D01*
X6690714Y-9485476D01*
X6671667Y-9485476D01*
X6652619Y-9475952D01*
X6643095Y-9466429D01*
X6633571Y-9447381D01*
X6624048Y-9409286D01*
X6624048Y-9361667D01*
X6633571Y-9323571D01*
X6643095Y-9304524D01*
X6652619Y-9295000D01*
X6671667Y-9285476D01*
X6909762Y-9285476D02*
X6871667Y-9285476D01*
X6852619Y-9295000D01*
X6843095Y-9304524D01*
X6824048Y-9333095D01*
X6814524Y-9371190D01*
X6814524Y-9447381D01*
X6824048Y-9466429D01*
X6833571Y-9475952D01*
X6852619Y-9485476D01*
X6890714Y-9485476D01*
X6909762Y-9475952D01*
X6919286Y-9466429D01*
X6928809Y-9447381D01*
X6928809Y-9399762D01*
X6919286Y-9380714D01*
X6909762Y-9371190D01*
X6890714Y-9361667D01*
X6852619Y-9361667D01*
X6833571Y-9371190D01*
X6824048Y-9380714D01*
X6814524Y-9399762D01*
X7052619Y-9285476D02*
X7071667Y-9285476D01*
X7090714Y-9295000D01*
X7100238Y-9304524D01*
X7109762Y-9323571D01*
X7119286Y-9361667D01*
X7119286Y-9409286D01*
X7109762Y-9447381D01*
X7100238Y-9466429D01*
X7090714Y-9475952D01*
X7071667Y-9485476D01*
X7052619Y-9485476D01*
X7033571Y-9475952D01*
X7024048Y-9466429D01*
X7014524Y-9447381D01*
X7005000Y-9409286D01*
X7005000Y-9361667D01*
X7014524Y-9323571D01*
X7024048Y-9304524D01*
X7033571Y-9295000D01*
X7052619Y-9285476D01*
X7195476Y-9285476D02*
X7195476Y-9323571D01*
X7271667Y-9285476D02*
X7271667Y-9323571D01*
X7566905Y-9561667D02*
X7557381Y-9552143D01*
X7538333Y-9523571D01*
X7528809Y-9504524D01*
X7519286Y-9475952D01*
X7509762Y-9428333D01*
X7509762Y-9390238D01*
X7519286Y-9342619D01*
X7528809Y-9314048D01*
X7538333Y-9295000D01*
X7557381Y-9266429D01*
X7566905Y-9256905D01*
X7633571Y-9304524D02*
X7643095Y-9295000D01*
X7662143Y-9285476D01*
X7709762Y-9285476D01*
X7728809Y-9295000D01*
X7738333Y-9304524D01*
X7747857Y-9323571D01*
X7747857Y-9342619D01*
X7738333Y-9371190D01*
X7624048Y-9485476D01*
X7747857Y-9485476D01*
X7938333Y-9485476D02*
X7824048Y-9485476D01*
X7881190Y-9485476D02*
X7881190Y-9285476D01*
X7862143Y-9314048D01*
X7843095Y-9333095D01*
X7824048Y-9342619D01*
X8176428Y-9485476D02*
X8176428Y-9285476D01*
X8262143Y-9485476D02*
X8262143Y-9380714D01*
X8252619Y-9361667D01*
X8233571Y-9352143D01*
X8205000Y-9352143D01*
X8185952Y-9361667D01*
X8176428Y-9371190D01*
X8385952Y-9485476D02*
X8366905Y-9475952D01*
X8357381Y-9466429D01*
X8347857Y-9447381D01*
X8347857Y-9390238D01*
X8357381Y-9371190D01*
X8366905Y-9361667D01*
X8385952Y-9352143D01*
X8414524Y-9352143D01*
X8433571Y-9361667D01*
X8443095Y-9371190D01*
X8452619Y-9390238D01*
X8452619Y-9447381D01*
X8443095Y-9466429D01*
X8433571Y-9475952D01*
X8414524Y-9485476D01*
X8385952Y-9485476D01*
X8566905Y-9485476D02*
X8547857Y-9475952D01*
X8538333Y-9456905D01*
X8538333Y-9285476D01*
X8719286Y-9475952D02*
X8700238Y-9485476D01*
X8662143Y-9485476D01*
X8643095Y-9475952D01*
X8633571Y-9456905D01*
X8633571Y-9380714D01*
X8643095Y-9361667D01*
X8662143Y-9352143D01*
X8700238Y-9352143D01*
X8719286Y-9361667D01*
X8728810Y-9380714D01*
X8728810Y-9399762D01*
X8633571Y-9418810D01*
X8805000Y-9475952D02*
X8824048Y-9485476D01*
X8862143Y-9485476D01*
X8881190Y-9475952D01*
X8890714Y-9456905D01*
X8890714Y-9447381D01*
X8881190Y-9428333D01*
X8862143Y-9418810D01*
X8833571Y-9418810D01*
X8814524Y-9409286D01*
X8805000Y-9390238D01*
X8805000Y-9380714D01*
X8814524Y-9361667D01*
X8833571Y-9352143D01*
X8862143Y-9352143D01*
X8881190Y-9361667D01*
X8957381Y-9561667D02*
X8966905Y-9552143D01*
X8985952Y-9523571D01*
X8995476Y-9504524D01*
X9005000Y-9475952D01*
X9014524Y-9428333D01*
X9014524Y-9390238D01*
X9005000Y-9342619D01*
X8995476Y-9314048D01*
X8985952Y-9295000D01*
X8966905Y-9266429D01*
X8957381Y-9256905D01*
D13*
X3995000Y-9659000D02*
G75*
G03*
X3995000Y-9659000I-12700J0D01*
G01*
D11*
X4290714Y-9549476D02*
X4309762Y-9549476D01*
X4328810Y-9559000D01*
X4338333Y-9568524D01*
X4347857Y-9587571D01*
X4357381Y-9625667D01*
X4357381Y-9673286D01*
X4347857Y-9711381D01*
X4338333Y-9730429D01*
X4328810Y-9739952D01*
X4309762Y-9749476D01*
X4290714Y-9749476D01*
X4271667Y-9739952D01*
X4262143Y-9730429D01*
X4252619Y-9711381D01*
X4243095Y-9673286D01*
X4243095Y-9625667D01*
X4252619Y-9587571D01*
X4262143Y-9568524D01*
X4271667Y-9559000D01*
X4290714Y-9549476D01*
X4443095Y-9730429D02*
X4452619Y-9739952D01*
X4443095Y-9749476D01*
X4433571Y-9739952D01*
X4443095Y-9730429D01*
X4443095Y-9749476D01*
X4528810Y-9568524D02*
X4538333Y-9559000D01*
X4557381Y-9549476D01*
X4605000Y-9549476D01*
X4624048Y-9559000D01*
X4633571Y-9568524D01*
X4643095Y-9587571D01*
X4643095Y-9606619D01*
X4633571Y-9635190D01*
X4519286Y-9749476D01*
X4643095Y-9749476D01*
X4824048Y-9549476D02*
X4728810Y-9549476D01*
X4719286Y-9644714D01*
X4728810Y-9635190D01*
X4747857Y-9625667D01*
X4795476Y-9625667D01*
X4814524Y-9635190D01*
X4824048Y-9644714D01*
X4833571Y-9663762D01*
X4833571Y-9711381D01*
X4824048Y-9730429D01*
X4814524Y-9739952D01*
X4795476Y-9749476D01*
X4747857Y-9749476D01*
X4728810Y-9739952D01*
X4719286Y-9730429D01*
X5005000Y-9616143D02*
X5005000Y-9749476D01*
X4957381Y-9539952D02*
X4909762Y-9682810D01*
X5033571Y-9682810D01*
X5109762Y-9749476D02*
X5109762Y-9616143D01*
X5109762Y-9635190D02*
X5119286Y-9625667D01*
X5138333Y-9616143D01*
X5166905Y-9616143D01*
X5185952Y-9625667D01*
X5195476Y-9644714D01*
X5195476Y-9749476D01*
X5195476Y-9644714D02*
X5205000Y-9625667D01*
X5224048Y-9616143D01*
X5252619Y-9616143D01*
X5271667Y-9625667D01*
X5281190Y-9644714D01*
X5281190Y-9749476D01*
X5376429Y-9749476D02*
X5376429Y-9616143D01*
X5376429Y-9635190D02*
X5385952Y-9625667D01*
X5405000Y-9616143D01*
X5433571Y-9616143D01*
X5452619Y-9625667D01*
X5462143Y-9644714D01*
X5462143Y-9749476D01*
X5462143Y-9644714D02*
X5471667Y-9625667D01*
X5490714Y-9616143D01*
X5519286Y-9616143D01*
X5538333Y-9625667D01*
X5547857Y-9644714D01*
X5547857Y-9749476D01*
X5938333Y-9539952D02*
X5766905Y-9797095D01*
X6195476Y-9549476D02*
X6214524Y-9549476D01*
X6233571Y-9559000D01*
X6243095Y-9568524D01*
X6252619Y-9587571D01*
X6262143Y-9625667D01*
X6262143Y-9673286D01*
X6252619Y-9711381D01*
X6243095Y-9730429D01*
X6233571Y-9739952D01*
X6214524Y-9749476D01*
X6195476Y-9749476D01*
X6176428Y-9739952D01*
X6166905Y-9730429D01*
X6157381Y-9711381D01*
X6147857Y-9673286D01*
X6147857Y-9625667D01*
X6157381Y-9587571D01*
X6166905Y-9568524D01*
X6176428Y-9559000D01*
X6195476Y-9549476D01*
X6347857Y-9730429D02*
X6357381Y-9739952D01*
X6347857Y-9749476D01*
X6338333Y-9739952D01*
X6347857Y-9730429D01*
X6347857Y-9749476D01*
X6481190Y-9549476D02*
X6500238Y-9549476D01*
X6519286Y-9559000D01*
X6528809Y-9568524D01*
X6538333Y-9587571D01*
X6547857Y-9625667D01*
X6547857Y-9673286D01*
X6538333Y-9711381D01*
X6528809Y-9730429D01*
X6519286Y-9739952D01*
X6500238Y-9749476D01*
X6481190Y-9749476D01*
X6462143Y-9739952D01*
X6452619Y-9730429D01*
X6443095Y-9711381D01*
X6433571Y-9673286D01*
X6433571Y-9625667D01*
X6443095Y-9587571D01*
X6452619Y-9568524D01*
X6462143Y-9559000D01*
X6481190Y-9549476D01*
X6738333Y-9749476D02*
X6624048Y-9749476D01*
X6681190Y-9749476D02*
X6681190Y-9549476D01*
X6662143Y-9578048D01*
X6643095Y-9597095D01*
X6624048Y-9606619D01*
X6862143Y-9549476D02*
X6881190Y-9549476D01*
X6900238Y-9559000D01*
X6909762Y-9568524D01*
X6919286Y-9587571D01*
X6928809Y-9625667D01*
X6928809Y-9673286D01*
X6919286Y-9711381D01*
X6909762Y-9730429D01*
X6900238Y-9739952D01*
X6881190Y-9749476D01*
X6862143Y-9749476D01*
X6843095Y-9739952D01*
X6833571Y-9730429D01*
X6824048Y-9711381D01*
X6814524Y-9673286D01*
X6814524Y-9625667D01*
X6824048Y-9587571D01*
X6833571Y-9568524D01*
X6843095Y-9559000D01*
X6862143Y-9549476D01*
X7052619Y-9549476D02*
X7071667Y-9549476D01*
X7090714Y-9559000D01*
X7100238Y-9568524D01*
X7109762Y-9587571D01*
X7119286Y-9625667D01*
X7119286Y-9673286D01*
X7109762Y-9711381D01*
X7100238Y-9730429D01*
X7090714Y-9739952D01*
X7071667Y-9749476D01*
X7052619Y-9749476D01*
X7033571Y-9739952D01*
X7024048Y-9730429D01*
X7014524Y-9711381D01*
X7005000Y-9673286D01*
X7005000Y-9625667D01*
X7014524Y-9587571D01*
X7024048Y-9568524D01*
X7033571Y-9559000D01*
X7052619Y-9549476D01*
X7195476Y-9549476D02*
X7195476Y-9587571D01*
X7271667Y-9549476D02*
X7271667Y-9587571D01*
X7566905Y-9825667D02*
X7557381Y-9816143D01*
X7538333Y-9787571D01*
X7528809Y-9768524D01*
X7519286Y-9739952D01*
X7509762Y-9692333D01*
X7509762Y-9654238D01*
X7519286Y-9606619D01*
X7528809Y-9578048D01*
X7538333Y-9559000D01*
X7557381Y-9530429D01*
X7566905Y-9520905D01*
X7747857Y-9749476D02*
X7633571Y-9749476D01*
X7690714Y-9749476D02*
X7690714Y-9549476D01*
X7671667Y-9578048D01*
X7652619Y-9597095D01*
X7633571Y-9606619D01*
X7824048Y-9568524D02*
X7833571Y-9559000D01*
X7852619Y-9549476D01*
X7900238Y-9549476D01*
X7919286Y-9559000D01*
X7928809Y-9568524D01*
X7938333Y-9587571D01*
X7938333Y-9606619D01*
X7928809Y-9635190D01*
X7814524Y-9749476D01*
X7938333Y-9749476D01*
X8033571Y-9749476D02*
X8071667Y-9749476D01*
X8090714Y-9739952D01*
X8100238Y-9730429D01*
X8119286Y-9701857D01*
X8128809Y-9663762D01*
X8128809Y-9587571D01*
X8119286Y-9568524D01*
X8109762Y-9559000D01*
X8090714Y-9549476D01*
X8052619Y-9549476D01*
X8033571Y-9559000D01*
X8024048Y-9568524D01*
X8014524Y-9587571D01*
X8014524Y-9635190D01*
X8024048Y-9654238D01*
X8033571Y-9663762D01*
X8052619Y-9673286D01*
X8090714Y-9673286D01*
X8109762Y-9663762D01*
X8119286Y-9654238D01*
X8128809Y-9635190D01*
X8366905Y-9749476D02*
X8366905Y-9549476D01*
X8452619Y-9749476D02*
X8452619Y-9644714D01*
X8443095Y-9625667D01*
X8424048Y-9616143D01*
X8395476Y-9616143D01*
X8376428Y-9625667D01*
X8366905Y-9635190D01*
X8576429Y-9749476D02*
X8557381Y-9739952D01*
X8547857Y-9730429D01*
X8538333Y-9711381D01*
X8538333Y-9654238D01*
X8547857Y-9635190D01*
X8557381Y-9625667D01*
X8576429Y-9616143D01*
X8605000Y-9616143D01*
X8624048Y-9625667D01*
X8633571Y-9635190D01*
X8643095Y-9654238D01*
X8643095Y-9711381D01*
X8633571Y-9730429D01*
X8624048Y-9739952D01*
X8605000Y-9749476D01*
X8576429Y-9749476D01*
X8757381Y-9749476D02*
X8738333Y-9739952D01*
X8728810Y-9720905D01*
X8728810Y-9549476D01*
X8909762Y-9739952D02*
X8890714Y-9749476D01*
X8852619Y-9749476D01*
X8833571Y-9739952D01*
X8824048Y-9720905D01*
X8824048Y-9644714D01*
X8833571Y-9625667D01*
X8852619Y-9616143D01*
X8890714Y-9616143D01*
X8909762Y-9625667D01*
X8919286Y-9644714D01*
X8919286Y-9663762D01*
X8824048Y-9682810D01*
X8995476Y-9739952D02*
X9014524Y-9749476D01*
X9052619Y-9749476D01*
X9071667Y-9739952D01*
X9081190Y-9720905D01*
X9081190Y-9711381D01*
X9071667Y-9692333D01*
X9052619Y-9682810D01*
X9024048Y-9682810D01*
X9005000Y-9673286D01*
X8995476Y-9654238D01*
X8995476Y-9644714D01*
X9005000Y-9625667D01*
X9024048Y-9616143D01*
X9052619Y-9616143D01*
X9071667Y-9625667D01*
X9147857Y-9825667D02*
X9157381Y-9816143D01*
X9176429Y-9787571D01*
X9185952Y-9768524D01*
X9195476Y-9739952D01*
X9205000Y-9692333D01*
X9205000Y-9654238D01*
X9195476Y-9606619D01*
X9185952Y-9578048D01*
X9176429Y-9559000D01*
X9157381Y-9530429D01*
X9147857Y-9520905D01*
D14*
X3980000Y-9908000D02*
X3980000Y-9938000D01*
X3965000Y-9923000D02*
X3995000Y-9923000D01*
D11*
X4290714Y-9813476D02*
X4309762Y-9813476D01*
X4328810Y-9823000D01*
X4338333Y-9832524D01*
X4347857Y-9851571D01*
X4357381Y-9889667D01*
X4357381Y-9937286D01*
X4347857Y-9975381D01*
X4338333Y-9994429D01*
X4328810Y-10003952D01*
X4309762Y-10013476D01*
X4290714Y-10013476D01*
X4271667Y-10003952D01*
X4262143Y-9994429D01*
X4252619Y-9975381D01*
X4243095Y-9937286D01*
X4243095Y-9889667D01*
X4252619Y-9851571D01*
X4262143Y-9832524D01*
X4271667Y-9823000D01*
X4290714Y-9813476D01*
X4443095Y-9994429D02*
X4452619Y-10003952D01*
X4443095Y-10013476D01*
X4433571Y-10003952D01*
X4443095Y-9994429D01*
X4443095Y-10013476D01*
X4519286Y-9813476D02*
X4643095Y-9813476D01*
X4576429Y-9889667D01*
X4605000Y-9889667D01*
X4624048Y-9899190D01*
X4633571Y-9908714D01*
X4643095Y-9927762D01*
X4643095Y-9975381D01*
X4633571Y-9994429D01*
X4624048Y-10003952D01*
X4605000Y-10013476D01*
X4547857Y-10013476D01*
X4528810Y-10003952D01*
X4519286Y-9994429D01*
X4766905Y-9813476D02*
X4785952Y-9813476D01*
X4805000Y-9823000D01*
X4814524Y-9832524D01*
X4824048Y-9851571D01*
X4833571Y-9889667D01*
X4833571Y-9937286D01*
X4824048Y-9975381D01*
X4814524Y-9994429D01*
X4805000Y-10003952D01*
X4785952Y-10013476D01*
X4766905Y-10013476D01*
X4747857Y-10003952D01*
X4738333Y-9994429D01*
X4728810Y-9975381D01*
X4719286Y-9937286D01*
X4719286Y-9889667D01*
X4728810Y-9851571D01*
X4738333Y-9832524D01*
X4747857Y-9823000D01*
X4766905Y-9813476D01*
X4957381Y-9813476D02*
X4976429Y-9813476D01*
X4995476Y-9823000D01*
X5005000Y-9832524D01*
X5014524Y-9851571D01*
X5024048Y-9889667D01*
X5024048Y-9937286D01*
X5014524Y-9975381D01*
X5005000Y-9994429D01*
X4995476Y-10003952D01*
X4976429Y-10013476D01*
X4957381Y-10013476D01*
X4938333Y-10003952D01*
X4928810Y-9994429D01*
X4919286Y-9975381D01*
X4909762Y-9937286D01*
X4909762Y-9889667D01*
X4919286Y-9851571D01*
X4928810Y-9832524D01*
X4938333Y-9823000D01*
X4957381Y-9813476D01*
X5109762Y-10013476D02*
X5109762Y-9880143D01*
X5109762Y-9899190D02*
X5119286Y-9889667D01*
X5138333Y-9880143D01*
X5166905Y-9880143D01*
X5185952Y-9889667D01*
X5195476Y-9908714D01*
X5195476Y-10013476D01*
X5195476Y-9908714D02*
X5205000Y-9889667D01*
X5224048Y-9880143D01*
X5252619Y-9880143D01*
X5271667Y-9889667D01*
X5281190Y-9908714D01*
X5281190Y-10013476D01*
X5376429Y-10013476D02*
X5376429Y-9880143D01*
X5376429Y-9899190D02*
X5385952Y-9889667D01*
X5405000Y-9880143D01*
X5433571Y-9880143D01*
X5452619Y-9889667D01*
X5462143Y-9908714D01*
X5462143Y-10013476D01*
X5462143Y-9908714D02*
X5471667Y-9889667D01*
X5490714Y-9880143D01*
X5519286Y-9880143D01*
X5538333Y-9889667D01*
X5547857Y-9908714D01*
X5547857Y-10013476D01*
X5938333Y-9803952D02*
X5766905Y-10061095D01*
X6195476Y-9813476D02*
X6214524Y-9813476D01*
X6233571Y-9823000D01*
X6243095Y-9832524D01*
X6252619Y-9851571D01*
X6262143Y-9889667D01*
X6262143Y-9937286D01*
X6252619Y-9975381D01*
X6243095Y-9994429D01*
X6233571Y-10003952D01*
X6214524Y-10013476D01*
X6195476Y-10013476D01*
X6176428Y-10003952D01*
X6166905Y-9994429D01*
X6157381Y-9975381D01*
X6147857Y-9937286D01*
X6147857Y-9889667D01*
X6157381Y-9851571D01*
X6166905Y-9832524D01*
X6176428Y-9823000D01*
X6195476Y-9813476D01*
X6347857Y-9994429D02*
X6357381Y-10003952D01*
X6347857Y-10013476D01*
X6338333Y-10003952D01*
X6347857Y-9994429D01*
X6347857Y-10013476D01*
X6481190Y-9813476D02*
X6500238Y-9813476D01*
X6519286Y-9823000D01*
X6528809Y-9832524D01*
X6538333Y-9851571D01*
X6547857Y-9889667D01*
X6547857Y-9937286D01*
X6538333Y-9975381D01*
X6528809Y-9994429D01*
X6519286Y-10003952D01*
X6500238Y-10013476D01*
X6481190Y-10013476D01*
X6462143Y-10003952D01*
X6452619Y-9994429D01*
X6443095Y-9975381D01*
X6433571Y-9937286D01*
X6433571Y-9889667D01*
X6443095Y-9851571D01*
X6452619Y-9832524D01*
X6462143Y-9823000D01*
X6481190Y-9813476D01*
X6738333Y-10013476D02*
X6624048Y-10013476D01*
X6681190Y-10013476D02*
X6681190Y-9813476D01*
X6662143Y-9842048D01*
X6643095Y-9861095D01*
X6624048Y-9870619D01*
X6928809Y-10013476D02*
X6814524Y-10013476D01*
X6871667Y-10013476D02*
X6871667Y-9813476D01*
X6852619Y-9842048D01*
X6833571Y-9861095D01*
X6814524Y-9870619D01*
X7043095Y-9899190D02*
X7024048Y-9889667D01*
X7014524Y-9880143D01*
X7005000Y-9861095D01*
X7005000Y-9851571D01*
X7014524Y-9832524D01*
X7024048Y-9823000D01*
X7043095Y-9813476D01*
X7081190Y-9813476D01*
X7100238Y-9823000D01*
X7109762Y-9832524D01*
X7119286Y-9851571D01*
X7119286Y-9861095D01*
X7109762Y-9880143D01*
X7100238Y-9889667D01*
X7081190Y-9899190D01*
X7043095Y-9899190D01*
X7024048Y-9908714D01*
X7014524Y-9918238D01*
X7005000Y-9937286D01*
X7005000Y-9975381D01*
X7014524Y-9994429D01*
X7024048Y-10003952D01*
X7043095Y-10013476D01*
X7081190Y-10013476D01*
X7100238Y-10003952D01*
X7109762Y-9994429D01*
X7119286Y-9975381D01*
X7119286Y-9937286D01*
X7109762Y-9918238D01*
X7100238Y-9908714D01*
X7081190Y-9899190D01*
X7195476Y-9813476D02*
X7195476Y-9851571D01*
X7271667Y-9813476D02*
X7271667Y-9851571D01*
X7566905Y-10089667D02*
X7557381Y-10080143D01*
X7538333Y-10051571D01*
X7528809Y-10032524D01*
X7519286Y-10003952D01*
X7509762Y-9956333D01*
X7509762Y-9918238D01*
X7519286Y-9870619D01*
X7528809Y-9842048D01*
X7538333Y-9823000D01*
X7557381Y-9794429D01*
X7566905Y-9784905D01*
X7747857Y-10013476D02*
X7633571Y-10013476D01*
X7690714Y-10013476D02*
X7690714Y-9813476D01*
X7671667Y-9842048D01*
X7652619Y-9861095D01*
X7633571Y-9870619D01*
X7919286Y-9813476D02*
X7881190Y-9813476D01*
X7862143Y-9823000D01*
X7852619Y-9832524D01*
X7833571Y-9861095D01*
X7824048Y-9899190D01*
X7824048Y-9975381D01*
X7833571Y-9994429D01*
X7843095Y-10003952D01*
X7862143Y-10013476D01*
X7900238Y-10013476D01*
X7919286Y-10003952D01*
X7928809Y-9994429D01*
X7938333Y-9975381D01*
X7938333Y-9927762D01*
X7928809Y-9908714D01*
X7919286Y-9899190D01*
X7900238Y-9889667D01*
X7862143Y-9889667D01*
X7843095Y-9899190D01*
X7833571Y-9908714D01*
X7824048Y-9927762D01*
X8176428Y-10013476D02*
X8176428Y-9813476D01*
X8262143Y-10013476D02*
X8262143Y-9908714D01*
X8252619Y-9889667D01*
X8233571Y-9880143D01*
X8205000Y-9880143D01*
X8185952Y-9889667D01*
X8176428Y-9899190D01*
X8385952Y-10013476D02*
X8366905Y-10003952D01*
X8357381Y-9994429D01*
X8347857Y-9975381D01*
X8347857Y-9918238D01*
X8357381Y-9899190D01*
X8366905Y-9889667D01*
X8385952Y-9880143D01*
X8414524Y-9880143D01*
X8433571Y-9889667D01*
X8443095Y-9899190D01*
X8452619Y-9918238D01*
X8452619Y-9975381D01*
X8443095Y-9994429D01*
X8433571Y-10003952D01*
X8414524Y-10013476D01*
X8385952Y-10013476D01*
X8566905Y-10013476D02*
X8547857Y-10003952D01*
X8538333Y-9984905D01*
X8538333Y-9813476D01*
X8719286Y-10003952D02*
X8700238Y-10013476D01*
X8662143Y-10013476D01*
X8643095Y-10003952D01*
X8633571Y-9984905D01*
X8633571Y-9908714D01*
X8643095Y-9889667D01*
X8662143Y-9880143D01*
X8700238Y-9880143D01*
X8719286Y-9889667D01*
X8728810Y-9908714D01*
X8728810Y-9927762D01*
X8633571Y-9946810D01*
X8805000Y-10003952D02*
X8824048Y-10013476D01*
X8862143Y-10013476D01*
X8881190Y-10003952D01*
X8890714Y-9984905D01*
X8890714Y-9975381D01*
X8881190Y-9956333D01*
X8862143Y-9946810D01*
X8833571Y-9946810D01*
X8814524Y-9937286D01*
X8805000Y-9918238D01*
X8805000Y-9908714D01*
X8814524Y-9889667D01*
X8833571Y-9880143D01*
X8862143Y-9880143D01*
X8881190Y-9889667D01*
X8957381Y-10089667D02*
X8966905Y-10080143D01*
X8985952Y-10051571D01*
X8995476Y-10032524D01*
X9005000Y-10003952D01*
X9014524Y-9956333D01*
X9014524Y-9918238D01*
X9005000Y-9870619D01*
X8995476Y-9842048D01*
X8985952Y-9823000D01*
X8966905Y-9794429D01*
X8957381Y-9784905D01*
D15*
X3985481Y-10209981D02*
X3985481Y-10164019D01*
X3939519Y-10164019D01*
X3939519Y-10209981D01*
X3985481Y-10209981D01*
D11*
X4290714Y-10077476D02*
X4309762Y-10077476D01*
X4328810Y-10087000D01*
X4338333Y-10096524D01*
X4347857Y-10115571D01*
X4357381Y-10153667D01*
X4357381Y-10201286D01*
X4347857Y-10239381D01*
X4338333Y-10258429D01*
X4328810Y-10267952D01*
X4309762Y-10277476D01*
X4290714Y-10277476D01*
X4271667Y-10267952D01*
X4262143Y-10258429D01*
X4252619Y-10239381D01*
X4243095Y-10201286D01*
X4243095Y-10153667D01*
X4252619Y-10115571D01*
X4262143Y-10096524D01*
X4271667Y-10087000D01*
X4290714Y-10077476D01*
X4443095Y-10258429D02*
X4452619Y-10267952D01*
X4443095Y-10277476D01*
X4433571Y-10267952D01*
X4443095Y-10258429D01*
X4443095Y-10277476D01*
X4624048Y-10077476D02*
X4585952Y-10077476D01*
X4566905Y-10087000D01*
X4557381Y-10096524D01*
X4538333Y-10125095D01*
X4528810Y-10163190D01*
X4528810Y-10239381D01*
X4538333Y-10258429D01*
X4547857Y-10267952D01*
X4566905Y-10277476D01*
X4605000Y-10277476D01*
X4624048Y-10267952D01*
X4633571Y-10258429D01*
X4643095Y-10239381D01*
X4643095Y-10191762D01*
X4633571Y-10172714D01*
X4624048Y-10163190D01*
X4605000Y-10153667D01*
X4566905Y-10153667D01*
X4547857Y-10163190D01*
X4538333Y-10172714D01*
X4528810Y-10191762D01*
X4824048Y-10077476D02*
X4728810Y-10077476D01*
X4719286Y-10172714D01*
X4728810Y-10163190D01*
X4747857Y-10153667D01*
X4795476Y-10153667D01*
X4814524Y-10163190D01*
X4824048Y-10172714D01*
X4833571Y-10191762D01*
X4833571Y-10239381D01*
X4824048Y-10258429D01*
X4814524Y-10267952D01*
X4795476Y-10277476D01*
X4747857Y-10277476D01*
X4728810Y-10267952D01*
X4719286Y-10258429D01*
X4957381Y-10077476D02*
X4976429Y-10077476D01*
X4995476Y-10087000D01*
X5005000Y-10096524D01*
X5014524Y-10115571D01*
X5024048Y-10153667D01*
X5024048Y-10201286D01*
X5014524Y-10239381D01*
X5005000Y-10258429D01*
X4995476Y-10267952D01*
X4976429Y-10277476D01*
X4957381Y-10277476D01*
X4938333Y-10267952D01*
X4928810Y-10258429D01*
X4919286Y-10239381D01*
X4909762Y-10201286D01*
X4909762Y-10153667D01*
X4919286Y-10115571D01*
X4928810Y-10096524D01*
X4938333Y-10087000D01*
X4957381Y-10077476D01*
X5109762Y-10277476D02*
X5109762Y-10144143D01*
X5109762Y-10163190D02*
X5119286Y-10153667D01*
X5138333Y-10144143D01*
X5166905Y-10144143D01*
X5185952Y-10153667D01*
X5195476Y-10172714D01*
X5195476Y-10277476D01*
X5195476Y-10172714D02*
X5205000Y-10153667D01*
X5224048Y-10144143D01*
X5252619Y-10144143D01*
X5271667Y-10153667D01*
X5281190Y-10172714D01*
X5281190Y-10277476D01*
X5376429Y-10277476D02*
X5376429Y-10144143D01*
X5376429Y-10163190D02*
X5385952Y-10153667D01*
X5405000Y-10144143D01*
X5433571Y-10144143D01*
X5452619Y-10153667D01*
X5462143Y-10172714D01*
X5462143Y-10277476D01*
X5462143Y-10172714D02*
X5471667Y-10153667D01*
X5490714Y-10144143D01*
X5519286Y-10144143D01*
X5538333Y-10153667D01*
X5547857Y-10172714D01*
X5547857Y-10277476D01*
X5938333Y-10067952D02*
X5766905Y-10325095D01*
X6195476Y-10077476D02*
X6214524Y-10077476D01*
X6233571Y-10087000D01*
X6243095Y-10096524D01*
X6252619Y-10115571D01*
X6262143Y-10153667D01*
X6262143Y-10201286D01*
X6252619Y-10239381D01*
X6243095Y-10258429D01*
X6233571Y-10267952D01*
X6214524Y-10277476D01*
X6195476Y-10277476D01*
X6176428Y-10267952D01*
X6166905Y-10258429D01*
X6157381Y-10239381D01*
X6147857Y-10201286D01*
X6147857Y-10153667D01*
X6157381Y-10115571D01*
X6166905Y-10096524D01*
X6176428Y-10087000D01*
X6195476Y-10077476D01*
X6347857Y-10258429D02*
X6357381Y-10267952D01*
X6347857Y-10277476D01*
X6338333Y-10267952D01*
X6347857Y-10258429D01*
X6347857Y-10277476D01*
X6481190Y-10077476D02*
X6500238Y-10077476D01*
X6519286Y-10087000D01*
X6528809Y-10096524D01*
X6538333Y-10115571D01*
X6547857Y-10153667D01*
X6547857Y-10201286D01*
X6538333Y-10239381D01*
X6528809Y-10258429D01*
X6519286Y-10267952D01*
X6500238Y-10277476D01*
X6481190Y-10277476D01*
X6462143Y-10267952D01*
X6452619Y-10258429D01*
X6443095Y-10239381D01*
X6433571Y-10201286D01*
X6433571Y-10153667D01*
X6443095Y-10115571D01*
X6452619Y-10096524D01*
X6462143Y-10087000D01*
X6481190Y-10077476D01*
X6624048Y-10096524D02*
X6633571Y-10087000D01*
X6652619Y-10077476D01*
X6700238Y-10077476D01*
X6719286Y-10087000D01*
X6728809Y-10096524D01*
X6738333Y-10115571D01*
X6738333Y-10134619D01*
X6728809Y-10163190D01*
X6614524Y-10277476D01*
X6738333Y-10277476D01*
X6919286Y-10077476D02*
X6824048Y-10077476D01*
X6814524Y-10172714D01*
X6824048Y-10163190D01*
X6843095Y-10153667D01*
X6890714Y-10153667D01*
X6909762Y-10163190D01*
X6919286Y-10172714D01*
X6928809Y-10191762D01*
X6928809Y-10239381D01*
X6919286Y-10258429D01*
X6909762Y-10267952D01*
X6890714Y-10277476D01*
X6843095Y-10277476D01*
X6824048Y-10267952D01*
X6814524Y-10258429D01*
X7100238Y-10077476D02*
X7062143Y-10077476D01*
X7043095Y-10087000D01*
X7033571Y-10096524D01*
X7014524Y-10125095D01*
X7005000Y-10163190D01*
X7005000Y-10239381D01*
X7014524Y-10258429D01*
X7024048Y-10267952D01*
X7043095Y-10277476D01*
X7081190Y-10277476D01*
X7100238Y-10267952D01*
X7109762Y-10258429D01*
X7119286Y-10239381D01*
X7119286Y-10191762D01*
X7109762Y-10172714D01*
X7100238Y-10163190D01*
X7081190Y-10153667D01*
X7043095Y-10153667D01*
X7024048Y-10163190D01*
X7014524Y-10172714D01*
X7005000Y-10191762D01*
X7195476Y-10077476D02*
X7195476Y-10115571D01*
X7271667Y-10077476D02*
X7271667Y-10115571D01*
X7566905Y-10353667D02*
X7557381Y-10344143D01*
X7538333Y-10315571D01*
X7528809Y-10296524D01*
X7519286Y-10267952D01*
X7509762Y-10220333D01*
X7509762Y-10182238D01*
X7519286Y-10134619D01*
X7528809Y-10106048D01*
X7538333Y-10087000D01*
X7557381Y-10058429D01*
X7566905Y-10048905D01*
X7681190Y-10077476D02*
X7700238Y-10077476D01*
X7719286Y-10087000D01*
X7728809Y-10096524D01*
X7738333Y-10115571D01*
X7747857Y-10153667D01*
X7747857Y-10201286D01*
X7738333Y-10239381D01*
X7728809Y-10258429D01*
X7719286Y-10267952D01*
X7700238Y-10277476D01*
X7681190Y-10277476D01*
X7662143Y-10267952D01*
X7652619Y-10258429D01*
X7643095Y-10239381D01*
X7633571Y-10201286D01*
X7633571Y-10153667D01*
X7643095Y-10115571D01*
X7652619Y-10096524D01*
X7662143Y-10087000D01*
X7681190Y-10077476D01*
X7985952Y-10277476D02*
X7985952Y-10077476D01*
X8071667Y-10277476D02*
X8071667Y-10172714D01*
X8062143Y-10153667D01*
X8043095Y-10144143D01*
X8014524Y-10144143D01*
X7995476Y-10153667D01*
X7985952Y-10163190D01*
X8195476Y-10277476D02*
X8176428Y-10267952D01*
X8166905Y-10258429D01*
X8157381Y-10239381D01*
X8157381Y-10182238D01*
X8166905Y-10163190D01*
X8176428Y-10153667D01*
X8195476Y-10144143D01*
X8224048Y-10144143D01*
X8243095Y-10153667D01*
X8252619Y-10163190D01*
X8262143Y-10182238D01*
X8262143Y-10239381D01*
X8252619Y-10258429D01*
X8243095Y-10267952D01*
X8224048Y-10277476D01*
X8195476Y-10277476D01*
X8376428Y-10277476D02*
X8357381Y-10267952D01*
X8347857Y-10248905D01*
X8347857Y-10077476D01*
X8528810Y-10267952D02*
X8509762Y-10277476D01*
X8471667Y-10277476D01*
X8452619Y-10267952D01*
X8443095Y-10248905D01*
X8443095Y-10172714D01*
X8452619Y-10153667D01*
X8471667Y-10144143D01*
X8509762Y-10144143D01*
X8528810Y-10153667D01*
X8538333Y-10172714D01*
X8538333Y-10191762D01*
X8443095Y-10210810D01*
X8614524Y-10267952D02*
X8633571Y-10277476D01*
X8671667Y-10277476D01*
X8690714Y-10267952D01*
X8700238Y-10248905D01*
X8700238Y-10239381D01*
X8690714Y-10220333D01*
X8671667Y-10210810D01*
X8643095Y-10210810D01*
X8624048Y-10201286D01*
X8614524Y-10182238D01*
X8614524Y-10172714D01*
X8624048Y-10153667D01*
X8643095Y-10144143D01*
X8671667Y-10144143D01*
X8690714Y-10153667D01*
X8938333Y-10201286D02*
X9090714Y-10201286D01*
X9014524Y-10277476D02*
X9014524Y-10125095D01*
X9328810Y-10096524D02*
X9338333Y-10087000D01*
X9357381Y-10077476D01*
X9405000Y-10077476D01*
X9424048Y-10087000D01*
X9433571Y-10096524D01*
X9443095Y-10115571D01*
X9443095Y-10134619D01*
X9433571Y-10163190D01*
X9319286Y-10277476D01*
X9443095Y-10277476D01*
X9671667Y-10267952D02*
X9690714Y-10277476D01*
X9728810Y-10277476D01*
X9747857Y-10267952D01*
X9757381Y-10248905D01*
X9757381Y-10239381D01*
X9747857Y-10220333D01*
X9728810Y-10210810D01*
X9700238Y-10210810D01*
X9681190Y-10201286D01*
X9671667Y-10182238D01*
X9671667Y-10172714D01*
X9681190Y-10153667D01*
X9700238Y-10144143D01*
X9728810Y-10144143D01*
X9747857Y-10153667D01*
X9871667Y-10277476D02*
X9852619Y-10267952D01*
X9843095Y-10248905D01*
X9843095Y-10077476D01*
X9976429Y-10277476D02*
X9957381Y-10267952D01*
X9947857Y-10258429D01*
X9938333Y-10239381D01*
X9938333Y-10182238D01*
X9947857Y-10163190D01*
X9957381Y-10153667D01*
X9976429Y-10144143D01*
X10005000Y-10144143D01*
X10024048Y-10153667D01*
X10033571Y-10163190D01*
X10043095Y-10182238D01*
X10043095Y-10239381D01*
X10033571Y-10258429D01*
X10024048Y-10267952D01*
X10005000Y-10277476D01*
X9976429Y-10277476D01*
X10100238Y-10144143D02*
X10176429Y-10144143D01*
X10128810Y-10077476D02*
X10128810Y-10248905D01*
X10138333Y-10267952D01*
X10157381Y-10277476D01*
X10176429Y-10277476D01*
X10233571Y-10267952D02*
X10252619Y-10277476D01*
X10290714Y-10277476D01*
X10309762Y-10267952D01*
X10319286Y-10248905D01*
X10319286Y-10239381D01*
X10309762Y-10220333D01*
X10290714Y-10210810D01*
X10262143Y-10210810D01*
X10243095Y-10201286D01*
X10233571Y-10182238D01*
X10233571Y-10172714D01*
X10243095Y-10153667D01*
X10262143Y-10144143D01*
X10290714Y-10144143D01*
X10309762Y-10153667D01*
X10385952Y-10353667D02*
X10395476Y-10344143D01*
X10414524Y-10315571D01*
X10424048Y-10296524D01*
X10433571Y-10267952D01*
X10443095Y-10220333D01*
X10443095Y-10182238D01*
X10433571Y-10134619D01*
X10424048Y-10106048D01*
X10414524Y-10087000D01*
X10395476Y-10058429D01*
X10385952Y-10048905D01*
D16*
X3960000Y-10486000D02*
X3995000Y-10451000D01*
X3960000Y-10416000D01*
X3925000Y-10451000D01*
X3960000Y-10486000D01*
D11*
X4290714Y-10341476D02*
X4309762Y-10341476D01*
X4328810Y-10351000D01*
X4338333Y-10360524D01*
X4347857Y-10379571D01*
X4357381Y-10417667D01*
X4357381Y-10465286D01*
X4347857Y-10503381D01*
X4338333Y-10522429D01*
X4328810Y-10531952D01*
X4309762Y-10541476D01*
X4290714Y-10541476D01*
X4271667Y-10531952D01*
X4262143Y-10522429D01*
X4252619Y-10503381D01*
X4243095Y-10465286D01*
X4243095Y-10417667D01*
X4252619Y-10379571D01*
X4262143Y-10360524D01*
X4271667Y-10351000D01*
X4290714Y-10341476D01*
X4443095Y-10522429D02*
X4452619Y-10531952D01*
X4443095Y-10541476D01*
X4433571Y-10531952D01*
X4443095Y-10522429D01*
X4443095Y-10541476D01*
X4519286Y-10341476D02*
X4652619Y-10341476D01*
X4566905Y-10541476D01*
X4766905Y-10341476D02*
X4785952Y-10341476D01*
X4805000Y-10351000D01*
X4814524Y-10360524D01*
X4824048Y-10379571D01*
X4833571Y-10417667D01*
X4833571Y-10465286D01*
X4824048Y-10503381D01*
X4814524Y-10522429D01*
X4805000Y-10531952D01*
X4785952Y-10541476D01*
X4766905Y-10541476D01*
X4747857Y-10531952D01*
X4738333Y-10522429D01*
X4728810Y-10503381D01*
X4719286Y-10465286D01*
X4719286Y-10417667D01*
X4728810Y-10379571D01*
X4738333Y-10360524D01*
X4747857Y-10351000D01*
X4766905Y-10341476D01*
X4957381Y-10341476D02*
X4976429Y-10341476D01*
X4995476Y-10351000D01*
X5005000Y-10360524D01*
X5014524Y-10379571D01*
X5024048Y-10417667D01*
X5024048Y-10465286D01*
X5014524Y-10503381D01*
X5005000Y-10522429D01*
X4995476Y-10531952D01*
X4976429Y-10541476D01*
X4957381Y-10541476D01*
X4938333Y-10531952D01*
X4928810Y-10522429D01*
X4919286Y-10503381D01*
X4909762Y-10465286D01*
X4909762Y-10417667D01*
X4919286Y-10379571D01*
X4928810Y-10360524D01*
X4938333Y-10351000D01*
X4957381Y-10341476D01*
X5109762Y-10541476D02*
X5109762Y-10408143D01*
X5109762Y-10427190D02*
X5119286Y-10417667D01*
X5138333Y-10408143D01*
X5166905Y-10408143D01*
X5185952Y-10417667D01*
X5195476Y-10436714D01*
X5195476Y-10541476D01*
X5195476Y-10436714D02*
X5205000Y-10417667D01*
X5224048Y-10408143D01*
X5252619Y-10408143D01*
X5271667Y-10417667D01*
X5281190Y-10436714D01*
X5281190Y-10541476D01*
X5376429Y-10541476D02*
X5376429Y-10408143D01*
X5376429Y-10427190D02*
X5385952Y-10417667D01*
X5405000Y-10408143D01*
X5433571Y-10408143D01*
X5452619Y-10417667D01*
X5462143Y-10436714D01*
X5462143Y-10541476D01*
X5462143Y-10436714D02*
X5471667Y-10417667D01*
X5490714Y-10408143D01*
X5519286Y-10408143D01*
X5538333Y-10417667D01*
X5547857Y-10436714D01*
X5547857Y-10541476D01*
X5938333Y-10331952D02*
X5766905Y-10589095D01*
X6195476Y-10341476D02*
X6214524Y-10341476D01*
X6233571Y-10351000D01*
X6243095Y-10360524D01*
X6252619Y-10379571D01*
X6262143Y-10417667D01*
X6262143Y-10465286D01*
X6252619Y-10503381D01*
X6243095Y-10522429D01*
X6233571Y-10531952D01*
X6214524Y-10541476D01*
X6195476Y-10541476D01*
X6176428Y-10531952D01*
X6166905Y-10522429D01*
X6157381Y-10503381D01*
X6147857Y-10465286D01*
X6147857Y-10417667D01*
X6157381Y-10379571D01*
X6166905Y-10360524D01*
X6176428Y-10351000D01*
X6195476Y-10341476D01*
X6347857Y-10522429D02*
X6357381Y-10531952D01*
X6347857Y-10541476D01*
X6338333Y-10531952D01*
X6347857Y-10522429D01*
X6347857Y-10541476D01*
X6481190Y-10341476D02*
X6500238Y-10341476D01*
X6519286Y-10351000D01*
X6528809Y-10360524D01*
X6538333Y-10379571D01*
X6547857Y-10417667D01*
X6547857Y-10465286D01*
X6538333Y-10503381D01*
X6528809Y-10522429D01*
X6519286Y-10531952D01*
X6500238Y-10541476D01*
X6481190Y-10541476D01*
X6462143Y-10531952D01*
X6452619Y-10522429D01*
X6443095Y-10503381D01*
X6433571Y-10465286D01*
X6433571Y-10417667D01*
X6443095Y-10379571D01*
X6452619Y-10360524D01*
X6462143Y-10351000D01*
X6481190Y-10341476D01*
X6624048Y-10360524D02*
X6633571Y-10351000D01*
X6652619Y-10341476D01*
X6700238Y-10341476D01*
X6719286Y-10351000D01*
X6728809Y-10360524D01*
X6738333Y-10379571D01*
X6738333Y-10398619D01*
X6728809Y-10427190D01*
X6614524Y-10541476D01*
X6738333Y-10541476D01*
X6805000Y-10341476D02*
X6938333Y-10341476D01*
X6852619Y-10541476D01*
X7100238Y-10341476D02*
X7062143Y-10341476D01*
X7043095Y-10351000D01*
X7033571Y-10360524D01*
X7014524Y-10389095D01*
X7005000Y-10427190D01*
X7005000Y-10503381D01*
X7014524Y-10522429D01*
X7024048Y-10531952D01*
X7043095Y-10541476D01*
X7081190Y-10541476D01*
X7100238Y-10531952D01*
X7109762Y-10522429D01*
X7119286Y-10503381D01*
X7119286Y-10455762D01*
X7109762Y-10436714D01*
X7100238Y-10427190D01*
X7081190Y-10417667D01*
X7043095Y-10417667D01*
X7024048Y-10427190D01*
X7014524Y-10436714D01*
X7005000Y-10455762D01*
X7195476Y-10341476D02*
X7195476Y-10379571D01*
X7271667Y-10341476D02*
X7271667Y-10379571D01*
X7566905Y-10617667D02*
X7557381Y-10608143D01*
X7538333Y-10579571D01*
X7528809Y-10560524D01*
X7519286Y-10531952D01*
X7509762Y-10484333D01*
X7509762Y-10446238D01*
X7519286Y-10398619D01*
X7528809Y-10370048D01*
X7538333Y-10351000D01*
X7557381Y-10322429D01*
X7566905Y-10312905D01*
X7681190Y-10341476D02*
X7700238Y-10341476D01*
X7719286Y-10351000D01*
X7728809Y-10360524D01*
X7738333Y-10379571D01*
X7747857Y-10417667D01*
X7747857Y-10465286D01*
X7738333Y-10503381D01*
X7728809Y-10522429D01*
X7719286Y-10531952D01*
X7700238Y-10541476D01*
X7681190Y-10541476D01*
X7662143Y-10531952D01*
X7652619Y-10522429D01*
X7643095Y-10503381D01*
X7633571Y-10465286D01*
X7633571Y-10417667D01*
X7643095Y-10379571D01*
X7652619Y-10360524D01*
X7662143Y-10351000D01*
X7681190Y-10341476D01*
X7985952Y-10541476D02*
X7985952Y-10341476D01*
X8071667Y-10541476D02*
X8071667Y-10436714D01*
X8062143Y-10417667D01*
X8043095Y-10408143D01*
X8014524Y-10408143D01*
X7995476Y-10417667D01*
X7985952Y-10427190D01*
X8195476Y-10541476D02*
X8176428Y-10531952D01*
X8166905Y-10522429D01*
X8157381Y-10503381D01*
X8157381Y-10446238D01*
X8166905Y-10427190D01*
X8176428Y-10417667D01*
X8195476Y-10408143D01*
X8224048Y-10408143D01*
X8243095Y-10417667D01*
X8252619Y-10427190D01*
X8262143Y-10446238D01*
X8262143Y-10503381D01*
X8252619Y-10522429D01*
X8243095Y-10531952D01*
X8224048Y-10541476D01*
X8195476Y-10541476D01*
X8376428Y-10541476D02*
X8357381Y-10531952D01*
X8347857Y-10512905D01*
X8347857Y-10341476D01*
X8528810Y-10531952D02*
X8509762Y-10541476D01*
X8471667Y-10541476D01*
X8452619Y-10531952D01*
X8443095Y-10512905D01*
X8443095Y-10436714D01*
X8452619Y-10417667D01*
X8471667Y-10408143D01*
X8509762Y-10408143D01*
X8528810Y-10417667D01*
X8538333Y-10436714D01*
X8538333Y-10455762D01*
X8443095Y-10474810D01*
X8614524Y-10531952D02*
X8633571Y-10541476D01*
X8671667Y-10541476D01*
X8690714Y-10531952D01*
X8700238Y-10512905D01*
X8700238Y-10503381D01*
X8690714Y-10484333D01*
X8671667Y-10474810D01*
X8643095Y-10474810D01*
X8624048Y-10465286D01*
X8614524Y-10446238D01*
X8614524Y-10436714D01*
X8624048Y-10417667D01*
X8643095Y-10408143D01*
X8671667Y-10408143D01*
X8690714Y-10417667D01*
X8938333Y-10465286D02*
X9090714Y-10465286D01*
X9014524Y-10541476D02*
X9014524Y-10389095D01*
X9328810Y-10360524D02*
X9338333Y-10351000D01*
X9357381Y-10341476D01*
X9405000Y-10341476D01*
X9424048Y-10351000D01*
X9433571Y-10360524D01*
X9443095Y-10379571D01*
X9443095Y-10398619D01*
X9433571Y-10427190D01*
X9319286Y-10541476D01*
X9443095Y-10541476D01*
X9671667Y-10531952D02*
X9690714Y-10541476D01*
X9728810Y-10541476D01*
X9747857Y-10531952D01*
X9757381Y-10512905D01*
X9757381Y-10503381D01*
X9747857Y-10484333D01*
X9728810Y-10474810D01*
X9700238Y-10474810D01*
X9681190Y-10465286D01*
X9671667Y-10446238D01*
X9671667Y-10436714D01*
X9681190Y-10417667D01*
X9700238Y-10408143D01*
X9728810Y-10408143D01*
X9747857Y-10417667D01*
X9871667Y-10541476D02*
X9852619Y-10531952D01*
X9843095Y-10512905D01*
X9843095Y-10341476D01*
X9976429Y-10541476D02*
X9957381Y-10531952D01*
X9947857Y-10522429D01*
X9938333Y-10503381D01*
X9938333Y-10446238D01*
X9947857Y-10427190D01*
X9957381Y-10417667D01*
X9976429Y-10408143D01*
X10005000Y-10408143D01*
X10024048Y-10417667D01*
X10033571Y-10427190D01*
X10043095Y-10446238D01*
X10043095Y-10503381D01*
X10033571Y-10522429D01*
X10024048Y-10531952D01*
X10005000Y-10541476D01*
X9976429Y-10541476D01*
X10100238Y-10408143D02*
X10176429Y-10408143D01*
X10128810Y-10341476D02*
X10128810Y-10512905D01*
X10138333Y-10531952D01*
X10157381Y-10541476D01*
X10176429Y-10541476D01*
X10233571Y-10531952D02*
X10252619Y-10541476D01*
X10290714Y-10541476D01*
X10309762Y-10531952D01*
X10319286Y-10512905D01*
X10319286Y-10503381D01*
X10309762Y-10484333D01*
X10290714Y-10474810D01*
X10262143Y-10474810D01*
X10243095Y-10465286D01*
X10233571Y-10446238D01*
X10233571Y-10436714D01*
X10243095Y-10417667D01*
X10262143Y-10408143D01*
X10290714Y-10408143D01*
X10309762Y-10417667D01*
X10385952Y-10617667D02*
X10395476Y-10608143D01*
X10414524Y-10579571D01*
X10424048Y-10560524D01*
X10433571Y-10531952D01*
X10443095Y-10484333D01*
X10443095Y-10446238D01*
X10433571Y-10398619D01*
X10424048Y-10370048D01*
X10414524Y-10351000D01*
X10395476Y-10322429D01*
X10385952Y-10312905D01*
D17*
X3895000Y-10665000D02*
X3995000Y-10765000D01*
X3995000Y-10665000D02*
X3895000Y-10765000D01*
X3995000Y-10715000D02*
G75*
G03*
X3995000Y-10715000I-50000J0D01*
G01*
D11*
X4357381Y-10805476D02*
X4243095Y-10805476D01*
X4300238Y-10805476D02*
X4300238Y-10605476D01*
X4281190Y-10634048D01*
X4262143Y-10653095D01*
X4243095Y-10662619D01*
X4443095Y-10786429D02*
X4452619Y-10795952D01*
X4443095Y-10805476D01*
X4433571Y-10795952D01*
X4443095Y-10786429D01*
X4443095Y-10805476D01*
X4576429Y-10605476D02*
X4595476Y-10605476D01*
X4614524Y-10615000D01*
X4624048Y-10624524D01*
X4633571Y-10643571D01*
X4643095Y-10681667D01*
X4643095Y-10729286D01*
X4633571Y-10767381D01*
X4624048Y-10786429D01*
X4614524Y-10795952D01*
X4595476Y-10805476D01*
X4576429Y-10805476D01*
X4557381Y-10795952D01*
X4547857Y-10786429D01*
X4538333Y-10767381D01*
X4528810Y-10729286D01*
X4528810Y-10681667D01*
X4538333Y-10643571D01*
X4547857Y-10624524D01*
X4557381Y-10615000D01*
X4576429Y-10605476D01*
X4766905Y-10605476D02*
X4785952Y-10605476D01*
X4805000Y-10615000D01*
X4814524Y-10624524D01*
X4824048Y-10643571D01*
X4833571Y-10681667D01*
X4833571Y-10729286D01*
X4824048Y-10767381D01*
X4814524Y-10786429D01*
X4805000Y-10795952D01*
X4785952Y-10805476D01*
X4766905Y-10805476D01*
X4747857Y-10795952D01*
X4738333Y-10786429D01*
X4728810Y-10767381D01*
X4719286Y-10729286D01*
X4719286Y-10681667D01*
X4728810Y-10643571D01*
X4738333Y-10624524D01*
X4747857Y-10615000D01*
X4766905Y-10605476D01*
X4957381Y-10605476D02*
X4976429Y-10605476D01*
X4995476Y-10615000D01*
X5005000Y-10624524D01*
X5014524Y-10643571D01*
X5024048Y-10681667D01*
X5024048Y-10729286D01*
X5014524Y-10767381D01*
X5005000Y-10786429D01*
X4995476Y-10795952D01*
X4976429Y-10805476D01*
X4957381Y-10805476D01*
X4938333Y-10795952D01*
X4928810Y-10786429D01*
X4919286Y-10767381D01*
X4909762Y-10729286D01*
X4909762Y-10681667D01*
X4919286Y-10643571D01*
X4928810Y-10624524D01*
X4938333Y-10615000D01*
X4957381Y-10605476D01*
X5109762Y-10805476D02*
X5109762Y-10672143D01*
X5109762Y-10691190D02*
X5119286Y-10681667D01*
X5138333Y-10672143D01*
X5166905Y-10672143D01*
X5185952Y-10681667D01*
X5195476Y-10700714D01*
X5195476Y-10805476D01*
X5195476Y-10700714D02*
X5205000Y-10681667D01*
X5224048Y-10672143D01*
X5252619Y-10672143D01*
X5271667Y-10681667D01*
X5281190Y-10700714D01*
X5281190Y-10805476D01*
X5376429Y-10805476D02*
X5376429Y-10672143D01*
X5376429Y-10691190D02*
X5385952Y-10681667D01*
X5405000Y-10672143D01*
X5433571Y-10672143D01*
X5452619Y-10681667D01*
X5462143Y-10700714D01*
X5462143Y-10805476D01*
X5462143Y-10700714D02*
X5471667Y-10681667D01*
X5490714Y-10672143D01*
X5519286Y-10672143D01*
X5538333Y-10681667D01*
X5547857Y-10700714D01*
X5547857Y-10805476D01*
X5938333Y-10595952D02*
X5766905Y-10853095D01*
X6195476Y-10605476D02*
X6214524Y-10605476D01*
X6233571Y-10615000D01*
X6243095Y-10624524D01*
X6252619Y-10643571D01*
X6262143Y-10681667D01*
X6262143Y-10729286D01*
X6252619Y-10767381D01*
X6243095Y-10786429D01*
X6233571Y-10795952D01*
X6214524Y-10805476D01*
X6195476Y-10805476D01*
X6176428Y-10795952D01*
X6166905Y-10786429D01*
X6157381Y-10767381D01*
X6147857Y-10729286D01*
X6147857Y-10681667D01*
X6157381Y-10643571D01*
X6166905Y-10624524D01*
X6176428Y-10615000D01*
X6195476Y-10605476D01*
X6347857Y-10786429D02*
X6357381Y-10795952D01*
X6347857Y-10805476D01*
X6338333Y-10795952D01*
X6347857Y-10786429D01*
X6347857Y-10805476D01*
X6481190Y-10605476D02*
X6500238Y-10605476D01*
X6519286Y-10615000D01*
X6528809Y-10624524D01*
X6538333Y-10643571D01*
X6547857Y-10681667D01*
X6547857Y-10729286D01*
X6538333Y-10767381D01*
X6528809Y-10786429D01*
X6519286Y-10795952D01*
X6500238Y-10805476D01*
X6481190Y-10805476D01*
X6462143Y-10795952D01*
X6452619Y-10786429D01*
X6443095Y-10767381D01*
X6433571Y-10729286D01*
X6433571Y-10681667D01*
X6443095Y-10643571D01*
X6452619Y-10624524D01*
X6462143Y-10615000D01*
X6481190Y-10605476D01*
X6614524Y-10605476D02*
X6738333Y-10605476D01*
X6671667Y-10681667D01*
X6700238Y-10681667D01*
X6719286Y-10691190D01*
X6728809Y-10700714D01*
X6738333Y-10719762D01*
X6738333Y-10767381D01*
X6728809Y-10786429D01*
X6719286Y-10795952D01*
X6700238Y-10805476D01*
X6643095Y-10805476D01*
X6624048Y-10795952D01*
X6614524Y-10786429D01*
X6833571Y-10805476D02*
X6871667Y-10805476D01*
X6890714Y-10795952D01*
X6900238Y-10786429D01*
X6919286Y-10757857D01*
X6928809Y-10719762D01*
X6928809Y-10643571D01*
X6919286Y-10624524D01*
X6909762Y-10615000D01*
X6890714Y-10605476D01*
X6852619Y-10605476D01*
X6833571Y-10615000D01*
X6824048Y-10624524D01*
X6814524Y-10643571D01*
X6814524Y-10691190D01*
X6824048Y-10710238D01*
X6833571Y-10719762D01*
X6852619Y-10729286D01*
X6890714Y-10729286D01*
X6909762Y-10719762D01*
X6919286Y-10710238D01*
X6928809Y-10691190D01*
X7100238Y-10672143D02*
X7100238Y-10805476D01*
X7052619Y-10595952D02*
X7005000Y-10738810D01*
X7128809Y-10738810D01*
X7195476Y-10605476D02*
X7195476Y-10643571D01*
X7271667Y-10605476D02*
X7271667Y-10643571D01*
X7566905Y-10881667D02*
X7557381Y-10872143D01*
X7538333Y-10843571D01*
X7528809Y-10824524D01*
X7519286Y-10795952D01*
X7509762Y-10748333D01*
X7509762Y-10710238D01*
X7519286Y-10662619D01*
X7528809Y-10634048D01*
X7538333Y-10615000D01*
X7557381Y-10586429D01*
X7566905Y-10576905D01*
X7738333Y-10605476D02*
X7643095Y-10605476D01*
X7633571Y-10700714D01*
X7643095Y-10691190D01*
X7662143Y-10681667D01*
X7709762Y-10681667D01*
X7728809Y-10691190D01*
X7738333Y-10700714D01*
X7747857Y-10719762D01*
X7747857Y-10767381D01*
X7738333Y-10786429D01*
X7728809Y-10795952D01*
X7709762Y-10805476D01*
X7662143Y-10805476D01*
X7643095Y-10795952D01*
X7633571Y-10786429D01*
X7814524Y-10605476D02*
X7947857Y-10605476D01*
X7862143Y-10805476D01*
X8176428Y-10805476D02*
X8176428Y-10605476D01*
X8262143Y-10805476D02*
X8262143Y-10700714D01*
X8252619Y-10681667D01*
X8233571Y-10672143D01*
X8205000Y-10672143D01*
X8185952Y-10681667D01*
X8176428Y-10691190D01*
X8385952Y-10805476D02*
X8366905Y-10795952D01*
X8357381Y-10786429D01*
X8347857Y-10767381D01*
X8347857Y-10710238D01*
X8357381Y-10691190D01*
X8366905Y-10681667D01*
X8385952Y-10672143D01*
X8414524Y-10672143D01*
X8433571Y-10681667D01*
X8443095Y-10691190D01*
X8452619Y-10710238D01*
X8452619Y-10767381D01*
X8443095Y-10786429D01*
X8433571Y-10795952D01*
X8414524Y-10805476D01*
X8385952Y-10805476D01*
X8566905Y-10805476D02*
X8547857Y-10795952D01*
X8538333Y-10776905D01*
X8538333Y-10605476D01*
X8719286Y-10795952D02*
X8700238Y-10805476D01*
X8662143Y-10805476D01*
X8643095Y-10795952D01*
X8633571Y-10776905D01*
X8633571Y-10700714D01*
X8643095Y-10681667D01*
X8662143Y-10672143D01*
X8700238Y-10672143D01*
X8719286Y-10681667D01*
X8728810Y-10700714D01*
X8728810Y-10719762D01*
X8633571Y-10738810D01*
X8805000Y-10795952D02*
X8824048Y-10805476D01*
X8862143Y-10805476D01*
X8881190Y-10795952D01*
X8890714Y-10776905D01*
X8890714Y-10767381D01*
X8881190Y-10748333D01*
X8862143Y-10738810D01*
X8833571Y-10738810D01*
X8814524Y-10729286D01*
X8805000Y-10710238D01*
X8805000Y-10700714D01*
X8814524Y-10681667D01*
X8833571Y-10672143D01*
X8862143Y-10672143D01*
X8881190Y-10681667D01*
X8957381Y-10881667D02*
X8966905Y-10872143D01*
X8985952Y-10843571D01*
X8995476Y-10824524D01*
X9005000Y-10795952D01*
X9014524Y-10748333D01*
X9014524Y-10710238D01*
X9005000Y-10662619D01*
X8995476Y-10634048D01*
X8985952Y-10615000D01*
X8966905Y-10586429D01*
X8957381Y-10576905D01*
X3795000Y-10879000D02*
X3995000Y-11079000D01*
X3995000Y-10879000D02*
X3795000Y-11079000D01*
X3895000Y-10879000D02*
X3895000Y-11079000D01*
X3795000Y-10979000D02*
X3995000Y-10979000D01*
X4243095Y-10888524D02*
X4252619Y-10879000D01*
X4271667Y-10869476D01*
X4319286Y-10869476D01*
X4338333Y-10879000D01*
X4347857Y-10888524D01*
X4357381Y-10907571D01*
X4357381Y-10926619D01*
X4347857Y-10955190D01*
X4233571Y-11069476D01*
X4357381Y-11069476D01*
X4443095Y-11050429D02*
X4452619Y-11059952D01*
X4443095Y-11069476D01*
X4433571Y-11059952D01*
X4443095Y-11050429D01*
X4443095Y-11069476D01*
X4633571Y-10869476D02*
X4538333Y-10869476D01*
X4528810Y-10964714D01*
X4538333Y-10955190D01*
X4557381Y-10945667D01*
X4605000Y-10945667D01*
X4624048Y-10955190D01*
X4633571Y-10964714D01*
X4643095Y-10983762D01*
X4643095Y-11031381D01*
X4633571Y-11050429D01*
X4624048Y-11059952D01*
X4605000Y-11069476D01*
X4557381Y-11069476D01*
X4538333Y-11059952D01*
X4528810Y-11050429D01*
X4766905Y-10869476D02*
X4785952Y-10869476D01*
X4805000Y-10879000D01*
X4814524Y-10888524D01*
X4824048Y-10907571D01*
X4833571Y-10945667D01*
X4833571Y-10993286D01*
X4824048Y-11031381D01*
X4814524Y-11050429D01*
X4805000Y-11059952D01*
X4785952Y-11069476D01*
X4766905Y-11069476D01*
X4747857Y-11059952D01*
X4738333Y-11050429D01*
X4728810Y-11031381D01*
X4719286Y-10993286D01*
X4719286Y-10945667D01*
X4728810Y-10907571D01*
X4738333Y-10888524D01*
X4747857Y-10879000D01*
X4766905Y-10869476D01*
X4957381Y-10869476D02*
X4976429Y-10869476D01*
X4995476Y-10879000D01*
X5005000Y-10888524D01*
X5014524Y-10907571D01*
X5024048Y-10945667D01*
X5024048Y-10993286D01*
X5014524Y-11031381D01*
X5005000Y-11050429D01*
X4995476Y-11059952D01*
X4976429Y-11069476D01*
X4957381Y-11069476D01*
X4938333Y-11059952D01*
X4928810Y-11050429D01*
X4919286Y-11031381D01*
X4909762Y-10993286D01*
X4909762Y-10945667D01*
X4919286Y-10907571D01*
X4928810Y-10888524D01*
X4938333Y-10879000D01*
X4957381Y-10869476D01*
X5109762Y-11069476D02*
X5109762Y-10936143D01*
X5109762Y-10955190D02*
X5119286Y-10945667D01*
X5138333Y-10936143D01*
X5166905Y-10936143D01*
X5185952Y-10945667D01*
X5195476Y-10964714D01*
X5195476Y-11069476D01*
X5195476Y-10964714D02*
X5205000Y-10945667D01*
X5224048Y-10936143D01*
X5252619Y-10936143D01*
X5271667Y-10945667D01*
X5281190Y-10964714D01*
X5281190Y-11069476D01*
X5376429Y-11069476D02*
X5376429Y-10936143D01*
X5376429Y-10955190D02*
X5385952Y-10945667D01*
X5405000Y-10936143D01*
X5433571Y-10936143D01*
X5452619Y-10945667D01*
X5462143Y-10964714D01*
X5462143Y-11069476D01*
X5462143Y-10964714D02*
X5471667Y-10945667D01*
X5490714Y-10936143D01*
X5519286Y-10936143D01*
X5538333Y-10945667D01*
X5547857Y-10964714D01*
X5547857Y-11069476D01*
X5938333Y-10859952D02*
X5766905Y-11117095D01*
X6195476Y-10869476D02*
X6214524Y-10869476D01*
X6233571Y-10879000D01*
X6243095Y-10888524D01*
X6252619Y-10907571D01*
X6262143Y-10945667D01*
X6262143Y-10993286D01*
X6252619Y-11031381D01*
X6243095Y-11050429D01*
X6233571Y-11059952D01*
X6214524Y-11069476D01*
X6195476Y-11069476D01*
X6176428Y-11059952D01*
X6166905Y-11050429D01*
X6157381Y-11031381D01*
X6147857Y-10993286D01*
X6147857Y-10945667D01*
X6157381Y-10907571D01*
X6166905Y-10888524D01*
X6176428Y-10879000D01*
X6195476Y-10869476D01*
X6347857Y-11050429D02*
X6357381Y-11059952D01*
X6347857Y-11069476D01*
X6338333Y-11059952D01*
X6347857Y-11050429D01*
X6347857Y-11069476D01*
X6481190Y-10869476D02*
X6500238Y-10869476D01*
X6519286Y-10879000D01*
X6528809Y-10888524D01*
X6538333Y-10907571D01*
X6547857Y-10945667D01*
X6547857Y-10993286D01*
X6538333Y-11031381D01*
X6528809Y-11050429D01*
X6519286Y-11059952D01*
X6500238Y-11069476D01*
X6481190Y-11069476D01*
X6462143Y-11059952D01*
X6452619Y-11050429D01*
X6443095Y-11031381D01*
X6433571Y-10993286D01*
X6433571Y-10945667D01*
X6443095Y-10907571D01*
X6452619Y-10888524D01*
X6462143Y-10879000D01*
X6481190Y-10869476D01*
X6643095Y-11069476D02*
X6681190Y-11069476D01*
X6700238Y-11059952D01*
X6709762Y-11050429D01*
X6728809Y-11021857D01*
X6738333Y-10983762D01*
X6738333Y-10907571D01*
X6728809Y-10888524D01*
X6719286Y-10879000D01*
X6700238Y-10869476D01*
X6662143Y-10869476D01*
X6643095Y-10879000D01*
X6633571Y-10888524D01*
X6624048Y-10907571D01*
X6624048Y-10955190D01*
X6633571Y-10974238D01*
X6643095Y-10983762D01*
X6662143Y-10993286D01*
X6700238Y-10993286D01*
X6719286Y-10983762D01*
X6728809Y-10974238D01*
X6738333Y-10955190D01*
X6852619Y-10955190D02*
X6833571Y-10945667D01*
X6824048Y-10936143D01*
X6814524Y-10917095D01*
X6814524Y-10907571D01*
X6824048Y-10888524D01*
X6833571Y-10879000D01*
X6852619Y-10869476D01*
X6890714Y-10869476D01*
X6909762Y-10879000D01*
X6919286Y-10888524D01*
X6928809Y-10907571D01*
X6928809Y-10917095D01*
X6919286Y-10936143D01*
X6909762Y-10945667D01*
X6890714Y-10955190D01*
X6852619Y-10955190D01*
X6833571Y-10964714D01*
X6824048Y-10974238D01*
X6814524Y-10993286D01*
X6814524Y-11031381D01*
X6824048Y-11050429D01*
X6833571Y-11059952D01*
X6852619Y-11069476D01*
X6890714Y-11069476D01*
X6909762Y-11059952D01*
X6919286Y-11050429D01*
X6928809Y-11031381D01*
X6928809Y-10993286D01*
X6919286Y-10974238D01*
X6909762Y-10964714D01*
X6890714Y-10955190D01*
X7100238Y-10936143D02*
X7100238Y-11069476D01*
X7052619Y-10859952D02*
X7005000Y-11002810D01*
X7128809Y-11002810D01*
X7195476Y-10869476D02*
X7195476Y-10907571D01*
X7271667Y-10869476D02*
X7271667Y-10907571D01*
X7566905Y-11145667D02*
X7557381Y-11136143D01*
X7538333Y-11107571D01*
X7528809Y-11088524D01*
X7519286Y-11059952D01*
X7509762Y-11012333D01*
X7509762Y-10974238D01*
X7519286Y-10926619D01*
X7528809Y-10898048D01*
X7538333Y-10879000D01*
X7557381Y-10850429D01*
X7566905Y-10840905D01*
X7633571Y-10888524D02*
X7643095Y-10879000D01*
X7662143Y-10869476D01*
X7709762Y-10869476D01*
X7728809Y-10879000D01*
X7738333Y-10888524D01*
X7747857Y-10907571D01*
X7747857Y-10926619D01*
X7738333Y-10955190D01*
X7624048Y-11069476D01*
X7747857Y-11069476D01*
X7985952Y-11069476D02*
X7985952Y-10869476D01*
X8071667Y-11069476D02*
X8071667Y-10964714D01*
X8062143Y-10945667D01*
X8043095Y-10936143D01*
X8014524Y-10936143D01*
X7995476Y-10945667D01*
X7985952Y-10955190D01*
X8195476Y-11069476D02*
X8176428Y-11059952D01*
X8166905Y-11050429D01*
X8157381Y-11031381D01*
X8157381Y-10974238D01*
X8166905Y-10955190D01*
X8176428Y-10945667D01*
X8195476Y-10936143D01*
X8224048Y-10936143D01*
X8243095Y-10945667D01*
X8252619Y-10955190D01*
X8262143Y-10974238D01*
X8262143Y-11031381D01*
X8252619Y-11050429D01*
X8243095Y-11059952D01*
X8224048Y-11069476D01*
X8195476Y-11069476D01*
X8376428Y-11069476D02*
X8357381Y-11059952D01*
X8347857Y-11040905D01*
X8347857Y-10869476D01*
X8528810Y-11059952D02*
X8509762Y-11069476D01*
X8471667Y-11069476D01*
X8452619Y-11059952D01*
X8443095Y-11040905D01*
X8443095Y-10964714D01*
X8452619Y-10945667D01*
X8471667Y-10936143D01*
X8509762Y-10936143D01*
X8528810Y-10945667D01*
X8538333Y-10964714D01*
X8538333Y-10983762D01*
X8443095Y-11002810D01*
X8614524Y-11059952D02*
X8633571Y-11069476D01*
X8671667Y-11069476D01*
X8690714Y-11059952D01*
X8700238Y-11040905D01*
X8700238Y-11031381D01*
X8690714Y-11012333D01*
X8671667Y-11002810D01*
X8643095Y-11002810D01*
X8624048Y-10993286D01*
X8614524Y-10974238D01*
X8614524Y-10964714D01*
X8624048Y-10945667D01*
X8643095Y-10936143D01*
X8671667Y-10936143D01*
X8690714Y-10945667D01*
X8766905Y-11145667D02*
X8776429Y-11136143D01*
X8795476Y-11107571D01*
X8805000Y-11088524D01*
X8814524Y-11059952D01*
X8824048Y-11012333D01*
X8824048Y-10974238D01*
X8814524Y-10926619D01*
X8805000Y-10898048D01*
X8795476Y-10879000D01*
X8776429Y-10850429D01*
X8766905Y-10840905D01*
M02*
