%TF.GenerationSoftware,KiCad,Pcbnew,(6.0.0)*%
%TF.CreationDate,2022-01-14T16:11:58-08:00*%
%TF.ProjectId,nrf5340_qkaa_rev1_sensor,6e726635-3334-4305-9f71-6b61615f7265,rev?*%
%TF.SameCoordinates,Original*%
%TF.FileFunction,Other,Comment*%
%FSLAX46Y46*%
G04 Gerber Fmt 4.6, Leading zero omitted, Abs format (unit mm)*
G04 Created by KiCad (PCBNEW (6.0.0)) date 2022-01-14 16:11:58*
%MOMM*%
%LPD*%
G01*
G04 APERTURE LIST*
%ADD10C,0.050000*%
%ADD11C,0.080000*%
%ADD12C,0.150000*%
G04 APERTURE END LIST*
D10*
%TO.C,SWD1*%
X105385714Y-84908571D02*
X105185714Y-84908571D01*
X105085714Y-84908571D02*
X105100000Y-84922857D01*
X105114285Y-84908571D01*
X105100000Y-84894285D01*
X105085714Y-84908571D01*
X105114285Y-84908571D01*
X105185714Y-84765714D02*
X105385714Y-84765714D01*
X105214285Y-84765714D02*
X105200000Y-84751428D01*
X105185714Y-84722857D01*
X105185714Y-84680000D01*
X105200000Y-84651428D01*
X105228571Y-84637142D01*
X105385714Y-84637142D01*
X105385714Y-84265714D02*
X105085714Y-84265714D01*
X105271428Y-84237142D02*
X105385714Y-84151428D01*
X105185714Y-84151428D02*
X105300000Y-84265714D01*
X105371428Y-83908571D02*
X105385714Y-83937142D01*
X105385714Y-83994285D01*
X105371428Y-84022857D01*
X105342857Y-84037142D01*
X105228571Y-84037142D01*
X105200000Y-84022857D01*
X105185714Y-83994285D01*
X105185714Y-83937142D01*
X105200000Y-83908571D01*
X105228571Y-83894285D01*
X105257142Y-83894285D01*
X105285714Y-84037142D01*
X105371428Y-83651428D02*
X105385714Y-83680000D01*
X105385714Y-83737142D01*
X105371428Y-83765714D01*
X105342857Y-83780000D01*
X105228571Y-83780000D01*
X105200000Y-83765714D01*
X105185714Y-83737142D01*
X105185714Y-83680000D01*
X105200000Y-83651428D01*
X105228571Y-83637142D01*
X105257142Y-83637142D01*
X105285714Y-83780000D01*
X105185714Y-83508571D02*
X105485714Y-83508571D01*
X105200000Y-83508571D02*
X105185714Y-83480000D01*
X105185714Y-83422857D01*
X105200000Y-83394285D01*
X105214285Y-83380000D01*
X105242857Y-83365714D01*
X105328571Y-83365714D01*
X105357142Y-83380000D01*
X105371428Y-83394285D01*
X105385714Y-83422857D01*
X105385714Y-83480000D01*
X105371428Y-83508571D01*
X105385714Y-83194285D02*
X105371428Y-83222857D01*
X105357142Y-83237142D01*
X105328571Y-83251428D01*
X105242857Y-83251428D01*
X105214285Y-83237142D01*
X105200000Y-83222857D01*
X105185714Y-83194285D01*
X105185714Y-83151428D01*
X105200000Y-83122857D01*
X105214285Y-83108571D01*
X105242857Y-83094285D01*
X105328571Y-83094285D01*
X105357142Y-83108571D01*
X105371428Y-83122857D01*
X105385714Y-83151428D01*
X105385714Y-83194285D01*
X105185714Y-82837142D02*
X105385714Y-82837142D01*
X105185714Y-82965714D02*
X105342857Y-82965714D01*
X105371428Y-82951428D01*
X105385714Y-82922857D01*
X105385714Y-82880000D01*
X105371428Y-82851428D01*
X105357142Y-82837142D01*
X105185714Y-82737142D02*
X105185714Y-82622857D01*
X105085714Y-82694285D02*
X105342857Y-82694285D01*
X105371428Y-82680000D01*
X105385714Y-82651428D01*
X105385714Y-82622857D01*
X105385714Y-82165714D02*
X105228571Y-82165714D01*
X105200000Y-82180000D01*
X105185714Y-82208571D01*
X105185714Y-82265714D01*
X105200000Y-82294285D01*
X105371428Y-82165714D02*
X105385714Y-82194285D01*
X105385714Y-82265714D01*
X105371428Y-82294285D01*
X105342857Y-82308571D01*
X105314285Y-82308571D01*
X105285714Y-82294285D01*
X105271428Y-82265714D01*
X105271428Y-82194285D01*
X105257142Y-82165714D01*
X105385714Y-82022857D02*
X105185714Y-82022857D01*
X105242857Y-82022857D02*
X105214285Y-82008571D01*
X105200000Y-81994285D01*
X105185714Y-81965714D01*
X105185714Y-81937142D01*
X105371428Y-81722857D02*
X105385714Y-81751428D01*
X105385714Y-81808571D01*
X105371428Y-81837142D01*
X105342857Y-81851428D01*
X105228571Y-81851428D01*
X105200000Y-81837142D01*
X105185714Y-81808571D01*
X105185714Y-81751428D01*
X105200000Y-81722857D01*
X105228571Y-81708571D01*
X105257142Y-81708571D01*
X105285714Y-81851428D01*
X105385714Y-81451428D02*
X105228571Y-81451428D01*
X105200000Y-81465714D01*
X105185714Y-81494285D01*
X105185714Y-81551428D01*
X105200000Y-81580000D01*
X105371428Y-81451428D02*
X105385714Y-81480000D01*
X105385714Y-81551428D01*
X105371428Y-81580000D01*
X105342857Y-81594285D01*
X105314285Y-81594285D01*
X105285714Y-81580000D01*
X105271428Y-81551428D01*
X105271428Y-81480000D01*
X105257142Y-81451428D01*
D11*
X106086190Y-84097619D02*
X105586190Y-84097619D01*
X106086190Y-83811904D02*
X105800476Y-84026190D01*
X105586190Y-83811904D02*
X105871904Y-84097619D01*
X105824285Y-83597619D02*
X105824285Y-83430952D01*
X106086190Y-83359523D02*
X106086190Y-83597619D01*
X105586190Y-83597619D01*
X105586190Y-83359523D01*
X105824285Y-83145238D02*
X105824285Y-82978571D01*
X106086190Y-82907142D02*
X106086190Y-83145238D01*
X105586190Y-83145238D01*
X105586190Y-82907142D01*
X106086190Y-82692857D02*
X105586190Y-82692857D01*
X105586190Y-82502380D01*
X105610000Y-82454761D01*
X105633809Y-82430952D01*
X105681428Y-82407142D01*
X105752857Y-82407142D01*
X105800476Y-82430952D01*
X105824285Y-82454761D01*
X105848095Y-82502380D01*
X105848095Y-82692857D01*
X105586190Y-82097619D02*
X105586190Y-82002380D01*
X105610000Y-81954761D01*
X105657619Y-81907142D01*
X105752857Y-81883333D01*
X105919523Y-81883333D01*
X106014761Y-81907142D01*
X106062380Y-81954761D01*
X106086190Y-82002380D01*
X106086190Y-82097619D01*
X106062380Y-82145238D01*
X106014761Y-82192857D01*
X105919523Y-82216666D01*
X105752857Y-82216666D01*
X105657619Y-82192857D01*
X105610000Y-82145238D01*
X105586190Y-82097619D01*
X105586190Y-81669047D02*
X105990952Y-81669047D01*
X106038571Y-81645238D01*
X106062380Y-81621428D01*
X106086190Y-81573809D01*
X106086190Y-81478571D01*
X106062380Y-81430952D01*
X106038571Y-81407142D01*
X105990952Y-81383333D01*
X105586190Y-81383333D01*
X105586190Y-81216666D02*
X105586190Y-80930952D01*
X106086190Y-81073809D02*
X105586190Y-81073809D01*
D10*
X106545714Y-84891428D02*
X106245714Y-84891428D01*
X106545714Y-84720000D01*
X106245714Y-84720000D01*
X106545714Y-84534285D02*
X106531428Y-84562857D01*
X106517142Y-84577142D01*
X106488571Y-84591428D01*
X106402857Y-84591428D01*
X106374285Y-84577142D01*
X106360000Y-84562857D01*
X106345714Y-84534285D01*
X106345714Y-84491428D01*
X106360000Y-84462857D01*
X106374285Y-84448571D01*
X106402857Y-84434285D01*
X106488571Y-84434285D01*
X106517142Y-84448571D01*
X106531428Y-84462857D01*
X106545714Y-84491428D01*
X106545714Y-84534285D01*
X106345714Y-84120000D02*
X106345714Y-84005714D01*
X106245714Y-84077142D02*
X106502857Y-84077142D01*
X106531428Y-84062857D01*
X106545714Y-84034285D01*
X106545714Y-84005714D01*
X106545714Y-83905714D02*
X106345714Y-83905714D01*
X106402857Y-83905714D02*
X106374285Y-83891428D01*
X106360000Y-83877142D01*
X106345714Y-83848571D01*
X106345714Y-83820000D01*
X106545714Y-83591428D02*
X106388571Y-83591428D01*
X106360000Y-83605714D01*
X106345714Y-83634285D01*
X106345714Y-83691428D01*
X106360000Y-83720000D01*
X106531428Y-83591428D02*
X106545714Y-83620000D01*
X106545714Y-83691428D01*
X106531428Y-83720000D01*
X106502857Y-83734285D01*
X106474285Y-83734285D01*
X106445714Y-83720000D01*
X106431428Y-83691428D01*
X106431428Y-83620000D01*
X106417142Y-83591428D01*
X106531428Y-83320000D02*
X106545714Y-83348571D01*
X106545714Y-83405714D01*
X106531428Y-83434285D01*
X106517142Y-83448571D01*
X106488571Y-83462857D01*
X106402857Y-83462857D01*
X106374285Y-83448571D01*
X106360000Y-83434285D01*
X106345714Y-83405714D01*
X106345714Y-83348571D01*
X106360000Y-83320000D01*
X106545714Y-83191428D02*
X106245714Y-83191428D01*
X106431428Y-83162857D02*
X106545714Y-83077142D01*
X106345714Y-83077142D02*
X106460000Y-83191428D01*
X106531428Y-82962857D02*
X106545714Y-82934285D01*
X106545714Y-82877142D01*
X106531428Y-82848571D01*
X106502857Y-82834285D01*
X106488571Y-82834285D01*
X106460000Y-82848571D01*
X106445714Y-82877142D01*
X106445714Y-82920000D01*
X106431428Y-82948571D01*
X106402857Y-82962857D01*
X106388571Y-82962857D01*
X106360000Y-82948571D01*
X106345714Y-82920000D01*
X106345714Y-82877142D01*
X106360000Y-82848571D01*
X106545714Y-82434285D02*
X106531428Y-82462857D01*
X106517142Y-82477142D01*
X106488571Y-82491428D01*
X106402857Y-82491428D01*
X106374285Y-82477142D01*
X106360000Y-82462857D01*
X106345714Y-82434285D01*
X106345714Y-82391428D01*
X106360000Y-82362857D01*
X106374285Y-82348571D01*
X106402857Y-82334285D01*
X106488571Y-82334285D01*
X106517142Y-82348571D01*
X106531428Y-82362857D01*
X106545714Y-82391428D01*
X106545714Y-82434285D01*
X106545714Y-82205714D02*
X106345714Y-82205714D01*
X106402857Y-82205714D02*
X106374285Y-82191428D01*
X106360000Y-82177142D01*
X106345714Y-82148571D01*
X106345714Y-82120000D01*
X106345714Y-81820000D02*
X106545714Y-81748571D01*
X106345714Y-81677142D01*
X106545714Y-81562857D02*
X106345714Y-81562857D01*
X106245714Y-81562857D02*
X106260000Y-81577142D01*
X106274285Y-81562857D01*
X106260000Y-81548571D01*
X106245714Y-81562857D01*
X106274285Y-81562857D01*
X106545714Y-81291428D02*
X106388571Y-81291428D01*
X106360000Y-81305714D01*
X106345714Y-81334285D01*
X106345714Y-81391428D01*
X106360000Y-81420000D01*
X106531428Y-81291428D02*
X106545714Y-81320000D01*
X106545714Y-81391428D01*
X106531428Y-81420000D01*
X106502857Y-81434285D01*
X106474285Y-81434285D01*
X106445714Y-81420000D01*
X106431428Y-81391428D01*
X106431428Y-81320000D01*
X106417142Y-81291428D01*
X106531428Y-81162857D02*
X106545714Y-81134285D01*
X106545714Y-81077142D01*
X106531428Y-81048571D01*
X106502857Y-81034285D01*
X106488571Y-81034285D01*
X106460000Y-81048571D01*
X106445714Y-81077142D01*
X106445714Y-81120000D01*
X106431428Y-81148571D01*
X106402857Y-81162857D01*
X106388571Y-81162857D01*
X106360000Y-81148571D01*
X106345714Y-81120000D01*
X106345714Y-81077142D01*
X106360000Y-81048571D01*
D12*
%TO.C,H2*%
X44440098Y-85100000D02*
G75*
G03*
X44440098Y-85100000I-2040098J0D01*
G01*
%TO.C,H4*%
X114740098Y-85100000D02*
G75*
G03*
X114740098Y-85100000I-2040098J0D01*
G01*
%TO.C,H1*%
X44440098Y-49900000D02*
G75*
G03*
X44440098Y-49900000I-2040098J0D01*
G01*
%TO.C,H3*%
X114640098Y-49900000D02*
G75*
G03*
X114640098Y-49900000I-2040098J0D01*
G01*
%TD*%
M02*
