%TF.GenerationSoftware,KiCad,Pcbnew,(6.0.0)*%
%TF.CreationDate,2022-01-14T16:11:58-08:00*%
%TF.ProjectId,nrf5340_qkaa_rev1_sensor,6e726635-3334-4305-9f71-6b61615f7265,rev?*%
%TF.SameCoordinates,Original*%
%TF.FileFunction,Legend,Bot*%
%TF.FilePolarity,Positive*%
%FSLAX46Y46*%
G04 Gerber Fmt 4.6, Leading zero omitted, Abs format (unit mm)*
G04 Created by KiCad (PCBNEW (6.0.0)) date 2022-01-14 16:11:58*
%MOMM*%
%LPD*%
G01*
G04 APERTURE LIST*
%ADD10C,0.120000*%
G04 APERTURE END LIST*
D10*
X90908095Y-83541523D02*
X91708095Y-83541523D01*
X91708095Y-83236761D01*
X91670000Y-83160571D01*
X91631904Y-83122476D01*
X91555714Y-83084380D01*
X91441428Y-83084380D01*
X91365238Y-83122476D01*
X91327142Y-83160571D01*
X91289047Y-83236761D01*
X91289047Y-83541523D01*
X91708095Y-82589142D02*
X91708095Y-82512952D01*
X91670000Y-82436761D01*
X91631904Y-82398666D01*
X91555714Y-82360571D01*
X91403333Y-82322476D01*
X91212857Y-82322476D01*
X91060476Y-82360571D01*
X90984285Y-82398666D01*
X90946190Y-82436761D01*
X90908095Y-82512952D01*
X90908095Y-82589142D01*
X90946190Y-82665333D01*
X90984285Y-82703428D01*
X91060476Y-82741523D01*
X91212857Y-82779619D01*
X91403333Y-82779619D01*
X91555714Y-82741523D01*
X91631904Y-82703428D01*
X91670000Y-82665333D01*
X91708095Y-82589142D01*
X90984285Y-81979619D02*
X90946190Y-81941523D01*
X90908095Y-81979619D01*
X90946190Y-82017714D01*
X90984285Y-81979619D01*
X90908095Y-81979619D01*
X91631904Y-81636761D02*
X91670000Y-81598666D01*
X91708095Y-81522476D01*
X91708095Y-81332000D01*
X91670000Y-81255809D01*
X91631904Y-81217714D01*
X91555714Y-81179619D01*
X91479523Y-81179619D01*
X91365238Y-81217714D01*
X90908095Y-81674857D01*
X90908095Y-81179619D01*
X91708095Y-80912952D02*
X91708095Y-80417714D01*
X91403333Y-80684380D01*
X91403333Y-80570095D01*
X91365238Y-80493904D01*
X91327142Y-80455809D01*
X91250952Y-80417714D01*
X91060476Y-80417714D01*
X90984285Y-80455809D01*
X90946190Y-80493904D01*
X90908095Y-80570095D01*
X90908095Y-80798666D01*
X90946190Y-80874857D01*
X90984285Y-80912952D01*
X70760000Y-52333428D02*
X70721904Y-52257238D01*
X70721904Y-52142952D01*
X70760000Y-52028666D01*
X70836190Y-51952476D01*
X70912380Y-51914380D01*
X71064761Y-51876285D01*
X71179047Y-51876285D01*
X71331428Y-51914380D01*
X71407619Y-51952476D01*
X71483809Y-52028666D01*
X71521904Y-52142952D01*
X71521904Y-52219142D01*
X71483809Y-52333428D01*
X71445714Y-52371523D01*
X71179047Y-52371523D01*
X71179047Y-52219142D01*
X71521904Y-52714380D02*
X70721904Y-52714380D01*
X71521904Y-53171523D01*
X70721904Y-53171523D01*
X71521904Y-53552476D02*
X70721904Y-53552476D01*
X70721904Y-53742952D01*
X70760000Y-53857238D01*
X70836190Y-53933428D01*
X70912380Y-53971523D01*
X71064761Y-54009619D01*
X71179047Y-54009619D01*
X71331428Y-53971523D01*
X71407619Y-53933428D01*
X71483809Y-53857238D01*
X71521904Y-53742952D01*
X71521904Y-53552476D01*
X101058095Y-83541523D02*
X101858095Y-83541523D01*
X101858095Y-83236761D01*
X101820000Y-83160571D01*
X101781904Y-83122476D01*
X101705714Y-83084380D01*
X101591428Y-83084380D01*
X101515238Y-83122476D01*
X101477142Y-83160571D01*
X101439047Y-83236761D01*
X101439047Y-83541523D01*
X101858095Y-82589142D02*
X101858095Y-82512952D01*
X101820000Y-82436761D01*
X101781904Y-82398666D01*
X101705714Y-82360571D01*
X101553333Y-82322476D01*
X101362857Y-82322476D01*
X101210476Y-82360571D01*
X101134285Y-82398666D01*
X101096190Y-82436761D01*
X101058095Y-82512952D01*
X101058095Y-82589142D01*
X101096190Y-82665333D01*
X101134285Y-82703428D01*
X101210476Y-82741523D01*
X101362857Y-82779619D01*
X101553333Y-82779619D01*
X101705714Y-82741523D01*
X101781904Y-82703428D01*
X101820000Y-82665333D01*
X101858095Y-82589142D01*
X101134285Y-81979619D02*
X101096190Y-81941523D01*
X101058095Y-81979619D01*
X101096190Y-82017714D01*
X101134285Y-81979619D01*
X101058095Y-81979619D01*
X101781904Y-81636761D02*
X101820000Y-81598666D01*
X101858095Y-81522476D01*
X101858095Y-81332000D01*
X101820000Y-81255809D01*
X101781904Y-81217714D01*
X101705714Y-81179619D01*
X101629523Y-81179619D01*
X101515238Y-81217714D01*
X101058095Y-81674857D01*
X101058095Y-81179619D01*
X101858095Y-80912952D02*
X101858095Y-80379619D01*
X101058095Y-80722476D01*
X101896190Y-79503428D02*
X100867619Y-80189142D01*
X101286666Y-79274857D02*
X101286666Y-78893904D01*
X101058095Y-79351047D02*
X101858095Y-79084380D01*
X101058095Y-78817714D01*
X101058095Y-78551047D02*
X101858095Y-78551047D01*
X101058095Y-78170095D02*
X101858095Y-78170095D01*
X101058095Y-77712952D01*
X101858095Y-77712952D01*
X101858095Y-76989142D02*
X101858095Y-77141523D01*
X101820000Y-77217714D01*
X101781904Y-77255809D01*
X101667619Y-77332000D01*
X101515238Y-77370095D01*
X101210476Y-77370095D01*
X101134285Y-77332000D01*
X101096190Y-77293904D01*
X101058095Y-77217714D01*
X101058095Y-77065333D01*
X101096190Y-76989142D01*
X101134285Y-76951047D01*
X101210476Y-76912952D01*
X101400952Y-76912952D01*
X101477142Y-76951047D01*
X101515238Y-76989142D01*
X101553333Y-77065333D01*
X101553333Y-77217714D01*
X101515238Y-77293904D01*
X101477142Y-77332000D01*
X101400952Y-77370095D01*
X58751904Y-51898476D02*
X57951904Y-51898476D01*
X57951904Y-52203238D01*
X57990000Y-52279428D01*
X58028095Y-52317523D01*
X58104285Y-52355619D01*
X58218571Y-52355619D01*
X58294761Y-52317523D01*
X58332857Y-52279428D01*
X58370952Y-52203238D01*
X58370952Y-51898476D01*
X57951904Y-52850857D02*
X57951904Y-52927047D01*
X57990000Y-53003238D01*
X58028095Y-53041333D01*
X58104285Y-53079428D01*
X58256666Y-53117523D01*
X58447142Y-53117523D01*
X58599523Y-53079428D01*
X58675714Y-53041333D01*
X58713809Y-53003238D01*
X58751904Y-52927047D01*
X58751904Y-52850857D01*
X58713809Y-52774666D01*
X58675714Y-52736571D01*
X58599523Y-52698476D01*
X58447142Y-52660380D01*
X58256666Y-52660380D01*
X58104285Y-52698476D01*
X58028095Y-52736571D01*
X57990000Y-52774666D01*
X57951904Y-52850857D01*
X58675714Y-53460380D02*
X58713809Y-53498476D01*
X58751904Y-53460380D01*
X58713809Y-53422285D01*
X58675714Y-53460380D01*
X58751904Y-53460380D01*
X57951904Y-53993714D02*
X57951904Y-54069904D01*
X57990000Y-54146095D01*
X58028095Y-54184190D01*
X58104285Y-54222285D01*
X58256666Y-54260380D01*
X58447142Y-54260380D01*
X58599523Y-54222285D01*
X58675714Y-54184190D01*
X58713809Y-54146095D01*
X58751904Y-54069904D01*
X58751904Y-53993714D01*
X58713809Y-53917523D01*
X58675714Y-53879428D01*
X58599523Y-53841333D01*
X58447142Y-53803238D01*
X58256666Y-53803238D01*
X58104285Y-53841333D01*
X58028095Y-53879428D01*
X57990000Y-53917523D01*
X57951904Y-53993714D01*
X57951904Y-54527047D02*
X57951904Y-55060380D01*
X58751904Y-54717523D01*
X57913809Y-55936571D02*
X58942380Y-55250857D01*
X58523333Y-56165142D02*
X58523333Y-56546095D01*
X58751904Y-56088952D02*
X57951904Y-56355619D01*
X58751904Y-56622285D01*
X58751904Y-56888952D02*
X57951904Y-56888952D01*
X58751904Y-57269904D02*
X57951904Y-57269904D01*
X58751904Y-57727047D01*
X57951904Y-57727047D01*
X57951904Y-58031809D02*
X57951904Y-58527047D01*
X58256666Y-58260380D01*
X58256666Y-58374666D01*
X58294761Y-58450857D01*
X58332857Y-58488952D01*
X58409047Y-58527047D01*
X58599523Y-58527047D01*
X58675714Y-58488952D01*
X58713809Y-58450857D01*
X58751904Y-58374666D01*
X58751904Y-58146095D01*
X58713809Y-58069904D01*
X58675714Y-58031809D01*
X52878095Y-83541523D02*
X53678095Y-83541523D01*
X53678095Y-83236761D01*
X53640000Y-83160571D01*
X53601904Y-83122476D01*
X53525714Y-83084380D01*
X53411428Y-83084380D01*
X53335238Y-83122476D01*
X53297142Y-83160571D01*
X53259047Y-83236761D01*
X53259047Y-83541523D01*
X53678095Y-82589142D02*
X53678095Y-82512952D01*
X53640000Y-82436761D01*
X53601904Y-82398666D01*
X53525714Y-82360571D01*
X53373333Y-82322476D01*
X53182857Y-82322476D01*
X53030476Y-82360571D01*
X52954285Y-82398666D01*
X52916190Y-82436761D01*
X52878095Y-82512952D01*
X52878095Y-82589142D01*
X52916190Y-82665333D01*
X52954285Y-82703428D01*
X53030476Y-82741523D01*
X53182857Y-82779619D01*
X53373333Y-82779619D01*
X53525714Y-82741523D01*
X53601904Y-82703428D01*
X53640000Y-82665333D01*
X53678095Y-82589142D01*
X52954285Y-81979619D02*
X52916190Y-81941523D01*
X52878095Y-81979619D01*
X52916190Y-82017714D01*
X52954285Y-81979619D01*
X52878095Y-81979619D01*
X53678095Y-81446285D02*
X53678095Y-81370095D01*
X53640000Y-81293904D01*
X53601904Y-81255809D01*
X53525714Y-81217714D01*
X53373333Y-81179619D01*
X53182857Y-81179619D01*
X53030476Y-81217714D01*
X52954285Y-81255809D01*
X52916190Y-81293904D01*
X52878095Y-81370095D01*
X52878095Y-81446285D01*
X52916190Y-81522476D01*
X52954285Y-81560571D01*
X53030476Y-81598666D01*
X53182857Y-81636761D01*
X53373333Y-81636761D01*
X53525714Y-81598666D01*
X53601904Y-81560571D01*
X53640000Y-81522476D01*
X53678095Y-81446285D01*
X53601904Y-80874857D02*
X53640000Y-80836761D01*
X53678095Y-80760571D01*
X53678095Y-80570095D01*
X53640000Y-80493904D01*
X53601904Y-80455809D01*
X53525714Y-80417714D01*
X53449523Y-80417714D01*
X53335238Y-80455809D01*
X52878095Y-80912952D01*
X52878095Y-80417714D01*
X53716190Y-79503428D02*
X52687619Y-80189142D01*
X52878095Y-79236761D02*
X53678095Y-79236761D01*
X52878095Y-78779619D01*
X53678095Y-78779619D01*
X53297142Y-78132000D02*
X53297142Y-78398666D01*
X52878095Y-78398666D02*
X53678095Y-78398666D01*
X53678095Y-78017714D01*
X52954285Y-77255809D02*
X52916190Y-77293904D01*
X52878095Y-77408190D01*
X52878095Y-77484380D01*
X52916190Y-77598666D01*
X52992380Y-77674857D01*
X53068571Y-77712952D01*
X53220952Y-77751047D01*
X53335238Y-77751047D01*
X53487619Y-77712952D01*
X53563809Y-77674857D01*
X53640000Y-77598666D01*
X53678095Y-77484380D01*
X53678095Y-77408190D01*
X53640000Y-77293904D01*
X53601904Y-77255809D01*
X52878095Y-76493904D02*
X52878095Y-76951047D01*
X52878095Y-76722476D02*
X53678095Y-76722476D01*
X53563809Y-76798666D01*
X53487619Y-76874857D01*
X53449523Y-76951047D01*
X55550000Y-52213428D02*
X55511904Y-52137238D01*
X55511904Y-52022952D01*
X55550000Y-51908666D01*
X55626190Y-51832476D01*
X55702380Y-51794380D01*
X55854761Y-51756285D01*
X55969047Y-51756285D01*
X56121428Y-51794380D01*
X56197619Y-51832476D01*
X56273809Y-51908666D01*
X56311904Y-52022952D01*
X56311904Y-52099142D01*
X56273809Y-52213428D01*
X56235714Y-52251523D01*
X55969047Y-52251523D01*
X55969047Y-52099142D01*
X56311904Y-52594380D02*
X55511904Y-52594380D01*
X56311904Y-53051523D01*
X55511904Y-53051523D01*
X56311904Y-53432476D02*
X55511904Y-53432476D01*
X55511904Y-53622952D01*
X55550000Y-53737238D01*
X55626190Y-53813428D01*
X55702380Y-53851523D01*
X55854761Y-53889619D01*
X55969047Y-53889619D01*
X56121428Y-53851523D01*
X56197619Y-53813428D01*
X56273809Y-53737238D01*
X56311904Y-53622952D01*
X56311904Y-53432476D01*
X86741904Y-51878476D02*
X85941904Y-51878476D01*
X85941904Y-52183238D01*
X85980000Y-52259428D01*
X86018095Y-52297523D01*
X86094285Y-52335619D01*
X86208571Y-52335619D01*
X86284761Y-52297523D01*
X86322857Y-52259428D01*
X86360952Y-52183238D01*
X86360952Y-51878476D01*
X86741904Y-53097523D02*
X86741904Y-52640380D01*
X86741904Y-52868952D02*
X85941904Y-52868952D01*
X86056190Y-52792761D01*
X86132380Y-52716571D01*
X86170476Y-52640380D01*
X86665714Y-53440380D02*
X86703809Y-53478476D01*
X86741904Y-53440380D01*
X86703809Y-53402285D01*
X86665714Y-53440380D01*
X86741904Y-53440380D01*
X86741904Y-54240380D02*
X86741904Y-53783238D01*
X86741904Y-54011809D02*
X85941904Y-54011809D01*
X86056190Y-53935619D01*
X86132380Y-53859428D01*
X86170476Y-53783238D01*
X85941904Y-54964190D02*
X85941904Y-54583238D01*
X86322857Y-54545142D01*
X86284761Y-54583238D01*
X86246666Y-54659428D01*
X86246666Y-54849904D01*
X86284761Y-54926095D01*
X86322857Y-54964190D01*
X86399047Y-55002285D01*
X86589523Y-55002285D01*
X86665714Y-54964190D01*
X86703809Y-54926095D01*
X86741904Y-54849904D01*
X86741904Y-54659428D01*
X86703809Y-54583238D01*
X86665714Y-54545142D01*
X50421904Y-51744190D02*
X51221904Y-52010857D01*
X50421904Y-52277523D01*
X51221904Y-52544190D02*
X50421904Y-52544190D01*
X50421904Y-52734666D01*
X50460000Y-52848952D01*
X50536190Y-52925142D01*
X50612380Y-52963238D01*
X50764761Y-53001333D01*
X50879047Y-53001333D01*
X51031428Y-52963238D01*
X51107619Y-52925142D01*
X51183809Y-52848952D01*
X51221904Y-52734666D01*
X51221904Y-52544190D01*
X51221904Y-53344190D02*
X50421904Y-53344190D01*
X50421904Y-53534666D01*
X50460000Y-53648952D01*
X50536190Y-53725142D01*
X50612380Y-53763238D01*
X50764761Y-53801333D01*
X50879047Y-53801333D01*
X51031428Y-53763238D01*
X51107619Y-53725142D01*
X51183809Y-53648952D01*
X51221904Y-53534666D01*
X51221904Y-53344190D01*
X51298095Y-53953714D02*
X51298095Y-54563238D01*
X50802857Y-54753714D02*
X50802857Y-55020380D01*
X51221904Y-55134666D02*
X51221904Y-54753714D01*
X50421904Y-54753714D01*
X50421904Y-55134666D01*
X50421904Y-55401333D02*
X51221904Y-55934666D01*
X50421904Y-55934666D02*
X51221904Y-55401333D01*
X50421904Y-56125142D02*
X50421904Y-56582285D01*
X51221904Y-56353714D02*
X50421904Y-56353714D01*
X99481904Y-51718476D02*
X98681904Y-51718476D01*
X98681904Y-52023238D01*
X98720000Y-52099428D01*
X98758095Y-52137523D01*
X98834285Y-52175619D01*
X98948571Y-52175619D01*
X99024761Y-52137523D01*
X99062857Y-52099428D01*
X99100952Y-52023238D01*
X99100952Y-51718476D01*
X98681904Y-52670857D02*
X98681904Y-52747047D01*
X98720000Y-52823238D01*
X98758095Y-52861333D01*
X98834285Y-52899428D01*
X98986666Y-52937523D01*
X99177142Y-52937523D01*
X99329523Y-52899428D01*
X99405714Y-52861333D01*
X99443809Y-52823238D01*
X99481904Y-52747047D01*
X99481904Y-52670857D01*
X99443809Y-52594666D01*
X99405714Y-52556571D01*
X99329523Y-52518476D01*
X99177142Y-52480380D01*
X98986666Y-52480380D01*
X98834285Y-52518476D01*
X98758095Y-52556571D01*
X98720000Y-52594666D01*
X98681904Y-52670857D01*
X99405714Y-53280380D02*
X99443809Y-53318476D01*
X99481904Y-53280380D01*
X99443809Y-53242285D01*
X99405714Y-53280380D01*
X99481904Y-53280380D01*
X98681904Y-53585142D02*
X98681904Y-54080380D01*
X98986666Y-53813714D01*
X98986666Y-53928000D01*
X99024761Y-54004190D01*
X99062857Y-54042285D01*
X99139047Y-54080380D01*
X99329523Y-54080380D01*
X99405714Y-54042285D01*
X99443809Y-54004190D01*
X99481904Y-53928000D01*
X99481904Y-53699428D01*
X99443809Y-53623238D01*
X99405714Y-53585142D01*
X99481904Y-54842285D02*
X99481904Y-54385142D01*
X99481904Y-54613714D02*
X98681904Y-54613714D01*
X98796190Y-54537523D01*
X98872380Y-54461333D01*
X98910476Y-54385142D01*
X60600000Y-52183428D02*
X60561904Y-52107238D01*
X60561904Y-51992952D01*
X60600000Y-51878666D01*
X60676190Y-51802476D01*
X60752380Y-51764380D01*
X60904761Y-51726285D01*
X61019047Y-51726285D01*
X61171428Y-51764380D01*
X61247619Y-51802476D01*
X61323809Y-51878666D01*
X61361904Y-51992952D01*
X61361904Y-52069142D01*
X61323809Y-52183428D01*
X61285714Y-52221523D01*
X61019047Y-52221523D01*
X61019047Y-52069142D01*
X61361904Y-52564380D02*
X60561904Y-52564380D01*
X61361904Y-53021523D01*
X60561904Y-53021523D01*
X61361904Y-53402476D02*
X60561904Y-53402476D01*
X60561904Y-53592952D01*
X60600000Y-53707238D01*
X60676190Y-53783428D01*
X60752380Y-53821523D01*
X60904761Y-53859619D01*
X61019047Y-53859619D01*
X61171428Y-53821523D01*
X61247619Y-53783428D01*
X61323809Y-53707238D01*
X61361904Y-53592952D01*
X61361904Y-53402476D01*
X65618095Y-83541523D02*
X66418095Y-83541523D01*
X66418095Y-83236761D01*
X66380000Y-83160571D01*
X66341904Y-83122476D01*
X66265714Y-83084380D01*
X66151428Y-83084380D01*
X66075238Y-83122476D01*
X66037142Y-83160571D01*
X65999047Y-83236761D01*
X65999047Y-83541523D01*
X65618095Y-82322476D02*
X65618095Y-82779619D01*
X65618095Y-82551047D02*
X66418095Y-82551047D01*
X66303809Y-82627238D01*
X66227619Y-82703428D01*
X66189523Y-82779619D01*
X65694285Y-81979619D02*
X65656190Y-81941523D01*
X65618095Y-81979619D01*
X65656190Y-82017714D01*
X65694285Y-81979619D01*
X65618095Y-81979619D01*
X66418095Y-81446285D02*
X66418095Y-81370095D01*
X66380000Y-81293904D01*
X66341904Y-81255809D01*
X66265714Y-81217714D01*
X66113333Y-81179619D01*
X65922857Y-81179619D01*
X65770476Y-81217714D01*
X65694285Y-81255809D01*
X65656190Y-81293904D01*
X65618095Y-81370095D01*
X65618095Y-81446285D01*
X65656190Y-81522476D01*
X65694285Y-81560571D01*
X65770476Y-81598666D01*
X65922857Y-81636761D01*
X66113333Y-81636761D01*
X66265714Y-81598666D01*
X66341904Y-81560571D01*
X66380000Y-81522476D01*
X66418095Y-81446285D01*
X66418095Y-80455809D02*
X66418095Y-80836761D01*
X66037142Y-80874857D01*
X66075238Y-80836761D01*
X66113333Y-80760571D01*
X66113333Y-80570095D01*
X66075238Y-80493904D01*
X66037142Y-80455809D01*
X65960952Y-80417714D01*
X65770476Y-80417714D01*
X65694285Y-80455809D01*
X65656190Y-80493904D01*
X65618095Y-80570095D01*
X65618095Y-80760571D01*
X65656190Y-80836761D01*
X65694285Y-80874857D01*
X75730000Y-52243428D02*
X75691904Y-52167238D01*
X75691904Y-52052952D01*
X75730000Y-51938666D01*
X75806190Y-51862476D01*
X75882380Y-51824380D01*
X76034761Y-51786285D01*
X76149047Y-51786285D01*
X76301428Y-51824380D01*
X76377619Y-51862476D01*
X76453809Y-51938666D01*
X76491904Y-52052952D01*
X76491904Y-52129142D01*
X76453809Y-52243428D01*
X76415714Y-52281523D01*
X76149047Y-52281523D01*
X76149047Y-52129142D01*
X76491904Y-52624380D02*
X75691904Y-52624380D01*
X76491904Y-53081523D01*
X75691904Y-53081523D01*
X76491904Y-53462476D02*
X75691904Y-53462476D01*
X75691904Y-53652952D01*
X75730000Y-53767238D01*
X75806190Y-53843428D01*
X75882380Y-53881523D01*
X76034761Y-53919619D01*
X76149047Y-53919619D01*
X76301428Y-53881523D01*
X76377619Y-53843428D01*
X76453809Y-53767238D01*
X76491904Y-53652952D01*
X76491904Y-53462476D01*
X65710000Y-52333428D02*
X65671904Y-52257238D01*
X65671904Y-52142952D01*
X65710000Y-52028666D01*
X65786190Y-51952476D01*
X65862380Y-51914380D01*
X66014761Y-51876285D01*
X66129047Y-51876285D01*
X66281428Y-51914380D01*
X66357619Y-51952476D01*
X66433809Y-52028666D01*
X66471904Y-52142952D01*
X66471904Y-52219142D01*
X66433809Y-52333428D01*
X66395714Y-52371523D01*
X66129047Y-52371523D01*
X66129047Y-52219142D01*
X66471904Y-52714380D02*
X65671904Y-52714380D01*
X66471904Y-53171523D01*
X65671904Y-53171523D01*
X66471904Y-53552476D02*
X65671904Y-53552476D01*
X65671904Y-53742952D01*
X65710000Y-53857238D01*
X65786190Y-53933428D01*
X65862380Y-53971523D01*
X66014761Y-54009619D01*
X66129047Y-54009619D01*
X66281428Y-53971523D01*
X66357619Y-53933428D01*
X66433809Y-53857238D01*
X66471904Y-53742952D01*
X66471904Y-53552476D01*
X94481904Y-51738476D02*
X93681904Y-51738476D01*
X93681904Y-52043238D01*
X93720000Y-52119428D01*
X93758095Y-52157523D01*
X93834285Y-52195619D01*
X93948571Y-52195619D01*
X94024761Y-52157523D01*
X94062857Y-52119428D01*
X94100952Y-52043238D01*
X94100952Y-51738476D01*
X94481904Y-52957523D02*
X94481904Y-52500380D01*
X94481904Y-52728952D02*
X93681904Y-52728952D01*
X93796190Y-52652761D01*
X93872380Y-52576571D01*
X93910476Y-52500380D01*
X94405714Y-53300380D02*
X94443809Y-53338476D01*
X94481904Y-53300380D01*
X94443809Y-53262285D01*
X94405714Y-53300380D01*
X94481904Y-53300380D01*
X94481904Y-54100380D02*
X94481904Y-53643238D01*
X94481904Y-53871809D02*
X93681904Y-53871809D01*
X93796190Y-53795619D01*
X93872380Y-53719428D01*
X93910476Y-53643238D01*
X93758095Y-54405142D02*
X93720000Y-54443238D01*
X93681904Y-54519428D01*
X93681904Y-54709904D01*
X93720000Y-54786095D01*
X93758095Y-54824190D01*
X93834285Y-54862285D01*
X93910476Y-54862285D01*
X94024761Y-54824190D01*
X94481904Y-54367047D01*
X94481904Y-54862285D01*
X98608095Y-83541523D02*
X99408095Y-83541523D01*
X99408095Y-83236761D01*
X99370000Y-83160571D01*
X99331904Y-83122476D01*
X99255714Y-83084380D01*
X99141428Y-83084380D01*
X99065238Y-83122476D01*
X99027142Y-83160571D01*
X98989047Y-83236761D01*
X98989047Y-83541523D01*
X99408095Y-82589142D02*
X99408095Y-82512952D01*
X99370000Y-82436761D01*
X99331904Y-82398666D01*
X99255714Y-82360571D01*
X99103333Y-82322476D01*
X98912857Y-82322476D01*
X98760476Y-82360571D01*
X98684285Y-82398666D01*
X98646190Y-82436761D01*
X98608095Y-82512952D01*
X98608095Y-82589142D01*
X98646190Y-82665333D01*
X98684285Y-82703428D01*
X98760476Y-82741523D01*
X98912857Y-82779619D01*
X99103333Y-82779619D01*
X99255714Y-82741523D01*
X99331904Y-82703428D01*
X99370000Y-82665333D01*
X99408095Y-82589142D01*
X98684285Y-81979619D02*
X98646190Y-81941523D01*
X98608095Y-81979619D01*
X98646190Y-82017714D01*
X98684285Y-81979619D01*
X98608095Y-81979619D01*
X99331904Y-81636761D02*
X99370000Y-81598666D01*
X99408095Y-81522476D01*
X99408095Y-81332000D01*
X99370000Y-81255809D01*
X99331904Y-81217714D01*
X99255714Y-81179619D01*
X99179523Y-81179619D01*
X99065238Y-81217714D01*
X98608095Y-81674857D01*
X98608095Y-81179619D01*
X99408095Y-80493904D02*
X99408095Y-80646285D01*
X99370000Y-80722476D01*
X99331904Y-80760571D01*
X99217619Y-80836761D01*
X99065238Y-80874857D01*
X98760476Y-80874857D01*
X98684285Y-80836761D01*
X98646190Y-80798666D01*
X98608095Y-80722476D01*
X98608095Y-80570095D01*
X98646190Y-80493904D01*
X98684285Y-80455809D01*
X98760476Y-80417714D01*
X98950952Y-80417714D01*
X99027142Y-80455809D01*
X99065238Y-80493904D01*
X99103333Y-80570095D01*
X99103333Y-80722476D01*
X99065238Y-80798666D01*
X99027142Y-80836761D01*
X98950952Y-80874857D01*
X99446190Y-79503428D02*
X98417619Y-80189142D01*
X98836666Y-79274857D02*
X98836666Y-78893904D01*
X98608095Y-79351047D02*
X99408095Y-79084380D01*
X98608095Y-78817714D01*
X98608095Y-78551047D02*
X99408095Y-78551047D01*
X98608095Y-78170095D02*
X99408095Y-78170095D01*
X98608095Y-77712952D01*
X99408095Y-77712952D01*
X99408095Y-76951047D02*
X99408095Y-77332000D01*
X99027142Y-77370095D01*
X99065238Y-77332000D01*
X99103333Y-77255809D01*
X99103333Y-77065333D01*
X99065238Y-76989142D01*
X99027142Y-76951047D01*
X98950952Y-76912952D01*
X98760476Y-76912952D01*
X98684285Y-76951047D01*
X98646190Y-76989142D01*
X98608095Y-77065333D01*
X98608095Y-77255809D01*
X98646190Y-77332000D01*
X98684285Y-77370095D01*
X88368095Y-83541523D02*
X89168095Y-83541523D01*
X89168095Y-83236761D01*
X89130000Y-83160571D01*
X89091904Y-83122476D01*
X89015714Y-83084380D01*
X88901428Y-83084380D01*
X88825238Y-83122476D01*
X88787142Y-83160571D01*
X88749047Y-83236761D01*
X88749047Y-83541523D01*
X89168095Y-82589142D02*
X89168095Y-82512952D01*
X89130000Y-82436761D01*
X89091904Y-82398666D01*
X89015714Y-82360571D01*
X88863333Y-82322476D01*
X88672857Y-82322476D01*
X88520476Y-82360571D01*
X88444285Y-82398666D01*
X88406190Y-82436761D01*
X88368095Y-82512952D01*
X88368095Y-82589142D01*
X88406190Y-82665333D01*
X88444285Y-82703428D01*
X88520476Y-82741523D01*
X88672857Y-82779619D01*
X88863333Y-82779619D01*
X89015714Y-82741523D01*
X89091904Y-82703428D01*
X89130000Y-82665333D01*
X89168095Y-82589142D01*
X88444285Y-81979619D02*
X88406190Y-81941523D01*
X88368095Y-81979619D01*
X88406190Y-82017714D01*
X88444285Y-81979619D01*
X88368095Y-81979619D01*
X89091904Y-81636761D02*
X89130000Y-81598666D01*
X89168095Y-81522476D01*
X89168095Y-81332000D01*
X89130000Y-81255809D01*
X89091904Y-81217714D01*
X89015714Y-81179619D01*
X88939523Y-81179619D01*
X88825238Y-81217714D01*
X88368095Y-81674857D01*
X88368095Y-81179619D01*
X89091904Y-80874857D02*
X89130000Y-80836761D01*
X89168095Y-80760571D01*
X89168095Y-80570095D01*
X89130000Y-80493904D01*
X89091904Y-80455809D01*
X89015714Y-80417714D01*
X88939523Y-80417714D01*
X88825238Y-80455809D01*
X88368095Y-80912952D01*
X88368095Y-80417714D01*
X85848095Y-83541523D02*
X86648095Y-83541523D01*
X86648095Y-83236761D01*
X86610000Y-83160571D01*
X86571904Y-83122476D01*
X86495714Y-83084380D01*
X86381428Y-83084380D01*
X86305238Y-83122476D01*
X86267142Y-83160571D01*
X86229047Y-83236761D01*
X86229047Y-83541523D01*
X86648095Y-82589142D02*
X86648095Y-82512952D01*
X86610000Y-82436761D01*
X86571904Y-82398666D01*
X86495714Y-82360571D01*
X86343333Y-82322476D01*
X86152857Y-82322476D01*
X86000476Y-82360571D01*
X85924285Y-82398666D01*
X85886190Y-82436761D01*
X85848095Y-82512952D01*
X85848095Y-82589142D01*
X85886190Y-82665333D01*
X85924285Y-82703428D01*
X86000476Y-82741523D01*
X86152857Y-82779619D01*
X86343333Y-82779619D01*
X86495714Y-82741523D01*
X86571904Y-82703428D01*
X86610000Y-82665333D01*
X86648095Y-82589142D01*
X85924285Y-81979619D02*
X85886190Y-81941523D01*
X85848095Y-81979619D01*
X85886190Y-82017714D01*
X85924285Y-81979619D01*
X85848095Y-81979619D01*
X86571904Y-81636761D02*
X86610000Y-81598666D01*
X86648095Y-81522476D01*
X86648095Y-81332000D01*
X86610000Y-81255809D01*
X86571904Y-81217714D01*
X86495714Y-81179619D01*
X86419523Y-81179619D01*
X86305238Y-81217714D01*
X85848095Y-81674857D01*
X85848095Y-81179619D01*
X85848095Y-80417714D02*
X85848095Y-80874857D01*
X85848095Y-80646285D02*
X86648095Y-80646285D01*
X86533809Y-80722476D01*
X86457619Y-80798666D01*
X86419523Y-80874857D01*
X63881904Y-51918476D02*
X63081904Y-51918476D01*
X63081904Y-52223238D01*
X63120000Y-52299428D01*
X63158095Y-52337523D01*
X63234285Y-52375619D01*
X63348571Y-52375619D01*
X63424761Y-52337523D01*
X63462857Y-52299428D01*
X63500952Y-52223238D01*
X63500952Y-51918476D01*
X63081904Y-52870857D02*
X63081904Y-52947047D01*
X63120000Y-53023238D01*
X63158095Y-53061333D01*
X63234285Y-53099428D01*
X63386666Y-53137523D01*
X63577142Y-53137523D01*
X63729523Y-53099428D01*
X63805714Y-53061333D01*
X63843809Y-53023238D01*
X63881904Y-52947047D01*
X63881904Y-52870857D01*
X63843809Y-52794666D01*
X63805714Y-52756571D01*
X63729523Y-52718476D01*
X63577142Y-52680380D01*
X63386666Y-52680380D01*
X63234285Y-52718476D01*
X63158095Y-52756571D01*
X63120000Y-52794666D01*
X63081904Y-52870857D01*
X63805714Y-53480380D02*
X63843809Y-53518476D01*
X63881904Y-53480380D01*
X63843809Y-53442285D01*
X63805714Y-53480380D01*
X63881904Y-53480380D01*
X63081904Y-54013714D02*
X63081904Y-54089904D01*
X63120000Y-54166095D01*
X63158095Y-54204190D01*
X63234285Y-54242285D01*
X63386666Y-54280380D01*
X63577142Y-54280380D01*
X63729523Y-54242285D01*
X63805714Y-54204190D01*
X63843809Y-54166095D01*
X63881904Y-54089904D01*
X63881904Y-54013714D01*
X63843809Y-53937523D01*
X63805714Y-53899428D01*
X63729523Y-53861333D01*
X63577142Y-53823238D01*
X63386666Y-53823238D01*
X63234285Y-53861333D01*
X63158095Y-53899428D01*
X63120000Y-53937523D01*
X63081904Y-54013714D01*
X63081904Y-54966095D02*
X63081904Y-54813714D01*
X63120000Y-54737523D01*
X63158095Y-54699428D01*
X63272380Y-54623238D01*
X63424761Y-54585142D01*
X63729523Y-54585142D01*
X63805714Y-54623238D01*
X63843809Y-54661333D01*
X63881904Y-54737523D01*
X63881904Y-54889904D01*
X63843809Y-54966095D01*
X63805714Y-55004190D01*
X63729523Y-55042285D01*
X63539047Y-55042285D01*
X63462857Y-55004190D01*
X63424761Y-54966095D01*
X63386666Y-54889904D01*
X63386666Y-54737523D01*
X63424761Y-54661333D01*
X63462857Y-54623238D01*
X63539047Y-54585142D01*
X63043809Y-55956571D02*
X64072380Y-55270857D01*
X63653333Y-56185142D02*
X63653333Y-56566095D01*
X63881904Y-56108952D02*
X63081904Y-56375619D01*
X63881904Y-56642285D01*
X63881904Y-56908952D02*
X63081904Y-56908952D01*
X63881904Y-57289904D02*
X63081904Y-57289904D01*
X63881904Y-57747047D01*
X63081904Y-57747047D01*
X63158095Y-58089904D02*
X63120000Y-58127999D01*
X63081904Y-58204190D01*
X63081904Y-58394666D01*
X63120000Y-58470857D01*
X63158095Y-58508952D01*
X63234285Y-58547047D01*
X63310476Y-58547047D01*
X63424761Y-58508952D01*
X63881904Y-58051809D01*
X63881904Y-58547047D01*
X83418095Y-83541523D02*
X84218095Y-83541523D01*
X84218095Y-83236761D01*
X84180000Y-83160571D01*
X84141904Y-83122476D01*
X84065714Y-83084380D01*
X83951428Y-83084380D01*
X83875238Y-83122476D01*
X83837142Y-83160571D01*
X83799047Y-83236761D01*
X83799047Y-83541523D01*
X84218095Y-82589142D02*
X84218095Y-82512952D01*
X84180000Y-82436761D01*
X84141904Y-82398666D01*
X84065714Y-82360571D01*
X83913333Y-82322476D01*
X83722857Y-82322476D01*
X83570476Y-82360571D01*
X83494285Y-82398666D01*
X83456190Y-82436761D01*
X83418095Y-82512952D01*
X83418095Y-82589142D01*
X83456190Y-82665333D01*
X83494285Y-82703428D01*
X83570476Y-82741523D01*
X83722857Y-82779619D01*
X83913333Y-82779619D01*
X84065714Y-82741523D01*
X84141904Y-82703428D01*
X84180000Y-82665333D01*
X84218095Y-82589142D01*
X83494285Y-81979619D02*
X83456190Y-81941523D01*
X83418095Y-81979619D01*
X83456190Y-82017714D01*
X83494285Y-81979619D01*
X83418095Y-81979619D01*
X84141904Y-81636761D02*
X84180000Y-81598666D01*
X84218095Y-81522476D01*
X84218095Y-81332000D01*
X84180000Y-81255809D01*
X84141904Y-81217714D01*
X84065714Y-81179619D01*
X83989523Y-81179619D01*
X83875238Y-81217714D01*
X83418095Y-81674857D01*
X83418095Y-81179619D01*
X84218095Y-80684380D02*
X84218095Y-80608190D01*
X84180000Y-80532000D01*
X84141904Y-80493904D01*
X84065714Y-80455809D01*
X83913333Y-80417714D01*
X83722857Y-80417714D01*
X83570476Y-80455809D01*
X83494285Y-80493904D01*
X83456190Y-80532000D01*
X83418095Y-80608190D01*
X83418095Y-80684380D01*
X83456190Y-80760571D01*
X83494285Y-80798666D01*
X83570476Y-80836761D01*
X83722857Y-80874857D01*
X83913333Y-80874857D01*
X84065714Y-80836761D01*
X84141904Y-80798666D01*
X84180000Y-80760571D01*
X84218095Y-80684380D01*
X89321904Y-51878476D02*
X88521904Y-51878476D01*
X88521904Y-52183238D01*
X88560000Y-52259428D01*
X88598095Y-52297523D01*
X88674285Y-52335619D01*
X88788571Y-52335619D01*
X88864761Y-52297523D01*
X88902857Y-52259428D01*
X88940952Y-52183238D01*
X88940952Y-51878476D01*
X89321904Y-53097523D02*
X89321904Y-52640380D01*
X89321904Y-52868952D02*
X88521904Y-52868952D01*
X88636190Y-52792761D01*
X88712380Y-52716571D01*
X88750476Y-52640380D01*
X89245714Y-53440380D02*
X89283809Y-53478476D01*
X89321904Y-53440380D01*
X89283809Y-53402285D01*
X89245714Y-53440380D01*
X89321904Y-53440380D01*
X89321904Y-54240380D02*
X89321904Y-53783238D01*
X89321904Y-54011809D02*
X88521904Y-54011809D01*
X88636190Y-53935619D01*
X88712380Y-53859428D01*
X88750476Y-53783238D01*
X88788571Y-54926095D02*
X89321904Y-54926095D01*
X88483809Y-54735619D02*
X89055238Y-54545142D01*
X89055238Y-55040380D01*
X102081904Y-51698476D02*
X101281904Y-51698476D01*
X101281904Y-52003238D01*
X101320000Y-52079428D01*
X101358095Y-52117523D01*
X101434285Y-52155619D01*
X101548571Y-52155619D01*
X101624761Y-52117523D01*
X101662857Y-52079428D01*
X101700952Y-52003238D01*
X101700952Y-51698476D01*
X101281904Y-52650857D02*
X101281904Y-52727047D01*
X101320000Y-52803238D01*
X101358095Y-52841333D01*
X101434285Y-52879428D01*
X101586666Y-52917523D01*
X101777142Y-52917523D01*
X101929523Y-52879428D01*
X102005714Y-52841333D01*
X102043809Y-52803238D01*
X102081904Y-52727047D01*
X102081904Y-52650857D01*
X102043809Y-52574666D01*
X102005714Y-52536571D01*
X101929523Y-52498476D01*
X101777142Y-52460380D01*
X101586666Y-52460380D01*
X101434285Y-52498476D01*
X101358095Y-52536571D01*
X101320000Y-52574666D01*
X101281904Y-52650857D01*
X102005714Y-53260380D02*
X102043809Y-53298476D01*
X102081904Y-53260380D01*
X102043809Y-53222285D01*
X102005714Y-53260380D01*
X102081904Y-53260380D01*
X101281904Y-53565142D02*
X101281904Y-54060380D01*
X101586666Y-53793714D01*
X101586666Y-53908000D01*
X101624761Y-53984190D01*
X101662857Y-54022285D01*
X101739047Y-54060380D01*
X101929523Y-54060380D01*
X102005714Y-54022285D01*
X102043809Y-53984190D01*
X102081904Y-53908000D01*
X102081904Y-53679428D01*
X102043809Y-53603238D01*
X102005714Y-53565142D01*
X101281904Y-54555619D02*
X101281904Y-54631809D01*
X101320000Y-54708000D01*
X101358095Y-54746095D01*
X101434285Y-54784190D01*
X101586666Y-54822285D01*
X101777142Y-54822285D01*
X101929523Y-54784190D01*
X102005714Y-54746095D01*
X102043809Y-54708000D01*
X102081904Y-54631809D01*
X102081904Y-54555619D01*
X102043809Y-54479428D01*
X102005714Y-54441333D01*
X101929523Y-54403238D01*
X101777142Y-54365142D01*
X101586666Y-54365142D01*
X101434285Y-54403238D01*
X101358095Y-54441333D01*
X101320000Y-54479428D01*
X101281904Y-54555619D01*
X91931904Y-51818476D02*
X91131904Y-51818476D01*
X91131904Y-52123238D01*
X91170000Y-52199428D01*
X91208095Y-52237523D01*
X91284285Y-52275619D01*
X91398571Y-52275619D01*
X91474761Y-52237523D01*
X91512857Y-52199428D01*
X91550952Y-52123238D01*
X91550952Y-51818476D01*
X91931904Y-53037523D02*
X91931904Y-52580380D01*
X91931904Y-52808952D02*
X91131904Y-52808952D01*
X91246190Y-52732761D01*
X91322380Y-52656571D01*
X91360476Y-52580380D01*
X91855714Y-53380380D02*
X91893809Y-53418476D01*
X91931904Y-53380380D01*
X91893809Y-53342285D01*
X91855714Y-53380380D01*
X91931904Y-53380380D01*
X91931904Y-54180380D02*
X91931904Y-53723238D01*
X91931904Y-53951809D02*
X91131904Y-53951809D01*
X91246190Y-53875619D01*
X91322380Y-53799428D01*
X91360476Y-53723238D01*
X91131904Y-54447047D02*
X91131904Y-54942285D01*
X91436666Y-54675619D01*
X91436666Y-54789904D01*
X91474761Y-54866095D01*
X91512857Y-54904190D01*
X91589047Y-54942285D01*
X91779523Y-54942285D01*
X91855714Y-54904190D01*
X91893809Y-54866095D01*
X91931904Y-54789904D01*
X91931904Y-54561333D01*
X91893809Y-54485142D01*
X91855714Y-54447047D01*
X81681904Y-51848476D02*
X80881904Y-51848476D01*
X80881904Y-52153238D01*
X80920000Y-52229428D01*
X80958095Y-52267523D01*
X81034285Y-52305619D01*
X81148571Y-52305619D01*
X81224761Y-52267523D01*
X81262857Y-52229428D01*
X81300952Y-52153238D01*
X81300952Y-51848476D01*
X81681904Y-53067523D02*
X81681904Y-52610380D01*
X81681904Y-52838952D02*
X80881904Y-52838952D01*
X80996190Y-52762761D01*
X81072380Y-52686571D01*
X81110476Y-52610380D01*
X81605714Y-53410380D02*
X81643809Y-53448476D01*
X81681904Y-53410380D01*
X81643809Y-53372285D01*
X81605714Y-53410380D01*
X81681904Y-53410380D01*
X80881904Y-53943714D02*
X80881904Y-54019904D01*
X80920000Y-54096095D01*
X80958095Y-54134190D01*
X81034285Y-54172285D01*
X81186666Y-54210380D01*
X81377142Y-54210380D01*
X81529523Y-54172285D01*
X81605714Y-54134190D01*
X81643809Y-54096095D01*
X81681904Y-54019904D01*
X81681904Y-53943714D01*
X81643809Y-53867523D01*
X81605714Y-53829428D01*
X81529523Y-53791333D01*
X81377142Y-53753238D01*
X81186666Y-53753238D01*
X81034285Y-53791333D01*
X80958095Y-53829428D01*
X80920000Y-53867523D01*
X80881904Y-53943714D01*
X81681904Y-54972285D02*
X81681904Y-54515142D01*
X81681904Y-54743714D02*
X80881904Y-54743714D01*
X80996190Y-54667523D01*
X81072380Y-54591333D01*
X81110476Y-54515142D01*
X55438095Y-83541523D02*
X56238095Y-83541523D01*
X56238095Y-83236761D01*
X56200000Y-83160571D01*
X56161904Y-83122476D01*
X56085714Y-83084380D01*
X55971428Y-83084380D01*
X55895238Y-83122476D01*
X55857142Y-83160571D01*
X55819047Y-83236761D01*
X55819047Y-83541523D01*
X56238095Y-82589142D02*
X56238095Y-82512952D01*
X56200000Y-82436761D01*
X56161904Y-82398666D01*
X56085714Y-82360571D01*
X55933333Y-82322476D01*
X55742857Y-82322476D01*
X55590476Y-82360571D01*
X55514285Y-82398666D01*
X55476190Y-82436761D01*
X55438095Y-82512952D01*
X55438095Y-82589142D01*
X55476190Y-82665333D01*
X55514285Y-82703428D01*
X55590476Y-82741523D01*
X55742857Y-82779619D01*
X55933333Y-82779619D01*
X56085714Y-82741523D01*
X56161904Y-82703428D01*
X56200000Y-82665333D01*
X56238095Y-82589142D01*
X55514285Y-81979619D02*
X55476190Y-81941523D01*
X55438095Y-81979619D01*
X55476190Y-82017714D01*
X55514285Y-81979619D01*
X55438095Y-81979619D01*
X56238095Y-81446285D02*
X56238095Y-81370095D01*
X56200000Y-81293904D01*
X56161904Y-81255809D01*
X56085714Y-81217714D01*
X55933333Y-81179619D01*
X55742857Y-81179619D01*
X55590476Y-81217714D01*
X55514285Y-81255809D01*
X55476190Y-81293904D01*
X55438095Y-81370095D01*
X55438095Y-81446285D01*
X55476190Y-81522476D01*
X55514285Y-81560571D01*
X55590476Y-81598666D01*
X55742857Y-81636761D01*
X55933333Y-81636761D01*
X56085714Y-81598666D01*
X56161904Y-81560571D01*
X56200000Y-81522476D01*
X56238095Y-81446285D01*
X56238095Y-80912952D02*
X56238095Y-80417714D01*
X55933333Y-80684380D01*
X55933333Y-80570095D01*
X55895238Y-80493904D01*
X55857142Y-80455809D01*
X55780952Y-80417714D01*
X55590476Y-80417714D01*
X55514285Y-80455809D01*
X55476190Y-80493904D01*
X55438095Y-80570095D01*
X55438095Y-80798666D01*
X55476190Y-80874857D01*
X55514285Y-80912952D01*
X56276190Y-79503428D02*
X55247619Y-80189142D01*
X55438095Y-79236761D02*
X56238095Y-79236761D01*
X55438095Y-78779619D01*
X56238095Y-78779619D01*
X55857142Y-78132000D02*
X55857142Y-78398666D01*
X55438095Y-78398666D02*
X56238095Y-78398666D01*
X56238095Y-78017714D01*
X55514285Y-77255809D02*
X55476190Y-77293904D01*
X55438095Y-77408190D01*
X55438095Y-77484380D01*
X55476190Y-77598666D01*
X55552380Y-77674857D01*
X55628571Y-77712952D01*
X55780952Y-77751047D01*
X55895238Y-77751047D01*
X56047619Y-77712952D01*
X56123809Y-77674857D01*
X56200000Y-77598666D01*
X56238095Y-77484380D01*
X56238095Y-77408190D01*
X56200000Y-77293904D01*
X56161904Y-77255809D01*
X56161904Y-76951047D02*
X56200000Y-76912952D01*
X56238095Y-76836761D01*
X56238095Y-76646285D01*
X56200000Y-76570095D01*
X56161904Y-76532000D01*
X56085714Y-76493904D01*
X56009523Y-76493904D01*
X55895238Y-76532000D01*
X55438095Y-76989142D01*
X55438095Y-76493904D01*
X68951904Y-51978476D02*
X68151904Y-51978476D01*
X68151904Y-52283238D01*
X68190000Y-52359428D01*
X68228095Y-52397523D01*
X68304285Y-52435619D01*
X68418571Y-52435619D01*
X68494761Y-52397523D01*
X68532857Y-52359428D01*
X68570952Y-52283238D01*
X68570952Y-51978476D01*
X68151904Y-52930857D02*
X68151904Y-53007047D01*
X68190000Y-53083238D01*
X68228095Y-53121333D01*
X68304285Y-53159428D01*
X68456666Y-53197523D01*
X68647142Y-53197523D01*
X68799523Y-53159428D01*
X68875714Y-53121333D01*
X68913809Y-53083238D01*
X68951904Y-53007047D01*
X68951904Y-52930857D01*
X68913809Y-52854666D01*
X68875714Y-52816571D01*
X68799523Y-52778476D01*
X68647142Y-52740380D01*
X68456666Y-52740380D01*
X68304285Y-52778476D01*
X68228095Y-52816571D01*
X68190000Y-52854666D01*
X68151904Y-52930857D01*
X68875714Y-53540380D02*
X68913809Y-53578476D01*
X68951904Y-53540380D01*
X68913809Y-53502285D01*
X68875714Y-53540380D01*
X68951904Y-53540380D01*
X68151904Y-54073714D02*
X68151904Y-54149904D01*
X68190000Y-54226095D01*
X68228095Y-54264190D01*
X68304285Y-54302285D01*
X68456666Y-54340380D01*
X68647142Y-54340380D01*
X68799523Y-54302285D01*
X68875714Y-54264190D01*
X68913809Y-54226095D01*
X68951904Y-54149904D01*
X68951904Y-54073714D01*
X68913809Y-53997523D01*
X68875714Y-53959428D01*
X68799523Y-53921333D01*
X68647142Y-53883238D01*
X68456666Y-53883238D01*
X68304285Y-53921333D01*
X68228095Y-53959428D01*
X68190000Y-53997523D01*
X68151904Y-54073714D01*
X68151904Y-55064190D02*
X68151904Y-54683238D01*
X68532857Y-54645142D01*
X68494761Y-54683238D01*
X68456666Y-54759428D01*
X68456666Y-54949904D01*
X68494761Y-55026095D01*
X68532857Y-55064190D01*
X68609047Y-55102285D01*
X68799523Y-55102285D01*
X68875714Y-55064190D01*
X68913809Y-55026095D01*
X68951904Y-54949904D01*
X68951904Y-54759428D01*
X68913809Y-54683238D01*
X68875714Y-54645142D01*
X68113809Y-56016571D02*
X69142380Y-55330857D01*
X68723333Y-56245142D02*
X68723333Y-56626095D01*
X68951904Y-56168952D02*
X68151904Y-56435619D01*
X68951904Y-56702285D01*
X68951904Y-56968952D02*
X68151904Y-56968952D01*
X68951904Y-57349904D02*
X68151904Y-57349904D01*
X68951904Y-57807047D01*
X68151904Y-57807047D01*
X68951904Y-58607047D02*
X68951904Y-58149904D01*
X68951904Y-58378476D02*
X68151904Y-58378476D01*
X68266190Y-58302285D01*
X68342380Y-58226095D01*
X68380476Y-58149904D01*
X84211904Y-51848476D02*
X83411904Y-51848476D01*
X83411904Y-52153238D01*
X83450000Y-52229428D01*
X83488095Y-52267523D01*
X83564285Y-52305619D01*
X83678571Y-52305619D01*
X83754761Y-52267523D01*
X83792857Y-52229428D01*
X83830952Y-52153238D01*
X83830952Y-51848476D01*
X84211904Y-53067523D02*
X84211904Y-52610380D01*
X84211904Y-52838952D02*
X83411904Y-52838952D01*
X83526190Y-52762761D01*
X83602380Y-52686571D01*
X83640476Y-52610380D01*
X84135714Y-53410380D02*
X84173809Y-53448476D01*
X84211904Y-53410380D01*
X84173809Y-53372285D01*
X84135714Y-53410380D01*
X84211904Y-53410380D01*
X83411904Y-53943714D02*
X83411904Y-54019904D01*
X83450000Y-54096095D01*
X83488095Y-54134190D01*
X83564285Y-54172285D01*
X83716666Y-54210380D01*
X83907142Y-54210380D01*
X84059523Y-54172285D01*
X84135714Y-54134190D01*
X84173809Y-54096095D01*
X84211904Y-54019904D01*
X84211904Y-53943714D01*
X84173809Y-53867523D01*
X84135714Y-53829428D01*
X84059523Y-53791333D01*
X83907142Y-53753238D01*
X83716666Y-53753238D01*
X83564285Y-53791333D01*
X83488095Y-53829428D01*
X83450000Y-53867523D01*
X83411904Y-53943714D01*
X83411904Y-54705619D02*
X83411904Y-54781809D01*
X83450000Y-54858000D01*
X83488095Y-54896095D01*
X83564285Y-54934190D01*
X83716666Y-54972285D01*
X83907142Y-54972285D01*
X84059523Y-54934190D01*
X84135714Y-54896095D01*
X84173809Y-54858000D01*
X84211904Y-54781809D01*
X84211904Y-54705619D01*
X84173809Y-54629428D01*
X84135714Y-54591333D01*
X84059523Y-54553238D01*
X83907142Y-54515142D01*
X83716666Y-54515142D01*
X83564285Y-54553238D01*
X83488095Y-54591333D01*
X83450000Y-54629428D01*
X83411904Y-54705619D01*
X78251904Y-51654190D02*
X79051904Y-51920857D01*
X78251904Y-52187523D01*
X79051904Y-52454190D02*
X78251904Y-52454190D01*
X78251904Y-52644666D01*
X78290000Y-52758952D01*
X78366190Y-52835142D01*
X78442380Y-52873238D01*
X78594761Y-52911333D01*
X78709047Y-52911333D01*
X78861428Y-52873238D01*
X78937619Y-52835142D01*
X79013809Y-52758952D01*
X79051904Y-52644666D01*
X79051904Y-52454190D01*
X79051904Y-53254190D02*
X78251904Y-53254190D01*
X78251904Y-53444666D01*
X78290000Y-53558952D01*
X78366190Y-53635142D01*
X78442380Y-53673238D01*
X78594761Y-53711333D01*
X78709047Y-53711333D01*
X78861428Y-53673238D01*
X78937619Y-53635142D01*
X79013809Y-53558952D01*
X79051904Y-53444666D01*
X79051904Y-53254190D01*
X79051904Y-54054190D02*
X78251904Y-54054190D01*
X78632857Y-54054190D02*
X78632857Y-54511333D01*
X79051904Y-54511333D02*
X78251904Y-54511333D01*
X79128095Y-54701809D02*
X79128095Y-55311333D01*
X78632857Y-55501809D02*
X78632857Y-55768476D01*
X79051904Y-55882761D02*
X79051904Y-55501809D01*
X78251904Y-55501809D01*
X78251904Y-55882761D01*
X78251904Y-56149428D02*
X79051904Y-56682761D01*
X78251904Y-56682761D02*
X79051904Y-56149428D01*
X78251904Y-56873238D02*
X78251904Y-57330380D01*
X79051904Y-57101809D02*
X78251904Y-57101809D01*
X47920000Y-52123428D02*
X47881904Y-52047238D01*
X47881904Y-51932952D01*
X47920000Y-51818666D01*
X47996190Y-51742476D01*
X48072380Y-51704380D01*
X48224761Y-51666285D01*
X48339047Y-51666285D01*
X48491428Y-51704380D01*
X48567619Y-51742476D01*
X48643809Y-51818666D01*
X48681904Y-51932952D01*
X48681904Y-52009142D01*
X48643809Y-52123428D01*
X48605714Y-52161523D01*
X48339047Y-52161523D01*
X48339047Y-52009142D01*
X48681904Y-52504380D02*
X47881904Y-52504380D01*
X48681904Y-52961523D01*
X47881904Y-52961523D01*
X48681904Y-53342476D02*
X47881904Y-53342476D01*
X47881904Y-53532952D01*
X47920000Y-53647238D01*
X47996190Y-53723428D01*
X48072380Y-53761523D01*
X48224761Y-53799619D01*
X48339047Y-53799619D01*
X48491428Y-53761523D01*
X48567619Y-53723428D01*
X48643809Y-53647238D01*
X48681904Y-53532952D01*
X48681904Y-53342476D01*
X93588095Y-83541523D02*
X94388095Y-83541523D01*
X94388095Y-83236761D01*
X94350000Y-83160571D01*
X94311904Y-83122476D01*
X94235714Y-83084380D01*
X94121428Y-83084380D01*
X94045238Y-83122476D01*
X94007142Y-83160571D01*
X93969047Y-83236761D01*
X93969047Y-83541523D01*
X94388095Y-82589142D02*
X94388095Y-82512952D01*
X94350000Y-82436761D01*
X94311904Y-82398666D01*
X94235714Y-82360571D01*
X94083333Y-82322476D01*
X93892857Y-82322476D01*
X93740476Y-82360571D01*
X93664285Y-82398666D01*
X93626190Y-82436761D01*
X93588095Y-82512952D01*
X93588095Y-82589142D01*
X93626190Y-82665333D01*
X93664285Y-82703428D01*
X93740476Y-82741523D01*
X93892857Y-82779619D01*
X94083333Y-82779619D01*
X94235714Y-82741523D01*
X94311904Y-82703428D01*
X94350000Y-82665333D01*
X94388095Y-82589142D01*
X93664285Y-81979619D02*
X93626190Y-81941523D01*
X93588095Y-81979619D01*
X93626190Y-82017714D01*
X93664285Y-81979619D01*
X93588095Y-81979619D01*
X94311904Y-81636761D02*
X94350000Y-81598666D01*
X94388095Y-81522476D01*
X94388095Y-81332000D01*
X94350000Y-81255809D01*
X94311904Y-81217714D01*
X94235714Y-81179619D01*
X94159523Y-81179619D01*
X94045238Y-81217714D01*
X93588095Y-81674857D01*
X93588095Y-81179619D01*
X94121428Y-80493904D02*
X93588095Y-80493904D01*
X94426190Y-80684380D02*
X93854761Y-80874857D01*
X93854761Y-80379619D01*
X57948095Y-83541523D02*
X58748095Y-83541523D01*
X58748095Y-83236761D01*
X58710000Y-83160571D01*
X58671904Y-83122476D01*
X58595714Y-83084380D01*
X58481428Y-83084380D01*
X58405238Y-83122476D01*
X58367142Y-83160571D01*
X58329047Y-83236761D01*
X58329047Y-83541523D01*
X57948095Y-82322476D02*
X57948095Y-82779619D01*
X57948095Y-82551047D02*
X58748095Y-82551047D01*
X58633809Y-82627238D01*
X58557619Y-82703428D01*
X58519523Y-82779619D01*
X58024285Y-81979619D02*
X57986190Y-81941523D01*
X57948095Y-81979619D01*
X57986190Y-82017714D01*
X58024285Y-81979619D01*
X57948095Y-81979619D01*
X58748095Y-81446285D02*
X58748095Y-81370095D01*
X58710000Y-81293904D01*
X58671904Y-81255809D01*
X58595714Y-81217714D01*
X58443333Y-81179619D01*
X58252857Y-81179619D01*
X58100476Y-81217714D01*
X58024285Y-81255809D01*
X57986190Y-81293904D01*
X57948095Y-81370095D01*
X57948095Y-81446285D01*
X57986190Y-81522476D01*
X58024285Y-81560571D01*
X58100476Y-81598666D01*
X58252857Y-81636761D01*
X58443333Y-81636761D01*
X58595714Y-81598666D01*
X58671904Y-81560571D01*
X58710000Y-81522476D01*
X58748095Y-81446285D01*
X58671904Y-80874857D02*
X58710000Y-80836761D01*
X58748095Y-80760571D01*
X58748095Y-80570095D01*
X58710000Y-80493904D01*
X58671904Y-80455809D01*
X58595714Y-80417714D01*
X58519523Y-80417714D01*
X58405238Y-80455809D01*
X57948095Y-80912952D01*
X57948095Y-80417714D01*
X58786190Y-79503428D02*
X57757619Y-80189142D01*
X57948095Y-79236761D02*
X58748095Y-79236761D01*
X58671904Y-78893904D02*
X58710000Y-78855809D01*
X58748095Y-78779619D01*
X58748095Y-78589142D01*
X58710000Y-78512952D01*
X58671904Y-78474857D01*
X58595714Y-78436761D01*
X58519523Y-78436761D01*
X58405238Y-78474857D01*
X57948095Y-78932000D01*
X57948095Y-78436761D01*
X58024285Y-77636761D02*
X57986190Y-77674857D01*
X57948095Y-77789142D01*
X57948095Y-77865333D01*
X57986190Y-77979619D01*
X58062380Y-78055809D01*
X58138571Y-78093904D01*
X58290952Y-78132000D01*
X58405238Y-78132000D01*
X58557619Y-78093904D01*
X58633809Y-78055809D01*
X58710000Y-77979619D01*
X58748095Y-77865333D01*
X58748095Y-77789142D01*
X58710000Y-77674857D01*
X58671904Y-77636761D01*
X47808095Y-83541523D02*
X48608095Y-83541523D01*
X48608095Y-83236761D01*
X48570000Y-83160571D01*
X48531904Y-83122476D01*
X48455714Y-83084380D01*
X48341428Y-83084380D01*
X48265238Y-83122476D01*
X48227142Y-83160571D01*
X48189047Y-83236761D01*
X48189047Y-83541523D01*
X48608095Y-82589142D02*
X48608095Y-82512952D01*
X48570000Y-82436761D01*
X48531904Y-82398666D01*
X48455714Y-82360571D01*
X48303333Y-82322476D01*
X48112857Y-82322476D01*
X47960476Y-82360571D01*
X47884285Y-82398666D01*
X47846190Y-82436761D01*
X47808095Y-82512952D01*
X47808095Y-82589142D01*
X47846190Y-82665333D01*
X47884285Y-82703428D01*
X47960476Y-82741523D01*
X48112857Y-82779619D01*
X48303333Y-82779619D01*
X48455714Y-82741523D01*
X48531904Y-82703428D01*
X48570000Y-82665333D01*
X48608095Y-82589142D01*
X47884285Y-81979619D02*
X47846190Y-81941523D01*
X47808095Y-81979619D01*
X47846190Y-82017714D01*
X47884285Y-81979619D01*
X47808095Y-81979619D01*
X48531904Y-81636761D02*
X48570000Y-81598666D01*
X48608095Y-81522476D01*
X48608095Y-81332000D01*
X48570000Y-81255809D01*
X48531904Y-81217714D01*
X48455714Y-81179619D01*
X48379523Y-81179619D01*
X48265238Y-81217714D01*
X47808095Y-81674857D01*
X47808095Y-81179619D01*
X48265238Y-80722476D02*
X48303333Y-80798666D01*
X48341428Y-80836761D01*
X48417619Y-80874857D01*
X48455714Y-80874857D01*
X48531904Y-80836761D01*
X48570000Y-80798666D01*
X48608095Y-80722476D01*
X48608095Y-80570095D01*
X48570000Y-80493904D01*
X48531904Y-80455809D01*
X48455714Y-80417714D01*
X48417619Y-80417714D01*
X48341428Y-80455809D01*
X48303333Y-80493904D01*
X48265238Y-80570095D01*
X48265238Y-80722476D01*
X48227142Y-80798666D01*
X48189047Y-80836761D01*
X48112857Y-80874857D01*
X47960476Y-80874857D01*
X47884285Y-80836761D01*
X47846190Y-80798666D01*
X47808095Y-80722476D01*
X47808095Y-80570095D01*
X47846190Y-80493904D01*
X47884285Y-80455809D01*
X47960476Y-80417714D01*
X48112857Y-80417714D01*
X48189047Y-80455809D01*
X48227142Y-80493904D01*
X48265238Y-80570095D01*
X48646190Y-79503428D02*
X47617619Y-80189142D01*
X48036666Y-79274857D02*
X48036666Y-78893904D01*
X47808095Y-79351047D02*
X48608095Y-79084380D01*
X47808095Y-78817714D01*
X47808095Y-78551047D02*
X48608095Y-78551047D01*
X47808095Y-78170095D02*
X48608095Y-78170095D01*
X47808095Y-77712952D01*
X48608095Y-77712952D01*
X48608095Y-77408190D02*
X48608095Y-76874857D01*
X47808095Y-77217714D01*
X74081904Y-51738476D02*
X73281904Y-51738476D01*
X73281904Y-52043238D01*
X73320000Y-52119428D01*
X73358095Y-52157523D01*
X73434285Y-52195619D01*
X73548571Y-52195619D01*
X73624761Y-52157523D01*
X73662857Y-52119428D01*
X73700952Y-52043238D01*
X73700952Y-51738476D01*
X73281904Y-52690857D02*
X73281904Y-52767047D01*
X73320000Y-52843238D01*
X73358095Y-52881333D01*
X73434285Y-52919428D01*
X73586666Y-52957523D01*
X73777142Y-52957523D01*
X73929523Y-52919428D01*
X74005714Y-52881333D01*
X74043809Y-52843238D01*
X74081904Y-52767047D01*
X74081904Y-52690857D01*
X74043809Y-52614666D01*
X74005714Y-52576571D01*
X73929523Y-52538476D01*
X73777142Y-52500380D01*
X73586666Y-52500380D01*
X73434285Y-52538476D01*
X73358095Y-52576571D01*
X73320000Y-52614666D01*
X73281904Y-52690857D01*
X74005714Y-53300380D02*
X74043809Y-53338476D01*
X74081904Y-53300380D01*
X74043809Y-53262285D01*
X74005714Y-53300380D01*
X74081904Y-53300380D01*
X73281904Y-53833714D02*
X73281904Y-53909904D01*
X73320000Y-53986095D01*
X73358095Y-54024190D01*
X73434285Y-54062285D01*
X73586666Y-54100380D01*
X73777142Y-54100380D01*
X73929523Y-54062285D01*
X74005714Y-54024190D01*
X74043809Y-53986095D01*
X74081904Y-53909904D01*
X74081904Y-53833714D01*
X74043809Y-53757523D01*
X74005714Y-53719428D01*
X73929523Y-53681333D01*
X73777142Y-53643238D01*
X73586666Y-53643238D01*
X73434285Y-53681333D01*
X73358095Y-53719428D01*
X73320000Y-53757523D01*
X73281904Y-53833714D01*
X73548571Y-54786095D02*
X74081904Y-54786095D01*
X73243809Y-54595619D02*
X73815238Y-54405142D01*
X73815238Y-54900380D01*
X73243809Y-55776571D02*
X74272380Y-55090857D01*
X73853333Y-56005142D02*
X73853333Y-56386095D01*
X74081904Y-55928952D02*
X73281904Y-56195619D01*
X74081904Y-56462285D01*
X74081904Y-56728952D02*
X73281904Y-56728952D01*
X74081904Y-57109904D02*
X73281904Y-57109904D01*
X74081904Y-57567047D01*
X73281904Y-57567047D01*
X73281904Y-58100380D02*
X73281904Y-58176571D01*
X73320000Y-58252761D01*
X73358095Y-58290857D01*
X73434285Y-58328952D01*
X73586666Y-58367047D01*
X73777142Y-58367047D01*
X73929523Y-58328952D01*
X74005714Y-58290857D01*
X74043809Y-58252761D01*
X74081904Y-58176571D01*
X74081904Y-58100380D01*
X74043809Y-58024190D01*
X74005714Y-57986095D01*
X73929523Y-57948000D01*
X73777142Y-57909904D01*
X73586666Y-57909904D01*
X73434285Y-57948000D01*
X73358095Y-57986095D01*
X73320000Y-58024190D01*
X73281904Y-58100380D01*
X78198095Y-83541523D02*
X78998095Y-83541523D01*
X78998095Y-83236761D01*
X78960000Y-83160571D01*
X78921904Y-83122476D01*
X78845714Y-83084380D01*
X78731428Y-83084380D01*
X78655238Y-83122476D01*
X78617142Y-83160571D01*
X78579047Y-83236761D01*
X78579047Y-83541523D01*
X78198095Y-82322476D02*
X78198095Y-82779619D01*
X78198095Y-82551047D02*
X78998095Y-82551047D01*
X78883809Y-82627238D01*
X78807619Y-82703428D01*
X78769523Y-82779619D01*
X78274285Y-81979619D02*
X78236190Y-81941523D01*
X78198095Y-81979619D01*
X78236190Y-82017714D01*
X78274285Y-81979619D01*
X78198095Y-81979619D01*
X78198095Y-81179619D02*
X78198095Y-81636761D01*
X78198095Y-81408190D02*
X78998095Y-81408190D01*
X78883809Y-81484380D01*
X78807619Y-81560571D01*
X78769523Y-81636761D01*
X78998095Y-80684380D02*
X78998095Y-80608190D01*
X78960000Y-80532000D01*
X78921904Y-80493904D01*
X78845714Y-80455809D01*
X78693333Y-80417714D01*
X78502857Y-80417714D01*
X78350476Y-80455809D01*
X78274285Y-80493904D01*
X78236190Y-80532000D01*
X78198095Y-80608190D01*
X78198095Y-80684380D01*
X78236190Y-80760571D01*
X78274285Y-80798666D01*
X78350476Y-80836761D01*
X78502857Y-80874857D01*
X78693333Y-80874857D01*
X78845714Y-80836761D01*
X78921904Y-80798666D01*
X78960000Y-80760571D01*
X78998095Y-80684380D01*
X50338095Y-83541523D02*
X51138095Y-83541523D01*
X51138095Y-83236761D01*
X51100000Y-83160571D01*
X51061904Y-83122476D01*
X50985714Y-83084380D01*
X50871428Y-83084380D01*
X50795238Y-83122476D01*
X50757142Y-83160571D01*
X50719047Y-83236761D01*
X50719047Y-83541523D01*
X51138095Y-82589142D02*
X51138095Y-82512952D01*
X51100000Y-82436761D01*
X51061904Y-82398666D01*
X50985714Y-82360571D01*
X50833333Y-82322476D01*
X50642857Y-82322476D01*
X50490476Y-82360571D01*
X50414285Y-82398666D01*
X50376190Y-82436761D01*
X50338095Y-82512952D01*
X50338095Y-82589142D01*
X50376190Y-82665333D01*
X50414285Y-82703428D01*
X50490476Y-82741523D01*
X50642857Y-82779619D01*
X50833333Y-82779619D01*
X50985714Y-82741523D01*
X51061904Y-82703428D01*
X51100000Y-82665333D01*
X51138095Y-82589142D01*
X50414285Y-81979619D02*
X50376190Y-81941523D01*
X50338095Y-81979619D01*
X50376190Y-82017714D01*
X50414285Y-81979619D01*
X50338095Y-81979619D01*
X51061904Y-81636761D02*
X51100000Y-81598666D01*
X51138095Y-81522476D01*
X51138095Y-81332000D01*
X51100000Y-81255809D01*
X51061904Y-81217714D01*
X50985714Y-81179619D01*
X50909523Y-81179619D01*
X50795238Y-81217714D01*
X50338095Y-81674857D01*
X50338095Y-81179619D01*
X50338095Y-80798666D02*
X50338095Y-80646285D01*
X50376190Y-80570095D01*
X50414285Y-80532000D01*
X50528571Y-80455809D01*
X50680952Y-80417714D01*
X50985714Y-80417714D01*
X51061904Y-80455809D01*
X51100000Y-80493904D01*
X51138095Y-80570095D01*
X51138095Y-80722476D01*
X51100000Y-80798666D01*
X51061904Y-80836761D01*
X50985714Y-80874857D01*
X50795238Y-80874857D01*
X50719047Y-80836761D01*
X50680952Y-80798666D01*
X50642857Y-80722476D01*
X50642857Y-80570095D01*
X50680952Y-80493904D01*
X50719047Y-80455809D01*
X50795238Y-80417714D01*
X52940000Y-52123428D02*
X52901904Y-52047238D01*
X52901904Y-51932952D01*
X52940000Y-51818666D01*
X53016190Y-51742476D01*
X53092380Y-51704380D01*
X53244761Y-51666285D01*
X53359047Y-51666285D01*
X53511428Y-51704380D01*
X53587619Y-51742476D01*
X53663809Y-51818666D01*
X53701904Y-51932952D01*
X53701904Y-52009142D01*
X53663809Y-52123428D01*
X53625714Y-52161523D01*
X53359047Y-52161523D01*
X53359047Y-52009142D01*
X53701904Y-52504380D02*
X52901904Y-52504380D01*
X53701904Y-52961523D01*
X52901904Y-52961523D01*
X53701904Y-53342476D02*
X52901904Y-53342476D01*
X52901904Y-53532952D01*
X52940000Y-53647238D01*
X53016190Y-53723428D01*
X53092380Y-53761523D01*
X53244761Y-53799619D01*
X53359047Y-53799619D01*
X53511428Y-53761523D01*
X53587619Y-53723428D01*
X53663809Y-53647238D01*
X53701904Y-53532952D01*
X53701904Y-53342476D01*
X60538095Y-83541523D02*
X61338095Y-83541523D01*
X61338095Y-83236761D01*
X61300000Y-83160571D01*
X61261904Y-83122476D01*
X61185714Y-83084380D01*
X61071428Y-83084380D01*
X60995238Y-83122476D01*
X60957142Y-83160571D01*
X60919047Y-83236761D01*
X60919047Y-83541523D01*
X60538095Y-82322476D02*
X60538095Y-82779619D01*
X60538095Y-82551047D02*
X61338095Y-82551047D01*
X61223809Y-82627238D01*
X61147619Y-82703428D01*
X61109523Y-82779619D01*
X60614285Y-81979619D02*
X60576190Y-81941523D01*
X60538095Y-81979619D01*
X60576190Y-82017714D01*
X60614285Y-81979619D01*
X60538095Y-81979619D01*
X61338095Y-81446285D02*
X61338095Y-81370095D01*
X61300000Y-81293904D01*
X61261904Y-81255809D01*
X61185714Y-81217714D01*
X61033333Y-81179619D01*
X60842857Y-81179619D01*
X60690476Y-81217714D01*
X60614285Y-81255809D01*
X60576190Y-81293904D01*
X60538095Y-81370095D01*
X60538095Y-81446285D01*
X60576190Y-81522476D01*
X60614285Y-81560571D01*
X60690476Y-81598666D01*
X60842857Y-81636761D01*
X61033333Y-81636761D01*
X61185714Y-81598666D01*
X61261904Y-81560571D01*
X61300000Y-81522476D01*
X61338095Y-81446285D01*
X61338095Y-80912952D02*
X61338095Y-80417714D01*
X61033333Y-80684380D01*
X61033333Y-80570095D01*
X60995238Y-80493904D01*
X60957142Y-80455809D01*
X60880952Y-80417714D01*
X60690476Y-80417714D01*
X60614285Y-80455809D01*
X60576190Y-80493904D01*
X60538095Y-80570095D01*
X60538095Y-80798666D01*
X60576190Y-80874857D01*
X60614285Y-80912952D01*
X61376190Y-79503428D02*
X60347619Y-80189142D01*
X60538095Y-79236761D02*
X61338095Y-79236761D01*
X61261904Y-78893904D02*
X61300000Y-78855809D01*
X61338095Y-78779619D01*
X61338095Y-78589142D01*
X61300000Y-78512952D01*
X61261904Y-78474857D01*
X61185714Y-78436761D01*
X61109523Y-78436761D01*
X60995238Y-78474857D01*
X60538095Y-78932000D01*
X60538095Y-78436761D01*
X60614285Y-77636761D02*
X60576190Y-77674857D01*
X60538095Y-77789142D01*
X60538095Y-77865333D01*
X60576190Y-77979619D01*
X60652380Y-78055809D01*
X60728571Y-78093904D01*
X60880952Y-78132000D01*
X60995238Y-78132000D01*
X61147619Y-78093904D01*
X61223809Y-78055809D01*
X61300000Y-77979619D01*
X61338095Y-77865333D01*
X61338095Y-77789142D01*
X61300000Y-77674857D01*
X61261904Y-77636761D01*
X96951904Y-51738476D02*
X96151904Y-51738476D01*
X96151904Y-52043238D01*
X96190000Y-52119428D01*
X96228095Y-52157523D01*
X96304285Y-52195619D01*
X96418571Y-52195619D01*
X96494761Y-52157523D01*
X96532857Y-52119428D01*
X96570952Y-52043238D01*
X96570952Y-51738476D01*
X96951904Y-52957523D02*
X96951904Y-52500380D01*
X96951904Y-52728952D02*
X96151904Y-52728952D01*
X96266190Y-52652761D01*
X96342380Y-52576571D01*
X96380476Y-52500380D01*
X96875714Y-53300380D02*
X96913809Y-53338476D01*
X96951904Y-53300380D01*
X96913809Y-53262285D01*
X96875714Y-53300380D01*
X96951904Y-53300380D01*
X96951904Y-54100380D02*
X96951904Y-53643238D01*
X96951904Y-53871809D02*
X96151904Y-53871809D01*
X96266190Y-53795619D01*
X96342380Y-53719428D01*
X96380476Y-53643238D01*
X96951904Y-54862285D02*
X96951904Y-54405142D01*
X96951904Y-54633714D02*
X96151904Y-54633714D01*
X96266190Y-54557523D01*
X96342380Y-54481333D01*
X96380476Y-54405142D01*
X96048095Y-83541523D02*
X96848095Y-83541523D01*
X96848095Y-83236761D01*
X96810000Y-83160571D01*
X96771904Y-83122476D01*
X96695714Y-83084380D01*
X96581428Y-83084380D01*
X96505238Y-83122476D01*
X96467142Y-83160571D01*
X96429047Y-83236761D01*
X96429047Y-83541523D01*
X96848095Y-82589142D02*
X96848095Y-82512952D01*
X96810000Y-82436761D01*
X96771904Y-82398666D01*
X96695714Y-82360571D01*
X96543333Y-82322476D01*
X96352857Y-82322476D01*
X96200476Y-82360571D01*
X96124285Y-82398666D01*
X96086190Y-82436761D01*
X96048095Y-82512952D01*
X96048095Y-82589142D01*
X96086190Y-82665333D01*
X96124285Y-82703428D01*
X96200476Y-82741523D01*
X96352857Y-82779619D01*
X96543333Y-82779619D01*
X96695714Y-82741523D01*
X96771904Y-82703428D01*
X96810000Y-82665333D01*
X96848095Y-82589142D01*
X96124285Y-81979619D02*
X96086190Y-81941523D01*
X96048095Y-81979619D01*
X96086190Y-82017714D01*
X96124285Y-81979619D01*
X96048095Y-81979619D01*
X96771904Y-81636761D02*
X96810000Y-81598666D01*
X96848095Y-81522476D01*
X96848095Y-81332000D01*
X96810000Y-81255809D01*
X96771904Y-81217714D01*
X96695714Y-81179619D01*
X96619523Y-81179619D01*
X96505238Y-81217714D01*
X96048095Y-81674857D01*
X96048095Y-81179619D01*
X96848095Y-80455809D02*
X96848095Y-80836761D01*
X96467142Y-80874857D01*
X96505238Y-80836761D01*
X96543333Y-80760571D01*
X96543333Y-80570095D01*
X96505238Y-80493904D01*
X96467142Y-80455809D01*
X96390952Y-80417714D01*
X96200476Y-80417714D01*
X96124285Y-80455809D01*
X96086190Y-80493904D01*
X96048095Y-80570095D01*
X96048095Y-80760571D01*
X96086190Y-80836761D01*
X96124285Y-80874857D01*
X96886190Y-79503428D02*
X95857619Y-80189142D01*
X96276666Y-79274857D02*
X96276666Y-78893904D01*
X96048095Y-79351047D02*
X96848095Y-79084380D01*
X96048095Y-78817714D01*
X96048095Y-78551047D02*
X96848095Y-78551047D01*
X96048095Y-78170095D02*
X96848095Y-78170095D01*
X96048095Y-77712952D01*
X96848095Y-77712952D01*
X96581428Y-76989142D02*
X96048095Y-76989142D01*
X96886190Y-77179619D02*
X96314761Y-77370095D01*
X96314761Y-76874857D01*
X68158095Y-83541523D02*
X68958095Y-83541523D01*
X68958095Y-83236761D01*
X68920000Y-83160571D01*
X68881904Y-83122476D01*
X68805714Y-83084380D01*
X68691428Y-83084380D01*
X68615238Y-83122476D01*
X68577142Y-83160571D01*
X68539047Y-83236761D01*
X68539047Y-83541523D01*
X68158095Y-82322476D02*
X68158095Y-82779619D01*
X68158095Y-82551047D02*
X68958095Y-82551047D01*
X68843809Y-82627238D01*
X68767619Y-82703428D01*
X68729523Y-82779619D01*
X68234285Y-81979619D02*
X68196190Y-81941523D01*
X68158095Y-81979619D01*
X68196190Y-82017714D01*
X68234285Y-81979619D01*
X68158095Y-81979619D01*
X68958095Y-81446285D02*
X68958095Y-81370095D01*
X68920000Y-81293904D01*
X68881904Y-81255809D01*
X68805714Y-81217714D01*
X68653333Y-81179619D01*
X68462857Y-81179619D01*
X68310476Y-81217714D01*
X68234285Y-81255809D01*
X68196190Y-81293904D01*
X68158095Y-81370095D01*
X68158095Y-81446285D01*
X68196190Y-81522476D01*
X68234285Y-81560571D01*
X68310476Y-81598666D01*
X68462857Y-81636761D01*
X68653333Y-81636761D01*
X68805714Y-81598666D01*
X68881904Y-81560571D01*
X68920000Y-81522476D01*
X68958095Y-81446285D01*
X68958095Y-80493904D02*
X68958095Y-80646285D01*
X68920000Y-80722476D01*
X68881904Y-80760571D01*
X68767619Y-80836761D01*
X68615238Y-80874857D01*
X68310476Y-80874857D01*
X68234285Y-80836761D01*
X68196190Y-80798666D01*
X68158095Y-80722476D01*
X68158095Y-80570095D01*
X68196190Y-80493904D01*
X68234285Y-80455809D01*
X68310476Y-80417714D01*
X68500952Y-80417714D01*
X68577142Y-80455809D01*
X68615238Y-80493904D01*
X68653333Y-80570095D01*
X68653333Y-80722476D01*
X68615238Y-80798666D01*
X68577142Y-80836761D01*
X68500952Y-80874857D01*
M02*
