%TF.GenerationSoftware,KiCad,Pcbnew,(6.0.0)*%
%TF.CreationDate,2022-01-25T13:51:39-08:00*%
%TF.ProjectId,nrf5340_qkaa_rev1_sensor,6e726635-3334-4305-9f71-6b61615f7265,rev?*%
%TF.SameCoordinates,Original*%
%TF.FileFunction,Profile,NP*%
%FSLAX46Y46*%
G04 Gerber Fmt 4.6, Leading zero omitted, Abs format (unit mm)*
G04 Created by KiCad (PCBNEW (6.0.0)) date 2022-01-25 13:51:39*
%MOMM*%
%LPD*%
G01*
G04 APERTURE LIST*
%TA.AperFunction,Profile*%
%ADD10C,0.100000*%
%TD*%
G04 APERTURE END LIST*
D10*
X71700000Y-80700000D02*
G75*
G03*
X72100000Y-81100000I399999J-1D01*
G01*
X42500000Y-47500000D02*
G75*
G03*
X40000000Y-50000000I0J-2500000D01*
G01*
X75600000Y-77900000D02*
X75600000Y-80700000D01*
X115000000Y-50000000D02*
X115000000Y-85000000D01*
X71700000Y-80700000D02*
X71700000Y-77900000D01*
X70900000Y-77900000D02*
X70900000Y-81100000D01*
X75600000Y-81900000D02*
G75*
G03*
X76400000Y-81100000I-1J800001D01*
G01*
X75200000Y-81100000D02*
X72100000Y-81100000D01*
X70900000Y-81100000D02*
G75*
G03*
X71700000Y-81900000I800001J1D01*
G01*
X40000000Y-85000000D02*
X40000000Y-50000000D01*
X42500000Y-47500000D02*
X112500000Y-47500000D01*
X112500000Y-87500000D02*
G75*
G03*
X115000000Y-85000000I0J2500000D01*
G01*
X115000000Y-50000000D02*
G75*
G03*
X112500000Y-47500000I-2500000J0D01*
G01*
X75200000Y-81100000D02*
G75*
G03*
X75600000Y-80700000I1J399999D01*
G01*
X112500000Y-87500000D02*
X42500000Y-87500000D01*
X40000000Y-85000000D02*
G75*
G03*
X42500000Y-87500000I2500000J0D01*
G01*
X76400000Y-81100000D02*
X76400000Y-77900000D01*
X71700000Y-77900000D02*
G75*
G03*
X70900000Y-77900000I-400000J0D01*
G01*
X76400000Y-77900000D02*
G75*
G03*
X75600000Y-77900000I-400000J0D01*
G01*
X71700000Y-81900000D02*
X75600000Y-81900000D01*
M02*
