%FSLAX45Y45*%
G04 Gerber Fmt 4.5, Leading zero omitted, Abs format (unit mm)*
G04 Created by KiCad (PCBNEW (6.0.0)) date 2022-01-25 13:51:41*
%MOMM*%
%LPD*%
G01*
G04 APERTURE LIST*
%TA.AperFunction,Profile*%
%ADD10C,0.100000*%
%TD*%
%ADD11C,0.200000*%
%ADD12C,0.010160*%
G04 APERTURE END LIST*
D10*
X7170000Y-8070000D02*
G75*
G03*
X7210000Y-8110000I40000J0D01*
G01*
X4250000Y-4750000D02*
G75*
G03*
X4000000Y-5000000I0J-250000D01*
G01*
X7560000Y-7790000D02*
X7560000Y-8070000D01*
X11500000Y-5000000D02*
X11500000Y-8500000D01*
X7170000Y-8070000D02*
X7170000Y-7790000D01*
X7090000Y-7790000D02*
X7090000Y-8110000D01*
X7560000Y-8190000D02*
G75*
G03*
X7640000Y-8110000I0J80000D01*
G01*
X7520000Y-8110000D02*
X7210000Y-8110000D01*
X7090000Y-8110000D02*
G75*
G03*
X7170000Y-8190000I80000J0D01*
G01*
X4000000Y-8500000D02*
X4000000Y-5000000D01*
X4250000Y-4750000D02*
X11250000Y-4750000D01*
X11250000Y-8750000D02*
G75*
G03*
X11500000Y-8500000I0J250000D01*
G01*
X11500000Y-5000000D02*
G75*
G03*
X11250000Y-4750000I-250000J0D01*
G01*
X7520000Y-8110000D02*
G75*
G03*
X7560000Y-8070000I0J40000D01*
G01*
X11250000Y-8750000D02*
X4250000Y-8750000D01*
X4000000Y-8500000D02*
G75*
G03*
X4250000Y-8750000I250000J0D01*
G01*
X7640000Y-8110000D02*
X7640000Y-7790000D01*
X7170000Y-7790000D02*
G75*
G03*
X7090000Y-7790000I-40000J0D01*
G01*
X7640000Y-7790000D02*
G75*
G03*
X7560000Y-7790000I-40000J0D01*
G01*
X7170000Y-8190000D02*
X7560000Y-8190000D01*
D11*
D12*
X9624920Y-7274920D02*
X9635080Y-7285080D01*
X9635080Y-7274920D02*
X9624920Y-7285080D01*
X9624920Y-7314920D02*
X9635080Y-7325080D01*
X9635080Y-7314920D02*
X9624920Y-7325080D01*
X9624920Y-7394920D02*
X9635080Y-7405080D01*
X9635080Y-7394920D02*
X9624920Y-7405080D01*
X9624920Y-7473920D02*
X9635080Y-7484080D01*
X9635080Y-7473920D02*
X9624920Y-7484080D01*
X9624920Y-7514920D02*
X9635080Y-7525080D01*
X9635080Y-7514920D02*
X9624920Y-7525080D01*
X9624920Y-7555920D02*
X9635080Y-7566080D01*
X9635080Y-7555920D02*
X9624920Y-7566080D01*
X9624921Y-7434920D02*
X9635081Y-7445080D01*
X9635081Y-7434920D02*
X9624921Y-7445080D01*
X9624921Y-7594920D02*
X9635081Y-7605080D01*
X9635081Y-7594920D02*
X9624921Y-7605080D01*
X9624921Y-7634920D02*
X9635081Y-7645080D01*
X9635081Y-7634920D02*
X9624921Y-7645080D01*
X9664921Y-7634920D02*
X9675081Y-7645080D01*
X9675081Y-7634920D02*
X9664921Y-7645080D01*
X9704921Y-7634920D02*
X9715081Y-7645080D01*
X9715081Y-7634920D02*
X9704921Y-7645080D01*
X9744921Y-7634920D02*
X9755081Y-7645080D01*
X9755081Y-7634920D02*
X9744921Y-7645080D01*
X9784921Y-7634920D02*
X9795081Y-7645080D01*
X9795081Y-7634920D02*
X9784921Y-7645080D01*
X9824920Y-7634920D02*
X9835080Y-7645080D01*
X9835080Y-7634920D02*
X9824920Y-7645080D01*
X9864920Y-7634920D02*
X9875080Y-7645080D01*
X9875080Y-7634920D02*
X9864920Y-7645080D01*
X9864921Y-7074921D02*
X9875081Y-7085081D01*
X9875081Y-7074921D02*
X9864921Y-7085081D01*
X9904920Y-7074920D02*
X9915080Y-7085080D01*
X9915080Y-7074920D02*
X9904920Y-7085080D01*
X9904921Y-7634920D02*
X9915081Y-7645080D01*
X9915081Y-7634920D02*
X9904921Y-7645080D01*
X9924921Y-7034921D02*
X9935081Y-7045081D01*
X9935081Y-7034921D02*
X9924921Y-7045081D01*
X9944920Y-7634920D02*
X9955080Y-7645080D01*
X9955080Y-7634920D02*
X9944920Y-7645080D01*
X9944920Y-7074921D02*
X9955080Y-7085081D01*
X9955080Y-7074921D02*
X9944920Y-7085081D01*
X9984920Y-7074921D02*
X9995080Y-7085081D01*
X9995080Y-7074921D02*
X9984920Y-7085081D01*
X9984920Y-7634920D02*
X9995080Y-7645080D01*
X9995080Y-7634920D02*
X9984920Y-7645080D01*
X10024920Y-7634920D02*
X10035080Y-7645080D01*
X10035080Y-7634920D02*
X10024920Y-7645080D01*
X10024920Y-7074921D02*
X10035080Y-7085081D01*
X10035080Y-7074921D02*
X10024920Y-7085081D01*
X10064920Y-7074921D02*
X10075080Y-7085081D01*
X10075080Y-7074921D02*
X10064920Y-7085081D01*
X10064920Y-7634920D02*
X10075080Y-7645080D01*
X10075080Y-7634920D02*
X10064920Y-7645080D01*
X10104920Y-7634920D02*
X10115080Y-7645080D01*
X10115080Y-7634920D02*
X10104920Y-7645080D01*
X10144920Y-7634920D02*
X10155080Y-7645080D01*
X10155080Y-7634920D02*
X10144920Y-7645080D01*
X10184920Y-7634920D02*
X10195080Y-7645080D01*
X10195080Y-7634920D02*
X10184920Y-7645080D01*
D11*
X4252619Y-9065476D02*
X4252619Y-8865476D01*
X4300238Y-8865476D01*
X4328810Y-8875000D01*
X4347857Y-8894048D01*
X4357381Y-8913095D01*
X4366905Y-8951190D01*
X4366905Y-8979762D01*
X4357381Y-9017857D01*
X4347857Y-9036905D01*
X4328810Y-9055952D01*
X4300238Y-9065476D01*
X4252619Y-9065476D01*
X4452619Y-9065476D02*
X4452619Y-8932143D01*
X4452619Y-8970238D02*
X4462143Y-8951190D01*
X4471667Y-8941667D01*
X4490714Y-8932143D01*
X4509762Y-8932143D01*
X4576429Y-9065476D02*
X4576429Y-8932143D01*
X4576429Y-8865476D02*
X4566905Y-8875000D01*
X4576429Y-8884524D01*
X4585952Y-8875000D01*
X4576429Y-8865476D01*
X4576429Y-8884524D01*
X4700238Y-9065476D02*
X4681190Y-9055952D01*
X4671667Y-9036905D01*
X4671667Y-8865476D01*
X4805000Y-9065476D02*
X4785952Y-9055952D01*
X4776429Y-9036905D01*
X4776429Y-8865476D01*
X5033571Y-9065476D02*
X5033571Y-8865476D01*
X5100238Y-9008333D01*
X5166905Y-8865476D01*
X5166905Y-9065476D01*
X5347857Y-9065476D02*
X5347857Y-8960714D01*
X5338333Y-8941667D01*
X5319286Y-8932143D01*
X5281190Y-8932143D01*
X5262143Y-8941667D01*
X5347857Y-9055952D02*
X5328810Y-9065476D01*
X5281190Y-9065476D01*
X5262143Y-9055952D01*
X5252619Y-9036905D01*
X5252619Y-9017857D01*
X5262143Y-8998810D01*
X5281190Y-8989286D01*
X5328810Y-8989286D01*
X5347857Y-8979762D01*
X5443095Y-8932143D02*
X5443095Y-9132143D01*
X5443095Y-8941667D02*
X5462143Y-8932143D01*
X5500238Y-8932143D01*
X5519286Y-8941667D01*
X5528810Y-8951190D01*
X5538333Y-8970238D01*
X5538333Y-9027381D01*
X5528810Y-9046429D01*
X5519286Y-9055952D01*
X5500238Y-9065476D01*
X5462143Y-9065476D01*
X5443095Y-9055952D01*
X5624048Y-9046429D02*
X5633571Y-9055952D01*
X5624048Y-9065476D01*
X5614524Y-9055952D01*
X5624048Y-9046429D01*
X5624048Y-9065476D01*
X5624048Y-8941667D02*
X5633571Y-8951190D01*
X5624048Y-8960714D01*
X5614524Y-8951190D01*
X5624048Y-8941667D01*
X5624048Y-8960714D01*
D12*
X3984840Y-9389920D02*
X3995000Y-9400080D01*
X3995000Y-9389920D02*
X3984840Y-9400080D01*
D11*
X4290714Y-9285476D02*
X4309762Y-9285476D01*
X4328810Y-9295000D01*
X4338333Y-9304524D01*
X4347857Y-9323571D01*
X4357381Y-9361667D01*
X4357381Y-9409286D01*
X4347857Y-9447381D01*
X4338333Y-9466429D01*
X4328810Y-9475952D01*
X4309762Y-9485476D01*
X4290714Y-9485476D01*
X4271667Y-9475952D01*
X4262143Y-9466429D01*
X4252619Y-9447381D01*
X4243095Y-9409286D01*
X4243095Y-9361667D01*
X4252619Y-9323571D01*
X4262143Y-9304524D01*
X4271667Y-9295000D01*
X4290714Y-9285476D01*
X4443095Y-9466429D02*
X4452619Y-9475952D01*
X4443095Y-9485476D01*
X4433571Y-9475952D01*
X4443095Y-9466429D01*
X4443095Y-9485476D01*
X4643095Y-9485476D02*
X4528810Y-9485476D01*
X4585952Y-9485476D02*
X4585952Y-9285476D01*
X4566905Y-9314048D01*
X4547857Y-9333095D01*
X4528810Y-9342619D01*
X4766905Y-9285476D02*
X4785952Y-9285476D01*
X4805000Y-9295000D01*
X4814524Y-9304524D01*
X4824048Y-9323571D01*
X4833571Y-9361667D01*
X4833571Y-9409286D01*
X4824048Y-9447381D01*
X4814524Y-9466429D01*
X4805000Y-9475952D01*
X4785952Y-9485476D01*
X4766905Y-9485476D01*
X4747857Y-9475952D01*
X4738333Y-9466429D01*
X4728810Y-9447381D01*
X4719286Y-9409286D01*
X4719286Y-9361667D01*
X4728810Y-9323571D01*
X4738333Y-9304524D01*
X4747857Y-9295000D01*
X4766905Y-9285476D01*
X4909762Y-9304524D02*
X4919286Y-9295000D01*
X4938333Y-9285476D01*
X4985952Y-9285476D01*
X5005000Y-9295000D01*
X5014524Y-9304524D01*
X5024048Y-9323571D01*
X5024048Y-9342619D01*
X5014524Y-9371190D01*
X4900238Y-9485476D01*
X5024048Y-9485476D01*
X5109762Y-9485476D02*
X5109762Y-9352143D01*
X5109762Y-9371190D02*
X5119286Y-9361667D01*
X5138333Y-9352143D01*
X5166905Y-9352143D01*
X5185952Y-9361667D01*
X5195476Y-9380714D01*
X5195476Y-9485476D01*
X5195476Y-9380714D02*
X5205000Y-9361667D01*
X5224048Y-9352143D01*
X5252619Y-9352143D01*
X5271667Y-9361667D01*
X5281190Y-9380714D01*
X5281190Y-9485476D01*
X5376429Y-9485476D02*
X5376429Y-9352143D01*
X5376429Y-9371190D02*
X5385952Y-9361667D01*
X5405000Y-9352143D01*
X5433571Y-9352143D01*
X5452619Y-9361667D01*
X5462143Y-9380714D01*
X5462143Y-9485476D01*
X5462143Y-9380714D02*
X5471667Y-9361667D01*
X5490714Y-9352143D01*
X5519286Y-9352143D01*
X5538333Y-9361667D01*
X5547857Y-9380714D01*
X5547857Y-9485476D01*
X5938333Y-9275952D02*
X5766905Y-9533095D01*
X6195476Y-9285476D02*
X6214524Y-9285476D01*
X6233571Y-9295000D01*
X6243095Y-9304524D01*
X6252619Y-9323571D01*
X6262143Y-9361667D01*
X6262143Y-9409286D01*
X6252619Y-9447381D01*
X6243095Y-9466429D01*
X6233571Y-9475952D01*
X6214524Y-9485476D01*
X6195476Y-9485476D01*
X6176428Y-9475952D01*
X6166905Y-9466429D01*
X6157381Y-9447381D01*
X6147857Y-9409286D01*
X6147857Y-9361667D01*
X6157381Y-9323571D01*
X6166905Y-9304524D01*
X6176428Y-9295000D01*
X6195476Y-9285476D01*
X6347857Y-9466429D02*
X6357381Y-9475952D01*
X6347857Y-9485476D01*
X6338333Y-9475952D01*
X6347857Y-9466429D01*
X6347857Y-9485476D01*
X6481190Y-9285476D02*
X6500238Y-9285476D01*
X6519286Y-9295000D01*
X6528809Y-9304524D01*
X6538333Y-9323571D01*
X6547857Y-9361667D01*
X6547857Y-9409286D01*
X6538333Y-9447381D01*
X6528809Y-9466429D01*
X6519286Y-9475952D01*
X6500238Y-9485476D01*
X6481190Y-9485476D01*
X6462143Y-9475952D01*
X6452619Y-9466429D01*
X6443095Y-9447381D01*
X6433571Y-9409286D01*
X6433571Y-9361667D01*
X6443095Y-9323571D01*
X6452619Y-9304524D01*
X6462143Y-9295000D01*
X6481190Y-9285476D01*
X6671667Y-9285476D02*
X6690714Y-9285476D01*
X6709762Y-9295000D01*
X6719286Y-9304524D01*
X6728809Y-9323571D01*
X6738333Y-9361667D01*
X6738333Y-9409286D01*
X6728809Y-9447381D01*
X6719286Y-9466429D01*
X6709762Y-9475952D01*
X6690714Y-9485476D01*
X6671667Y-9485476D01*
X6652619Y-9475952D01*
X6643095Y-9466429D01*
X6633571Y-9447381D01*
X6624048Y-9409286D01*
X6624048Y-9361667D01*
X6633571Y-9323571D01*
X6643095Y-9304524D01*
X6652619Y-9295000D01*
X6671667Y-9285476D01*
X6909762Y-9352143D02*
X6909762Y-9485476D01*
X6862143Y-9275952D02*
X6814524Y-9418810D01*
X6938333Y-9418810D01*
X7052619Y-9285476D02*
X7071667Y-9285476D01*
X7090714Y-9295000D01*
X7100238Y-9304524D01*
X7109762Y-9323571D01*
X7119286Y-9361667D01*
X7119286Y-9409286D01*
X7109762Y-9447381D01*
X7100238Y-9466429D01*
X7090714Y-9475952D01*
X7071667Y-9485476D01*
X7052619Y-9485476D01*
X7033571Y-9475952D01*
X7024048Y-9466429D01*
X7014524Y-9447381D01*
X7005000Y-9409286D01*
X7005000Y-9361667D01*
X7014524Y-9323571D01*
X7024048Y-9304524D01*
X7033571Y-9295000D01*
X7052619Y-9285476D01*
X7195476Y-9285476D02*
X7195476Y-9323571D01*
X7271667Y-9285476D02*
X7271667Y-9323571D01*
X7566905Y-9561667D02*
X7557381Y-9552143D01*
X7538333Y-9523571D01*
X7528809Y-9504524D01*
X7519286Y-9475952D01*
X7509762Y-9428333D01*
X7509762Y-9390238D01*
X7519286Y-9342619D01*
X7528809Y-9314048D01*
X7538333Y-9295000D01*
X7557381Y-9266429D01*
X7566905Y-9256905D01*
X7624048Y-9285476D02*
X7747857Y-9285476D01*
X7681190Y-9361667D01*
X7709762Y-9361667D01*
X7728809Y-9371190D01*
X7738333Y-9380714D01*
X7747857Y-9399762D01*
X7747857Y-9447381D01*
X7738333Y-9466429D01*
X7728809Y-9475952D01*
X7709762Y-9485476D01*
X7652619Y-9485476D01*
X7633571Y-9475952D01*
X7624048Y-9466429D01*
X7871667Y-9285476D02*
X7890714Y-9285476D01*
X7909762Y-9295000D01*
X7919286Y-9304524D01*
X7928809Y-9323571D01*
X7938333Y-9361667D01*
X7938333Y-9409286D01*
X7928809Y-9447381D01*
X7919286Y-9466429D01*
X7909762Y-9475952D01*
X7890714Y-9485476D01*
X7871667Y-9485476D01*
X7852619Y-9475952D01*
X7843095Y-9466429D01*
X7833571Y-9447381D01*
X7824048Y-9409286D01*
X7824048Y-9361667D01*
X7833571Y-9323571D01*
X7843095Y-9304524D01*
X7852619Y-9295000D01*
X7871667Y-9285476D01*
X8176428Y-9485476D02*
X8176428Y-9285476D01*
X8262143Y-9485476D02*
X8262143Y-9380714D01*
X8252619Y-9361667D01*
X8233571Y-9352143D01*
X8205000Y-9352143D01*
X8185952Y-9361667D01*
X8176428Y-9371190D01*
X8385952Y-9485476D02*
X8366905Y-9475952D01*
X8357381Y-9466429D01*
X8347857Y-9447381D01*
X8347857Y-9390238D01*
X8357381Y-9371190D01*
X8366905Y-9361667D01*
X8385952Y-9352143D01*
X8414524Y-9352143D01*
X8433571Y-9361667D01*
X8443095Y-9371190D01*
X8452619Y-9390238D01*
X8452619Y-9447381D01*
X8443095Y-9466429D01*
X8433571Y-9475952D01*
X8414524Y-9485476D01*
X8385952Y-9485476D01*
X8566905Y-9485476D02*
X8547857Y-9475952D01*
X8538333Y-9456905D01*
X8538333Y-9285476D01*
X8719286Y-9475952D02*
X8700238Y-9485476D01*
X8662143Y-9485476D01*
X8643095Y-9475952D01*
X8633571Y-9456905D01*
X8633571Y-9380714D01*
X8643095Y-9361667D01*
X8662143Y-9352143D01*
X8700238Y-9352143D01*
X8719286Y-9361667D01*
X8728810Y-9380714D01*
X8728810Y-9399762D01*
X8633571Y-9418810D01*
X8805000Y-9475952D02*
X8824048Y-9485476D01*
X8862143Y-9485476D01*
X8881190Y-9475952D01*
X8890714Y-9456905D01*
X8890714Y-9447381D01*
X8881190Y-9428333D01*
X8862143Y-9418810D01*
X8833571Y-9418810D01*
X8814524Y-9409286D01*
X8805000Y-9390238D01*
X8805000Y-9380714D01*
X8814524Y-9361667D01*
X8833571Y-9352143D01*
X8862143Y-9352143D01*
X8881190Y-9361667D01*
X8957381Y-9561667D02*
X8966905Y-9552143D01*
X8985952Y-9523571D01*
X8995476Y-9504524D01*
X9005000Y-9475952D01*
X9014524Y-9428333D01*
X9014524Y-9390238D01*
X9005000Y-9342619D01*
X8995476Y-9314048D01*
X8985952Y-9295000D01*
X8966905Y-9266429D01*
X8957381Y-9256905D01*
M02*
